<svg id="Lag_1" data-name="Lag 1" xmlns="http://www.w3.org/2000/svg" viewBox="0 0 1920 1080"><defs><style>.cls-1{fill:#c7b299;}.cls-2{fill:#fff;}</style></defs><rect class="cls-1" x="510" y="283" width="900" height="512"/><polygon class="cls-2" points="704 469 704 537 714 544 723 529 723 480 704 469"/><polygon class="cls-2" points="792 460 709 460 704.92 464.08 729 480 780.99 480 792 460"/><polygon class="cls-2" points="800 536 800 464 797 461 781 485 781 524.78 800 536"/><polygon class="cls-2" points="790 534 781 547.93 781 598 800 609.67 800 540.17 790 534"/><polygon class="cls-2" points="704 541.06 704 611.96 708 617 723 591.99 723 552.24 704 541.06"/><polygon class="cls-2" points="712.73 617 797 617 800 613.79 775 598 723 598 712.73 617"/><polygon class="cls-2" points="832.46 469.53 832.46 537.53 842.46 544.53 851.46 529.53 851.46 480.53 832.46 469.53"/><polygon class="cls-2" points="920.46 460.53 837.46 460.53 833.38 464.61 857.46 480.53 909.45 480.53 920.46 460.53"/><polygon class="cls-2" points="928.46 536.53 928.46 464.53 925.46 461.53 909.46 485.53 909.46 525.31 928.46 536.53"/><polygon class="cls-2" points="918.46 534.53 909.46 548.46 909.46 598.53 928.46 610.2 928.46 540.7 918.46 534.53"/><polygon class="cls-2" points="832.46 541.59 832.46 612.49 836.46 617.53 851.46 592.52 851.46 552.77 832.46 541.59"/><polygon class="cls-2" points="841.18 617.53 925.46 617.53 928.46 614.32 903.46 598.53 851.46 598.53 841.18 617.53"/><polygon class="cls-2" points="990.35 469.69 990.35 537.69 1000.35 544.69 1009.35 529.69 1009.35 480.69 990.35 469.69"/><polygon class="cls-2" points="1078.35 460.69 995.35 460.69 991.27 464.77 1015.35 480.69 1067.34 480.69 1078.35 460.69"/><polygon class="cls-2" points="1086.35 536.69 1086.35 464.69 1083.35 461.69 1067.35 485.69 1067.35 525.47 1086.35 536.69"/><polygon class="cls-2" points="1076.35 534.69 1067.35 548.62 1067.35 598.69 1086.35 610.36 1086.35 540.86 1076.35 534.69"/><polygon class="cls-2" points="990.35 541.75 990.35 612.65 994.35 617.69 1009.35 592.68 1009.35 552.93 990.35 541.75"/><polygon class="cls-2" points="999.08 617.69 1083.35 617.69 1086.35 614.49 1061.35 598.69 1009.35 598.69 999.08 617.69"/><polygon class="cls-2" points="1118.57 469.68 1118.57 537.68 1128.57 544.68 1137.57 529.68 1137.57 480.68 1118.57 469.68"/><polygon class="cls-2" points="1206.57 460.68 1123.57 460.68 1119.49 464.76 1143.57 480.68 1195.56 480.68 1206.57 460.68"/><polygon class="cls-2" points="1214.57 536.68 1214.57 464.68 1211.57 461.68 1195.57 485.68 1195.57 525.46 1214.57 536.68"/><polygon class="cls-2" points="1204.57 534.68 1195.57 548.62 1195.57 598.68 1214.57 610.36 1214.57 540.85 1204.57 534.68"/><polygon class="cls-2" points="1118.57 541.74 1118.57 612.64 1122.57 617.68 1137.57 592.68 1137.57 552.92 1118.57 541.74"/><polygon class="cls-2" points="1127.29 617.68 1211.57 617.68 1214.57 614.48 1189.57 598.68 1137.57 598.68 1127.29 617.68"/><circle class="cls-2" cx="960" cy="508" r="11"/><circle class="cls-2" cx="960" cy="573" r="11"/></svg>