<svg xmlns="http://www.w3.org/2000/svg" viewBox="0 0 1920 1080"><defs><style>.cls-1{fill:#c7b299;}.cls-2{fill:#fff;}</style></defs><g id="Lag_27" data-name="Lag 27"><rect class="cls-1" x="509.67" y="283.83" width="900" height="512"/><polygon class="cls-2" points="703.67 469.83 703.67 537.83 713.67 544.83 722.67 529.83 722.67 480.83 703.67 469.83"/><polygon class="cls-2" points="791.67 460.83 708.67 460.83 704.59 464.91 728.67 480.83 780.66 480.83 791.67 460.83"/><polygon class="cls-2" points="799.67 536.83 799.67 464.83 796.67 461.83 780.67 485.83 780.67 525.61 799.67 536.83"/><polygon class="cls-2" points="789.67 534.83 780.67 548.76 780.67 598.83 799.67 610.5 799.67 541 789.67 534.83"/><polygon class="cls-2" points="703.67 541.89 703.67 612.79 707.67 617.83 722.67 592.83 722.67 553.07 703.67 541.89"/><polygon class="cls-2" points="712.39 617.83 796.67 617.83 799.67 614.63 774.67 598.83 722.67 598.83 712.39 617.83"/><polygon class="cls-2" points="832.13 470.36 832.13 538.36 842.13 545.36 851.13 530.36 851.13 481.36 832.13 470.36"/><polygon class="cls-2" points="920.13 461.36 837.13 461.36 833.05 465.44 857.13 481.36 909.12 481.36 920.13 461.36"/><polygon class="cls-2" points="928.13 537.36 928.13 465.36 925.13 462.36 909.13 486.36 909.13 526.14 928.13 537.36"/><polygon class="cls-2" points="918.13 535.36 909.13 549.29 909.13 599.36 928.13 611.04 928.13 541.53 918.13 535.36"/><polygon class="cls-2" points="832.13 542.42 832.13 613.33 836.13 618.36 851.13 593.36 851.13 553.6 832.13 542.42"/><polygon class="cls-2" points="840.85 618.36 925.13 618.36 928.13 615.16 903.13 599.36 851.13 599.36 840.85 618.36"/><polygon class="cls-2" points="1078.02 461.52 995.02 461.52 990.94 465.6 1015.02 481.52 1067.01 481.52 1078.02 461.52"/><polygon class="cls-2" points="1086.02 537.52 1086.02 465.52 1083.02 462.52 1067.02 486.52 1067.02 526.3 1086.02 537.52"/><polygon class="cls-2" points="990.02 542.59 990.02 613.49 994.02 618.52 1009.02 593.52 1009.02 553.76 990.02 542.59"/><polygon class="cls-2" points="998.74 618.52 1083.02 618.52 1086.02 615.32 1061.02 599.52 1009.02 599.52 998.74 618.52"/><polygon class="cls-2" points="1013.02 530.52 1004.02 546.52 1010.02 550.52 1062.82 550.52 1073.54 535.52 1067.02 530.52 1013.02 530.52"/><polygon class="cls-2" points="1118.23 470.52 1118.23 538.52 1128.23 545.52 1137.23 530.52 1137.23 481.52 1118.23 470.52"/><polygon class="cls-2" points="1206.23 461.52 1123.23 461.52 1119.15 465.59 1143.23 481.52 1195.22 481.52 1206.23 461.52"/><polygon class="cls-2" points="1204.23 535.52 1195.23 549.45 1195.23 599.52 1214.23 611.19 1214.23 541.68 1204.23 535.52"/><polygon class="cls-2" points="1118.23 542.58 1118.23 613.48 1122.23 618.52 1137.23 593.51 1137.23 553.75 1118.23 542.58"/><polygon class="cls-2" points="1126.96 618.52 1211.23 618.52 1214.23 615.31 1189.23 599.52 1137.23 599.52 1126.96 618.52"/><polygon class="cls-2" points="1141.23 530.52 1132.23 546.52 1138.23 550.52 1191.03 550.52 1201.75 535.52 1195.23 530.52 1141.23 530.52"/><circle class="cls-2" cx="959.67" cy="508.83" r="11"/><circle class="cls-2" cx="959.67" cy="573.83" r="11"/></g></svg>