<svg id="Layer_1" data-name="Layer 1" xmlns="http://www.w3.org/2000/svg" width="459.97" height="133.49" viewBox="0 0 459.97 133.49"><defs><style>.cls-1{fill:red;}.cls-1,.cls-2{stroke:#000;stroke-miterlimit:10;}.cls-2{fill:none;}</style></defs><path class="cls-1" d="M11.33,57.63l48,75,60.17-75S160.67-5,119.5,5.8s-44.94,32-44.94,32S46-.55,26.17,4.54L6.33,9.63S-9.67,24.63,11.33,57.63Z"/><path class="cls-1" d="M172.09,57.35l48,75,60.17-75s41.17-62.67,0-51.84-44.94,32-44.94,32S206.76-.84,186.93,4.26L167.09,9.35S151.09,24.35,172.09,57.35Z"/><path class="cls-2" d="M333,54.06l48,75,60.17-75s41.16-62.67,0-51.84-44.94,32-44.94,32S367.68-4.13,347.84,1L328,6.06S312,21.06,333,54.06Z"/></svg>