<svg xmlns="http://www.w3.org/2000/svg" xmlns:xlink="http://www.w3.org/1999/xlink" width="538" height="413" viewBox="0 0 538 413"><defs><style>.cls-1{fill:#d1d1da;}.cls-1,.cls-2{stroke:#000;stroke-miterlimit:10;}.cls-2{fill:#fffdd0;}.cls-3{opacity:0.5;}.cls-4{fill:url(#radial-gradient);}.cls-5{fill:url(#radial-gradient-2);}.cls-6{fill:url(#radial-gradient-3);}.cls-7{fill:url(#radial-gradient-4);}.cls-8{fill:url(#radial-gradient-5);}.cls-9{fill:url(#radial-gradient-6);}.cls-10{fill:url(#radial-gradient-7);}.cls-11{fill:url(#radial-gradient-8);}.cls-12{fill:url(#radial-gradient-9);}.cls-13{fill:url(#radial-gradient-10);}</style><radialGradient id="radial-gradient" cx="802.94" cy="1629.42" r="171.28" gradientTransform="translate(13.25 -201.84) scale(0.15 0.15)" gradientUnits="userSpaceOnUse"><stop offset="0" stop-color="#fff" stop-opacity="0"/><stop offset="0.87" stop-color="#fff" stop-opacity="0.05"/><stop offset="1" stop-color="#fff"/></radialGradient><radialGradient id="radial-gradient-2" cx="1010.36" cy="1679.72" r="95.18" xlink:href="#radial-gradient"/><radialGradient id="radial-gradient-3" cx="515.2" cy="1586.29" r="171.28" xlink:href="#radial-gradient"/><radialGradient id="radial-gradient-4" cx="343.32" cy="3570.16" r="115.76" xlink:href="#radial-gradient"/><radialGradient id="radial-gradient-5" cx="508.38" cy="3603.53" r="88.25" xlink:href="#radial-gradient"/><radialGradient id="radial-gradient-6" cx="508.38" cy="3590.18" r="40.11" xlink:href="#radial-gradient"/><radialGradient id="radial-gradient-7" cx="659.68" cy="3643.57" r="88.25" xlink:href="#radial-gradient"/><radialGradient id="radial-gradient-8" cx="2722.38" cy="3538.32" r="171.28" xlink:href="#radial-gradient"/><radialGradient id="radial-gradient-9" cx="2983.71" cy="3478.26" r="110.9" xlink:href="#radial-gradient"/><radialGradient id="radial-gradient-10" cx="2529.81" cy="3478.26" r="123.11" xlink:href="#radial-gradient"/></defs><g id="Layer_3" data-name="Layer 3"><rect class="cls-1" x="-0.5" y="-0.5" width="538" height="416"/></g><g id="Layer_1" data-name="Layer 1"><g id="Layer_16" data-name="Layer 16"><path class="cls-2" d="M140.5,70.5s175-59,239-36l64,23s41,6,49,42a204.14,204.14,0,0,1,3,68s16,68,22,81,20,54-65,54-113-4-184,12-165,29-189,13-39-39-31-89,2-72,2-72-35-54,1-82,48-22,48-22Z"/></g><g id="Layer_14" data-name="Layer 14"><path d="M221.5,173.41h-1.77c.25-2.4.37-4.21.37-5.44a5.86,5.86,0,0,0-1.41-4.15,5,5,0,0,0-3.84-1.52A9.08,9.08,0,0,0,208.3,165a8.32,8.32,0,0,0-2.79,6.1,6.91,6.91,0,0,0,.77,3.29,19.87,19.87,0,0,0,3.39,4.1,38.72,38.72,0,0,1,6.3,7.39,10.58,10.58,0,0,1,1.5,5.2,12.92,12.92,0,0,1-2.27,7.18,17,17,0,0,1-6.7,5.7,20.48,20.48,0,0,1-9.35,2.24,13.23,13.23,0,0,1-8.19-2.53c-2.22-1.69-3.33-3.46-3.33-5.33a3.64,3.64,0,0,1,.87-2.5,2.61,2.61,0,0,1,2-1,2.38,2.38,0,0,1,1.92.92,6.63,6.63,0,0,1,1,2.46,9.27,9.27,0,0,0,1.34,3.37,5.71,5.71,0,0,0,2.17,1.71,6.92,6.92,0,0,0,3,.67,12.37,12.37,0,0,0,8.55-3.3c2.44-2.21,3.65-4.64,3.65-7.31a8.31,8.31,0,0,0-.46-2.72,12,12,0,0,0-1.69-3.06,45.94,45.94,0,0,0-3.79-4.1,38.87,38.87,0,0,1-3.66-3.94,12,12,0,0,1-1.57-3.09,9.91,9.91,0,0,1-.51-3.1,11.29,11.29,0,0,1,2.08-6.26,15.42,15.42,0,0,1,5.42-5,15.25,15.25,0,0,1,7.57-1.86,26,26,0,0,1,5.23.65c1.18.22,2.21.39,3.07.51a37.78,37.78,0,0,0-1.16,4.19Q222.23,167.57,221.5,173.41Z"/><path d="M241.43,172.41a7,7,0,0,1,5.57,2.67q2.22,2.67,2.22,7.42a20,20,0,0,1-5.33,13.62q-5.32,6-11.28,6a7.69,7.69,0,0,1-5.89-2.39,9.15,9.15,0,0,1-2.24-6.53,23.25,23.25,0,0,1,4.1-13.26Q233.74,172.41,241.43,172.41Zm-2.9,2.57q-2.91,0-5.63,4.15t-2.71,11.47a12.63,12.63,0,0,0,1.67,7,3.74,3.74,0,0,0,3.28,1.88q2.88,0,5.23-3.55a20.51,20.51,0,0,0,3-11.45q0-5.13-1.38-7.31A4.05,4.05,0,0,0,238.53,175Z"/><path d="M275.78,171.83l2.26-.48L275.47,180q-1.53,5.16-2.9,11.9a31.54,31.54,0,0,0-.75,4.71c0,.71.28,1.06.85,1.06a4.1,4.1,0,0,0,1.74-.71,22.71,22.71,0,0,0,4.07-3.15l1.1,1.33c-2.6,2.37-4.27,3.81-5,4.31a18.93,18.93,0,0,1-4.17,2.22,7.3,7.3,0,0,1-2.53.48,1.94,1.94,0,0,1-1.34-.41,1.56,1.56,0,0,1-.44-1.2,5.22,5.22,0,0,1,.27-1.4l1.37-4.65a28.84,28.84,0,0,1-7,6,8.75,8.75,0,0,1-4.58,1.58,3.58,3.58,0,0,1-3-1.41,7.86,7.86,0,0,1-1.43-4.92,20.42,20.42,0,0,1,1.93-8.06,29.7,29.7,0,0,1,5.17-8.07,22.2,22.2,0,0,1,6.84-5.33,16.76,16.76,0,0,1,7.11-1.3,18.64,18.64,0,0,1,2.22.14Zm-4.24,5.23a16,16,0,0,0-3.11-.37,8.74,8.74,0,0,0-5.36,1.69c-1.53,1.13-2.95,3.15-4.26,6.08a21.32,21.32,0,0,0-2,8.77,5.6,5.6,0,0,0,.78,3.35,2.48,2.48,0,0,0,2.05,1c1.58,0,3.26-.84,5.06-2.54a15.2,15.2,0,0,0,4-7.33Z"/><path d="M282.38,180.89l-1.33-1.37a24,24,0,0,1,6.18-5.5,11.16,11.16,0,0,1,5.33-1.78,2,2,0,0,1,1.35.43,1.57,1.57,0,0,1,.5,1.25,9.55,9.55,0,0,1-.22,2c-.15.7-.61,2.34-1.39,4.94a57.65,57.65,0,0,1,7.15-6.46,11,11,0,0,1,5.88-2.08,3.53,3.53,0,0,1,2.94,1.64,8.44,8.44,0,0,1,1.19,4.95,27.18,27.18,0,0,1-5.16,15.73q-5.15,7.44-11.4,7.45a10.24,10.24,0,0,1-4.92-1.34l-2.92,11.28a6.54,6.54,0,0,0-.28,1.68,1.93,1.93,0,0,0,1,1.81q1.47.85,6.19,1.4l-.45,1.71q-5.5-.45-8.64-.45t-8.41.45l.44-1.71a6.17,6.17,0,0,0,3.78-1.44,8.78,8.78,0,0,0,1.9-4.13l6.18-25.94c1.16-4.83,1.75-7.52,1.75-8.07a.78.78,0,0,0-.86-.89C287.12,176.48,285.2,178,282.38,180.89ZM289.3,197a7.88,7.88,0,0,0,5.53,2.7q4.1,0,7.19-6.39a28.55,28.55,0,0,0,3.09-12.47,4.41,4.41,0,0,0-.87-3,2.94,2.94,0,0,0-2.34-1,6.24,6.24,0,0,0-3.68,1.61,22.56,22.56,0,0,0-4.84,4.95,20.53,20.53,0,0,0-2.26,6.16Z"/></g><g id="Layer_13" data-name="Layer 13"><g class="cls-3"><ellipse class="cls-4" cx="130" cy="42.33" rx="24.91" ry="25.67"/></g></g><g id="Layer_12" data-name="Layer 12"><g class="cls-3"><ellipse class="cls-5" cx="160.16" cy="49.87" rx="13.84" ry="14.26"/></g></g><g id="Layer_11" data-name="Layer 11"><g class="cls-3"><ellipse class="cls-6" cx="88.16" cy="35.87" rx="24.91" ry="25.67"/></g></g><g id="Layer_10" data-name="Layer 10"><g class="cls-3"><ellipse class="cls-7" cx="63.17" cy="333.15" rx="16.83" ry="17.35"/></g></g><g id="Layer_9" data-name="Layer 9"><g class="cls-3"><ellipse class="cls-8" cx="87.17" cy="338.15" rx="12.83" ry="13.22"/></g></g><g id="Layer_8" data-name="Layer 8"><g class="cls-3"><ellipse class="cls-9" cx="87.17" cy="336.15" rx="5.83" ry="6.01"/></g></g><g id="Layer_7" data-name="Layer 7"><g class="cls-3"><ellipse class="cls-10" cx="109.17" cy="344.15" rx="12.83" ry="13.22"/></g></g><g id="Layer_6" data-name="Layer 6"><g class="cls-3"><ellipse class="cls-11" cx="409.1" cy="328.38" rx="24.91" ry="25.67"/></g></g><g id="Layer_5" data-name="Layer 5"><g class="cls-3"><ellipse class="cls-12" cx="447.1" cy="319.38" rx="16.13" ry="16.62"/></g></g><g id="Layer_4" data-name="Layer 4"><g class="cls-3"><ellipse class="cls-13" cx="381.1" cy="319.38" rx="17.9" ry="18.45"/></g></g></g></svg>