<svg xmlns="http://www.w3.org/2000/svg" xmlns:xlink="http://www.w3.org/1999/xlink" width="1920" height="1080" viewBox="0 0 1920 1080"><defs><style>.cls-1{fill:#6eadd9;}.cls-2,.cls-5{fill:#ffdbac;}.cls-3{fill:gray;}.cls-4{fill:#d3d3d3;}.cls-5{stroke-miterlimit:10;stroke:url(#linear-gradient);}.cls-6{opacity:0.5;}.cls-7{fill:url(#radial-gradient);}.cls-8{fill:url(#radial-gradient-2);}.cls-9{fill:url(#radial-gradient-3);}.cls-10{fill:url(#radial-gradient-4);}.cls-11{fill:url(#radial-gradient-5);}.cls-12{fill:url(#radial-gradient-6);}.cls-13{fill:url(#radial-gradient-7);}.cls-14{fill:url(#radial-gradient-8);}.cls-15{fill:url(#radial-gradient-9);}.cls-16{fill:url(#radial-gradient-10);}.cls-17{fill:url(#radial-gradient-11);}.cls-18{fill:url(#radial-gradient-12);}.cls-19{fill:url(#radial-gradient-13);}.cls-20{fill:url(#radial-gradient-14);}.cls-21{fill:url(#radial-gradient-15);}.cls-22{fill:url(#radial-gradient-16);}.cls-23{fill:url(#radial-gradient-17);}.cls-24{fill:url(#radial-gradient-18);}.cls-25{fill:url(#radial-gradient-19);}.cls-26{fill:url(#radial-gradient-20);}.cls-27{fill:url(#radial-gradient-21);}.cls-28{fill:url(#radial-gradient-22);}.cls-29{fill:url(#radial-gradient-23);}.cls-30{fill:url(#radial-gradient-24);}.cls-31{fill:url(#radial-gradient-25);}.cls-32{fill:url(#radial-gradient-26);}.cls-33{fill:url(#radial-gradient-27);}.cls-34{fill:url(#radial-gradient-28);}.cls-35{fill:url(#radial-gradient-29);}.cls-36{fill:url(#radial-gradient-30);}.cls-37{fill:url(#radial-gradient-31);}.cls-38{fill:url(#radial-gradient-32);}.cls-39{fill:url(#radial-gradient-33);}.cls-40{fill:url(#radial-gradient-34);}.cls-41{fill:url(#radial-gradient-35);}.cls-42{fill:url(#radial-gradient-36);}.cls-43{fill:url(#radial-gradient-37);}.cls-44{fill:url(#radial-gradient-38);}.cls-45{fill:url(#radial-gradient-39);}.cls-46{fill:url(#radial-gradient-40);}.cls-47{fill:url(#radial-gradient-41);}.cls-48{fill:url(#radial-gradient-42);}.cls-49{fill:url(#radial-gradient-43);}.cls-50{fill:url(#radial-gradient-44);}.cls-51{fill:url(#radial-gradient-45);}.cls-52{fill:url(#radial-gradient-46);}.cls-53{fill:url(#radial-gradient-47);}.cls-54{fill:url(#radial-gradient-48);}.cls-55{fill:url(#radial-gradient-49);}.cls-56{fill:url(#radial-gradient-50);}.cls-57{fill:url(#radial-gradient-51);}.cls-58{fill:url(#radial-gradient-52);}.cls-59{fill:#789;}.cls-60{fill:#2e34ff;}.cls-61{fill:#e6e6e6;}.cls-62{fill:#fff;}.cls-63{fill:#b3b3b3;}.cls-64{fill:url(#linear-gradient-2);}.cls-65{fill:#8b4513;}.cls-66{fill:#af5b23;}.cls-67{fill:#f0ff2e;}.cls-68{fill:#c7b299;}.cls-69{fill:#ccc;}</style><linearGradient id="linear-gradient" x1="652.55" y1="856.29" x2="719.95" y2="856.29" gradientTransform="translate(37.78 -20.66) rotate(2.48)" gradientUnits="userSpaceOnUse"><stop offset="0" stop-color="#e0ac69"/><stop offset="1" stop-color="#ffdbac"/></linearGradient><radialGradient id="radial-gradient" cx="-1767.35" cy="5475.55" r="126.28" gradientTransform="matrix(0, 0.15, -0.15, 0, 1087.76, 1117.38)" gradientUnits="userSpaceOnUse"><stop offset="0" stop-color="#fff" stop-opacity="0"/><stop offset="0.87" stop-color="#fff" stop-opacity="0.05"/><stop offset="1" stop-color="#fff"/></radialGradient><radialGradient id="radial-gradient-2" cx="-1684.83" cy="5488.9" r="126.28" gradientTransform="matrix(0, 0.15, -0.15, 0, 1101.66, 1107.9)" xlink:href="#radial-gradient"/><radialGradient id="radial-gradient-3" cx="-1533.53" cy="5488.9" r="126.28" gradientTransform="matrix(0, 0.15, -0.15, 0, 1123.64, 1086.85)" xlink:href="#radial-gradient"/><radialGradient id="radial-gradient-4" cx="-1320.33" cy="5488.9" r="126.28" gradientTransform="matrix(0, 0.15, -0.15, 0, 1154.61, 1057.19)" xlink:href="#radial-gradient"/><radialGradient id="radial-gradient-5" cx="-1148.4" cy="5462.21" r="126.28" gradientTransform="matrix(0, 0.15, -0.15, 0, 1175.76, 1029.27)" xlink:href="#radial-gradient"/><radialGradient id="radial-gradient-6" cx="-1031.49" cy="5488.9" r="126.28" gradientTransform="matrix(0, 0.15, -0.15, 0, 1196.57, 1017)" xlink:href="#radial-gradient"/><radialGradient id="radial-gradient-7" cx="-880.19" cy="5488.9" r="126.28" gradientTransform="matrix(0, 0.15, -0.15, 0, 1218.55, 995.95)" xlink:href="#radial-gradient"/><radialGradient id="radial-gradient-8" cx="-666.99" cy="5488.9" r="126.28" gradientTransform="matrix(0, 0.15, -0.15, 0, 1249.52, 966.29)" xlink:href="#radial-gradient"/><radialGradient id="radial-gradient-9" cx="-495.06" cy="5462.21" r="126.28" gradientTransform="matrix(0, 0.15, -0.15, 0, 1270.67, 938.37)" xlink:href="#radial-gradient"/><radialGradient id="radial-gradient-10" cx="-467.55" cy="5468.88" r="126.28" gradientTransform="matrix(0, 0.15, -0.15, 0, 1275.63, 935.54)" xlink:href="#radial-gradient"/><radialGradient id="radial-gradient-11" cx="-316.25" cy="5468.88" r="126.28" gradientTransform="matrix(0, 0.15, -0.15, 0, 1297.61, 914.49)" xlink:href="#radial-gradient"/><radialGradient id="radial-gradient-12" cx="-103.06" cy="5468.88" r="126.28" gradientTransform="matrix(0, 0.15, -0.15, 0, 1328.58, 884.83)" xlink:href="#radial-gradient"/><radialGradient id="radial-gradient-13" cx="68.87" cy="5442.19" r="126.28" gradientTransform="matrix(0, 0.15, -0.15, 0, 1349.73, 856.92)" xlink:href="#radial-gradient"/><radialGradient id="radial-gradient-14" cx="30.42" cy="5456.42" r="126.28" gradientTransform="matrix(0, 0.15, -0.15, 0, 1346.18, 864.4)" xlink:href="#radial-gradient"/><radialGradient id="radial-gradient-15" cx="202.35" cy="5429.73" r="126.28" gradientTransform="matrix(0, 0.15, -0.15, 0, 1367.33, 836.48)" xlink:href="#radial-gradient"/><radialGradient id="radial-gradient-16" cx="229.86" cy="5436.4" r="126.28" gradientTransform="matrix(0, 0.15, -0.15, 0, 1372.28, 833.65)" xlink:href="#radial-gradient"/><radialGradient id="radial-gradient-17" cx="381.16" cy="5436.4" r="126.28" gradientTransform="matrix(0, 0.15, -0.15, 0, 1394.26, 812.6)" xlink:href="#radial-gradient"/><radialGradient id="radial-gradient-18" cx="594.35" cy="5436.4" r="126.28" gradientTransform="matrix(0, 0.15, -0.15, 0, 1425.24, 782.94)" xlink:href="#radial-gradient"/><radialGradient id="radial-gradient-19" cx="766.28" cy="5409.71" r="126.28" gradientTransform="matrix(0, 0.15, -0.15, 0, 1446.38, 755.03)" xlink:href="#radial-gradient"/><radialGradient id="radial-gradient-20" cx="608.1" cy="5436.4" r="126.28" gradientTransform="matrix(0, 0.15, -0.15, 0, 1427.23, 781.03)" xlink:href="#radial-gradient"/><radialGradient id="radial-gradient-21" cx="780.04" cy="5409.71" r="126.28" gradientTransform="matrix(0, 0.15, -0.15, 0, 1448.38, 753.11)" xlink:href="#radial-gradient"/><radialGradient id="radial-gradient-22" cx="807.54" cy="5416.38" r="126.28" gradientTransform="matrix(0, 0.15, -0.15, 0, 1453.34, 750.28)" xlink:href="#radial-gradient"/><radialGradient id="radial-gradient-23" cx="958.84" cy="5416.38" r="126.28" gradientTransform="matrix(0, 0.15, -0.15, 0, 1475.32, 729.23)" xlink:href="#radial-gradient"/><radialGradient id="radial-gradient-24" cx="1172.04" cy="5416.38" r="126.28" gradientTransform="matrix(0, 0.15, -0.15, 0, 1506.29, 699.57)" xlink:href="#radial-gradient"/><radialGradient id="radial-gradient-25" cx="1343.97" cy="5389.69" r="126.28" gradientTransform="matrix(0, 0.15, -0.15, 0, 1527.44, 671.66)" xlink:href="#radial-gradient"/><radialGradient id="radial-gradient-26" cx="-664.19" cy="5369.67" r="126.28" gradientTransform="matrix(0, 0.15, -0.15, 0, 1232.84, 948.05)" xlink:href="#radial-gradient"/><radialGradient id="radial-gradient-27" cx="-492.25" cy="5342.98" r="126.28" gradientTransform="matrix(0, 0.15, -0.15, 0, 1253.99, 920.13)" xlink:href="#radial-gradient"/><radialGradient id="radial-gradient-28" cx="-464.75" cy="5349.65" r="126.28" gradientTransform="matrix(0, 0.15, -0.15, 0, 1258.94, 917.3)" xlink:href="#radial-gradient"/><radialGradient id="radial-gradient-29" cx="-313.45" cy="5349.65" r="126.28" gradientTransform="matrix(0, 0.15, -0.15, 0, 1280.92, 896.25)" xlink:href="#radial-gradient"/><radialGradient id="radial-gradient-30" cx="-100.25" cy="5349.65" r="126.28" gradientTransform="matrix(0, 0.15, -0.15, 0, 1311.89, 866.59)" xlink:href="#radial-gradient"/><radialGradient id="radial-gradient-31" cx="71.68" cy="5322.96" r="126.28" gradientTransform="matrix(0, 0.15, -0.15, 0, 1333.04, 838.68)" xlink:href="#radial-gradient"/><radialGradient id="radial-gradient-32" cx="-1303.77" cy="5396.36" r="126.28" gradientTransform="matrix(0, 0.15, -0.15, 0, 1143.75, 1041.03)" xlink:href="#radial-gradient"/><radialGradient id="radial-gradient-33" cx="-1131.84" cy="5369.67" r="126.28" gradientTransform="matrix(0, 0.15, -0.15, 0, 1164.9, 1013.11)" xlink:href="#radial-gradient"/><radialGradient id="radial-gradient-34" cx="-1104.33" cy="5376.34" r="126.28" gradientTransform="matrix(0, 0.15, -0.15, 0, 1169.85, 1010.28)" xlink:href="#radial-gradient"/><radialGradient id="radial-gradient-35" cx="-953.03" cy="5376.34" r="126.28" gradientTransform="matrix(0, 0.15, -0.15, 0, 1191.83, 989.23)" xlink:href="#radial-gradient"/><radialGradient id="radial-gradient-36" cx="-739.83" cy="5376.34" r="126.28" gradientTransform="matrix(0, 0.15, -0.15, 0, 1222.8, 959.57)" xlink:href="#radial-gradient"/><radialGradient id="radial-gradient-37" cx="-567.9" cy="5349.65" r="126.28" gradientTransform="matrix(0, 0.15, -0.15, 0, 1243.95, 931.66)" xlink:href="#radial-gradient"/><radialGradient id="radial-gradient-38" cx="-2025.88" cy="5356.32" r="126.28" gradientTransform="matrix(0, 0.15, -0.15, 0, 1033.11, 1135.5)" xlink:href="#radial-gradient"/><radialGradient id="radial-gradient-39" cx="-1853.95" cy="5329.63" r="126.28" gradientTransform="matrix(0, 0.15, -0.15, 0, 1054.26, 1107.58)" xlink:href="#radial-gradient"/><radialGradient id="radial-gradient-40" cx="-1826.44" cy="5336.3" r="126.28" gradientTransform="matrix(0, 0.15, -0.15, 0, 1059.21, 1104.75)" xlink:href="#radial-gradient"/><radialGradient id="radial-gradient-41" cx="-1675.14" cy="5336.3" r="126.28" gradientTransform="matrix(0, 0.15, -0.15, 0, 1081.19, 1083.7)" xlink:href="#radial-gradient"/><radialGradient id="radial-gradient-42" cx="-1461.95" cy="5336.3" r="126.28" gradientTransform="matrix(0, 0.15, -0.15, 0, 1112.16, 1054.04)" xlink:href="#radial-gradient"/><radialGradient id="radial-gradient-43" cx="-1290.01" cy="5309.61" r="126.28" gradientTransform="matrix(0, 0.15, -0.15, 0, 1133.31, 1026.13)" xlink:href="#radial-gradient"/><radialGradient id="radial-gradient-44" cx="-2442.24" cy="5207.41" r="126.28" gradientTransform="translate(528.11 42.43) scale(0.15 0.15)" xlink:href="#radial-gradient"/><radialGradient id="radial-gradient-45" cx="-2294.85" cy="5379.5" r="126.28" gradientTransform="translate(530.01 40.73) scale(0.15 0.15)" xlink:href="#radial-gradient"/><radialGradient id="radial-gradient-46" cx="-2267.34" cy="5386.17" r="126.28" gradientTransform="translate(530.07 40.42) scale(0.15 0.15)" xlink:href="#radial-gradient"/><radialGradient id="radial-gradient-47" cx="-2116.04" cy="5386.17" r="126.28" gradientTransform="translate(530.01 38.75) scale(0.15 0.15)" xlink:href="#radial-gradient"/><radialGradient id="radial-gradient-48" cx="-1902.84" cy="5386.17" r="126.28" gradientTransform="translate(529.92 36.4) scale(0.15 0.15)" xlink:href="#radial-gradient"/><radialGradient id="radial-gradient-49" cx="-1730.91" cy="5359.48" r="126.28" gradientTransform="translate(529.54 34.51) scale(0.15 0.15)" xlink:href="#radial-gradient"/><radialGradient id="radial-gradient-50" cx="-2303.78" cy="5502.25" r="126.28" gradientTransform="matrix(0, 0.15, -0.15, 0, 1013.66, 1196.01)" xlink:href="#radial-gradient"/><radialGradient id="radial-gradient-51" cx="-2152.48" cy="5502.25" r="126.28" gradientTransform="matrix(0, 0.15, -0.15, 0, 1035.64, 1174.96)" xlink:href="#radial-gradient"/><radialGradient id="radial-gradient-52" cx="-1939.28" cy="5502.25" r="126.28" gradientTransform="matrix(0, 0.15, -0.15, 0, 1066.61, 1145.3)" xlink:href="#radial-gradient"/><linearGradient id="linear-gradient-2" x1="686.88" y1="820.45" x2="693.13" y2="820.45" gradientTransform="translate(37.78 -20.66) rotate(2.48)" gradientUnits="userSpaceOnUse"><stop offset="0" stop-color="#e0ac69"/><stop offset="0.64" stop-color="#ffdbac"/></linearGradient></defs><g id="Blue_background" data-name="Blue background"><g id="Layer_4" data-name="Layer 4"><g id="Layer_2" data-name="Layer 2"><rect class="cls-1" width="1920" height="1080"/></g></g></g><g id="Character"><ellipse class="cls-2" cx="693.3" cy="829.53" rx="25.73" ry="43.5" transform="translate(-165.39 1486.36) rotate(-87.52)"/><g id="Layer_44" data-name="Layer 44"><circle cx="706.53" cy="824.6" r="2.5"/></g><g id="Layer_43" data-name="Layer 43"><circle cx="676.56" cy="823.3" r="2.5"/></g><g id="Layer_42" data-name="Layer 42"><path class="cls-3" d="M670.72,820s7.26-5.16,10.11-1.12.49,1.31.49,1.31l-3.22-1.61-3,.37Z"/></g><g id="Layer_40" data-name="Layer 40"><path class="cls-3" d="M712.9,822.86s-5.58-6.94-9.42-3.83-.83,1.13-.83,1.13l3.54-.68,2.76,1.17Z"/></g><g id="Layer_38" data-name="Layer 38"><ellipse class="cls-4" cx="655.94" cy="813.9" rx="4" ry="4.5" transform="translate(-185.53 1434.08) rotate(-87.52)"/></g><g id="Layer_37" data-name="Layer 37"><ellipse class="cls-4" cx="660.55" cy="810.63" rx="5.26" ry="4.67" transform="translate(-374.18 659.68) rotate(-42.52)"/></g><g id="Layer_36" data-name="Layer 36"><ellipse class="cls-4" cx="664.28" cy="806.25" rx="4" ry="4.5" transform="translate(-169.91 1435.1) rotate(-87.52)"/></g><g id="Layer_35" data-name="Layer 35"><ellipse class="cls-4" cx="670.36" cy="804.52" rx="4" ry="4.5" transform="translate(-162.35 1439.51) rotate(-87.52)"/></g><g id="Layer_34" data-name="Layer 34"><ellipse class="cls-4" cx="677.44" cy="802.82" rx="4" ry="4.5" transform="translate(-153.88 1444.96) rotate(-87.52)"/></g><g id="Layer_33" data-name="Layer 33"><ellipse class="cls-4" cx="683.44" cy="803.08" rx="4" ry="4.5" transform="translate(-148.41 1451.2) rotate(-87.52)"/></g><g id="Layer_32" data-name="Layer 32"><ellipse class="cls-4" cx="689.43" cy="803.34" rx="4" ry="4.5" transform="translate(-142.93 1457.43) rotate(-87.52)"/></g><g id="Layer_31" data-name="Layer 31"><ellipse class="cls-4" cx="697.42" cy="803.68" rx="4" ry="4.5" transform="translate(-135.63 1465.75) rotate(-87.52)"/></g><g id="Layer_30" data-name="Layer 30"><ellipse class="cls-4" cx="703.42" cy="803.94" rx="4" ry="4.5" transform="translate(-130.15 1471.99) rotate(-87.52)"/></g><g id="Layer_28" data-name="Layer 28"><ellipse class="cls-4" cx="709.41" cy="804.2" rx="4" ry="4.5" transform="translate(-124.68 1478.22) rotate(-87.52)"/></g><g id="Layer_27" data-name="Layer 27"><ellipse class="cls-4" cx="714.32" cy="806.42" rx="4" ry="4.5" transform="translate(-122.19 1485.24) rotate(-87.52)"/></g><g id="Layer_26" data-name="Layer 26"><ellipse class="cls-4" cx="720.27" cy="807.67" rx="4" ry="4.5" transform="translate(-117.75 1492.39) rotate(-87.52)"/></g><g id="Layer_25" data-name="Layer 25"><ellipse class="cls-4" cx="726.14" cy="810.93" rx="4" ry="4.5" transform="translate(-115.4 1501.37) rotate(-87.52)"/></g><g id="Layer_24" data-name="Layer 24"><ellipse class="cls-4" cx="730.96" cy="815.14" rx="4" ry="4.5" transform="translate(-114.99 1510.22) rotate(-87.52)"/></g><g id="Layer_23" data-name="Layer 23"><ellipse class="cls-4" cx="735.78" cy="819.35" rx="4" ry="4.5" transform="translate(-114.58 1519.07) rotate(-87.52)"/></g><g id="Layer_22" data-name="Layer 22"><ellipse class="cls-4" cx="651.32" cy="818.21" rx="4.5" ry="5.06" transform="translate(-194.25 1433.58) rotate(-87.52)"/></g><g id="Layer_21" data-name="Layer 21"><ellipse class="cls-4" cx="737.52" cy="825.44" rx="4" ry="4.5" transform="translate(-118.99 1526.62) rotate(-87.52)"/></g><g id="Layer_20" data-name="Layer 20"><ellipse class="cls-4" cx="737.31" cy="830.43" rx="4" ry="4.5" transform="translate(-124.19 1531.19) rotate(-87.52)"/></g><path d="M683.73,831.12a6.87,6.87,0,0,0,8.22,3.36c5.65-1.76,4.75-2.46,4.75-2.46l-3.78,1.5a19.88,19.88,0,0,1-3.76.84,9,9,0,0,1-2.74-1.12l-2.69-2.12"/><path class="cls-5" d="M713.82,852.8s7.63,8.73,5.19,18.76l-2.43,10-30.81-2-33.08-2.12s-.48-11.93,4.85-19.59S664,847.71,664,847.71Z"/></g><g id="Layer_58" data-name="Layer 58"><g id="Layer_47" data-name="Layer 47"><g id="Layer_15" data-name="Layer 15"><g id="Layer_9" data-name="Layer 9"><g class="cls-6"><ellipse class="cls-7" cx="267.25" cy="860.4" rx="18.92" ry="18.36" transform="translate(-603.89 1090.24) rotate(-87.52)"/></g></g><g class="cls-6"><ellipse class="cls-8" cx="279.15" cy="862.91" rx="18.92" ry="18.36" transform="translate(-595.01 1104.54) rotate(-87.52)"/></g><g class="cls-6"><ellipse class="cls-9" cx="301.13" cy="863.86" rx="18.92" ry="18.36" transform="translate(-574.93 1127.4) rotate(-87.52)"/></g><g class="cls-6"><ellipse class="cls-10" cx="332.1" cy="865.2" rx="18.92" ry="18.36" transform="translate(-546.63 1159.63) rotate(-87.52)"/></g><g class="cls-6"><ellipse class="cls-11" cx="357.25" cy="862.28" rx="18.92" ry="18.36" transform="matrix(0.04, -1, 1, 0.04, -519.66, 1181.96)"/></g><g class="cls-6"><ellipse class="cls-12" cx="374.06" cy="867.01" rx="18.92" ry="18.36" transform="translate(-508.3 1203.29) rotate(-87.52)"/></g><g class="cls-6"><ellipse class="cls-13" cx="396.04" cy="867.96" rx="18.92" ry="18.36" transform="translate(-488.22 1226.15) rotate(-87.52)"/></g><g class="cls-6"><ellipse class="cls-14" cx="427.01" cy="869.3" rx="18.92" ry="18.36" transform="translate(-459.92 1258.38) rotate(-87.52)"/></g><g class="cls-6"><ellipse class="cls-15" cx="452.16" cy="866.39" rx="18.92" ry="18.36" transform="translate(-432.94 1280.71) rotate(-87.52)"/></g><g class="cls-6"><ellipse class="cls-16" cx="456.12" cy="867.56" rx="18.92" ry="18.36" transform="translate(-430.33 1285.78) rotate(-87.52)"/></g><g class="cls-6"><ellipse class="cls-17" cx="478.09" cy="868.51" rx="18.92" ry="18.36" transform="matrix(0.04, -1, 1, 0.04, -410.25, 1308.65)"/></g><g class="cls-6"><ellipse class="cls-18" cx="509.07" cy="869.85" rx="18.92" ry="18.36" transform="translate(-381.95 1340.87) rotate(-87.52)"/></g><g class="cls-6"><ellipse class="cls-19" cx="534.22" cy="866.93" rx="18.92" ry="18.36" transform="translate(-354.98 1363.21) rotate(-87.52)"/></g><g class="cls-6"><ellipse class="cls-20" cx="528.54" cy="868.82" rx="18.92" ry="18.36" transform="translate(-362.3 1359.34) rotate(-87.52)"/></g><g class="cls-6"><ellipse class="cls-21" cx="553.69" cy="865.9" rx="18.92" ry="18.36" transform="matrix(0.04, -1, 1, 0.04, -335.32, 1381.68)"/></g><g class="cls-6"><ellipse class="cls-22" cx="557.64" cy="867.08" rx="18.92" ry="18.36" transform="translate(-332.71 1386.75) rotate(-87.52)"/></g><g class="cls-6"><ellipse class="cls-23" cx="579.62" cy="868.03" rx="18.92" ry="18.36" transform="translate(-312.63 1409.62) rotate(-87.52)"/></g><g class="cls-6"><ellipse class="cls-24" cx="610.59" cy="869.36" rx="18.92" ry="18.36" transform="translate(-284.33 1441.84) rotate(-87.52)"/></g><g class="cls-6"><ellipse class="cls-25" cx="635.74" cy="866.45" rx="18.92" ry="18.36" transform="translate(-257.36 1464.18) rotate(-87.52)"/></g><g class="cls-6"><ellipse class="cls-26" cx="612.59" cy="869.45" rx="18.92" ry="18.36" transform="translate(-282.51 1443.92) rotate(-87.52)"/></g><g class="cls-6"><ellipse class="cls-27" cx="637.74" cy="866.53" rx="18.92" ry="18.36" transform="translate(-255.53 1466.25) rotate(-87.52)"/></g><g class="cls-6"><ellipse class="cls-28" cx="641.69" cy="867.71" rx="18.92" ry="18.36" transform="translate(-252.92 1471.33) rotate(-87.52)"/></g><g class="cls-6"><ellipse class="cls-29" cx="663.67" cy="868.66" rx="18.92" ry="18.36" transform="translate(-232.84 1494.19) rotate(-87.52)"/></g><g class="cls-6"><ellipse class="cls-30" cx="694.64" cy="870" rx="18.92" ry="18.36" transform="translate(-204.54 1526.42) rotate(-87.52)"/></g><g class="cls-6"><ellipse class="cls-31" cx="719.79" cy="867.08" rx="18.92" ry="18.36" transform="translate(-177.56 1548.75) rotate(-87.52)"/></g><g class="cls-6"><ellipse class="cls-32" cx="428.19" cy="851.47" rx="18.92" ry="18.36" transform="translate(-440.98 1242.49) rotate(-87.52)"/></g><g class="cls-6"><ellipse class="cls-33" cx="453.34" cy="848.55" rx="18.92" ry="18.36" transform="translate(-414 1264.83) rotate(-87.52)"/></g><g class="cls-6"><ellipse class="cls-34" cx="457.29" cy="849.73" rx="18.92" ry="18.36" transform="translate(-411.39 1269.9) rotate(-87.52)"/></g><g class="cls-6"><ellipse class="cls-35" cx="479.27" cy="850.68" rx="18.92" ry="18.36" transform="translate(-391.31 1292.77) rotate(-87.52)"/></g><g class="cls-6"><ellipse class="cls-36" cx="510.25" cy="852.02" rx="18.92" ry="18.36" transform="translate(-363.01 1324.99) rotate(-87.52)"/></g><g class="cls-6"><ellipse class="cls-37" cx="535.39" cy="849.1" rx="18.92" ry="18.36" transform="translate(-336.03 1347.32) rotate(-87.52)"/></g><g class="cls-6"><ellipse class="cls-38" cx="335.11" cy="851.45" rx="18.92" ry="18.36" transform="matrix(0.04, -1, 1, 0.04, -530.02, 1149.47)"/></g><g class="cls-6"><ellipse class="cls-39" cx="360.26" cy="848.53" rx="18.92" ry="18.36" transform="translate(-503.05 1171.81) rotate(-87.52)"/></g><g class="cls-6"><ellipse class="cls-40" cx="364.21" cy="849.71" rx="18.92" ry="18.36" transform="translate(-500.43 1176.88) rotate(-87.52)"/></g><g class="cls-6"><ellipse class="cls-41" cx="386.19" cy="850.66" rx="18.92" ry="18.36" transform="translate(-480.35 1199.75) rotate(-87.52)"/></g><g class="cls-6"><ellipse class="cls-42" cx="417.16" cy="852" rx="18.92" ry="18.36" transform="translate(-452.06 1231.97) rotate(-87.52)"/></g><g class="cls-6"><ellipse class="cls-43" cx="442.31" cy="849.08" rx="18.92" ry="18.36" transform="translate(-425.08 1254.31) rotate(-87.52)"/></g><g class="cls-6"><ellipse class="cls-44" cx="230.46" cy="840.92" rx="18.92" ry="18.36" transform="translate(-619.63 1034.85) rotate(-87.52)"/></g><g class="cls-6"><ellipse class="cls-45" cx="255.61" cy="838.01" rx="18.92" ry="18.36" transform="translate(-592.65 1057.19) rotate(-87.52)"/></g><g class="cls-6"><ellipse class="cls-46" cx="259.57" cy="839.18" rx="18.92" ry="18.36" transform="translate(-590.04 1062.26) rotate(-87.52)"/></g><g class="cls-6"><ellipse class="cls-47" cx="281.55" cy="840.13" rx="18.92" ry="18.36" transform="translate(-569.96 1085.13) rotate(-87.52)"/></g><g class="cls-6"><ellipse class="cls-48" cx="312.52" cy="841.47" rx="18.92" ry="18.36" transform="translate(-541.66 1117.35) rotate(-87.52)"/></g><g class="cls-6"><ellipse class="cls-49" cx="337.67" cy="838.55" rx="18.92" ry="18.36" transform="matrix(0.04, -1, 1, 0.04, -514.68, 1139.69)"/></g><g class="cls-6"><ellipse class="cls-50" cx="172.99" cy="822.76" rx="18.36" ry="18.92" transform="matrix(1, -0.08, 0.08, 1, -61.97, 15.51)"/></g><g class="cls-6"><ellipse class="cls-51" cx="196.32" cy="846.85" rx="18.36" ry="18.92" transform="matrix(1, -0.08, 0.08, 1, -63.73, 17.35)"/></g><g class="cls-6"><ellipse class="cls-52" cx="200.38" cy="847.54" rx="18.36" ry="18.92" transform="translate(-63.77 17.66) rotate(-4.35)"/></g><g class="cls-6"><ellipse class="cls-53" cx="222.32" cy="845.87" rx="18.36" ry="18.92" transform="translate(-63.58 19.32) rotate(-4.35)"/></g><g class="cls-6"><ellipse class="cls-54" cx="253.23" cy="843.52" rx="18.36" ry="18.92" transform="translate(-63.31 21.66) rotate(-4.35)"/></g><g class="cls-6"><ellipse class="cls-55" cx="277.85" cy="837.63" rx="18.36" ry="18.92" transform="matrix(1, -0.08, 0.08, 1, -62.79, 23.51)"/></g></g></g></g><g id="Bathtub"><g id="Layer_72" data-name="Layer 72"><g id="Layer_65" data-name="Layer 65"><g id="Layer_57" data-name="Layer 57"><g id="Layer_50" data-name="Layer 50"><g id="Layer_18" data-name="Layer 18"><g id="Layer_12" data-name="Layer 12"><g class="cls-6"><ellipse class="cls-56" cx="189.15" cy="861.02" rx="18.92" ry="18.36" transform="matrix(0.04, -1, 1, 0.04, -679.24, 1012.81)"/></g></g></g></g></g></g></g><g id="Layer_71" data-name="Layer 71"><g id="Layer_64" data-name="Layer 64"><g id="Layer_56" data-name="Layer 56"><g id="Layer_49" data-name="Layer 49"><g id="Layer_17" data-name="Layer 17"><g id="Layer_11" data-name="Layer 11"><g class="cls-6"><ellipse class="cls-57" cx="211.13" cy="861.97" rx="18.92" ry="18.36" transform="translate(-659.16 1035.68) rotate(-87.52)"/></g></g></g></g></g></g></g><g id="Layer_70" data-name="Layer 70"><g id="Layer_63" data-name="Layer 63"><g id="Layer_55" data-name="Layer 55"><g id="Layer_48" data-name="Layer 48"><g id="Layer_16" data-name="Layer 16"><g id="Layer_10" data-name="Layer 10"><g class="cls-6"><ellipse class="cls-58" cx="242.1" cy="863.31" rx="18.92" ry="18.36" transform="translate(-630.86 1067.9) rotate(-87.52)"/></g></g></g></g></g></g></g><g id="Layer_68" data-name="Layer 68"><g id="Layer_61" data-name="Layer 61"><g id="Layer_53" data-name="Layer 53"><g id="Layer_46" data-name="Layer 46"><g id="Layer_6" data-name="Layer 6"><path class="cls-59" d="M164.66,867.74l599.2,12.12L817.7,881s36.4,14.59,8.08,21.37l-28.32,6.78s-23.88,8.48-27.05,35.37l-3.16,26.89-4.17,26.84s-2.33,30.93-24.62,37l-22.28,6-3.59,36.87L687.45,1077l-.59-29-360.52,4.43-3.08,24.89-21.15-.91,7.29-25.71s-26.72-7.16-36.19-19.58-9.13-20.42-9.13-20.42-10.57-23-8.34-45.15L258,943.34s-9.26-40.44-42.19-42.87l-32.92-2.42s-32.27,5.61-31.45-13.37S164.66,867.74,164.66,867.74Z"/><path class="cls-59" d="M763.86,879.86l7.67-177.49a29.57,29.57,0,0,0-17.82-19.87c-31.5-12.37-57.64-9.71-58.21,3.49s-.91,23-.91,23l20.9.91s6.65,8.29-7.34,7.69l-46.95-2s-15.17-4-8.65-8.38,8-.66,8-.66l15.77-.82,5.89-37.28,28.45-9.78,25,1.08L752,667.43l17,5.85,14.67,9.52,6.22,18.28s-6.07,163.63-7.21,166.72-.11,12.93-.11,12.93"/><path class="cls-60" d="M658.92,732.37c.28,1.38.46,2.75.65,4.12l.24,2,.16,2.05a20.71,20.71,0,0,0,.31,2,4.59,4.59,0,0,1-.15,2,7.84,7.84,0,0,1-2.59,3.84l-.5,0a7.78,7.78,0,0,1-1.89-4.22,4.33,4.33,0,0,1,.19-2,20.8,20.8,0,0,0,.65-2l.51-2,.58-2c.42-1.32.83-2.64,1.34-3.95Z"/><path class="cls-60" d="M677.21,744.45c.36,1.36.62,2.72.89,4.07l.35,2,.28,2c.09.68.27,1.36.42,2a4.45,4.45,0,0,1,0,2,7.82,7.82,0,0,1-2.36,4h-.5a7.85,7.85,0,0,1-2.14-4.11,4.45,4.45,0,0,1,.08-2c.19-.67.41-1.34.53-2l.4-2,.47-2c.34-1.34.68-2.68,1.11-4Z"/><path class="cls-60" d="M715.94,744.52c.23,1.39.37,2.77.51,4.14l.17,2.06.1,2c0,.68.14,1.38.23,2.07a4.56,4.56,0,0,1-.21,2A7.91,7.91,0,0,1,714,760.6l-.49-.06a7.76,7.76,0,0,1-1.76-4.28,4.44,4.44,0,0,1,.27-2c.24-.65.52-1.3.71-2l.57-2,.65-2c.47-1.31.92-2.61,1.47-3.9Z"/><path class="cls-60" d="M696.52,724.47c.31,1.38.51,2.74.73,4.11l.28,2,.2,2c.06.68.21,1.36.34,2.05a4.59,4.59,0,0,1-.11,2,8,8,0,0,1-2.52,3.89l-.49,0a7.83,7.83,0,0,1-2-4.19,4.45,4.45,0,0,1,.16-2c.21-.66.46-1.32.61-2l.47-2,.54-2c.4-1.32.79-2.65,1.27-4Z"/><path class="cls-60" d="M696.5,760.47c.31,1.37.52,2.74.74,4.11l.28,2,.21,2c.06.68.22,1.37.34,2.05a4.44,4.44,0,0,1-.1,2,7.84,7.84,0,0,1-2.51,3.9l-.5,0a7.91,7.91,0,0,1-2-4.19,4.47,4.47,0,0,1,.15-2c.22-.66.46-1.32.61-2l.46-2,.55-2c.39-1.32.77-2.65,1.25-4Z"/><path class="cls-60" d="M663.1,770c0,1.5,0,3-.1,4.44l-.13,2.2-.2,2.18c-.07.72,0,1.47-.07,2.21a5.06,5.06,0,0,1-.5,2.1,8.6,8.6,0,0,1-3.24,3.64l-.49-.12a8.61,8.61,0,0,1-1.12-4.74,5.07,5.07,0,0,1,.55-2.09c.34-.66.71-1.31,1-2l.86-2,.93-2c.65-1.32,1.29-2.65,2-4Z"/></g></g></g></g><path class="cls-61" d="M1165.5,891c0,2.49-30.44,4.5-68,4.5s-68-2-68-4.5,30.44-7.5,68-7.5S1165.5,888.51,1165.5,891Z"/><path class="cls-61" d="M1066.83,1027c0,51.53,5.67,47.53,5.67,47.53a41.72,41.72,0,0,0,27,8c16-1,44.33,1.55,45.67-27.73l1.33-29.27a47.43,47.43,0,0,1-25.68,10.72c-15.32,1.28-28.44,2.27-38.88-2.22S1066.83,1027,1066.83,1027Z"/><ellipse class="cls-62" cx="1106" cy="1006" rx="52.5" ry="39"/><ellipse class="cls-63" cx="1106" cy="1006" rx="39.17" ry="29.1"/><ellipse class="cls-62" cx="1097.5" cy="928" rx="27" ry="41.5"/><path class="cls-61" d="M1073.52,981.26c-30.39-30.39-16-85.76-16-85.76h23.21S1069.5,909,1070.5,922.73s.43,29.75,10.21,37.76,21,13.37,29.42,4.19S1126.5,941.5,1124.5,928s-10.22-32.5-10.22-32.5h24.38s7.84,20,7.84,32.5-16.63,50-16.63,50-13.37-4.45-23.87-3.45-18.09,1.23-22.8,3.12"/><ellipse class="cls-60" cx="1106" cy="1006" rx="27" ry="21"/></g><g id="Layer_66" data-name="Layer 66"><g id="Layer_59" data-name="Layer 59"><g id="Layer_51" data-name="Layer 51"><g id="Layer_39" data-name="Layer 39"><path class="cls-64" d="M692,825.47l-2.62,3.89s-2.72,3.89,1.32,3.06l4-.83L691.87,825"/></g><rect class="cls-65" x="1404.6" y="646.5" width="294.4" height="433.5"/><rect class="cls-66" x="1459" y="681" width="73" height="157"/><rect class="cls-66" x="1571" y="684" width="73" height="157"/><rect class="cls-66" x="1459" y="893" width="73" height="157"/><rect class="cls-66" x="1571" y="893" width="73" height="157"/><circle class="cls-67" cx="1457" cy="866" r="13"/></g></g></g><rect class="cls-68" x="1009" y="728" width="151" height="18"/><polygon class="cls-69" points="1017 694 1051.61 694 1043 728 1024.68 728 1017 694"/></g></svg>