<svg xmlns="http://www.w3.org/2000/svg" xmlns:xlink="http://www.w3.org/1999/xlink" width="800.78" height="200" viewBox="0 0 800.78 200"><defs><style>.cls-1{fill:#999;}.cls-1,.cls-3{opacity:0.5;}.cls-2{fill:#02b900;}.cls-4{fill:url(#radial-gradient);}.cls-5{fill:url(#radial-gradient-2);}.cls-6{fill:url(#radial-gradient-3);}.cls-7{fill:url(#radial-gradient-4);}.cls-8{fill:url(#radial-gradient-5);}.cls-9{fill:url(#radial-gradient-6);}.cls-10{fill:url(#radial-gradient-7);}.cls-11{fill:url(#radial-gradient-8);}.cls-12{fill:url(#radial-gradient-9);}</style><radialGradient id="radial-gradient" cx="1221.1" cy="3116.63" r="87.04" gradientTransform="translate(45.91 -324.26) scale(0.15 0.15)" gradientUnits="userSpaceOnUse"><stop offset="0" stop-color="#fff" stop-opacity="0"/><stop offset="0.87" stop-color="#fff" stop-opacity="0.05"/><stop offset="1" stop-color="#fff"/></radialGradient><radialGradient id="radial-gradient-2" cx="1338.01" cy="3089.94" r="52.66" xlink:href="#radial-gradient"/><radialGradient id="radial-gradient-3" cx="2174.72" cy="3120.25" r="87.04" xlink:href="#radial-gradient"/><radialGradient id="radial-gradient-4" cx="2291.63" cy="3093.55" r="52.66" xlink:href="#radial-gradient"/><radialGradient id="radial-gradient-5" cx="2078.44" cy="3073.53" r="41.21" xlink:href="#radial-gradient"/><radialGradient id="radial-gradient-6" cx="3886.58" cy="2728.05" r="70.6" xlink:href="#radial-gradient"/><radialGradient id="radial-gradient-7" cx="3982.86" cy="2748.07" r="48.67" xlink:href="#radial-gradient"/><radialGradient id="radial-gradient-8" cx="3817.8" cy="2774.76" r="28.03" xlink:href="#radial-gradient"/><radialGradient id="radial-gradient-9" cx="3941.7" cy="2684.49" r="27.93" xlink:href="#radial-gradient"/></defs><g id="Layer_248" data-name="Layer 248"><g id="Layer_249" data-name="Layer 249"><rect class="cls-1" x="-888.78" y="-729" width="2701" height="1728" rx="12"/></g></g><g id="Layer_1" data-name="Layer 1"><g id="Layer_227" data-name="Layer 227"><path d="M661.83,113.5c3.36,11.76-11.92,15-28,16a292.45,292.45,0,0,1-30,0h-504c-39.51,0-42-16.65-33-27,4.83-5.56,19-8,19-8l44.26.08,505.65.91h8.09s4,0,10.24,5.88A26.46,26.46,0,0,1,661.83,113.5Z"/></g><g id="Layer_226" data-name="Layer 226"><path d="M130.09,94.58V129.5l60.19.44V94.49Z"/></g><g id="Layer_225" data-name="Layer 225"><path d="M190.3,94.65v34.92l60.18.44V94.56Z"/></g><g id="Layer_224" data-name="Layer 224"><path d="M250.93,94.68V129.6l60.19.44V94.59Z"/></g><g id="Layer_223" data-name="Layer 223"><path d="M310.19,94V129l60.19.44V93.94Z"/></g><g id="Layer_222" data-name="Layer 222"><path d="M369.6,94.56v34.92l60.18.44V94.47Z"/></g><g id="Layer_221" data-name="Layer 221"><path d="M429.6,94.56v34.92l60.18.44V94.47Z"/></g><g id="Layer_220" data-name="Layer 220"><path d="M489.6,94.56v34.92l60.18.44V94.47Z"/></g><g id="Layer_219" data-name="Layer 219"><path d="M550.1,94.91v34.92l60.18.44V94.82Z"/></g><g id="Layer_218" data-name="Layer 218"><path d="M662.73,113.5c3.36,11.76-11.92,15-28,16a292.45,292.45,0,0,1-30,0h-504c-39.51,0-42-16.65-33-27,4.83-5.56,19-8,19-8l44.26.08,505.65.91h8.09s4,0,10.24,5.88A26.46,26.46,0,0,1,662.73,113.5Z"/></g><g id="Layer_217" data-name="Layer 217"><path class="cls-2" d="M132.18,94.58V129.5l52.45.44V94.49Z"/></g><g id="Layer_216" data-name="Layer 216"><path class="cls-2" d="M192.58,94.65v34.92L245,130V94.56Z"/></g><g id="Layer_215" data-name="Layer 215"><path class="cls-2" d="M253,93.68V128.6l52.46.44V93.59Z"/></g><g id="Layer_214" data-name="Layer 214"><path class="cls-2" d="M313.4,95V130l52.46.44V94.94Z"/></g><g id="Layer_213" data-name="Layer 213"><path class="cls-2" d="M373.81,94.56v34.92l52.46.44V94.47Z"/></g><g id="Layer_212" data-name="Layer 212"><path class="cls-2" d="M434.22,94.56v34.92l52.46.44V94.47Z"/></g><g id="Layer_211" data-name="Layer 211"><path d="M490.5,94.56v34.92l60.18.44V94.47Z"/></g><g id="Layer_210" data-name="Layer 210"><path d="M551,94.91v34.92l60.18.44V94.82Z"/></g><g id="Layer_209" data-name="Layer 209"><path d="M83.77,69.67l.13-.54a22.54,22.54,0,0,0,3.26-.56,25,25,0,0,0-1,3.2l-.84,3.54a22.14,22.14,0,0,1-2,5.79,10.46,10.46,0,0,0,1.93.22,7.65,7.65,0,0,0,3.87-.94,6.74,6.74,0,0,0,2.62-2.72,8.22,8.22,0,0,0,1-4,6.3,6.3,0,0,0-1.65-4.55,5.7,5.7,0,0,0-4.32-1.72,8.86,8.86,0,0,0-4.23,1.07,8.45,8.45,0,0,0-3.15,2.82,6.15,6.15,0,0,0-1.16,3.42,2.52,2.52,0,0,0,1.42,2.39,1.66,1.66,0,0,1,.52.39.69.69,0,0,1,.12.41.79.79,0,0,1-.77.77,1.73,1.73,0,0,1-1.32-.88,4.47,4.47,0,0,1-.86-2.56,7.73,7.73,0,0,1,1.3-4.22,9.19,9.19,0,0,1,3.62-3.24,11,11,0,0,1,5.17-1.21A8,8,0,0,1,93,68.48a6.05,6.05,0,0,1,2.07,4.7A8.66,8.66,0,0,1,93.62,78a8.41,8.41,0,0,1-3.5,3.14,9.81,9.81,0,0,1-4.09.93c-.44,0-1.2,0-2.28-.13-.91-.07-1.78-.1-2.6-.1-.38,0-1,0-1.74,0l.29-.62a5,5,0,0,0,1.46-.21,1.14,1.14,0,0,0,.48-.47,13.54,13.54,0,0,0,1-2.54l.87-3.31,1-4.14a2.13,2.13,0,0,0,.07-.52.41.41,0,0,0-.13-.32.48.48,0,0,0-.35-.12Z"/><path d="M102.58,78.7l.42.56q-3.1,3-5.33,3a1.67,1.67,0,0,1-1.38-.61,3.19,3.19,0,0,1-.48-2,10.23,10.23,0,0,1,1.65-5.4q1.86-3.06,4.43-3.06a1.93,1.93,0,0,1,1.38.45,1.6,1.6,0,0,1,.48,1.23,2.78,2.78,0,0,1-.57,1.63,6.63,6.63,0,0,1-2.05,1.66c-.49.28-1.54.78-3.15,1.51A8.79,8.79,0,0,0,97.87,79a2.08,2.08,0,0,0,.29,1.26,1,1,0,0,0,.83.35,2.63,2.63,0,0,0,1.14-.29A15.2,15.2,0,0,0,102.58,78.7Zm-4.44-1.84a9.92,9.92,0,0,0,3.07-2,2.17,2.17,0,0,0,.7-1.46,1.29,1.29,0,0,0-.29-.87,1,1,0,0,0-.74-.32,1.47,1.47,0,0,0-.91.35A3.55,3.55,0,0,0,99,74,12.74,12.74,0,0,0,98.14,76.86Z"/><path d="M110.05,78.83l.43.46a12.32,12.32,0,0,1-2.35,2,4.25,4.25,0,0,1-2.22.92.81.81,0,0,1-.65-.3,1.19,1.19,0,0,1-.25-.81,23.08,23.08,0,0,1,.78-4.22l1.37-5.57a23.15,23.15,0,0,1,1.26-4,5.78,5.78,0,0,1,2.22-2.42,5.86,5.86,0,0,1,3-.86,1.29,1.29,0,0,1,.85.26.81.81,0,0,1,.31.64.86.86,0,0,1-.3.67,1.35,1.35,0,0,1-.89.26,5.92,5.92,0,0,1-1.07-.13,7.75,7.75,0,0,0-1.13-.1,1.19,1.19,0,0,0-.78.22A2.66,2.66,0,0,0,110,67.1c-.2.65-.53,1.93-1,3.84l-1.27,5.32c-.63,2.67-.94,4.06-.94,4.18s.1.41.29.41a1.8,1.8,0,0,0,.82-.33A13.46,13.46,0,0,0,110.05,78.83Z"/><path d="M111.4,74.16l-.55-.44a9.61,9.61,0,0,1,2.31-2,3.74,3.74,0,0,1,1.78-.59.94.94,0,0,1,.62.18.55.55,0,0,1,.22.48,24.5,24.5,0,0,1-.83,3.12,31.94,31.94,0,0,0-1.34,5.43.49.49,0,0,0,.09.3.24.24,0,0,0,.19.12c.27,0,1-.52,2.08-1.57l.5.48a17.26,17.26,0,0,1-2.54,2.1,2.86,2.86,0,0,1-1.31.45.9.9,0,0,1-.7-.28,1,1,0,0,1-.26-.77c0-1.06.63-3.64,1.9-7.76a1.78,1.78,0,0,0,.09-.52c0-.17-.08-.25-.23-.25a1.18,1.18,0,0,0-.58.2A14.94,14.94,0,0,0,111.4,74.16Zm5-8.41A.89.89,0,0,1,117,66a.93.93,0,0,1,.25.67,1.39,1.39,0,0,1-.38,1,1.15,1.15,0,0,1-.87.43.84.84,0,0,1-.64-.27,1,1,0,0,1-.25-.7,1.37,1.37,0,0,1,.37-1A1.15,1.15,0,0,1,116.39,65.75Z"/><path d="M125.78,71.12l1-.23c-.62,2-1.18,4-1.7,6a34.78,34.78,0,0,0-.77,3.55,12.4,12.4,0,0,0-.13,1.81,9.68,9.68,0,0,1-.4,2.94,4.8,4.8,0,0,1-2,2.51,6.12,6.12,0,0,1-3.45,1,4.14,4.14,0,0,1-2.7-.81,2.36,2.36,0,0,1-1-1.85,2.81,2.81,0,0,1,.79-1.91,8.81,8.81,0,0,1,2.44-1.63c.63-.33,1.22-.67,1.77-1a3.6,3.6,0,0,1-1.47.48,1.07,1.07,0,0,1-.83-.44,1.77,1.77,0,0,1-.36-1.16,8.85,8.85,0,0,1,1.39-4.64,9.67,9.67,0,0,1,3.34-3.46,5.82,5.82,0,0,1,3-.71l.88,0Zm-3.14,8.8a40.26,40.26,0,0,1-3.33,2.48,13.21,13.21,0,0,0-2.67,2.12,2.22,2.22,0,0,0-.5,1.39,1.7,1.7,0,0,0,.64,1.3,2.24,2.24,0,0,0,1.56.58,3.61,3.61,0,0,0,1.68-.42,4.37,4.37,0,0,0,1.42-1.24,4.66,4.66,0,0,0,.83-1.82,13.39,13.39,0,0,0,.24-2.69C122.52,81.38,122.56,80.81,122.64,79.92ZM124.36,73a5.64,5.64,0,0,0-1.08-.11,3.43,3.43,0,0,0-2.07.63,4.93,4.93,0,0,0-1.47,2.13,10.19,10.19,0,0,0-.85,3.57,1.53,1.53,0,0,0,.34,1,1,1,0,0,0,.75.41,2.44,2.44,0,0,0,1.26-.49,4,4,0,0,0,1.22-1.22,9.81,9.81,0,0,0,1-2.54Z"/><path d="M137.82,79.2l.33.47a11.4,11.4,0,0,1-2.4,2,2.8,2.8,0,0,1-1.38.52.87.87,0,0,1-.72-.35,1.85,1.85,0,0,1-.27-1.11,7.64,7.64,0,0,1,.21-1.48c.14-.64.53-2,1.19-4.17a13.87,13.87,0,0,0,.43-1.84c0-.27-.15-.4-.44-.4a2.54,2.54,0,0,0-1.33.53,8,8,0,0,0-2,1.87,6,6,0,0,0-.88,2.16l-1,4.44h-1.89c.41-1.48.72-2.69.94-3.63l1.86-8.14a10.24,10.24,0,0,1,1.34-3.47,6.18,6.18,0,0,1,2.17-2,5.61,5.61,0,0,1,2.65-.73,1.26,1.26,0,0,1,.87.28.84.84,0,0,1,.31.68.78.78,0,0,1-.31.61,1.3,1.3,0,0,1-.84.26,6.56,6.56,0,0,1-.79-.06,12.49,12.49,0,0,0-1.52-.17,1.16,1.16,0,0,0-1,.48,6.64,6.64,0,0,0-.76,2.22l-1.42,6.26a16.53,16.53,0,0,1,3.29-2.67,3.56,3.56,0,0,1,1.68-.65,1.06,1.06,0,0,1,.78.29,1.18,1.18,0,0,1,.28.82,4.29,4.29,0,0,1-.1.86c-.11.5-.37,1.4-.78,2.72-.55,1.81-.88,2.93-1,3.37a6.05,6.05,0,0,0-.14,1.18.53.53,0,0,0,.07.31.22.22,0,0,0,.21.1q.3,0,1.14-.72C137,79.87,137.37,79.56,137.82,79.2Z"/><path d="M142.62,69.26l2-.78L143.73,72h2.62l-.2.9h-2.63l-1.11,4.25a12.06,12.06,0,0,0-.52,2.67.68.68,0,0,0,.14.49.54.54,0,0,0,.4.15,2.76,2.76,0,0,0,1.21-.47,15.36,15.36,0,0,0,2-1.41l.48.59a30.6,30.6,0,0,1-3.72,2.56,3.56,3.56,0,0,1-1.51.47.89.89,0,0,1-.74-.34,1.82,1.82,0,0,1-.28-1.12,12.11,12.11,0,0,1,.49-2.79l1.29-5h-2.06l.23-.9h2.06Z"/><path d="M150.47,70.23l-.22-.81a7.1,7.1,0,0,0,1.39-1.5,2.17,2.17,0,0,0,.33-1.08,2.21,2.21,0,0,0-.31-.85,1.84,1.84,0,0,1-.24-.85,1.18,1.18,0,0,1,.3-.84,1,1,0,0,1,.78-.33,1,1,0,0,1,.82.38,1.43,1.43,0,0,1,.33,1,4.37,4.37,0,0,1-.69,2.23A11.22,11.22,0,0,1,150.47,70.23Z"/><path d="M159.91,71.21a2.58,2.58,0,0,1,2.07,1,4.19,4.19,0,0,1,.83,2.76,7.47,7.47,0,0,1-2,5.06,5.65,5.65,0,0,1-4.19,2.24,2.86,2.86,0,0,1-2.19-.89,3.4,3.4,0,0,1-.83-2.43A8.58,8.58,0,0,1,155.14,74,5.65,5.65,0,0,1,159.91,71.21Zm-1.08,1c-.72,0-1.41.52-2.09,1.55a7.7,7.7,0,0,0-1,4.25,4.71,4.71,0,0,0,.62,2.61,1.4,1.4,0,0,0,1.22.7A2.41,2.41,0,0,0,159.52,80a7.7,7.7,0,0,0,1.12-4.26,5.31,5.31,0,0,0-.52-2.71A1.49,1.49,0,0,0,158.83,72.16Z"/><path d="M170.07,74.13l-.38-.51a10.45,10.45,0,0,1,2.39-1.85,4.18,4.18,0,0,1,1.78-.6.58.58,0,0,1,.4.12.37.37,0,0,1,.13.31,4.18,4.18,0,0,1-.2,1c-.19.71-.33,1.28-.4,1.69,2-2.06,3.57-3.1,4.64-3.1a.82.82,0,0,1,.63.23,1,1,0,0,1,.22.72,7.63,7.63,0,0,1-.38,1.82,12.5,12.5,0,0,1,2.52-2.14,3.65,3.65,0,0,1,1.66-.63,1.08,1.08,0,0,1,.83.31,1.32,1.32,0,0,1,.29.94,3.67,3.67,0,0,1-.13.9c-.08.35-.39,1.4-.93,3.17a23.53,23.53,0,0,0-1,3.93c0,.28.12.43.36.43a.81.81,0,0,0,.47-.16,11,11,0,0,0,1.53-1.32l.42.46c-.18.15-.51.44-1,.89a11.12,11.12,0,0,1-1.4,1.14,2.55,2.55,0,0,1-1.24.43.82.82,0,0,1-.67-.37,1.63,1.63,0,0,1-.3-1,6.71,6.71,0,0,1,.18-1.42c.12-.55.47-1.77,1-3.68a14.88,14.88,0,0,0,.65-2.6c0-.29-.13-.43-.38-.43a1.81,1.81,0,0,0-.85.31,6.5,6.5,0,0,0-1.83,1.62,6.12,6.12,0,0,0-.89,2.09q-.85,3.14-1.27,5.12h-1.8l1.89-7.76a7,7,0,0,0,.2-1,.46.46,0,0,0-.1-.32.37.37,0,0,0-.29-.1,2.14,2.14,0,0,0-1.06.53A6.9,6.9,0,0,0,174,75a8.05,8.05,0,0,0-.94,2.57l-1,4.29h-1.82l1.43-6.06c.42-1.75.64-2.7.64-2.85s-.08-.3-.23-.3C171.76,72.68,171.08,73.17,170.07,74.13Z"/><path d="M192.5,78.7l.42.56q-3.1,3-5.33,3a1.67,1.67,0,0,1-1.38-.61,3.19,3.19,0,0,1-.48-2,10.16,10.16,0,0,1,1.66-5.4q1.85-3.06,4.43-3.06a1.9,1.9,0,0,1,1.37.45,1.6,1.6,0,0,1,.48,1.23,2.78,2.78,0,0,1-.57,1.63,6.51,6.51,0,0,1-2,1.66c-.49.28-1.54.78-3.14,1.51a7.69,7.69,0,0,0-.12,1.31,2.08,2.08,0,0,0,.29,1.26,1,1,0,0,0,.83.35,2.6,2.6,0,0,0,1.14-.29A15.2,15.2,0,0,0,192.5,78.7Zm-4.44-1.84a9.92,9.92,0,0,0,3.07-2,2.12,2.12,0,0,0,.7-1.46,1.29,1.29,0,0,0-.29-.87,1,1,0,0,0-.74-.32,1.47,1.47,0,0,0-.91.35,3.55,3.55,0,0,0-1,1.43A12.74,12.74,0,0,0,188.06,76.86Z"/><path d="M198.24,69.26l2-.78L199.34,72H202l-.2.9h-2.63L198,77.19a12.26,12.26,0,0,0-.53,2.67.68.68,0,0,0,.15.49.54.54,0,0,0,.4.15,2.8,2.8,0,0,0,1.21-.47,15.36,15.36,0,0,0,2-1.41l.48.59a30.6,30.6,0,0,1-3.72,2.56,3.56,3.56,0,0,1-1.51.47.89.89,0,0,1-.74-.34,1.75,1.75,0,0,1-.28-1.12A12.11,12.11,0,0,1,196,78l1.29-5h-2.06l.23-.9h2.06Z"/><path d="M209.65,78.7l.42.56q-3.1,3-5.33,3a1.67,1.67,0,0,1-1.38-.61,3.2,3.2,0,0,1-.47-2,10.23,10.23,0,0,1,1.65-5.4q1.85-3.06,4.43-3.06a1.9,1.9,0,0,1,1.37.45,1.6,1.6,0,0,1,.48,1.23,2.78,2.78,0,0,1-.57,1.63,6.57,6.57,0,0,1-2,1.66c-.5.28-1.55.78-3.15,1.51a7.69,7.69,0,0,0-.12,1.31,2.08,2.08,0,0,0,.29,1.26,1,1,0,0,0,.83.35,2.6,2.6,0,0,0,1.14-.29A15.2,15.2,0,0,0,209.65,78.7Zm-4.44-1.84a9.8,9.8,0,0,0,3.07-2,2.12,2.12,0,0,0,.7-1.46,1.29,1.29,0,0,0-.29-.87,1,1,0,0,0-.74-.32,1.47,1.47,0,0,0-.91.35A3.64,3.64,0,0,0,206,74,12.74,12.74,0,0,0,205.21,76.86Z"/><path d="M214.19,81.89h-1.9l.89-3.42c.43-1.67.81-3.26,1.13-4.77a4.84,4.84,0,0,0,.12-.7c0-.2-.1-.3-.28-.3a1.2,1.2,0,0,0-.59.26,12,12,0,0,0-1.42,1.29l-.39-.45a9.73,9.73,0,0,1,2.43-2,4.31,4.31,0,0,1,1.86-.65.57.57,0,0,1,.36.1.35.35,0,0,1,.13.28,5,5,0,0,1-.17.88l-.55,2.28a16.64,16.64,0,0,1,2.9-3.47,2.23,2.23,0,0,1,1.3-.68.91.91,0,0,1,.64.24.81.81,0,0,1,0,1.17,3.69,3.69,0,0,1-1.23.57,5.2,5.2,0,0,0-1.53.76,7.16,7.16,0,0,0-1.3,1.36,7.46,7.46,0,0,0-1,1.59,25.73,25.73,0,0,0-.85,3.16Z"/></g><g id="Layer_208" data-name="Layer 208"><path d="M680.34,106.79h-.65l.31-1c.32-1,.54-1.82.67-2.39a30.82,30.82,0,0,0,4.44.22c1.4,0,2.76,0,4.08,0q-4.25,5.39-5.32,7a29.89,29.89,0,0,0-2.54,4.32,7.88,7.88,0,0,0-.49,2.06,4.11,4.11,0,0,1-.46,1.7.86.86,0,0,1-.72.37.88.88,0,0,1-.69-.33,1.2,1.2,0,0,1-.29-.81,6,6,0,0,1,.89-2.81,62.41,62.41,0,0,1,5.75-7.83l1.65-2.05h-4.78a2,2,0,0,0-1.13.23A3.7,3.7,0,0,0,680.34,106.79Z"/><path d="M695.26,103.28a3.57,3.57,0,0,1,2.91,1.33,6.18,6.18,0,0,1,1.1,4,13.6,13.6,0,0,1-1.9,7c-1.26,2.17-2.8,3.25-4.6,3.25a3.29,3.29,0,0,1-2.68-1.39,5.86,5.86,0,0,1-1.1-3.77,14.46,14.46,0,0,1,1.09-5.5,9.56,9.56,0,0,1,2.46-3.81A4.31,4.31,0,0,1,695.26,103.28ZM695,104a2.23,2.23,0,0,0-1.61,1,11.06,11.06,0,0,0-1.51,3.84,22.15,22.15,0,0,0-.69,5.32,5.74,5.74,0,0,0,.59,3,1.65,1.65,0,0,0,1.35.93,1.91,1.91,0,0,0,1.34-.68,9.09,9.09,0,0,0,1.76-3.78,20.17,20.17,0,0,0,.79-5.58,6.34,6.34,0,0,0-.66-3.25A1.52,1.52,0,0,0,695,104Z"/><path d="M706,103.29a2.21,2.21,0,0,1,1.72.73,2.92,2.92,0,0,1,.67,2.06A6.15,6.15,0,0,1,707,110a3.26,3.26,0,0,1-2.61,1.39,2.23,2.23,0,0,1-1.72-.74,2.81,2.81,0,0,1-.68-2,6.58,6.58,0,0,1,1.14-3.7A3.35,3.35,0,0,1,706,103.29Zm-.18.55c-.53,0-1,.53-1.48,1.59a8.72,8.72,0,0,0-.69,3.51,2.77,2.77,0,0,0,.3,1.46.87.87,0,0,0,.7.47c.47,0,.89-.41,1.27-1.23a9.12,9.12,0,0,0,.83-3.85,3.05,3.05,0,0,0-.33-1.55A.71.71,0,0,0,705.78,103.84ZM704,118.59c.72-1.2,1.34-2.27,1.86-3.2l4.65-8.47q1.11-2.06,1.92-3.63a6.93,6.93,0,0,0,1,.18c-.78,1.26-1.51,2.52-2.21,3.78l-4.08,7.43c-.74,1.35-1.44,2.69-2.08,4a6.13,6.13,0,0,0-.64-.08Zm9.1-8a2.24,2.24,0,0,1,1.72.73,3,3,0,0,1,.67,2.07,6.13,6.13,0,0,1-1.37,3.93,3.27,3.27,0,0,1-2.6,1.4,2.23,2.23,0,0,1-1.72-.74,2.8,2.8,0,0,1-.68-2,6.59,6.59,0,0,1,1.13-3.69A3.34,3.34,0,0,1,713.08,110.56Zm-.18.55c-.53,0-1,.53-1.48,1.59a8.74,8.74,0,0,0-.69,3.52,2.63,2.63,0,0,0,.31,1.45.83.83,0,0,0,.69.47c.47,0,.89-.41,1.27-1.23a9.12,9.12,0,0,0,.83-3.85,3,3,0,0,0-.33-1.54A.71.71,0,0,0,712.9,111.11Z"/></g><g id="Layer_20" data-name="Layer 20"><path class="cls-2" d="M70.45,99.5c-3,1.65-7.7,10.46-7.17,12,.72,2.06.1,4,.9,6a14.38,14.38,0,0,0,5.38,6c9.85,6,21.5,6,21.5,6h33.16l-.89-35H83.89S72.24,98.5,70.45,99.5Z"/></g><g id="Layer_12" data-name="Layer 12"><path d="M662.72,114.5c1,3-.93,7.87-3,9-11,6-26,6-26,6h-22v-34h31l6,1,9,8S662,112.38,662.72,114.5Z"/></g><g class="cls-3"><ellipse class="cls-4" cx="223.47" cy="142.77" rx="12.66" ry="13.04"/></g><g class="cls-3"><ellipse class="cls-5" cx="240.47" cy="138.77" rx="7.66" ry="7.89"/></g><g class="cls-3"><ellipse class="cls-6" cx="362.13" cy="143.31" rx="12.66" ry="13.04"/></g><g class="cls-3"><ellipse class="cls-7" cx="379.13" cy="139.31" rx="7.66" ry="7.89"/></g><g class="cls-3"><ellipse class="cls-8" cx="348.13" cy="136.31" rx="5.99" ry="6.18"/></g><g class="cls-3"><ellipse class="cls-9" cx="611.05" cy="84.54" rx="10.27" ry="10.58"/></g><g class="cls-3"><ellipse class="cls-10" cx="625.05" cy="87.54" rx="7.08" ry="7.29"/></g><g class="cls-3"><ellipse class="cls-11" cx="601.05" cy="91.54" rx="4.08" ry="4.2"/></g><g class="cls-3"><ellipse class="cls-12" cx="619.06" cy="78.01" rx="4.06" ry="4.19"/></g></g></svg>