<svg xmlns="http://www.w3.org/2000/svg" xmlns:xlink="http://www.w3.org/1999/xlink" width="800.78" height="200" viewBox="0 0 800.78 200"><defs><style>.cls-1{fill:#999;}.cls-1,.cls-3{opacity:0.5;}.cls-2{fill:#02b900;}.cls-4{fill:url(#radial-gradient);}.cls-5{fill:url(#radial-gradient-2);}.cls-6{fill:url(#radial-gradient-3);}.cls-7{fill:url(#radial-gradient-4);}.cls-8{fill:url(#radial-gradient-5);}.cls-9{fill:url(#radial-gradient-6);}.cls-10{fill:url(#radial-gradient-7);}.cls-11{fill:url(#radial-gradient-8);}.cls-12{fill:url(#radial-gradient-9);}</style><radialGradient id="radial-gradient" cx="1203.98" cy="4440.31" r="87.04" gradientTransform="translate(45.91 -511.29) scale(0.15 0.15)" gradientUnits="userSpaceOnUse"><stop offset="0" stop-color="#fff" stop-opacity="0"/><stop offset="0.87" stop-color="#fff" stop-opacity="0.05"/><stop offset="1" stop-color="#fff"/></radialGradient><radialGradient id="radial-gradient-2" cx="1320.89" cy="4413.62" r="52.66" xlink:href="#radial-gradient"/><radialGradient id="radial-gradient-3" cx="2157.61" cy="4443.93" r="87.04" xlink:href="#radial-gradient"/><radialGradient id="radial-gradient-4" cx="2274.52" cy="4417.23" r="52.66" xlink:href="#radial-gradient"/><radialGradient id="radial-gradient-5" cx="2061.33" cy="4397.21" r="41.21" xlink:href="#radial-gradient"/><radialGradient id="radial-gradient-6" cx="3869.46" cy="4051.73" r="70.6" xlink:href="#radial-gradient"/><radialGradient id="radial-gradient-7" cx="3965.74" cy="4071.75" r="48.67" xlink:href="#radial-gradient"/><radialGradient id="radial-gradient-8" cx="3800.69" cy="4098.44" r="28.03" xlink:href="#radial-gradient"/><radialGradient id="radial-gradient-9" cx="3924.59" cy="4008.17" r="27.93" xlink:href="#radial-gradient"/></defs><g id="Layer_248" data-name="Layer 248"><g id="Layer_249" data-name="Layer 249"><rect class="cls-1" x="-888.78" y="-949" width="2701" height="1728" rx="12"/></g></g><g id="Layer_1" data-name="Layer 1"><g id="Layer_187" data-name="Layer 187"><path d="M661.38,124.5c3.36,11.76-11.91,15-28,16a292.45,292.45,0,0,1-30,0h-504c-39.5,0-42-16.65-33-27,4.83-5.56,19-8,19-8l44.27.08,505.65.91h8.08s4,0,10.24,5.88A26.46,26.46,0,0,1,661.38,124.5Z"/></g><g id="Layer_186" data-name="Layer 186"><path d="M129.65,105.58V140.5l60.18.44V105.49Z"/></g><g id="Layer_185" data-name="Layer 185"><path d="M189.85,105.65v34.92L250,141V105.56Z"/></g><g id="Layer_184" data-name="Layer 184"><path d="M250.49,105.68V140.6l60.18.44V105.59Z"/></g><g id="Layer_183" data-name="Layer 183"><path d="M309.75,105V140l60.18.44V104.94Z"/></g><g id="Layer_182" data-name="Layer 182"><path d="M369.15,105.56v34.92l60.18.44V105.47Z"/></g><g id="Layer_181" data-name="Layer 181"><path d="M429.15,105.56v34.92l60.18.44V105.47Z"/></g><g id="Layer_180" data-name="Layer 180"><path d="M489.15,105.56v34.92l60.18.44V105.47Z"/></g><g id="Layer_179" data-name="Layer 179"><path d="M549.66,105.91v34.92l60.18.44V105.82Z"/></g><g id="Layer_178" data-name="Layer 178"><path d="M662.28,124.5c3.36,11.76-11.91,15-28,16a292.45,292.45,0,0,1-30,0h-504c-39.5,0-42-16.65-33-27,4.83-5.56,19-8,19-8l44.27.08,505.65.91h8.08s4,0,10.24,5.88A26.46,26.46,0,0,1,662.28,124.5Z"/></g><g id="Layer_177" data-name="Layer 177"><path class="cls-2" d="M133.22,105.58V140.5l52.45.44V105.49Z"/></g><g id="Layer_176" data-name="Layer 176"><path class="cls-2" d="M193.67,105.65v34.92l52.45.44V105.56Z"/></g><g id="Layer_175" data-name="Layer 175"><path class="cls-2" d="M254.12,105.68V140.6l52.45.44V105.59Z"/></g><g id="Layer_174" data-name="Layer 174"><path class="cls-2" d="M314.56,105V140l52.46.44V104.94Z"/></g><g id="Layer_173" data-name="Layer 173"><path class="cls-2" d="M375,105.56v34.92l52.46.44V105.47Z"/></g><g id="Layer_172" data-name="Layer 172"><path class="cls-2" d="M435.46,105.56v34.92l52.46.44V105.47Z"/></g><g id="Layer_171" data-name="Layer 171"><path class="cls-2" d="M495.91,104.56v34.92l52.46.44V104.47Z"/></g><g id="Layer_170" data-name="Layer 170"><path d="M550.55,105.91v34.92l60.19.44V105.82Z"/></g><g id="Layer_169" data-name="Layer 169"><path d="M81.33,82.67l.13-.54a22.77,22.77,0,0,0,3.26-.56,23.47,23.47,0,0,0-1,3.2l-.84,3.54a22.19,22.19,0,0,1-2,5.79,10.27,10.27,0,0,0,1.92.22,7.65,7.65,0,0,0,3.87-.94,6.74,6.74,0,0,0,2.62-2.72,8.11,8.11,0,0,0,1-4,6.3,6.3,0,0,0-1.65-4.55,5.69,5.69,0,0,0-4.31-1.72,8.87,8.87,0,0,0-4.24,1.07,8.45,8.45,0,0,0-3.15,2.82,6.23,6.23,0,0,0-1.16,3.42,2.52,2.52,0,0,0,1.42,2.39,1.74,1.74,0,0,1,.53.39.69.69,0,0,1,.12.41.75.75,0,0,1-.24.54.72.72,0,0,1-.54.23,1.7,1.7,0,0,1-1.31-.88,4.43,4.43,0,0,1-.87-2.56,7.73,7.73,0,0,1,1.3-4.22,9.22,9.22,0,0,1,3.63-3.24A11,11,0,0,1,85,79.6a8,8,0,0,1,5.58,1.87,6.06,6.06,0,0,1,2.08,4.71A8.59,8.59,0,0,1,91.17,91a8.3,8.3,0,0,1-3.49,3.13,9.7,9.7,0,0,1-4.09.94c-.44,0-1.2,0-2.29-.13-.91-.07-1.78-.1-2.6-.1-.38,0-1,0-1.73,0l.29-.62a4.9,4.9,0,0,0,1.45-.21,1.22,1.22,0,0,0,.49-.47,13.75,13.75,0,0,0,1-2.54l.88-3.31,1-4.14a2.28,2.28,0,0,0,.08-.52.44.44,0,0,0-.13-.32.51.51,0,0,0-.36-.12Z"/><path d="M100.13,91.7l.42.56q-3.1,3-5.33,3a1.67,1.67,0,0,1-1.38-.61,3.27,3.27,0,0,1-.47-2A10.23,10.23,0,0,1,95,87.25q1.85-3.06,4.43-3.06a1.94,1.94,0,0,1,1.38.45,1.63,1.63,0,0,1,.47,1.23,2.78,2.78,0,0,1-.57,1.63,6.57,6.57,0,0,1-2,1.66c-.49.28-1.54.79-3.15,1.51A7.69,7.69,0,0,0,95.42,92a2.08,2.08,0,0,0,.29,1.26,1,1,0,0,0,.83.35,2.6,2.6,0,0,0,1.14-.29A15.2,15.2,0,0,0,100.13,91.7Zm-4.44-1.84a9.8,9.8,0,0,0,3.07-2,2.12,2.12,0,0,0,.7-1.46,1.28,1.28,0,0,0-.28-.87,1,1,0,0,0-.75-.32,1.49,1.49,0,0,0-.91.35,3.53,3.53,0,0,0-1,1.43A12.77,12.77,0,0,0,95.69,89.86Z"/><path d="M107.6,91.83l.43.46a12.56,12.56,0,0,1-2.34,2,4.27,4.27,0,0,1-2.23.92.84.84,0,0,1-.65-.29,1.24,1.24,0,0,1-.25-.82,22.52,22.52,0,0,1,.79-4.22l1.36-5.57a23.15,23.15,0,0,1,1.26-4A5.9,5.9,0,0,1,111.23,77a1.27,1.27,0,0,1,.86.27.81.81,0,0,1,.31.63.84.84,0,0,1-.31.67,1.32,1.32,0,0,1-.88.26,6.11,6.11,0,0,1-1.08-.13,7.74,7.74,0,0,0-1.12-.1,1.2,1.2,0,0,0-.79.22,2.8,2.8,0,0,0-.66,1.27c-.2.65-.52,1.93-1,3.84l-1.26,5.32c-.63,2.67-.94,4.06-.94,4.18s.09.41.29.41a1.82,1.82,0,0,0,.81-.33A13,13,0,0,0,107.6,91.83Z"/><path d="M109,87.16l-.56-.44a9.81,9.81,0,0,1,2.31-2,3.74,3.74,0,0,1,1.78-.59,1,1,0,0,1,.63.18.57.57,0,0,1,.21.48,23.47,23.47,0,0,1-.82,3.12,30.9,30.9,0,0,0-1.34,5.43.49.49,0,0,0,.09.3.23.23,0,0,0,.19.12c.27,0,1-.52,2.08-1.57l.49.48a16.75,16.75,0,0,1-2.54,2.1,2.86,2.86,0,0,1-1.3.45.91.91,0,0,1-.71-.28,1.09,1.09,0,0,1-.26-.77c0-1.06.64-3.64,1.91-7.76a2.13,2.13,0,0,0,.08-.52c0-.17-.07-.25-.22-.25a1.15,1.15,0,0,0-.58.2A12.76,12.76,0,0,0,109,87.16Zm5-8.41a.87.87,0,0,1,.64.26.94.94,0,0,1,.26.67,1.4,1.4,0,0,1-.39,1,1.15,1.15,0,0,1-.87.43.83.83,0,0,1-.63-.27,1,1,0,0,1-.26-.7,1.41,1.41,0,0,1,.37-1A1.15,1.15,0,0,1,114,78.75Z"/><path d="M123.33,84.12l1-.23c-.61,2-1.18,4-1.69,6-.37,1.42-.63,2.61-.78,3.55a14.22,14.22,0,0,0-.12,1.81,9.65,9.65,0,0,1-.41,2.94,4.76,4.76,0,0,1-2,2.51,6.09,6.09,0,0,1-3.44,1,4.1,4.1,0,0,1-2.7-.81,2.35,2.35,0,0,1-1-1.85,2.86,2.86,0,0,1,.79-1.91,8.9,8.9,0,0,1,2.45-1.63c.62-.33,1.21-.67,1.76-1a3.52,3.52,0,0,1-1.46.48,1.07,1.07,0,0,1-.84-.44,1.77,1.77,0,0,1-.36-1.16A8.85,8.85,0,0,1,116,88.65a9.69,9.69,0,0,1,3.35-3.46,5.8,5.8,0,0,1,3-.71l.88,0Zm-3.14,8.8a38.54,38.54,0,0,1-3.33,2.48,13.21,13.21,0,0,0-2.67,2.12,2.28,2.28,0,0,0-.5,1.39,1.74,1.74,0,0,0,.64,1.3,2.24,2.24,0,0,0,1.56.58,3.61,3.61,0,0,0,1.68-.42A4.18,4.18,0,0,0,119,99.13a4.66,4.66,0,0,0,.83-1.82,12.66,12.66,0,0,0,.25-2.69C120.07,94.38,120.12,93.81,120.19,92.92ZM121.91,86a5.47,5.47,0,0,0-1.07-.11,3.39,3.39,0,0,0-2.07.63,4.83,4.83,0,0,0-1.47,2.13,10,10,0,0,0-.85,3.57,1.53,1.53,0,0,0,.33,1,1,1,0,0,0,.76.41,2.41,2.41,0,0,0,1.25-.49A4.09,4.09,0,0,0,120,91.92a10.19,10.19,0,0,0,1-2.54Z"/><path d="M135.38,92.2l.33.47a11.4,11.4,0,0,1-2.4,2,2.8,2.8,0,0,1-1.39.52.87.87,0,0,1-.71-.35,1.78,1.78,0,0,1-.28-1.11,7.74,7.74,0,0,1,.21-1.48c.14-.64.54-2,1.19-4.17a12.27,12.27,0,0,0,.43-1.84c0-.27-.14-.4-.43-.4a2.57,2.57,0,0,0-1.34.53,7.79,7.79,0,0,0-2,1.87,5.78,5.78,0,0,0-.88,2.16l-1,4.44h-1.89c.41-1.48.72-2.69.94-3.63L128,83.12a10.12,10.12,0,0,1,1.34-3.47,6.09,6.09,0,0,1,2.17-2A5.55,5.55,0,0,1,134.2,77a1.24,1.24,0,0,1,.86.28.85.85,0,0,1,.32.68.79.79,0,0,1-.32.61,1.26,1.26,0,0,1-.84.26,6.71,6.71,0,0,1-.79-.06,12.39,12.39,0,0,0-1.51-.17,1.14,1.14,0,0,0-.95.48,6.58,6.58,0,0,0-.77,2.22l-1.41,6.26a16,16,0,0,1,3.29-2.67,3.49,3.49,0,0,1,1.68-.65,1,1,0,0,1,.77.29,1.13,1.13,0,0,1,.28.82,3.67,3.67,0,0,1-.1.86c-.11.5-.37,1.4-.78,2.72-.55,1.81-.87,2.93-1,3.37a5.44,5.44,0,0,0-.15,1.18.62.62,0,0,0,.07.31.24.24,0,0,0,.21.1,2.56,2.56,0,0,0,1.14-.72Z"/><path d="M140.18,82.26l2-.78L141.28,85h2.63l-.21.9h-2.63L140,90.19a11.67,11.67,0,0,0-.53,2.67.73.73,0,0,0,.14.49.55.55,0,0,0,.4.15,2.72,2.72,0,0,0,1.21-.47,14.73,14.73,0,0,0,2-1.41l.48.59A30.6,30.6,0,0,1,140,94.77a3.52,3.52,0,0,1-1.51.47.89.89,0,0,1-.74-.34,1.82,1.82,0,0,1-.27-1.12,12.53,12.53,0,0,1,.48-2.79l1.29-5h-2l.23-.9h2.05Z"/><path d="M148,83.23l-.21-.81a7.39,7.39,0,0,0,1.39-1.5,2.25,2.25,0,0,0,.32-1.08,2,2,0,0,0-.31-.85,1.84,1.84,0,0,1-.24-.85,1.13,1.13,0,0,1,.31-.84,1,1,0,0,1,.77-.33,1.07,1.07,0,0,1,.83.38,1.43,1.43,0,0,1,.33,1,4.37,4.37,0,0,1-.69,2.23A11.52,11.52,0,0,1,148,83.23Z"/><path d="M157.47,84.21a2.58,2.58,0,0,1,2.07,1,4.19,4.19,0,0,1,.82,2.76,7.47,7.47,0,0,1-2,5.06,5.65,5.65,0,0,1-4.19,2.24,2.89,2.89,0,0,1-2.19-.89,3.43,3.43,0,0,1-.83-2.43A8.66,8.66,0,0,1,152.69,87,5.65,5.65,0,0,1,157.47,84.21Zm-1.08,1c-.72,0-1.42.52-2.09,1.55a7.7,7.7,0,0,0-1,4.25,4.8,4.8,0,0,0,.62,2.61,1.42,1.42,0,0,0,1.22.7A2.41,2.41,0,0,0,157.07,93a7.64,7.64,0,0,0,1.12-4.26,5.33,5.33,0,0,0-.51-2.71A1.51,1.51,0,0,0,156.39,85.16Z"/><path d="M167.62,87.13l-.38-.51a10.67,10.67,0,0,1,2.39-1.85,4.22,4.22,0,0,1,1.78-.6.61.61,0,0,1,.41.12.41.41,0,0,1,.13.31,4.8,4.8,0,0,1-.2,1c-.2.71-.33,1.28-.41,1.69,2-2.06,3.57-3.1,4.65-3.1a.84.84,0,0,1,.63.23,1,1,0,0,1,.21.72,7.15,7.15,0,0,1-.38,1.82A12.78,12.78,0,0,1,179,84.8a3.69,3.69,0,0,1,1.66-.63,1.06,1.06,0,0,1,.83.31,1.28,1.28,0,0,1,.29.94,4.14,4.14,0,0,1-.12.9c-.09.35-.4,1.4-.93,3.17a22.46,22.46,0,0,0-1,3.93c0,.28.11.43.35.43a.78.78,0,0,0,.47-.16,11.7,11.7,0,0,0,1.54-1.32l.42.46c-.18.14-.52.44-1,.89a11.28,11.28,0,0,1-1.39,1.14,2.58,2.58,0,0,1-1.25.43.83.83,0,0,1-.67-.37,1.63,1.63,0,0,1-.29-1,6.71,6.71,0,0,1,.18-1.42c.11-.55.46-1.77,1-3.68a14.41,14.41,0,0,0,.64-2.6c0-.29-.12-.43-.38-.43a1.84,1.84,0,0,0-.85.31,6.5,6.5,0,0,0-1.83,1.62,6.14,6.14,0,0,0-.88,2.09q-.85,3.14-1.27,5.12h-1.81l1.89-7.76a8.06,8.06,0,0,0,.21-1,.46.46,0,0,0-.1-.31.37.37,0,0,0-.3-.11,2.18,2.18,0,0,0-1.06.53A6.9,6.9,0,0,0,171.54,88a8.3,8.3,0,0,0-.94,2.57l-1,4.29H167.8l1.43-6.06c.43-1.75.64-2.7.64-2.85s-.08-.3-.23-.3C169.31,85.68,168.64,86.17,167.62,87.13Z"/><path d="M190.06,91.7l.41.56q-3.1,3-5.33,3a1.67,1.67,0,0,1-1.38-.61,3.27,3.27,0,0,1-.47-2,10.23,10.23,0,0,1,1.65-5.4q1.84-3.06,4.43-3.06a1.94,1.94,0,0,1,1.38.45,1.63,1.63,0,0,1,.47,1.23,2.78,2.78,0,0,1-.57,1.63,6.57,6.57,0,0,1-2,1.66c-.49.28-1.54.79-3.15,1.51a7.63,7.63,0,0,0-.11,1.31,2.09,2.09,0,0,0,.28,1.26,1,1,0,0,0,.83.35,2.6,2.6,0,0,0,1.14-.29A15.63,15.63,0,0,0,190.06,91.7Zm-4.45-1.84a9.8,9.8,0,0,0,3.07-2,2.12,2.12,0,0,0,.7-1.46,1.28,1.28,0,0,0-.28-.87,1,1,0,0,0-.75-.32,1.49,1.49,0,0,0-.91.35,3.53,3.53,0,0,0-1,1.43A12.77,12.77,0,0,0,185.61,89.86Z"/><path d="M195.79,82.26l2-.78L196.9,85h2.63l-.21.9h-2.63l-1.11,4.25a12.06,12.06,0,0,0-.52,2.67.73.73,0,0,0,.14.49.54.54,0,0,0,.4.15,2.72,2.72,0,0,0,1.21-.47,14.73,14.73,0,0,0,2-1.41l.48.59a30.6,30.6,0,0,1-3.72,2.56,3.52,3.52,0,0,1-1.51.47.89.89,0,0,1-.74-.34,1.82,1.82,0,0,1-.27-1.12,12.53,12.53,0,0,1,.48-2.79l1.29-5h-2.06L193,85h2.06Z"/><path d="M207.21,91.7l.42.56q-3.12,3-5.34,3a1.64,1.64,0,0,1-1.37-.61,3.19,3.19,0,0,1-.48-2,10.23,10.23,0,0,1,1.65-5.4c1.24-2,2.71-3.06,4.43-3.06a1.94,1.94,0,0,1,1.38.45,1.6,1.6,0,0,1,.47,1.23,2.78,2.78,0,0,1-.57,1.63,6.57,6.57,0,0,1-2,1.66c-.49.28-1.54.79-3.15,1.51A7.63,7.63,0,0,0,202.5,92a2.09,2.09,0,0,0,.28,1.26,1,1,0,0,0,.83.35,2.67,2.67,0,0,0,1.15-.29A16.15,16.15,0,0,0,207.21,91.7Zm-4.45-1.84a9.86,9.86,0,0,0,3.08-2,2.15,2.15,0,0,0,.69-1.46,1.28,1.28,0,0,0-.28-.87,1,1,0,0,0-.74-.32,1.49,1.49,0,0,0-.92.35,3.53,3.53,0,0,0-1,1.43A12.77,12.77,0,0,0,202.76,89.86Z"/><path d="M211.74,94.89h-1.89l.89-3.42c.43-1.67.8-3.26,1.13-4.77A5.92,5.92,0,0,0,212,86c0-.2-.09-.3-.28-.3a1.17,1.17,0,0,0-.58.26,11,11,0,0,0-1.43,1.29l-.39-.45a9.73,9.73,0,0,1,2.43-2,4.36,4.36,0,0,1,1.86-.65.57.57,0,0,1,.36.1.37.37,0,0,1,.14.28,6.36,6.36,0,0,1-.17.88l-.55,2.28a16.05,16.05,0,0,1,2.9-3.47,2.21,2.21,0,0,1,1.29-.68.89.89,0,0,1,.64.24.79.79,0,0,1,.25.58.82.82,0,0,1-.24.59,3.89,3.89,0,0,1-1.24.57,5.2,5.2,0,0,0-1.53.76,7.48,7.48,0,0,0-1.29,1.36,7.57,7.57,0,0,0-1,1.59,27.81,27.81,0,0,0-.85,3.16Z"/></g><g id="Layer_168" data-name="Layer 168"><path d="M683.86,121c1.44,1.44,2.15,2.79,2.15,4.06a4.46,4.46,0,0,1-1.55,3.32,5.28,5.28,0,0,1-3.79,1.48,3.61,3.61,0,0,1-2.77-1,3.09,3.09,0,0,1-.95-2.17,3.73,3.73,0,0,1,.39-1.61,5.64,5.64,0,0,1,1.23-1.59,21.74,21.74,0,0,1,3-2,4.75,4.75,0,0,1-1.36-3.15,3.8,3.8,0,0,1,1.25-2.83,4.34,4.34,0,0,1,3.09-1.18,3.2,3.2,0,0,1,2.19.73,2.24,2.24,0,0,1,.84,1.74,3.09,3.09,0,0,1-.77,2A8.88,8.88,0,0,1,683.86,121Zm-1.77,1a10.66,10.66,0,0,0-2.72,2.47,3.79,3.79,0,0,0-.69,2.13,2.38,2.38,0,0,0,.72,1.76,2.44,2.44,0,0,0,1.79.72,2.94,2.94,0,0,0,1.5-.42,3.4,3.4,0,0,0,1.6-2.78,3.42,3.42,0,0,0-.43-1.57A11,11,0,0,0,682.09,122Zm1.2-1.7a10,10,0,0,0,2.31-2,2.38,2.38,0,0,0,.54-1.39,1.73,1.73,0,0,0-.55-1.29,1.87,1.87,0,0,0-1.37-.53,2.32,2.32,0,0,0-2.34,2.33A4.4,4.4,0,0,0,683.29,120.31Z"/><path d="M694.81,114.28a3.6,3.6,0,0,1,2.92,1.33,6.19,6.19,0,0,1,1.09,4,13.69,13.69,0,0,1-1.89,7c-1.27,2.17-2.8,3.25-4.61,3.25a3.3,3.3,0,0,1-2.68-1.39,5.91,5.91,0,0,1-1.1-3.77,14.46,14.46,0,0,1,1.09-5.5,9.46,9.46,0,0,1,2.47-3.81A4.26,4.26,0,0,1,694.81,114.28Zm-.23.75a2.2,2.2,0,0,0-1.6,1,10.86,10.86,0,0,0-1.51,3.84,22.15,22.15,0,0,0-.69,5.32,5.64,5.64,0,0,0,.59,3,1.64,1.64,0,0,0,1.35.93,1.9,1.9,0,0,0,1.33-.68,9.09,9.09,0,0,0,1.76-3.78,20.17,20.17,0,0,0,.79-5.58,6.34,6.34,0,0,0-.66-3.25A1.51,1.51,0,0,0,694.58,115Z"/><path d="M705.51,114.29a2.19,2.19,0,0,1,1.72.73,2.92,2.92,0,0,1,.67,2.06,6.15,6.15,0,0,1-1.37,3.94,3.24,3.24,0,0,1-2.6,1.39,2.2,2.2,0,0,1-1.72-.74,2.76,2.76,0,0,1-.68-2,6.65,6.65,0,0,1,1.13-3.7A3.35,3.35,0,0,1,705.51,114.29Zm-.18.55c-.53,0-1,.53-1.48,1.59a8.72,8.72,0,0,0-.68,3.51,2.77,2.77,0,0,0,.3,1.46.85.85,0,0,0,.69.47c.47,0,.9-.41,1.27-1.23a9,9,0,0,0,.83-3.85,3.17,3.17,0,0,0-.32-1.55A.72.72,0,0,0,705.33,114.84Zm-1.8,14.75c.72-1.2,1.34-2.27,1.86-3.2l4.65-8.47q1.13-2.06,1.92-3.63a7.14,7.14,0,0,0,1,.18c-.78,1.26-1.52,2.52-2.21,3.78l-4.08,7.43c-.75,1.35-1.44,2.69-2.09,4a5.8,5.8,0,0,0-.64-.08Zm9.11-8a2.26,2.26,0,0,1,1.72.73,3,3,0,0,1,.66,2.07,6.07,6.07,0,0,1-1.37,3.93,3.24,3.24,0,0,1-2.6,1.4,2.25,2.25,0,0,1-1.72-.74,2.85,2.85,0,0,1-.68-2,6.53,6.53,0,0,1,1.14-3.69A3.32,3.32,0,0,1,712.64,121.56Zm-.19.55q-.8,0-1.47,1.59a8.74,8.74,0,0,0-.69,3.52,2.73,2.73,0,0,0,.3,1.45.83.83,0,0,0,.69.47c.47,0,.9-.41,1.28-1.23a9.12,9.12,0,0,0,.83-3.85,3,3,0,0,0-.33-1.54A.73.73,0,0,0,712.45,122.11Z"/></g><g id="Layer_21" data-name="Layer 21"><path class="cls-2" d="M69.69,110.5c-3.06,1.65-8,10.46-7.41,12,.75,2.06.1,4,.93,6a14.59,14.59,0,0,0,5.55,6c10.18,6,22.22,6,22.22,6h34.24l-.92-35H83.57S71.54,109.5,69.69,110.5Z"/></g><g id="Layer_11" data-name="Layer 11"><path d="M662.72,125.5c1,3-.93,7.87-3,9-11,6-26,6-26,6h-22v-34h31l6,1,9,8S662,123.38,662.72,125.5Z"/></g><g class="cls-3"><ellipse class="cls-4" cx="220.98" cy="154.09" rx="12.66" ry="13.04"/></g><g class="cls-3"><ellipse class="cls-5" cx="237.98" cy="150.09" rx="7.66" ry="7.89"/></g><g class="cls-3"><ellipse class="cls-6" cx="359.64" cy="154.63" rx="12.66" ry="13.04"/></g><g class="cls-3"><ellipse class="cls-7" cx="376.64" cy="150.63" rx="7.66" ry="7.89"/></g><g class="cls-3"><ellipse class="cls-8" cx="345.64" cy="147.63" rx="5.99" ry="6.18"/></g><g class="cls-3"><ellipse class="cls-9" cx="608.56" cy="95.86" rx="10.27" ry="10.58"/></g><g class="cls-3"><ellipse class="cls-10" cx="622.56" cy="98.86" rx="7.08" ry="7.29"/></g><g class="cls-3"><ellipse class="cls-11" cx="598.56" cy="102.86" rx="4.08" ry="4.2"/></g><g class="cls-3"><ellipse class="cls-12" cx="616.57" cy="89.33" rx="4.06" ry="4.19"/></g></g></svg>