<svg xmlns="http://www.w3.org/2000/svg" xmlns:xlink="http://www.w3.org/1999/xlink" width="800.78" height="200" viewBox="0 0 800.78 200"><defs><style>.cls-1{fill:#999;}.cls-1,.cls-3{opacity:0.5;}.cls-2{fill:#fffd00;}.cls-4{fill:url(#radial-gradient);}.cls-5{fill:url(#radial-gradient-2);}.cls-6{fill:url(#radial-gradient-3);}.cls-7{fill:url(#radial-gradient-4);}.cls-8{fill:url(#radial-gradient-5);}.cls-9{fill:url(#radial-gradient-6);}.cls-10{fill:url(#radial-gradient-7);}.cls-11{fill:url(#radial-gradient-8);}.cls-12{fill:url(#radial-gradient-9);}</style><radialGradient id="radial-gradient" cx="1221.1" cy="1851.53" r="87.04" gradientTransform="translate(45.91 -137.22) scale(0.15 0.15)" gradientUnits="userSpaceOnUse"><stop offset="0" stop-color="#fff" stop-opacity="0"/><stop offset="0.87" stop-color="#fff" stop-opacity="0.05"/><stop offset="1" stop-color="#fff"/></radialGradient><radialGradient id="radial-gradient-2" cx="1338.01" cy="1824.84" r="52.66" xlink:href="#radial-gradient"/><radialGradient id="radial-gradient-3" cx="2174.72" cy="1855.15" r="87.04" xlink:href="#radial-gradient"/><radialGradient id="radial-gradient-4" cx="2291.63" cy="1828.46" r="52.66" xlink:href="#radial-gradient"/><radialGradient id="radial-gradient-5" cx="2078.44" cy="1808.43" r="41.21" xlink:href="#radial-gradient"/><radialGradient id="radial-gradient-6" cx="3886.58" cy="1462.95" r="70.6" xlink:href="#radial-gradient"/><radialGradient id="radial-gradient-7" cx="3982.86" cy="1482.97" r="48.67" xlink:href="#radial-gradient"/><radialGradient id="radial-gradient-8" cx="3817.8" cy="1509.66" r="28.03" xlink:href="#radial-gradient"/><radialGradient id="radial-gradient-9" cx="3941.7" cy="1419.39" r="27.93" xlink:href="#radial-gradient"/></defs><g id="Layer_248" data-name="Layer 248"><g id="Layer_249" data-name="Layer 249"><rect class="cls-1" x="-888.78" y="-509" width="2701" height="1728" rx="12"/></g></g><g id="Layer_1" data-name="Layer 1"><g id="Layer_127" data-name="Layer 127"><path d="M662.61,110.5c3.36,11.76-11.92,15-28,16a292.39,292.39,0,0,1-30,0h-504c-39.51,0-42-16.65-33-27,4.83-5.56,19-8,19-8l44.26.08,505.65.91h8.09s4,0,10.24,5.88A26.54,26.54,0,0,1,662.61,110.5Z"/></g><g id="Layer_126" data-name="Layer 126"><path d="M130.87,91.58V126.5l60.18.44V91.49Z"/></g><g id="Layer_125" data-name="Layer 125"><path d="M191.08,91.65v34.92l60.18.44V91.56Z"/></g><g id="Layer_124" data-name="Layer 124"><path d="M251.71,91.68V126.6l60.18.44V91.59Z"/></g><g id="Layer_123" data-name="Layer 123"><path d="M311,91V126l60.18.44V90.94Z"/></g><g id="Layer_122" data-name="Layer 122"><path d="M370.37,91.56v34.92l60.19.44V91.47Z"/></g><g id="Layer_121" data-name="Layer 121"><path d="M430.37,91.56v34.92l60.19.44V91.47Z"/></g><g id="Layer_120" data-name="Layer 120"><path d="M490.37,91.56v34.92l60.19.44V91.47Z"/></g><g id="Layer_119" data-name="Layer 119"><path d="M550.88,91.91v34.92l60.18.44V91.82Z"/></g><g id="Layer_118" data-name="Layer 118"><path d="M663.51,110.5c3.36,11.76-11.92,15-28,16a292.39,292.39,0,0,1-30,0h-504c-39.51,0-42-16.65-33-27,4.83-5.56,19-8,19-8l44.26.08,505.65.91h8.09s4,0,10.24,5.88A26.54,26.54,0,0,1,663.51,110.5Z"/></g><g id="Layer_117" data-name="Layer 117"><path class="cls-2" d="M129.4,91.58V126.5l58.45.44V91.49Z"/></g><g id="Layer_116" data-name="Layer 116"><path class="cls-2" d="M193.4,91.65v34.92l53.25.44V91.56Z"/></g><g id="Layer_115" data-name="Layer 115"><path class="cls-2" d="M252.2,91.68V126.6l54.62.44V91.59Z"/></g><g id="Layer_114" data-name="Layer 114"><path class="cls-2" d="M312.37,91V126l56.35.44V90.94Z"/></g><g id="Layer_113" data-name="Layer 113"><path class="cls-2" d="M374.27,91.56v34.92l57,.44V91.47Z"/></g><g id="Layer_112" data-name="Layer 112"><path d="M431.27,91.56v34.92l60.19.44V91.47Z"/></g><g id="Layer_111" data-name="Layer 111"><path d="M491.27,91.56v34.92l60.19.44V91.47Z"/></g><g id="Layer_110" data-name="Layer 110"><path d="M551.78,91.91v34.92l60.18.44V91.82Z"/></g><g id="Layer_109" data-name="Layer 109"><path d="M82.55,68.67l.13-.54a22.54,22.54,0,0,0,3.26-.56,23.52,23.52,0,0,0-1,3.2l-.84,3.54a22.14,22.14,0,0,1-2,5.79,10.37,10.37,0,0,0,1.93.22,7.61,7.61,0,0,0,3.86-.94,6.68,6.68,0,0,0,2.62-2.72,8.11,8.11,0,0,0,1-4,6.3,6.3,0,0,0-1.65-4.55,5.68,5.68,0,0,0-4.31-1.72,8.87,8.87,0,0,0-4.24,1.07,8.61,8.61,0,0,0-3.15,2.82A6.23,6.23,0,0,0,77,73.75a2.54,2.54,0,0,0,1.42,2.39,1.74,1.74,0,0,1,.53.39.69.69,0,0,1,.12.41.78.78,0,0,1-.23.54.74.74,0,0,1-.55.23A1.72,1.72,0,0,1,77,76.83a4.41,4.41,0,0,1-.87-2.56,7.81,7.81,0,0,1,1.3-4.22A9.22,9.22,0,0,1,81,66.81a11,11,0,0,1,5.17-1.21,8,8,0,0,1,5.58,1.88,6.05,6.05,0,0,1,2.07,4.7A8.59,8.59,0,0,1,92.39,77a8.33,8.33,0,0,1-3.49,3.14,9.84,9.84,0,0,1-4.09.93c-.44,0-1.2,0-2.28-.13-.92-.07-1.78-.1-2.6-.1-.38,0-1,0-1.74,0l.29-.62a4.9,4.9,0,0,0,1.45-.21,1.16,1.16,0,0,0,.49-.47,13,13,0,0,0,1-2.54l.88-3.31,1-4.14a2.2,2.2,0,0,0,.08-.52.41.41,0,0,0-.13-.32.48.48,0,0,0-.35-.12Z"/><path d="M101.36,77.7l.42.56q-3.12,3-5.34,3a1.64,1.64,0,0,1-1.37-.61,3.19,3.19,0,0,1-.48-2,10.23,10.23,0,0,1,1.65-5.4c1.24-2,2.71-3.06,4.43-3.06a1.94,1.94,0,0,1,1.38.45,1.6,1.6,0,0,1,.47,1.23A2.78,2.78,0,0,1,102,73.5a6.57,6.57,0,0,1-2,1.66c-.49.28-1.54.78-3.15,1.51A8.79,8.79,0,0,0,96.65,78a2.09,2.09,0,0,0,.28,1.26,1,1,0,0,0,.83.35,2.67,2.67,0,0,0,1.15-.29A15.66,15.66,0,0,0,101.36,77.7Zm-4.45-1.84a9.86,9.86,0,0,0,3.08-2,2.15,2.15,0,0,0,.69-1.46,1.28,1.28,0,0,0-.28-.87,1,1,0,0,0-.74-.32,1.49,1.49,0,0,0-.92.35,3.53,3.53,0,0,0-1,1.43A12.77,12.77,0,0,0,96.91,75.86Z"/><path d="M108.82,77.83l.43.46a12.56,12.56,0,0,1-2.34,2,4.24,4.24,0,0,1-2.23.92.8.8,0,0,1-.64-.3,1.19,1.19,0,0,1-.26-.81,22.52,22.52,0,0,1,.79-4.22l1.37-5.57a23.4,23.4,0,0,1,1.25-4A5.93,5.93,0,0,1,112.45,63a1.32,1.32,0,0,1,.86.26.81.81,0,0,1,.31.64.86.86,0,0,1-.3.67,1.37,1.37,0,0,1-.89.26,5.92,5.92,0,0,1-1.07-.13,7.87,7.87,0,0,0-1.13-.1,1.15,1.15,0,0,0-.78.22,2.65,2.65,0,0,0-.67,1.27c-.2.65-.52,1.93-1,3.84l-1.26,5.32c-.63,2.67-.94,4.06-.94,4.18s.1.41.29.41a1.74,1.74,0,0,0,.81-.33A12.6,12.6,0,0,0,108.82,77.83Z"/><path d="M110.18,73.16l-.56-.44a9.83,9.83,0,0,1,2.32-2,3.7,3.7,0,0,1,1.78-.59,1,1,0,0,1,.62.18.57.57,0,0,1,.21.48,23.47,23.47,0,0,1-.82,3.12,31.94,31.94,0,0,0-1.34,5.43.49.49,0,0,0,.09.3.24.24,0,0,0,.19.12c.27,0,1-.52,2.08-1.57l.5.48a17.26,17.26,0,0,1-2.54,2.1,2.9,2.9,0,0,1-1.31.45.92.92,0,0,1-.71-.28,1.09,1.09,0,0,1-.26-.77c0-1.06.64-3.64,1.91-7.76a1.78,1.78,0,0,0,.09-.52c0-.17-.08-.25-.23-.25a1.18,1.18,0,0,0-.58.2A13.76,13.76,0,0,0,110.18,73.16Zm5-8.41a.89.89,0,0,1,.65.26.93.93,0,0,1,.25.67,1.4,1.4,0,0,1-.39,1,1.12,1.12,0,0,1-.87.43.83.83,0,0,1-.63-.27,1,1,0,0,1-.25-.7,1.4,1.4,0,0,1,.36-1A1.19,1.19,0,0,1,115.17,64.75Z"/><path d="M124.55,70.12l1-.23c-.61,2-1.18,4-1.69,6a34.78,34.78,0,0,0-.77,3.55,12.4,12.4,0,0,0-.13,1.81,9.65,9.65,0,0,1-.41,2.94,4.74,4.74,0,0,1-2,2.51,6.12,6.12,0,0,1-3.45,1,4.14,4.14,0,0,1-2.7-.81,2.34,2.34,0,0,1-1-1.85,2.85,2.85,0,0,1,.78-1.91,9.07,9.07,0,0,1,2.45-1.63c.63-.33,1.22-.67,1.77-1a3.6,3.6,0,0,1-1.47.48,1.1,1.1,0,0,1-.84-.44,1.77,1.77,0,0,1-.36-1.16,8.85,8.85,0,0,1,1.39-4.64,9.69,9.69,0,0,1,3.35-3.46,5.8,5.8,0,0,1,3-.71l.88,0Zm-3.14,8.8a37,37,0,0,1-3.33,2.48,13.21,13.21,0,0,0-2.67,2.12,2.27,2.27,0,0,0-.49,1.39,1.7,1.7,0,0,0,.64,1.3,2.24,2.24,0,0,0,1.56.58,3.67,3.67,0,0,0,1.68-.42,4.24,4.24,0,0,0,1.41-1.24,4.67,4.67,0,0,0,.84-1.82,13.39,13.39,0,0,0,.24-2.69C121.3,80.38,121.34,79.81,121.41,78.92ZM123.14,72a5.64,5.64,0,0,0-1.08-.11,3.43,3.43,0,0,0-2.07.63,4.93,4.93,0,0,0-1.47,2.13,10,10,0,0,0-.85,3.57,1.48,1.48,0,0,0,.34,1,.93.93,0,0,0,.75.41,2.44,2.44,0,0,0,1.26-.49,4.06,4.06,0,0,0,1.22-1.22,9.81,9.81,0,0,0,1-2.54Z"/><path d="M136.6,78.2l.33.47a11.4,11.4,0,0,1-2.4,2,2.8,2.8,0,0,1-1.38.52.87.87,0,0,1-.72-.35,1.85,1.85,0,0,1-.27-1.11,7.64,7.64,0,0,1,.21-1.48c.13-.64.53-2,1.18-4.17a12.27,12.27,0,0,0,.43-1.84c0-.27-.14-.4-.43-.4a2.57,2.57,0,0,0-1.34.53,8.13,8.13,0,0,0-2,1.87,5.78,5.78,0,0,0-.88,2.16l-1,4.44h-1.89q.6-2.22.93-3.63l1.87-8.14a10.24,10.24,0,0,1,1.34-3.47,6.09,6.09,0,0,1,2.17-2,5.58,5.58,0,0,1,2.65-.73,1.24,1.24,0,0,1,.86.28.85.85,0,0,1,.32.68.78.78,0,0,1-.31.61,1.31,1.31,0,0,1-.85.26,6.86,6.86,0,0,1-.79-.06,12.19,12.19,0,0,0-1.51-.17,1.14,1.14,0,0,0-.95.48,6.41,6.41,0,0,0-.76,2.22L130,73.53a16.26,16.26,0,0,1,3.29-2.67,3.56,3.56,0,0,1,1.68-.65,1,1,0,0,1,.77.29,1.13,1.13,0,0,1,.28.82,3.67,3.67,0,0,1-.1.86c-.11.5-.37,1.4-.77,2.72-.56,1.81-.88,2.93-1,3.37a5.44,5.44,0,0,0-.15,1.18.62.62,0,0,0,.07.31.24.24,0,0,0,.21.1c.21,0,.59-.24,1.15-.72C135.77,78.87,136.15,78.56,136.6,78.2Z"/><path d="M141.4,68.26l2-.78L142.5,71h2.63l-.2.9H142.3l-1.11,4.25a12.26,12.26,0,0,0-.53,2.67.68.68,0,0,0,.15.49.52.52,0,0,0,.4.15,2.73,2.73,0,0,0,1.2-.47,14.73,14.73,0,0,0,2-1.41l.49.59a32.32,32.32,0,0,1-3.72,2.56,3.56,3.56,0,0,1-1.51.47.91.91,0,0,1-.75-.34,1.82,1.82,0,0,1-.27-1.12,12.53,12.53,0,0,1,.48-2.79l1.3-5H138.4l.23-.9h2.06Z"/><path d="M149.24,69.23l-.21-.81a7.39,7.39,0,0,0,1.39-1.5,2.25,2.25,0,0,0,.32-1.08,2.14,2.14,0,0,0-.3-.85,1.84,1.84,0,0,1-.24-.85,1.18,1.18,0,0,1,.3-.84,1,1,0,0,1,.77-.33,1.07,1.07,0,0,1,.83.38,1.43,1.43,0,0,1,.33,1,4.37,4.37,0,0,1-.69,2.23A11.09,11.09,0,0,1,149.24,69.23Z"/><path d="M158.69,70.21a2.58,2.58,0,0,1,2.07,1,4.19,4.19,0,0,1,.82,2.76,7.47,7.47,0,0,1-2,5.06,5.64,5.64,0,0,1-4.19,2.24,2.89,2.89,0,0,1-2.19-.89,3.44,3.44,0,0,1-.83-2.43A8.59,8.59,0,0,1,153.92,73,5.63,5.63,0,0,1,158.69,70.21Zm-1.08,1c-.72,0-1.42.52-2.09,1.55a7.7,7.7,0,0,0-1,4.25,4.8,4.8,0,0,0,.62,2.61,1.43,1.43,0,0,0,1.22.7,2.44,2.44,0,0,0,2-1.32,7.69,7.69,0,0,0,1.11-4.26A5.33,5.33,0,0,0,158.9,72,1.49,1.49,0,0,0,157.61,71.16Z"/><path d="M168.85,73.13l-.39-.51a10.67,10.67,0,0,1,2.39-1.85,4.21,4.21,0,0,1,1.79-.6.58.58,0,0,1,.4.12.37.37,0,0,1,.13.31,4.8,4.8,0,0,1-.2,1c-.2.71-.33,1.28-.41,1.69,2-2.06,3.58-3.1,4.65-3.1a.82.82,0,0,1,.63.23,1,1,0,0,1,.22.72,7.63,7.63,0,0,1-.38,1.82,12.49,12.49,0,0,1,2.51-2.14,3.67,3.67,0,0,1,1.67-.63,1.06,1.06,0,0,1,.82.31,1.28,1.28,0,0,1,.3.94,4.23,4.23,0,0,1-.13.9c-.09.35-.4,1.4-.93,3.17a22.46,22.46,0,0,0-1,3.93c0,.28.12.43.35.43a.78.78,0,0,0,.47-.16,11.7,11.7,0,0,0,1.54-1.32l.42.46c-.18.15-.51.44-1,.89a11.92,11.92,0,0,1-1.4,1.14,2.58,2.58,0,0,1-1.24.43.85.85,0,0,1-.68-.37,1.69,1.69,0,0,1-.29-1,6.71,6.71,0,0,1,.18-1.42c.12-.55.46-1.77,1-3.68a14.88,14.88,0,0,0,.65-2.6c0-.29-.13-.43-.38-.43a1.77,1.77,0,0,0-.85.31,6.5,6.5,0,0,0-1.83,1.62,5.93,5.93,0,0,0-.89,2.09q-.85,3.14-1.27,5.12h-1.8l1.89-7.76a9.35,9.35,0,0,0,.2-1,.46.46,0,0,0-.1-.32.39.39,0,0,0-.29-.1,2.16,2.16,0,0,0-1.07.53,6.84,6.84,0,0,0-1.8,1.75,8,8,0,0,0-1,2.57l-1,4.29H169l1.44-6.06q.63-2.62.63-2.85c0-.2-.07-.3-.23-.3C170.53,71.68,169.86,72.17,168.85,73.13Z"/><path d="M191.28,77.7l.42.56c-2.08,2-3.85,3-5.34,3a1.64,1.64,0,0,1-1.37-.61,3.19,3.19,0,0,1-.48-2,10.23,10.23,0,0,1,1.65-5.4c1.24-2,2.71-3.06,4.43-3.06a1.94,1.94,0,0,1,1.38.45,1.6,1.6,0,0,1,.48,1.23,2.73,2.73,0,0,1-.58,1.63,6.57,6.57,0,0,1-2,1.66c-.49.28-1.54.78-3.15,1.51a8.79,8.79,0,0,0-.11,1.31,2.09,2.09,0,0,0,.28,1.26,1,1,0,0,0,.84.35,2.66,2.66,0,0,0,1.14-.29A15.66,15.66,0,0,0,191.28,77.7Zm-4.45-1.84a9.86,9.86,0,0,0,3.08-2,2.15,2.15,0,0,0,.69-1.46,1.28,1.28,0,0,0-.28-.87,1,1,0,0,0-.74-.32,1.49,1.49,0,0,0-.92.35,3.53,3.53,0,0,0-1,1.43A13.33,13.33,0,0,0,186.83,75.86Z"/><path d="M197,68.26l2-.78L198.12,71h2.63l-.2.9h-2.64l-1.1,4.25a12.26,12.26,0,0,0-.53,2.67.68.68,0,0,0,.15.49.52.52,0,0,0,.4.15A2.73,2.73,0,0,0,198,79a14.73,14.73,0,0,0,2-1.41l.49.59a32.32,32.32,0,0,1-3.72,2.56,3.56,3.56,0,0,1-1.52.47.89.89,0,0,1-.74-.34,1.82,1.82,0,0,1-.27-1.12,12.53,12.53,0,0,1,.48-2.79l1.29-5h-2l.23-.9h2.05Z"/><path d="M208.43,77.7l.42.56c-2.08,2-3.85,3-5.33,3a1.66,1.66,0,0,1-1.38-.61,3.19,3.19,0,0,1-.48-2,10.23,10.23,0,0,1,1.65-5.4q1.86-3.06,4.43-3.06a1.94,1.94,0,0,1,1.38.45,1.6,1.6,0,0,1,.48,1.23A2.78,2.78,0,0,1,209,73.5,6.75,6.75,0,0,1,207,75.16c-.49.28-1.54.78-3.15,1.51a8.79,8.79,0,0,0-.11,1.31,2.09,2.09,0,0,0,.28,1.26,1,1,0,0,0,.84.35A2.66,2.66,0,0,0,206,79.3,15.66,15.66,0,0,0,208.43,77.7ZM204,75.86a9.92,9.92,0,0,0,3.07-2,2.17,2.17,0,0,0,.7-1.46,1.29,1.29,0,0,0-.29-.87,1,1,0,0,0-.74-.32,1.49,1.49,0,0,0-.92.35,3.63,3.63,0,0,0-1,1.43A12.74,12.74,0,0,0,204,75.86Z"/><path d="M213,80.89h-1.89l.89-3.42c.43-1.67.81-3.26,1.13-4.77a5.92,5.92,0,0,0,.11-.7c0-.2-.09-.3-.28-.3a1.21,1.21,0,0,0-.58.26,11.2,11.2,0,0,0-1.42,1.29l-.4-.45a10.1,10.1,0,0,1,2.43-2,4.36,4.36,0,0,1,1.86-.65.53.53,0,0,1,.36.1.37.37,0,0,1,.14.28,6.36,6.36,0,0,1-.17.88l-.55,2.28a16.34,16.34,0,0,1,2.9-3.47,2.23,2.23,0,0,1,1.3-.68.88.88,0,0,1,.63.24.8.8,0,0,1,.26.58.83.83,0,0,1-.25.59,3.89,3.89,0,0,1-1.24.57,5.46,5.46,0,0,0-1.53.76,7.48,7.48,0,0,0-1.29,1.36,7.07,7.07,0,0,0-1,1.59,27,27,0,0,0-.86,3.16Z"/></g><g id="Layer_108" data-name="Layer 108"><path d="M689.55,100.28l-.16.76a9.41,9.41,0,0,0-3.58.78,7.1,7.1,0,0,0-2.5,2,9.77,9.77,0,0,0-1.67,3.36,5.33,5.33,0,0,1,1.43-.87,4,4,0,0,1,1.46-.28,3,3,0,0,1,2.34,1,4.32,4.32,0,0,1,.89,2.92,6.42,6.42,0,0,1-1.54,4.38,4.26,4.26,0,0,1-3.4,1.55,3.59,3.59,0,0,1-2.88-1.33,5.65,5.65,0,0,1-1.12-3.71,10.48,10.48,0,0,1,1.46-5.33,10.2,10.2,0,0,1,3.84-3.87A10.61,10.61,0,0,1,689.55,100.28Zm-8.15,7.84a19.58,19.58,0,0,0-.34,3.26,5.28,5.28,0,0,0,.6,2.88,1.81,1.81,0,0,0,1.53.88,1.76,1.76,0,0,0,1.57-1,6.79,6.79,0,0,0,.78-3.61,5.27,5.27,0,0,0-.54-2.78,1.53,1.53,0,0,0-1.3-.82,2.39,2.39,0,0,0-1.06.29A5.86,5.86,0,0,0,681.4,108.12Z"/><path d="M696,100.28a3.58,3.58,0,0,1,2.91,1.33,6.18,6.18,0,0,1,1.1,4,13.7,13.7,0,0,1-1.9,7c-1.27,2.16-2.8,3.25-4.6,3.25a3.31,3.31,0,0,1-2.69-1.39,5.91,5.91,0,0,1-1.1-3.77,14.47,14.47,0,0,1,1.1-5.5,9.36,9.36,0,0,1,2.46-3.81A4.29,4.29,0,0,1,696,100.28Zm-.23.75a2.21,2.21,0,0,0-1.61,1,10.86,10.86,0,0,0-1.51,3.84,22.15,22.15,0,0,0-.69,5.32,5.64,5.64,0,0,0,.59,3,1.64,1.64,0,0,0,1.35.93,1.9,1.9,0,0,0,1.33-.68,9.27,9.27,0,0,0,1.77-3.78,20.53,20.53,0,0,0,.78-5.58,6.24,6.24,0,0,0-.66-3.25A1.51,1.51,0,0,0,695.81,101Z"/><path d="M706.74,100.29a2.22,2.22,0,0,1,1.72.73,3,3,0,0,1,.66,2.06,6.1,6.1,0,0,1-1.37,3.94,3.23,3.23,0,0,1-2.6,1.39,2.21,2.21,0,0,1-1.72-.74,2.81,2.81,0,0,1-.68-2,6.58,6.58,0,0,1,1.14-3.7A3.33,3.33,0,0,1,706.74,100.29Zm-.18.55c-.53,0-1,.53-1.49,1.59a8.89,8.89,0,0,0-.68,3.51,2.77,2.77,0,0,0,.3,1.46.85.85,0,0,0,.69.47c.47,0,.9-.41,1.27-1.23a9,9,0,0,0,.84-3.85,3.05,3.05,0,0,0-.33-1.55A.71.71,0,0,0,706.56,100.84Zm-1.8,14.75c.72-1.2,1.34-2.27,1.85-3.2l4.66-8.47c.74-1.37,1.38-2.58,1.91-3.62a10.13,10.13,0,0,0,1,.17c-.78,1.26-1.52,2.52-2.21,3.78l-4.08,7.43c-.75,1.35-1.44,2.69-2.09,4a5.8,5.8,0,0,0-.64-.08Zm9.1-8a2.24,2.24,0,0,1,1.72.73,3,3,0,0,1,.67,2.07,6.13,6.13,0,0,1-1.37,3.93,3.27,3.27,0,0,1-2.61,1.4,2.25,2.25,0,0,1-1.72-.74,2.85,2.85,0,0,1-.68-2,6.53,6.53,0,0,1,1.14-3.69A3.36,3.36,0,0,1,713.86,107.56Zm-.18.55c-.53,0-1,.53-1.48,1.59a8.74,8.74,0,0,0-.69,3.52,2.73,2.73,0,0,0,.3,1.45.83.83,0,0,0,.7.47c.47,0,.89-.41,1.27-1.23a9.12,9.12,0,0,0,.83-3.85,3,3,0,0,0-.33-1.54A.73.73,0,0,0,713.68,108.11Z"/></g><g id="Layer_19" data-name="Layer 19"><path class="cls-2" d="M70.07,96.14c-3,1.71-7.7,10.77-7.17,12.35.72,2.12.1,4.13.9,6.17a14.7,14.7,0,0,0,5.38,6.17C79,127,90.69,127,90.69,127h33.16L123,91H83.52S71.87,95.11,70.07,96.14Z"/></g><g id="Layer_13" data-name="Layer 13"><path d="M663.72,111.5c1,3-.93,7.87-3,9-11,6-26,6-26,6h-22v-34h31l6,1,9,8S663,109.38,663.72,111.5Z"/></g><g class="cls-3"><ellipse class="cls-4" cx="223.47" cy="140.23" rx="12.66" ry="13.04"/></g><g class="cls-3"><ellipse class="cls-5" cx="240.47" cy="136.23" rx="7.66" ry="7.89"/></g><g class="cls-3"><ellipse class="cls-6" cx="362.13" cy="140.77" rx="12.66" ry="13.04"/></g><g class="cls-3"><ellipse class="cls-7" cx="379.13" cy="136.77" rx="7.66" ry="7.89"/></g><g class="cls-3"><ellipse class="cls-8" cx="348.13" cy="133.77" rx="5.99" ry="6.18"/></g><g class="cls-3"><ellipse class="cls-9" cx="611.05" cy="82" rx="10.27" ry="10.58"/></g><g class="cls-3"><ellipse class="cls-10" cx="625.05" cy="85" rx="7.08" ry="7.29"/></g><g class="cls-3"><ellipse class="cls-11" cx="601.05" cy="89" rx="4.08" ry="4.2"/></g><g class="cls-3"><ellipse class="cls-12" cx="619.06" cy="75.47" rx="4.06" ry="4.19"/></g></g></svg>