<svg xmlns="http://www.w3.org/2000/svg" xmlns:xlink="http://www.w3.org/1999/xlink" width="800.78" height="200" viewBox="0 0 800.78 200"><defs><style>.cls-1{fill:#999;}.cls-1,.cls-3{opacity:0.5;}.cls-2{fill:#fffd00;}.cls-4{fill:url(#radial-gradient);}.cls-5{fill:url(#radial-gradient-2);}.cls-6{fill:url(#radial-gradient-3);}.cls-7{fill:url(#radial-gradient-4);}.cls-8{fill:url(#radial-gradient-5);}.cls-9{fill:url(#radial-gradient-6);}.cls-10{fill:url(#radial-gradient-7);}.cls-11{fill:url(#radial-gradient-8);}.cls-12{fill:url(#radial-gradient-9);}</style><radialGradient id="radial-gradient" cx="-3436.61" cy="5588.96" r="87.04" gradientTransform="translate(747.34 -698.32) scale(0.15 0.15)" gradientUnits="userSpaceOnUse"><stop offset="0" stop-color="#fff" stop-opacity="0"/><stop offset="0.87" stop-color="#fff" stop-opacity="0.05"/><stop offset="1" stop-color="#fff"/></radialGradient><radialGradient id="radial-gradient-2" cx="-3319.7" cy="5562.26" r="52.66" xlink:href="#radial-gradient"/><radialGradient id="radial-gradient-3" cx="-2482.98" cy="5592.57" r="87.04" xlink:href="#radial-gradient"/><radialGradient id="radial-gradient-4" cx="-2366.07" cy="5565.88" r="52.66" xlink:href="#radial-gradient"/><radialGradient id="radial-gradient-5" cx="-2579.27" cy="5545.86" r="41.21" xlink:href="#radial-gradient"/><radialGradient id="radial-gradient-6" cx="-771.13" cy="5200.37" r="70.6" xlink:href="#radial-gradient"/><radialGradient id="radial-gradient-7" cx="-674.85" cy="5220.39" r="48.67" xlink:href="#radial-gradient"/><radialGradient id="radial-gradient-8" cx="-839.9" cy="5247.09" r="28.03" xlink:href="#radial-gradient"/><radialGradient id="radial-gradient-9" cx="-716.01" cy="5156.82" r="27.93" xlink:href="#radial-gradient"/></defs><g id="Layer_248" data-name="Layer 248"><g id="Layer_249" data-name="Layer 249"><rect class="cls-1" x="-68" y="-1169" width="2701" height="1728" rx="12"/></g></g><g id="Layer_1" data-name="Layer 1"><g id="Layer_107" data-name="Layer 107"><path d="M690.83,110.5c3.36,11.76-11.92,15-28,16a292.45,292.45,0,0,1-30,0h-504c-39.51,0-42-16.65-33-27,4.83-5.56,19-8,19-8l44.26.08,505.65.91h8.09s4,0,10.24,5.88A26.46,26.46,0,0,1,690.83,110.5Z"/></g><g id="Layer_106" data-name="Layer 106"><path d="M159.09,91.58V126.5l60.19.44V91.49Z"/></g><g id="Layer_105" data-name="Layer 105"><path d="M219.3,91.65v34.92l60.18.44V91.56Z"/></g><g id="Layer_104" data-name="Layer 104"><path d="M279.93,91.68V126.6l60.19.44V91.59Z"/></g><g id="Layer_103" data-name="Layer 103"><path d="M339.19,91V126l60.19.44V90.94Z"/></g><g id="Layer_102" data-name="Layer 102"><path d="M398.6,91.56v34.92l60.18.44V91.47Z"/></g><g id="Layer_101" data-name="Layer 101"><path d="M458.6,91.56v34.92l60.18.44V91.47Z"/></g><g id="Layer_100" data-name="Layer 100"><path d="M518.6,91.56v34.92l60.18.44V91.47Z"/></g><g id="Layer_99" data-name="Layer 99"><path d="M579.1,91.91v34.92l60.18.44V91.82Z"/></g><g id="Layer_98" data-name="Layer 98"><path d="M691.73,110.5c3.36,11.76-11.92,15-28,16a292.45,292.45,0,0,1-30,0h-504c-39.51,0-42-16.65-33-27,4.83-5.56,19-8,19-8l44.26.08,505.65.91h8.09s4,0,10.24,5.88A26.46,26.46,0,0,1,691.73,110.5Z"/></g><g id="Layer_97" data-name="Layer 97"><path class="cls-2" d="M157.55,91.58V126.5l51,.44V91.49Z"/></g><g id="Layer_96" data-name="Layer 96"><path class="cls-2" d="M215.29,91.65v34.92l54.8.44V91.56Z"/></g><g id="Layer_95" data-name="Layer 95"><path class="cls-2" d="M276.83,91.68V126.6L334,127V91.59Z"/></g><g id="Layer_94" data-name="Layer 94"><path d="M340.09,91V126l60.19.44V90.94Z"/></g><g id="Layer_93" data-name="Layer 93"><path d="M399.5,91.56v34.92l60.18.44V91.47Z"/></g><g id="Layer_92" data-name="Layer 92"><path d="M459.5,91.56v34.92l60.18.44V91.47Z"/></g><g id="Layer_91" data-name="Layer 91"><path d="M519.5,91.56v34.92l60.18.44V91.47Z"/></g><g id="Layer_90" data-name="Layer 90"><path d="M580,91.91v34.92l60.18.44V91.82Z"/></g><g id="Layer_89" data-name="Layer 89"><path d="M110.78,68.67l.12-.54a22.54,22.54,0,0,0,3.26-.56,25,25,0,0,0-1,3.2l-.84,3.54a22.14,22.14,0,0,1-2,5.79,10.46,10.46,0,0,0,1.93.22,7.65,7.65,0,0,0,3.87-.94,6.74,6.74,0,0,0,2.62-2.72,8.22,8.22,0,0,0,1-4,6.3,6.3,0,0,0-1.65-4.55,5.7,5.7,0,0,0-4.32-1.72,8.86,8.86,0,0,0-4.23,1.07,8.45,8.45,0,0,0-3.15,2.82,6.15,6.15,0,0,0-1.16,3.42,2.52,2.52,0,0,0,1.42,2.39,1.66,1.66,0,0,1,.52.39.69.69,0,0,1,.12.41.79.79,0,0,1-.77.77,1.73,1.73,0,0,1-1.32-.88,4.49,4.49,0,0,1-.86-2.56,7.73,7.73,0,0,1,1.3-4.22,9.19,9.19,0,0,1,3.62-3.24,11,11,0,0,1,5.17-1.21A8,8,0,0,1,120,67.47a6.09,6.09,0,0,1,2.07,4.71A8.66,8.66,0,0,1,120.62,77a8.32,8.32,0,0,1-3.5,3.13,9.67,9.67,0,0,1-4.09.94c-.44,0-1.2,0-2.28-.13-.91-.07-1.78-.1-2.6-.1-.38,0-1,0-1.74,0l.29-.62a5,5,0,0,0,1.46-.21,1.14,1.14,0,0,0,.48-.47,13.54,13.54,0,0,0,1-2.54l.87-3.31,1-4.14a2.2,2.2,0,0,0,.07-.52.44.44,0,0,0-.12-.32.52.52,0,0,0-.36-.12Z"/><path d="M129.58,77.7l.42.56q-3.1,3-5.33,3a1.67,1.67,0,0,1-1.38-.61,3.19,3.19,0,0,1-.48-2,10.23,10.23,0,0,1,1.65-5.4q1.86-3.06,4.43-3.06a1.91,1.91,0,0,1,1.38.45,1.6,1.6,0,0,1,.48,1.23,2.78,2.78,0,0,1-.57,1.63,6.51,6.51,0,0,1-2.05,1.66c-.49.28-1.54.79-3.15,1.51a8.79,8.79,0,0,0-.11,1.31,2.08,2.08,0,0,0,.29,1.26,1,1,0,0,0,.83.35,2.63,2.63,0,0,0,1.14-.29A15.2,15.2,0,0,0,129.58,77.7Zm-4.44-1.84a9.92,9.92,0,0,0,3.07-2,2.17,2.17,0,0,0,.7-1.46,1.29,1.29,0,0,0-.29-.87,1,1,0,0,0-.74-.32,1.51,1.51,0,0,0-.92.35A3.63,3.63,0,0,0,126,73,12.74,12.74,0,0,0,125.14,75.86Z"/><path d="M137,77.83l.44.46a12.32,12.32,0,0,1-2.35,2,4.25,4.25,0,0,1-2.22.92.83.83,0,0,1-.65-.29,1.24,1.24,0,0,1-.26-.82,23.43,23.43,0,0,1,.79-4.22l1.37-5.57a23.15,23.15,0,0,1,1.26-4,5.78,5.78,0,0,1,2.22-2.42,5.86,5.86,0,0,1,3-.86,1.24,1.24,0,0,1,.85.27.78.78,0,0,1,.31.63.86.86,0,0,1-.3.67,1.34,1.34,0,0,1-.88.26,5.91,5.91,0,0,1-1.08-.13,7.87,7.87,0,0,0-1.13-.1,1.19,1.19,0,0,0-.78.22A2.7,2.7,0,0,0,137,66.1c-.19.65-.52,1.93-1,3.84l-1.27,5.32c-.63,2.67-.94,4.06-.94,4.18s.1.41.29.41a1.8,1.8,0,0,0,.82-.33A13,13,0,0,0,137,77.83Z"/><path d="M138.4,73.16l-.56-.44a9.83,9.83,0,0,1,2.32-2,3.74,3.74,0,0,1,1.78-.59.94.94,0,0,1,.62.18.55.55,0,0,1,.22.48,24.5,24.5,0,0,1-.83,3.12,31.94,31.94,0,0,0-1.34,5.43.49.49,0,0,0,.09.3.24.24,0,0,0,.19.12c.27,0,1-.52,2.08-1.57l.5.48a17.26,17.26,0,0,1-2.54,2.1,2.86,2.86,0,0,1-1.31.45.9.9,0,0,1-.7-.28,1,1,0,0,1-.26-.77c0-1.06.63-3.64,1.9-7.76a1.78,1.78,0,0,0,.09-.52c0-.17-.08-.25-.23-.25a1.18,1.18,0,0,0-.58.2A14.94,14.94,0,0,0,138.4,73.16Zm5-8.41A.87.87,0,0,1,144,65a.93.93,0,0,1,.25.67,1.39,1.39,0,0,1-.38,1,1.15,1.15,0,0,1-.87.43.84.84,0,0,1-.64-.27,1,1,0,0,1-.25-.7,1.37,1.37,0,0,1,.37-1A1.12,1.12,0,0,1,143.39,64.75Z"/><path d="M152.78,70.12l1-.23c-.62,2-1.18,4-1.7,6a35.37,35.37,0,0,0-.77,3.55,12.4,12.4,0,0,0-.13,1.81,9.68,9.68,0,0,1-.4,2.94,4.8,4.8,0,0,1-2,2.51,6.12,6.12,0,0,1-3.45,1,4.14,4.14,0,0,1-2.7-.81,2.36,2.36,0,0,1-1-1.85,2.81,2.81,0,0,1,.79-1.91,8.81,8.81,0,0,1,2.44-1.63c.63-.33,1.22-.67,1.77-1a3.6,3.6,0,0,1-1.47.48,1.07,1.07,0,0,1-.83-.44,1.77,1.77,0,0,1-.37-1.16,8.87,8.87,0,0,1,1.4-4.64,9.67,9.67,0,0,1,3.34-3.46,5.82,5.82,0,0,1,3-.71l.88,0Zm-3.14,8.8a40.26,40.26,0,0,1-3.33,2.48,13.71,13.71,0,0,0-2.68,2.12,2.27,2.27,0,0,0-.49,1.39,1.7,1.7,0,0,0,.64,1.3,2.24,2.24,0,0,0,1.56.58,3.61,3.61,0,0,0,1.68-.42,4.37,4.37,0,0,0,1.42-1.24,4.66,4.66,0,0,0,.83-1.82,13.46,13.46,0,0,0,.24-2.69C149.52,80.38,149.56,79.81,149.64,78.92ZM151.36,72a5.64,5.64,0,0,0-1.08-.11,3.43,3.43,0,0,0-2.07.63,5,5,0,0,0-1.47,2.13,10.19,10.19,0,0,0-.85,3.57,1.53,1.53,0,0,0,.34,1,1,1,0,0,0,.75.41,2.44,2.44,0,0,0,1.26-.49,4,4,0,0,0,1.22-1.22,9.81,9.81,0,0,0,1-2.54Z"/><path d="M164.82,78.2l.33.47a11.4,11.4,0,0,1-2.4,2,2.8,2.8,0,0,1-1.38.52.87.87,0,0,1-.72-.35,1.85,1.85,0,0,1-.27-1.11,7.74,7.74,0,0,1,.21-1.48c.14-.64.53-2,1.19-4.17a13.87,13.87,0,0,0,.43-1.84c0-.27-.15-.4-.44-.4a2.54,2.54,0,0,0-1.33.53,8,8,0,0,0-2,1.87,6,6,0,0,0-.88,2.16l-1,4.44h-1.89c.4-1.48.72-2.69.94-3.63l1.86-8.14a10.33,10.33,0,0,1,1.34-3.47,6.12,6.12,0,0,1,2.18-2,5.55,5.55,0,0,1,2.64-.73,1.22,1.22,0,0,1,.86.28.82.82,0,0,1,.32.68.78.78,0,0,1-.31.61,1.3,1.3,0,0,1-.84.26,6.56,6.56,0,0,1-.79-.06,12.6,12.6,0,0,0-1.51-.17,1.15,1.15,0,0,0-1,.48,6.64,6.64,0,0,0-.76,2.22l-1.42,6.26a16.53,16.53,0,0,1,3.29-2.67,3.56,3.56,0,0,1,1.68-.65,1.06,1.06,0,0,1,.78.29,1.18,1.18,0,0,1,.28.82,4.29,4.29,0,0,1-.1.86c-.12.5-.37,1.4-.78,2.72-.55,1.81-.88,2.93-1,3.37a6.05,6.05,0,0,0-.14,1.18.53.53,0,0,0,.07.31.22.22,0,0,0,.21.1q.3,0,1.14-.72C164,78.87,164.37,78.56,164.82,78.2Z"/><path d="M169.62,68.26l2-.78L170.72,71h2.63l-.2.9h-2.63l-1.11,4.25a12.26,12.26,0,0,0-.53,2.67.68.68,0,0,0,.15.49.54.54,0,0,0,.4.15,2.76,2.76,0,0,0,1.21-.47,14.73,14.73,0,0,0,2-1.41l.48.59a30.6,30.6,0,0,1-3.72,2.56,3.56,3.56,0,0,1-1.51.47.89.89,0,0,1-.74-.34,1.82,1.82,0,0,1-.28-1.12,12.69,12.69,0,0,1,.49-2.79l1.29-5h-2.06l.23-.9h2.06Z"/><path d="M177.47,69.23l-.22-.81a7.1,7.1,0,0,0,1.39-1.5,1.64,1.64,0,0,0,0-1.93,1.84,1.84,0,0,1-.24-.85,1.17,1.17,0,0,1,.3-.84,1,1,0,0,1,.78-.33,1,1,0,0,1,.82.38,1.43,1.43,0,0,1,.33,1,4.37,4.37,0,0,1-.69,2.23A11.22,11.22,0,0,1,177.47,69.23Z"/><path d="M186.91,70.21a2.58,2.58,0,0,1,2.07,1,4.19,4.19,0,0,1,.83,2.76,7.47,7.47,0,0,1-2,5.06,5.65,5.65,0,0,1-4.19,2.24,2.86,2.86,0,0,1-2.19-.89,3.38,3.38,0,0,1-.83-2.43A8.58,8.58,0,0,1,182.14,73,5.65,5.65,0,0,1,186.91,70.21Zm-1.08,1c-.72,0-1.41.52-2.08,1.55a7.61,7.61,0,0,0-1,4.25,4.71,4.71,0,0,0,.62,2.61,1.4,1.4,0,0,0,1.22.7A2.43,2.43,0,0,0,186.52,79a7.72,7.72,0,0,0,1.12-4.26,5.31,5.31,0,0,0-.52-2.71A1.49,1.49,0,0,0,185.83,71.16Z"/><path d="M197.07,73.13l-.38-.51a10.45,10.45,0,0,1,2.39-1.85,4.18,4.18,0,0,1,1.78-.6.58.58,0,0,1,.4.12.38.38,0,0,1,.14.31,4.38,4.38,0,0,1-.21,1c-.19.71-.33,1.28-.4,1.69,2-2.06,3.57-3.1,4.64-3.1a.86.86,0,0,1,.64.23,1,1,0,0,1,.21.72,7.63,7.63,0,0,1-.38,1.82,12.5,12.5,0,0,1,2.52-2.14,3.65,3.65,0,0,1,1.66-.63,1.08,1.08,0,0,1,.83.31,1.32,1.32,0,0,1,.29.94,3.67,3.67,0,0,1-.13.9c-.08.35-.39,1.4-.93,3.17a23.53,23.53,0,0,0-1,3.93c0,.28.12.43.36.43a.81.81,0,0,0,.47-.16,11,11,0,0,0,1.53-1.32l.42.46c-.18.14-.51.44-1,.89a11.12,11.12,0,0,1-1.4,1.14,2.55,2.55,0,0,1-1.24.43.82.82,0,0,1-.67-.37,1.63,1.63,0,0,1-.3-1,6.71,6.71,0,0,1,.18-1.42c.12-.55.47-1.77,1-3.68a14.88,14.88,0,0,0,.65-2.6c0-.29-.13-.43-.38-.43a1.81,1.81,0,0,0-.85.31,6.5,6.5,0,0,0-1.83,1.62,6.12,6.12,0,0,0-.89,2.09c-.56,2.09-1,3.8-1.27,5.12h-1.8l1.89-7.76a7,7,0,0,0,.2-1,.41.41,0,0,0-.1-.31.35.35,0,0,0-.29-.11,2.14,2.14,0,0,0-1.06.53A6.9,6.9,0,0,0,201,74a8.05,8.05,0,0,0-.94,2.57l-1,4.29h-1.82l1.43-6.06c.42-1.75.64-2.7.64-2.85s-.08-.3-.23-.3C198.76,71.68,198.08,72.17,197.07,73.13Z"/><path d="M219.5,77.7l.42.56q-3.1,3-5.33,3a1.67,1.67,0,0,1-1.38-.61,3.19,3.19,0,0,1-.48-2,10.32,10.32,0,0,1,1.65-5.4q1.86-3.06,4.44-3.06a1.9,1.9,0,0,1,1.37.45,1.6,1.6,0,0,1,.48,1.23,2.78,2.78,0,0,1-.57,1.63,6.51,6.51,0,0,1-2,1.66c-.49.28-1.54.79-3.14,1.51a7.69,7.69,0,0,0-.12,1.31,2.08,2.08,0,0,0,.29,1.26,1,1,0,0,0,.83.35,2.6,2.6,0,0,0,1.14-.29A15.2,15.2,0,0,0,219.5,77.7Zm-4.44-1.84a9.92,9.92,0,0,0,3.07-2,2.12,2.12,0,0,0,.7-1.46,1.29,1.29,0,0,0-.29-.87,1,1,0,0,0-.74-.32,1.47,1.47,0,0,0-.91.35,3.55,3.55,0,0,0-1,1.43A12.74,12.74,0,0,0,215.06,75.86Z"/><path d="M225.24,68.26l2-.78L226.34,71H229l-.2.9h-2.63L225,76.19a12.26,12.26,0,0,0-.53,2.67.68.68,0,0,0,.15.49.54.54,0,0,0,.4.15,2.73,2.73,0,0,0,1.2-.47,14.82,14.82,0,0,0,2-1.41l.48.59a30.6,30.6,0,0,1-3.72,2.56,3.56,3.56,0,0,1-1.51.47.89.89,0,0,1-.74-.34,1.75,1.75,0,0,1-.28-1.12A12.53,12.53,0,0,1,223,77l1.3-5h-2.06l.23-.9h2.06Z"/><path d="M236.65,77.7l.42.56q-3.1,3-5.33,3a1.67,1.67,0,0,1-1.38-.61,3.2,3.2,0,0,1-.47-2,10.23,10.23,0,0,1,1.65-5.4q1.85-3.06,4.43-3.06a1.9,1.9,0,0,1,1.37.45,1.6,1.6,0,0,1,.48,1.23,2.78,2.78,0,0,1-.57,1.63,6.57,6.57,0,0,1-2,1.66c-.5.28-1.54.79-3.15,1.51a7.69,7.69,0,0,0-.12,1.31,2.08,2.08,0,0,0,.29,1.26,1,1,0,0,0,.83.35,2.6,2.6,0,0,0,1.14-.29A15.2,15.2,0,0,0,236.65,77.7Zm-4.44-1.84a9.8,9.8,0,0,0,3.07-2,2.12,2.12,0,0,0,.7-1.46,1.29,1.29,0,0,0-.29-.87,1,1,0,0,0-.74-.32,1.47,1.47,0,0,0-.91.35A3.64,3.64,0,0,0,233,73,13.3,13.3,0,0,0,232.21,75.86Z"/><path d="M241.18,80.89h-1.89l.89-3.42c.43-1.67.81-3.26,1.13-4.77a4.84,4.84,0,0,0,.12-.7c0-.2-.1-.3-.28-.3a1.23,1.23,0,0,0-.59.26,12,12,0,0,0-1.42,1.29l-.39-.45a9.73,9.73,0,0,1,2.43-2,4.36,4.36,0,0,1,1.86-.65.57.57,0,0,1,.36.1.35.35,0,0,1,.13.28,5,5,0,0,1-.17.88l-.55,2.28a16.64,16.64,0,0,1,2.9-3.47,2.23,2.23,0,0,1,1.3-.68.91.91,0,0,1,.64.24.81.81,0,0,1,0,1.17,3.69,3.69,0,0,1-1.23.57,5.2,5.2,0,0,0-1.53.76,7.16,7.16,0,0,0-1.3,1.36,7.46,7.46,0,0,0-1,1.59,25.73,25.73,0,0,0-.85,3.16Z"/></g><g id="Layer_88" data-name="Layer 88"><path d="M715.71,110.32l-.25,1.33h-2l-.91,4.23h-1.79l.91-4.23c-2.75,0-4.5,0-5.25,0h-.24c-.25,0-.37-.09-.37-.26a2.35,2.35,0,0,1,.3-.63,31.84,31.84,0,0,1,4.15-5.35,54.42,54.42,0,0,1,5.65-5.25h.36l-.53,2.05-1.12,4.44-.85,3.62Zm-3.72,0c.08-.42.25-1.16.51-2.21l1.22-5c-1.65,1.56-2.86,2.78-3.62,3.64a42.85,42.85,0,0,0-2.73,3.52Z"/><path d="M724.26,100.28a3.57,3.57,0,0,1,2.91,1.33,6.18,6.18,0,0,1,1.1,4,13.6,13.6,0,0,1-1.9,7c-1.26,2.17-2.8,3.25-4.6,3.25a3.29,3.29,0,0,1-2.68-1.39,5.86,5.86,0,0,1-1.1-3.77,14.46,14.46,0,0,1,1.09-5.5,9.56,9.56,0,0,1,2.46-3.81A4.31,4.31,0,0,1,724.26,100.28ZM724,101a2.23,2.23,0,0,0-1.61,1,11.26,11.26,0,0,0-1.51,3.84,22.15,22.15,0,0,0-.69,5.32,5.74,5.74,0,0,0,.59,3,1.66,1.66,0,0,0,1.35.93,1.91,1.91,0,0,0,1.34-.68,9.09,9.09,0,0,0,1.76-3.78,20.17,20.17,0,0,0,.79-5.58,6.34,6.34,0,0,0-.66-3.25A1.51,1.51,0,0,0,724,101Z"/><path d="M735,100.29a2.21,2.21,0,0,1,1.72.73,2.92,2.92,0,0,1,.67,2.06A6.15,6.15,0,0,1,736,107a3.26,3.26,0,0,1-2.61,1.39,2.23,2.23,0,0,1-1.72-.74,2.81,2.81,0,0,1-.68-2,6.58,6.58,0,0,1,1.14-3.7A3.35,3.35,0,0,1,735,100.29Zm-.18.55c-.53,0-1,.53-1.48,1.59a8.72,8.72,0,0,0-.69,3.51,2.77,2.77,0,0,0,.3,1.46.87.87,0,0,0,.7.47c.47,0,.89-.41,1.27-1.23a9.12,9.12,0,0,0,.83-3.85,3.05,3.05,0,0,0-.33-1.55A.71.71,0,0,0,734.78,100.84ZM733,115.59c.72-1.2,1.34-2.27,1.86-3.2l4.65-8.47q1.11-2.06,1.92-3.63a6.93,6.93,0,0,0,1,.18c-.78,1.26-1.51,2.52-2.21,3.78l-4.08,7.43c-.74,1.35-1.44,2.69-2.08,4a5.8,5.8,0,0,0-.64-.08Zm9.1-8a2.23,2.23,0,0,1,1.72.73,3,3,0,0,1,.67,2.07,6.13,6.13,0,0,1-1.37,3.93,3.25,3.25,0,0,1-2.6,1.4,2.23,2.23,0,0,1-1.72-.74,2.8,2.8,0,0,1-.68-2,6.59,6.59,0,0,1,1.13-3.69A3.34,3.34,0,0,1,742.08,107.56Zm-.18.55c-.53,0-1,.53-1.48,1.59a8.74,8.74,0,0,0-.69,3.52,2.63,2.63,0,0,0,.31,1.45.83.83,0,0,0,.69.47c.47,0,.89-.41,1.27-1.23a9.12,9.12,0,0,0,.83-3.85,3,3,0,0,0-.33-1.54A.71.71,0,0,0,741.9,108.11Z"/></g><g id="Layer_23" data-name="Layer 23"><path class="cls-2" d="M97,96.14c-3,1.71-7.71,10.77-7.17,12.35.72,2.12.09,4.13.89,6.17a14.7,14.7,0,0,0,5.38,6.17C106,127,117.65,127,117.65,127h33.16l-.9-36H110.48S98.83,95.11,97,96.14Z"/></g><g id="Layer_9" data-name="Layer 9"><path d="M691.5,111.5c1,3-.93,7.87-3,9-11,6-26,6-26,6h-22v-34h31l6,1,9,8S690.79,109.38,691.5,111.5Z"/></g><g class="cls-3"><ellipse class="cls-4" cx="247.63" cy="139.18" rx="12.66" ry="13.04"/></g><g class="cls-3"><ellipse class="cls-5" cx="264.63" cy="135.18" rx="7.66" ry="7.89"/></g><g class="cls-3"><ellipse class="cls-6" cx="386.3" cy="139.72" rx="12.66" ry="13.04"/></g><g class="cls-3"><ellipse class="cls-7" cx="403.3" cy="135.72" rx="7.66" ry="7.89"/></g><g class="cls-3"><ellipse class="cls-8" cx="372.3" cy="132.72" rx="5.99" ry="6.18"/></g><g class="cls-3"><ellipse class="cls-9" cx="635.21" cy="80.95" rx="10.27" ry="10.58"/></g><g class="cls-3"><ellipse class="cls-10" cx="649.21" cy="83.95" rx="7.08" ry="7.29"/></g><g class="cls-3"><ellipse class="cls-11" cx="625.21" cy="87.95" rx="4.08" ry="4.2"/></g><g class="cls-3"><ellipse class="cls-12" cx="643.23" cy="74.43" rx="4.06" ry="4.19"/></g></g></svg>