<svg xmlns="http://www.w3.org/2000/svg" xmlns:xlink="http://www.w3.org/1999/xlink" width="800.78" height="200" viewBox="0 0 800.78 200"><defs><style>.cls-1{fill:#999;}.cls-1,.cls-3{opacity:0.5;}.cls-2{fill:#e70000;stroke:#000;stroke-miterlimit:10;}.cls-4{fill:url(#radial-gradient);}.cls-5{fill:url(#radial-gradient-2);}.cls-6{fill:url(#radial-gradient-3);}.cls-7{fill:url(#radial-gradient-4);}.cls-8{fill:url(#radial-gradient-5);}.cls-9{fill:url(#radial-gradient-6);}.cls-10{fill:url(#radial-gradient-7);}.cls-11{fill:url(#radial-gradient-8);}.cls-12{fill:url(#radial-gradient-9);}</style><radialGradient id="radial-gradient" cx="-3432.62" cy="2015.05" r="87.04" gradientTransform="translate(747.34 -137.22) scale(0.15 0.15)" gradientUnits="userSpaceOnUse"><stop offset="0" stop-color="#fff" stop-opacity="0"/><stop offset="0.87" stop-color="#fff" stop-opacity="0.05"/><stop offset="1" stop-color="#fff"/></radialGradient><radialGradient id="radial-gradient-2" cx="-3315.71" cy="1988.36" r="52.66" xlink:href="#radial-gradient"/><radialGradient id="radial-gradient-3" cx="-2478.99" cy="2018.67" r="87.04" xlink:href="#radial-gradient"/><radialGradient id="radial-gradient-4" cx="-2362.08" cy="1991.98" r="52.66" xlink:href="#radial-gradient"/><radialGradient id="radial-gradient-5" cx="-2575.28" cy="1971.96" r="41.21" xlink:href="#radial-gradient"/><radialGradient id="radial-gradient-6" cx="-767.14" cy="1626.47" r="70.6" xlink:href="#radial-gradient"/><radialGradient id="radial-gradient-7" cx="-670.86" cy="1646.49" r="48.67" xlink:href="#radial-gradient"/><radialGradient id="radial-gradient-8" cx="-835.91" cy="1673.19" r="28.03" xlink:href="#radial-gradient"/><radialGradient id="radial-gradient-9" cx="-712.02" cy="1582.92" r="27.93" xlink:href="#radial-gradient"/></defs><g id="Layer_248" data-name="Layer 248"><g id="Layer_249" data-name="Layer 249"><rect class="cls-1" x="-68" y="-509" width="2701" height="1728" rx="12"/></g></g><g id="Layer_1" data-name="Layer 1"><g id="Layer_147" data-name="Layer 147"><path d="M691.28,136.5c3.36,11.76-11.92,15-28,16a292.39,292.39,0,0,1-30,0h-504c-39.51,0-42-16.65-33-27,4.83-5.56,19-8,19-8l44.26.08,505.65.91h8.09s4,0,10.24,5.88A26.54,26.54,0,0,1,691.28,136.5Z"/></g><g id="Layer_146" data-name="Layer 146"><path d="M159.54,117.58V152.5l60.18.44V117.49Z"/></g><g id="Layer_145" data-name="Layer 145"><path d="M219.75,117.65v34.92l60.18.44V117.56Z"/></g><g id="Layer_144" data-name="Layer 144"><path d="M280.38,117.68V152.6l60.18.44V117.59Z"/></g><g id="Layer_143" data-name="Layer 143"><path d="M339.64,117V152l60.18.44V116.94Z"/></g><g id="Layer_142" data-name="Layer 142"><path d="M399,117.56v34.92l60.19.44V117.47Z"/></g><g id="Layer_141" data-name="Layer 141"><path d="M459,117.56v34.92l60.19.44V117.47Z"/></g><g id="Layer_140" data-name="Layer 140"><path d="M519,117.56v34.92l60.19.44V117.47Z"/></g><g id="Layer_139" data-name="Layer 139"><path d="M579.55,117.91v34.92l60.18.44V117.82Z"/></g><g id="Layer_138" data-name="Layer 138"><path d="M692.18,136.5c3.36,11.76-11.92,15-28,16a292.39,292.39,0,0,1-30,0h-504c-39.51,0-42-16.65-33-27,4.83-5.56,19-8,19-8l44.26.08,505.65.91h8.09s4,0,10.24,5.88A26.54,26.54,0,0,1,692.18,136.5Z"/></g><g id="Layer_137" data-name="Layer 137"><path d="M160.44,117.58V152.5l60.18.44V117.49Z"/></g><g id="Layer_136" data-name="Layer 136"><path d="M220.65,117.65v34.92l60.18.44V117.56Z"/></g><g id="Layer_135" data-name="Layer 135"><path d="M281.28,117.68V152.6l60.18.44V117.59Z"/></g><g id="Layer_134" data-name="Layer 134"><path d="M340.54,117V152l60.18.44V116.94Z"/></g><g id="Layer_133" data-name="Layer 133"><path d="M399.94,117.56v34.92l60.19.44V117.47Z"/></g><g id="Layer_132" data-name="Layer 132"><path d="M459.94,117.56v34.92l60.19.44V117.47Z"/></g><g id="Layer_131" data-name="Layer 131"><path d="M519.94,117.56v34.92l60.19.44V117.47Z"/></g><g id="Layer_130" data-name="Layer 130"><path d="M580.45,117.91v34.92l60.18.44V117.82Z"/></g><g id="Layer_129" data-name="Layer 129"><path d="M111.22,94.67l.13-.54a22.54,22.54,0,0,0,3.26-.56,23.52,23.52,0,0,0-1,3.2l-.84,3.54a22.14,22.14,0,0,1-2,5.79,10.37,10.37,0,0,0,1.92.22,7.65,7.65,0,0,0,3.87-.94,6.74,6.74,0,0,0,2.62-2.72,8.11,8.11,0,0,0,1-4,6.3,6.3,0,0,0-1.65-4.55,5.68,5.68,0,0,0-4.31-1.72A8.87,8.87,0,0,0,110,93.51a8.61,8.61,0,0,0-3.15,2.82,6.23,6.23,0,0,0-1.16,3.42,2.54,2.54,0,0,0,1.42,2.39,1.74,1.74,0,0,1,.53.39.69.69,0,0,1,.12.41.75.75,0,0,1-.24.54.7.7,0,0,1-.54.23,1.7,1.7,0,0,1-1.31-.88,4.41,4.41,0,0,1-.87-2.56,7.81,7.81,0,0,1,1.3-4.22,9.22,9.22,0,0,1,3.63-3.24,11,11,0,0,1,5.17-1.21,8,8,0,0,1,5.58,1.88,6.05,6.05,0,0,1,2.07,4.7,8.59,8.59,0,0,1-1.45,4.83,8.33,8.33,0,0,1-3.49,3.14,9.84,9.84,0,0,1-4.09.93c-.44,0-1.2,0-2.28-.13-.92-.07-1.78-.1-2.6-.1-.39,0-1,0-1.74,0l.29-.62a4.9,4.9,0,0,0,1.45-.21,1.16,1.16,0,0,0,.49-.47,13,13,0,0,0,1-2.54l.88-3.31,1-4.14a2.2,2.2,0,0,0,.08-.52.41.41,0,0,0-.13-.32.48.48,0,0,0-.35-.12Z"/><path d="M130,103.7l.42.56q-3.12,3-5.34,3a1.64,1.64,0,0,1-1.37-.61,3.19,3.19,0,0,1-.48-2,10.23,10.23,0,0,1,1.65-5.4c1.24-2,2.71-3.06,4.43-3.06a1.94,1.94,0,0,1,1.38.45,1.6,1.6,0,0,1,.47,1.23,2.78,2.78,0,0,1-.57,1.63,6.57,6.57,0,0,1-2,1.66c-.49.28-1.54.78-3.15,1.51a7.63,7.63,0,0,0-.11,1.31,2.09,2.09,0,0,0,.28,1.26,1,1,0,0,0,.83.35,2.67,2.67,0,0,0,1.15-.29A16.15,16.15,0,0,0,130,103.7Zm-4.45-1.84a9.86,9.86,0,0,0,3.08-2,2.15,2.15,0,0,0,.69-1.46,1.28,1.28,0,0,0-.28-.87,1,1,0,0,0-.74-.32,1.49,1.49,0,0,0-.92.35,3.53,3.53,0,0,0-1,1.43A12.77,12.77,0,0,0,125.58,101.86Z"/><path d="M137.49,103.83l.43.46a12.56,12.56,0,0,1-2.34,2,4.24,4.24,0,0,1-2.23.92.79.79,0,0,1-.64-.3,1.19,1.19,0,0,1-.26-.81,22.52,22.52,0,0,1,.79-4.22l1.37-5.57a23.4,23.4,0,0,1,1.25-4A5.93,5.93,0,0,1,141.12,89a1.32,1.32,0,0,1,.86.26.81.81,0,0,1,.31.64.86.86,0,0,1-.3.67,1.37,1.37,0,0,1-.89.26,5.92,5.92,0,0,1-1.07-.13,7.87,7.87,0,0,0-1.13-.1,1.15,1.15,0,0,0-.78.22,2.65,2.65,0,0,0-.67,1.27c-.2.65-.52,1.93-1,3.84l-1.26,5.32c-.63,2.67-.94,4.06-.94,4.18s.1.41.29.41a1.74,1.74,0,0,0,.81-.33A13,13,0,0,0,137.49,103.83Z"/><path d="M138.85,99.16l-.56-.44a10,10,0,0,1,2.31-2,3.77,3.77,0,0,1,1.79-.59,1,1,0,0,1,.62.18.57.57,0,0,1,.21.48,23.47,23.47,0,0,1-.82,3.12,31.94,31.94,0,0,0-1.34,5.43.49.49,0,0,0,.09.3.24.24,0,0,0,.19.12c.27,0,1-.52,2.08-1.57l.5.48a17.26,17.26,0,0,1-2.54,2.1,2.9,2.9,0,0,1-1.31.45.92.92,0,0,1-.71-.28,1.09,1.09,0,0,1-.26-.77c0-1.06.64-3.64,1.91-7.76a1.78,1.78,0,0,0,.09-.52c0-.17-.08-.25-.23-.25a1.18,1.18,0,0,0-.58.2A12.76,12.76,0,0,0,138.85,99.16Zm5-8.41a.89.89,0,0,1,.65.26.93.93,0,0,1,.25.67,1.4,1.4,0,0,1-.39,1,1.13,1.13,0,0,1-.87.43.83.83,0,0,1-.63-.27,1,1,0,0,1-.26-.7,1.41,1.41,0,0,1,.37-1A1.19,1.19,0,0,1,143.84,90.75Z"/><path d="M153.22,96.12l1-.23c-.61,2-1.18,4-1.69,6a34.78,34.78,0,0,0-.77,3.55,12.4,12.4,0,0,0-.13,1.81,9.65,9.65,0,0,1-.41,2.94,4.74,4.74,0,0,1-2,2.51,6.12,6.12,0,0,1-3.45,1,4.14,4.14,0,0,1-2.7-.81,2.35,2.35,0,0,1-1-1.85,2.86,2.86,0,0,1,.79-1.91,8.9,8.9,0,0,1,2.45-1.63c.63-.33,1.22-.67,1.77-1a3.6,3.6,0,0,1-1.47.48,1.1,1.1,0,0,1-.84-.44,1.77,1.77,0,0,1-.36-1.16,8.85,8.85,0,0,1,1.39-4.64,9.69,9.69,0,0,1,3.35-3.46,5.8,5.8,0,0,1,3-.71l.88,0Zm-3.14,8.8a37,37,0,0,1-3.33,2.48,13.21,13.21,0,0,0-2.67,2.12,2.28,2.28,0,0,0-.5,1.39,1.72,1.72,0,0,0,.65,1.3,2.22,2.22,0,0,0,1.56.58,3.6,3.6,0,0,0,1.67-.42,4.18,4.18,0,0,0,1.42-1.24,4.67,4.67,0,0,0,.84-1.82,13.39,13.39,0,0,0,.24-2.69C150,106.38,150,105.81,150.08,104.92ZM151.81,98a5.64,5.64,0,0,0-1.08-.11,3.41,3.41,0,0,0-2.07.63,4.93,4.93,0,0,0-1.47,2.13,10,10,0,0,0-.85,3.57,1.48,1.48,0,0,0,.34,1,.93.93,0,0,0,.75.41,2.44,2.44,0,0,0,1.26-.49,4.17,4.17,0,0,0,1.22-1.22,9.81,9.81,0,0,0,1-2.54Z"/><path d="M165.27,104.2l.33.47a11.4,11.4,0,0,1-2.4,2,2.8,2.8,0,0,1-1.38.52.87.87,0,0,1-.72-.35,1.85,1.85,0,0,1-.27-1.11,8.31,8.31,0,0,1,.2-1.48c.14-.64.54-2,1.19-4.17a12.27,12.27,0,0,0,.43-1.84c0-.27-.14-.4-.43-.4a2.57,2.57,0,0,0-1.34.53,8,8,0,0,0-2,1.87,5.78,5.78,0,0,0-.88,2.16l-1,4.44h-1.9c.41-1.48.72-2.69.94-3.63l1.87-8.14a10.24,10.24,0,0,1,1.34-3.47,6.09,6.09,0,0,1,2.17-2,5.58,5.58,0,0,1,2.65-.73,1.24,1.24,0,0,1,.86.28.85.85,0,0,1,.32.68.81.81,0,0,1-.31.61,1.31,1.31,0,0,1-.85.26,6.86,6.86,0,0,1-.79-.06,12.39,12.39,0,0,0-1.51-.17,1.14,1.14,0,0,0-.95.48,6.58,6.58,0,0,0-.77,2.22l-1.41,6.26A16.26,16.26,0,0,1,162,96.86a3.52,3.52,0,0,1,1.68-.65,1,1,0,0,1,.77.29,1.13,1.13,0,0,1,.28.82,3.67,3.67,0,0,1-.1.86c-.11.5-.37,1.4-.78,2.72-.55,1.81-.87,2.93-1,3.37a5.44,5.44,0,0,0-.15,1.18.62.62,0,0,0,.07.31.24.24,0,0,0,.21.1c.21,0,.59-.24,1.15-.72C164.44,104.87,164.82,104.56,165.27,104.2Z"/><path d="M170.07,94.26l2-.78L171.17,97h2.63l-.2.9H171l-1.11,4.25a12.26,12.26,0,0,0-.53,2.67.68.68,0,0,0,.15.49.52.52,0,0,0,.4.15,2.73,2.73,0,0,0,1.2-.47,14.73,14.73,0,0,0,2-1.41l.49.59a32.32,32.32,0,0,1-3.72,2.56,3.56,3.56,0,0,1-1.51.47.91.91,0,0,1-.75-.34,1.82,1.82,0,0,1-.27-1.12,12.53,12.53,0,0,1,.48-2.79l1.3-5h-2.06l.23-.9h2.06Z"/><path d="M177.91,95.23l-.21-.81a7.39,7.39,0,0,0,1.39-1.5,2.25,2.25,0,0,0,.32-1.08,2.14,2.14,0,0,0-.3-.85,1.84,1.84,0,0,1-.24-.85,1.18,1.18,0,0,1,.3-.84,1,1,0,0,1,.77-.33,1.07,1.07,0,0,1,.83.38,1.43,1.43,0,0,1,.33,1,4.37,4.37,0,0,1-.69,2.23A11.3,11.3,0,0,1,177.91,95.23Z"/><path d="M187.36,96.21a2.58,2.58,0,0,1,2.07,1,4.19,4.19,0,0,1,.82,2.76,7.47,7.47,0,0,1-2,5.06,5.64,5.64,0,0,1-4.19,2.24,2.89,2.89,0,0,1-2.19-.89,3.44,3.44,0,0,1-.83-2.43A8.66,8.66,0,0,1,182.58,99,5.65,5.65,0,0,1,187.36,96.21Zm-1.08,1c-.72,0-1.42.52-2.09,1.55a7.7,7.7,0,0,0-1,4.25,4.8,4.8,0,0,0,.62,2.61,1.42,1.42,0,0,0,1.22.7A2.41,2.41,0,0,0,187,105a7.61,7.61,0,0,0,1.12-4.26,5.33,5.33,0,0,0-.51-2.71A1.49,1.49,0,0,0,186.28,97.16Z"/><path d="M197.51,99.13l-.38-.51a10.67,10.67,0,0,1,2.39-1.85,4.21,4.21,0,0,1,1.79-.6.6.6,0,0,1,.4.12.37.37,0,0,1,.13.31,4.8,4.8,0,0,1-.2,1c-.2.71-.33,1.28-.41,1.69,2-2.06,3.58-3.1,4.65-3.1a.82.82,0,0,1,.63.23,1,1,0,0,1,.22.72,7.63,7.63,0,0,1-.38,1.82,12.49,12.49,0,0,1,2.51-2.14,3.67,3.67,0,0,1,1.67-.63,1.06,1.06,0,0,1,.82.31,1.28,1.28,0,0,1,.29.94,4.14,4.14,0,0,1-.12.9c-.09.35-.4,1.4-.93,3.17a22.46,22.46,0,0,0-1,3.93c0,.28.12.43.35.43a.78.78,0,0,0,.47-.16,11.7,11.7,0,0,0,1.54-1.32l.42.46c-.18.15-.51.44-1,.89a11.92,11.92,0,0,1-1.4,1.14,2.58,2.58,0,0,1-1.25.43.84.84,0,0,1-.67-.37,1.69,1.69,0,0,1-.29-1,6.71,6.71,0,0,1,.18-1.42c.12-.55.46-1.77,1-3.68a14.88,14.88,0,0,0,.65-2.6c0-.29-.13-.43-.38-.43a1.83,1.83,0,0,0-.86.31,6.6,6.6,0,0,0-1.82,1.62,5.93,5.93,0,0,0-.89,2.09q-.85,3.14-1.27,5.12h-1.8l1.89-7.76a9.35,9.35,0,0,0,.2-1,.46.46,0,0,0-.1-.32.39.39,0,0,0-.29-.1,2.16,2.16,0,0,0-1.07.53,6.84,6.84,0,0,0-1.8,1.75,8,8,0,0,0-.95,2.57l-1,4.29h-1.83l1.44-6.06q.63-2.62.63-2.85c0-.2-.07-.3-.23-.3C199.2,97.68,198.53,98.17,197.51,99.13Z"/><path d="M220,103.7l.42.56c-2.08,2-3.85,3-5.34,3a1.64,1.64,0,0,1-1.37-.61,3.19,3.19,0,0,1-.48-2,10.23,10.23,0,0,1,1.65-5.4c1.24-2,2.71-3.06,4.43-3.06a1.94,1.94,0,0,1,1.38.45,1.6,1.6,0,0,1,.48,1.23,2.8,2.8,0,0,1-.58,1.63,6.57,6.57,0,0,1-2,1.66c-.49.28-1.54.78-3.15,1.51a8.79,8.79,0,0,0-.11,1.31,2.09,2.09,0,0,0,.28,1.26,1,1,0,0,0,.83.35,2.67,2.67,0,0,0,1.15-.29A15.66,15.66,0,0,0,220,103.7Zm-4.45-1.84a9.86,9.86,0,0,0,3.08-2,2.15,2.15,0,0,0,.69-1.46,1.28,1.28,0,0,0-.28-.87,1,1,0,0,0-.74-.32,1.49,1.49,0,0,0-.92.35,3.53,3.53,0,0,0-1,1.43A12.77,12.77,0,0,0,215.5,101.86Z"/><path d="M225.69,94.26l2-.78L226.79,97h2.63l-.21.9h-2.63l-1.1,4.25a11.67,11.67,0,0,0-.53,2.67.68.68,0,0,0,.15.49.52.52,0,0,0,.4.15,2.73,2.73,0,0,0,1.2-.47,14.73,14.73,0,0,0,2-1.41l.48.59a31.64,31.64,0,0,1-3.71,2.56,3.56,3.56,0,0,1-1.52.47.89.89,0,0,1-.74-.34,1.82,1.82,0,0,1-.27-1.12,12.53,12.53,0,0,1,.48-2.79l1.29-5h-2.05l.23-.9H225Z"/><path d="M237.1,103.7l.42.56c-2.08,2-3.85,3-5.33,3a1.66,1.66,0,0,1-1.38-.61,3.19,3.19,0,0,1-.48-2,10.23,10.23,0,0,1,1.65-5.4c1.24-2,2.71-3.06,4.43-3.06a1.94,1.94,0,0,1,1.38.45,1.6,1.6,0,0,1,.48,1.23,2.78,2.78,0,0,1-.57,1.63,6.75,6.75,0,0,1-2,1.66c-.49.28-1.54.78-3.15,1.51a8.79,8.79,0,0,0-.11,1.31,2.09,2.09,0,0,0,.28,1.26,1,1,0,0,0,.84.35,2.66,2.66,0,0,0,1.14-.29A15.66,15.66,0,0,0,237.1,103.7Zm-4.44-1.84a9.92,9.92,0,0,0,3.07-2,2.17,2.17,0,0,0,.7-1.46,1.29,1.29,0,0,0-.29-.87,1,1,0,0,0-.74-.32,1.49,1.49,0,0,0-.92.35,3.63,3.63,0,0,0-1,1.43A12.74,12.74,0,0,0,232.66,101.86Z"/><path d="M241.63,106.89h-1.89l.89-3.42c.43-1.67.81-3.26,1.13-4.77a5.92,5.92,0,0,0,.11-.7c0-.2-.09-.3-.28-.3A1.21,1.21,0,0,0,241,98a11.2,11.2,0,0,0-1.42,1.29l-.4-.45a10.1,10.1,0,0,1,2.43-2,4.36,4.36,0,0,1,1.86-.65.53.53,0,0,1,.36.1.37.37,0,0,1,.14.28,6.36,6.36,0,0,1-.17.88l-.55,2.28a16.05,16.05,0,0,1,2.9-3.47,2.23,2.23,0,0,1,1.3-.68.88.88,0,0,1,.63.24.8.8,0,0,1,.26.58.83.83,0,0,1-.25.59,3.89,3.89,0,0,1-1.24.57,5.46,5.46,0,0,0-1.53.76A7.48,7.48,0,0,0,244,99.68a7.07,7.07,0,0,0-1,1.59,25.08,25.08,0,0,0-.86,3.16Z"/></g><g id="Layer_128" data-name="Layer 128"><path d="M715.21,126.15h.41L713.87,133l-1.47,6.36a5.31,5.31,0,0,0-.21,1.07.38.38,0,0,0,.21.35,2.75,2.75,0,0,0,1,.21c.38,0,.75.09,1.12.16l-.26.63c-1.82-.19-3.09-.29-3.8-.29a22.55,22.55,0,0,0-3.42.29l.22-.63c.44-.12.94-.24,1.51-.36a2,2,0,0,0,1.14-.51,5.71,5.71,0,0,0,.88-2.13l1.37-5.24c.44-2,.67-3.13.67-3.39s-.12-.45-.37-.45a15,15,0,0,0-2.55,1l-.25-.64a40.58,40.58,0,0,0,4-2.08A18.8,18.8,0,0,0,715.21,126.15Z"/><path d="M724.7,126.28a3.59,3.59,0,0,1,2.92,1.33,6.18,6.18,0,0,1,1.1,4,13.7,13.7,0,0,1-1.9,7c-1.27,2.16-2.8,3.25-4.6,3.25a3.31,3.31,0,0,1-2.69-1.39,5.91,5.91,0,0,1-1.1-3.77,14.65,14.65,0,0,1,1.09-5.5A9.46,9.46,0,0,1,722,127.4,4.29,4.29,0,0,1,724.7,126.28Zm-.22.75a2.21,2.21,0,0,0-1.61,1,10.86,10.86,0,0,0-1.51,3.84,22.15,22.15,0,0,0-.69,5.32,5.64,5.64,0,0,0,.59,3,1.64,1.64,0,0,0,1.35.93,1.9,1.9,0,0,0,1.33-.68,9.27,9.27,0,0,0,1.77-3.78,20.53,20.53,0,0,0,.78-5.58,6.34,6.34,0,0,0-.66-3.25A1.51,1.51,0,0,0,724.48,127Z"/><path d="M735.41,126.29a2.22,2.22,0,0,1,1.72.73,3,3,0,0,1,.66,2.06,6.1,6.1,0,0,1-1.37,3.94,3.23,3.23,0,0,1-2.6,1.39,2.21,2.21,0,0,1-1.72-.74,2.81,2.81,0,0,1-.68-2,6.58,6.58,0,0,1,1.14-3.7A3.33,3.33,0,0,1,735.41,126.29Zm-.19.55c-.53,0-1,.53-1.48,1.59a8.89,8.89,0,0,0-.68,3.51,2.77,2.77,0,0,0,.3,1.46.85.85,0,0,0,.69.47c.47,0,.9-.41,1.27-1.23a9,9,0,0,0,.84-3.85,3.05,3.05,0,0,0-.33-1.55A.72.72,0,0,0,735.22,126.84Zm-1.79,14.75c.72-1.2,1.34-2.27,1.85-3.2l4.66-8.47c.74-1.37,1.38-2.58,1.91-3.62a10.13,10.13,0,0,0,1,.17c-.78,1.26-1.52,2.52-2.21,3.78l-4.08,7.43c-.75,1.35-1.44,2.69-2.09,4a5.8,5.8,0,0,0-.64-.08Zm9.1-8a2.26,2.26,0,0,1,1.72.73,3,3,0,0,1,.67,2.07,6.08,6.08,0,0,1-1.38,3.93,3.24,3.24,0,0,1-2.6,1.4,2.25,2.25,0,0,1-1.72-.74,2.85,2.85,0,0,1-.68-2,6.53,6.53,0,0,1,1.14-3.69A3.36,3.36,0,0,1,742.53,133.56Zm-.18.55c-.53,0-1,.53-1.48,1.59a8.74,8.74,0,0,0-.69,3.52,2.73,2.73,0,0,0,.3,1.45.83.83,0,0,0,.7.47c.47,0,.89-.41,1.27-1.23a9.12,9.12,0,0,0,.83-3.85,3,3,0,0,0-.33-1.54A.73.73,0,0,0,742.35,134.11Z"/></g><g id="Layer_26" data-name="Layer 26"><path class="cls-2" d="M99.23,122.5c-3,1.65-7.84,10.46-7.3,12,.73,2.06.1,4,.91,6a14.51,14.51,0,0,0,5.48,6c10,6,21.91,6,21.91,6H154l-.91-35H112.92S101.06,121.5,99.23,122.5Z"/></g><g id="Layer_6" data-name="Layer 6"><path d="M692.5,137.5c1,3-.93,7.87-3,9-11,6-26,6-26,6h-22v-34h31l6,1,9,8S691.79,135.38,692.5,137.5Z"/></g><g class="cls-3"><ellipse class="cls-4" cx="248.21" cy="164.73" rx="12.66" ry="13.04"/></g><g class="cls-3"><ellipse class="cls-5" cx="265.21" cy="160.73" rx="7.66" ry="7.89"/></g><g class="cls-3"><ellipse class="cls-6" cx="386.88" cy="165.27" rx="12.66" ry="13.04"/></g><g class="cls-3"><ellipse class="cls-7" cx="403.88" cy="161.27" rx="7.66" ry="7.89"/></g><g class="cls-3"><ellipse class="cls-8" cx="372.88" cy="158.27" rx="5.99" ry="6.18"/></g><g class="cls-3"><ellipse class="cls-9" cx="635.79" cy="106.5" rx="10.27" ry="10.58"/></g><g class="cls-3"><ellipse class="cls-10" cx="649.79" cy="109.5" rx="7.08" ry="7.29"/></g><g class="cls-3"><ellipse class="cls-11" cx="625.79" cy="113.5" rx="4.08" ry="4.2"/></g><g class="cls-3"><ellipse class="cls-12" cx="643.81" cy="99.98" rx="4.06" ry="4.19"/></g></g></svg>