<svg xmlns="http://www.w3.org/2000/svg" xmlns:xlink="http://www.w3.org/1999/xlink" width="800.78" height="200" viewBox="0 0 800.78 200"><defs><style>.cls-1{fill:#999;}.cls-1,.cls-3{opacity:0.5;}.cls-2{fill:#e70000;stroke:#000;stroke-miterlimit:10;}.cls-4{fill:url(#radial-gradient);}.cls-5{fill:url(#radial-gradient-2);}.cls-6{fill:url(#radial-gradient-3);}.cls-7{fill:url(#radial-gradient-4);}.cls-8{fill:url(#radial-gradient-5);}.cls-9{fill:url(#radial-gradient-6);}.cls-10{fill:url(#radial-gradient-7);}.cls-11{fill:url(#radial-gradient-8);}.cls-12{fill:url(#radial-gradient-9);}</style><radialGradient id="radial-gradient" cx="-3429.73" cy="3279.13" r="87.04" gradientTransform="translate(747.34 -324.26) scale(0.15 0.15)" gradientUnits="userSpaceOnUse"><stop offset="0" stop-color="#fff" stop-opacity="0"/><stop offset="0.87" stop-color="#fff" stop-opacity="0.05"/><stop offset="1" stop-color="#fff"/></radialGradient><radialGradient id="radial-gradient-2" cx="-3312.82" cy="3252.44" r="52.66" xlink:href="#radial-gradient"/><radialGradient id="radial-gradient-3" cx="-2476.11" cy="3282.75" r="87.04" xlink:href="#radial-gradient"/><radialGradient id="radial-gradient-4" cx="-2359.19" cy="3256.06" r="52.66" xlink:href="#radial-gradient"/><radialGradient id="radial-gradient-5" cx="-2572.39" cy="3236.04" r="41.21" xlink:href="#radial-gradient"/><radialGradient id="radial-gradient-6" cx="-764.25" cy="2890.55" r="70.6" xlink:href="#radial-gradient"/><radialGradient id="radial-gradient-7" cx="-667.97" cy="2910.57" r="48.67" xlink:href="#radial-gradient"/><radialGradient id="radial-gradient-8" cx="-833.02" cy="2937.26" r="28.03" xlink:href="#radial-gradient"/><radialGradient id="radial-gradient-9" cx="-709.13" cy="2847" r="27.93" xlink:href="#radial-gradient"/></defs><g id="Layer_248" data-name="Layer 248"><g id="Layer_249" data-name="Layer 249"><rect class="cls-1" x="-68" y="-729" width="2701" height="1728" rx="12"/></g></g><g id="Layer_1" data-name="Layer 1"><g id="Layer_87" data-name="Layer 87"><path d="M690.94,137.5c3.36,11.76-11.92,15-28,16a292.39,292.39,0,0,1-30,0h-504c-39.51,0-42-16.65-33-27,4.83-5.56,19-8,19-8l44.26.08,505.65.91h8.09s4,0,10.24,5.88A26.46,26.46,0,0,1,690.94,137.5Z"/></g><g id="Layer_86" data-name="Layer 86"><path d="M159.2,118.58V153.5l60.18.44V118.49Z"/></g><g id="Layer_85" data-name="Layer 85"><path d="M219.41,118.65v34.92l60.18.44V118.56Z"/></g><g id="Layer_84" data-name="Layer 84"><path d="M280,118.68V153.6l60.18.44V118.59Z"/></g><g id="Layer_83" data-name="Layer 83"><path d="M339.3,118V153l60.18.44V117.94Z"/></g><g id="Layer_82" data-name="Layer 82"><path d="M398.71,118.56v34.92l60.18.44V118.47Z"/></g><g id="Layer_81" data-name="Layer 81"><path d="M458.71,118.56v34.92l60.18.44V118.47Z"/></g><g id="Layer_80" data-name="Layer 80"><path d="M518.71,118.56v34.92l60.18.44V118.47Z"/></g><g id="Layer_79" data-name="Layer 79"><path d="M579.21,118.91v34.92l60.18.44V118.82Z"/></g><g id="Layer_78" data-name="Layer 78"><path d="M691.84,137.5c3.36,11.76-11.92,15-28,16a292.39,292.39,0,0,1-30,0h-504c-39.51,0-42-16.65-33-27,4.83-5.56,19-8,19-8l44.26.08,505.65.91h8.09s4,0,10.24,5.88A26.54,26.54,0,0,1,691.84,137.5Z"/></g><g id="Layer_77" data-name="Layer 77"><path class="cls-2" d="M157.1,117.58V152.5l54.9.44V117.49Z"/></g><g id="Layer_76" data-name="Layer 76"><path d="M220.31,118.65v34.92l60.18.44V118.56Z"/></g><g id="Layer_75" data-name="Layer 75"><path d="M280.94,118.68V153.6l60.18.44V118.59Z"/></g><g id="Layer_74" data-name="Layer 74"><path d="M340.2,118V153l60.18.44V117.94Z"/></g><g id="Layer_73" data-name="Layer 73"><path d="M399.6,118.56v34.92l60.19.44V118.47Z"/></g><g id="Layer_72" data-name="Layer 72"><path d="M459.6,118.56v34.92l60.19.44V118.47Z"/></g><g id="Layer_71" data-name="Layer 71"><path d="M519.6,118.56v34.92l60.19.44V118.47Z"/></g><g id="Layer_70" data-name="Layer 70"><path d="M580.11,118.91v34.92l60.18.44V118.82Z"/></g><g id="Layer_69" data-name="Layer 69"><path d="M110.88,95.67l.13-.54a22.54,22.54,0,0,0,3.26-.56,25,25,0,0,0-1,3.2l-.84,3.54a22.14,22.14,0,0,1-2,5.79,10.46,10.46,0,0,0,1.93.22,7.59,7.59,0,0,0,3.86-.94,6.68,6.68,0,0,0,2.62-2.72,8.11,8.11,0,0,0,1-4,6.3,6.3,0,0,0-1.65-4.55,5.66,5.66,0,0,0-4.31-1.72,8.83,8.83,0,0,0-4.23,1.07,8.56,8.56,0,0,0-3.16,2.82,6.23,6.23,0,0,0-1.16,3.42,2.54,2.54,0,0,0,1.42,2.39,1.62,1.62,0,0,1,.53.39.69.69,0,0,1,.12.41.78.78,0,0,1-.23.54.74.74,0,0,1-.55.23,1.72,1.72,0,0,1-1.31-.88,4.43,4.43,0,0,1-.87-2.56,7.74,7.74,0,0,1,1.31-4.22,9.13,9.13,0,0,1,3.62-3.24,11,11,0,0,1,5.17-1.21,8,8,0,0,1,5.58,1.88,6.05,6.05,0,0,1,2.07,4.7,8.66,8.66,0,0,1-1.44,4.83,8.32,8.32,0,0,1-3.5,3.13,9.67,9.67,0,0,1-4.09.94c-.44,0-1.2,0-2.28-.13-.92-.07-1.78-.1-2.6-.1-.38,0-1,0-1.74,0l.29-.62a4.9,4.9,0,0,0,1.45-.21,1.16,1.16,0,0,0,.49-.47,13,13,0,0,0,1-2.54l.88-3.31,1-4.14a2.2,2.2,0,0,0,.08-.52.41.41,0,0,0-.13-.32.48.48,0,0,0-.35-.12Z"/><path d="M129.69,104.7l.42.56c-2.08,2-3.85,3-5.34,3a1.64,1.64,0,0,1-1.37-.61,3.19,3.19,0,0,1-.48-2,10.23,10.23,0,0,1,1.65-5.4c1.24-2,2.71-3.06,4.43-3.06a1.94,1.94,0,0,1,1.38.45,1.6,1.6,0,0,1,.48,1.23,2.73,2.73,0,0,1-.58,1.63,6.57,6.57,0,0,1-2,1.66c-.49.28-1.54.79-3.15,1.51A8.79,8.79,0,0,0,125,105a2.09,2.09,0,0,0,.28,1.26,1,1,0,0,0,.84.35,2.66,2.66,0,0,0,1.14-.29A15.66,15.66,0,0,0,129.69,104.7Zm-4.45-1.84a9.86,9.86,0,0,0,3.08-2,2.17,2.17,0,0,0,.7-1.46,1.29,1.29,0,0,0-.29-.87,1,1,0,0,0-.74-.32,1.49,1.49,0,0,0-.92.35,3.53,3.53,0,0,0-1,1.43A13.33,13.33,0,0,0,125.24,102.86Z"/><path d="M137.15,104.83l.43.46a12.56,12.56,0,0,1-2.34,2,4.24,4.24,0,0,1-2.23.92.82.82,0,0,1-.64-.29,1.24,1.24,0,0,1-.26-.82,23.43,23.43,0,0,1,.79-4.22l1.37-5.57a24.35,24.35,0,0,1,1.25-4A5.93,5.93,0,0,1,140.79,90a1.31,1.31,0,0,1,.85.26.81.81,0,0,1,.31.64.86.86,0,0,1-.3.67,1.35,1.35,0,0,1-.89.26,5.92,5.92,0,0,1-1.07-.13,7.87,7.87,0,0,0-1.13-.1,1.17,1.17,0,0,0-.78.22,2.65,2.65,0,0,0-.67,1.27q-.3,1-1,3.84l-1.27,5.32c-.63,2.67-.94,4.06-.94,4.18s.1.41.29.41a1.74,1.74,0,0,0,.81-.33A12.6,12.6,0,0,0,137.15,104.83Z"/><path d="M138.51,100.16l-.56-.44a9.83,9.83,0,0,1,2.32-2,3.7,3.7,0,0,1,1.78-.59.94.94,0,0,1,.62.18.58.58,0,0,1,.22.48,24.5,24.5,0,0,1-.83,3.12,31.94,31.94,0,0,0-1.34,5.43.49.49,0,0,0,.09.3.24.24,0,0,0,.19.12c.27,0,1-.52,2.08-1.57l.5.48a17.26,17.26,0,0,1-2.54,2.1,2.9,2.9,0,0,1-1.31.45.88.88,0,0,1-.7-.28,1,1,0,0,1-.26-.77c0-1.06.63-3.64,1.9-7.76a1.78,1.78,0,0,0,.09-.52c0-.17-.08-.25-.23-.25a1.18,1.18,0,0,0-.58.2A14.94,14.94,0,0,0,138.51,100.16Zm5-8.41a.89.89,0,0,1,.65.26.93.93,0,0,1,.25.67,1.4,1.4,0,0,1-.39,1,1.11,1.11,0,0,1-.86.43.84.84,0,0,1-.64-.27,1,1,0,0,1-.25-.7,1.4,1.4,0,0,1,.36-1A1.19,1.19,0,0,1,143.5,91.75Z"/><path d="M152.89,97.12l1-.23q-.93,3-1.7,6a35.37,35.37,0,0,0-.77,3.55,12.4,12.4,0,0,0-.13,1.81,10,10,0,0,1-.4,2.94,4.8,4.8,0,0,1-2,2.51,6.12,6.12,0,0,1-3.45,1,4.14,4.14,0,0,1-2.7-.81,2.34,2.34,0,0,1-1-1.85,2.81,2.81,0,0,1,.79-1.91,8.81,8.81,0,0,1,2.44-1.63c.63-.33,1.22-.67,1.77-1a3.6,3.6,0,0,1-1.47.48,1.07,1.07,0,0,1-.83-.44,1.72,1.72,0,0,1-.37-1.16,8.94,8.94,0,0,1,1.39-4.64,9.78,9.78,0,0,1,3.35-3.46,5.8,5.8,0,0,1,3-.71l.88,0Zm-3.14,8.8a39.19,39.19,0,0,1-3.34,2.48,13.21,13.21,0,0,0-2.67,2.12,2.27,2.27,0,0,0-.49,1.39,1.7,1.7,0,0,0,.64,1.3,2.24,2.24,0,0,0,1.56.58,3.67,3.67,0,0,0,1.68-.42,4.24,4.24,0,0,0,1.41-1.24,4.54,4.54,0,0,0,.84-1.82,13.46,13.46,0,0,0,.24-2.69C149.63,107.38,149.67,106.81,149.75,105.92ZM151.47,99a5.64,5.64,0,0,0-1.08-.11,3.43,3.43,0,0,0-2.07.63,4.93,4.93,0,0,0-1.47,2.13,10,10,0,0,0-.85,3.57,1.48,1.48,0,0,0,.34,1,.93.93,0,0,0,.75.41,2.44,2.44,0,0,0,1.26-.49,4.06,4.06,0,0,0,1.22-1.22,9.81,9.81,0,0,0,1-2.54Z"/><path d="M164.93,105.2l.33.47a11.4,11.4,0,0,1-2.4,2,2.8,2.8,0,0,1-1.38.52.87.87,0,0,1-.72-.35,1.85,1.85,0,0,1-.27-1.11,7.74,7.74,0,0,1,.21-1.48c.14-.64.53-2,1.18-4.17a12.27,12.27,0,0,0,.43-1.84c0-.27-.14-.4-.43-.4a2.6,2.6,0,0,0-1.34.53,8.13,8.13,0,0,0-2,1.87,5.78,5.78,0,0,0-.88,2.16l-1,4.44h-1.89c.4-1.48.72-2.69.94-3.63l1.86-8.14a10.24,10.24,0,0,1,1.34-3.47,6.18,6.18,0,0,1,2.17-2,5.61,5.61,0,0,1,2.65-.73,1.24,1.24,0,0,1,.86.28.85.85,0,0,1,.32.68.78.78,0,0,1-.31.61,1.31,1.31,0,0,1-.85.26,6.56,6.56,0,0,1-.78-.06,12.49,12.49,0,0,0-1.52-.17,1.14,1.14,0,0,0-.95.48,6.41,6.41,0,0,0-.76,2.22l-1.42,6.26a16.53,16.53,0,0,1,3.29-2.67,3.56,3.56,0,0,1,1.68-.65,1.06,1.06,0,0,1,.78.29,1.18,1.18,0,0,1,.28.82,3.69,3.69,0,0,1-.11.86c-.11.5-.37,1.4-.77,2.72-.56,1.81-.88,2.93-1,3.37a5.37,5.37,0,0,0-.14,1.18.53.53,0,0,0,.07.31.22.22,0,0,0,.21.1q.3,0,1.14-.72C164.1,105.87,164.48,105.56,164.93,105.2Z"/><path d="M169.73,95.26l2-.78L170.83,98h2.63l-.2.9h-2.63l-1.11,4.25a12.26,12.26,0,0,0-.53,2.67.68.68,0,0,0,.15.49.54.54,0,0,0,.4.15,2.73,2.73,0,0,0,1.2-.47,14.82,14.82,0,0,0,2-1.41l.48.59a31.44,31.44,0,0,1-3.72,2.56,3.56,3.56,0,0,1-1.51.47.88.88,0,0,1-.74-.34,1.75,1.75,0,0,1-.28-1.12,12.53,12.53,0,0,1,.48-2.79l1.3-5h-2.06L167,98H169Z"/><path d="M177.57,96.23l-.21-.81a7.39,7.39,0,0,0,1.39-1.5,2.25,2.25,0,0,0,.32-1.08,2.14,2.14,0,0,0-.3-.85,1.84,1.84,0,0,1-.24-.85,1.18,1.18,0,0,1,.3-.84,1,1,0,0,1,.78-.33,1,1,0,0,1,.82.38,1.43,1.43,0,0,1,.33,1,4.37,4.37,0,0,1-.69,2.23A11.09,11.09,0,0,1,177.57,96.23Z"/><path d="M187,97.21a2.58,2.58,0,0,1,2.07,1,4.19,4.19,0,0,1,.82,2.76,7.47,7.47,0,0,1-2,5.06,5.64,5.64,0,0,1-4.19,2.24,2.89,2.89,0,0,1-2.19-.89,3.43,3.43,0,0,1-.83-2.43,8.59,8.59,0,0,1,1.53-4.92A5.64,5.64,0,0,1,187,97.21Zm-1.08,1c-.72,0-1.41.52-2.09,1.55a7.7,7.7,0,0,0-1,4.25,4.71,4.71,0,0,0,.63,2.61,1.4,1.4,0,0,0,1.21.7,2.43,2.43,0,0,0,1.95-1.32,7.72,7.72,0,0,0,1.11-4.26,5.33,5.33,0,0,0-.51-2.71A1.49,1.49,0,0,0,185.94,98.16Z"/><path d="M197.18,100.13l-.38-.51a10.42,10.42,0,0,1,2.38-1.85,4.21,4.21,0,0,1,1.79-.6.58.58,0,0,1,.4.12.37.37,0,0,1,.13.31,4.18,4.18,0,0,1-.2,1c-.2.71-.33,1.28-.41,1.69,2-2.06,3.58-3.1,4.65-3.1a.82.82,0,0,1,.63.23,1,1,0,0,1,.22.72,7.63,7.63,0,0,1-.38,1.82,12.49,12.49,0,0,1,2.51-2.14,3.71,3.71,0,0,1,1.67-.63,1.06,1.06,0,0,1,.82.31,1.28,1.28,0,0,1,.3.94,4.23,4.23,0,0,1-.13.9c-.09.35-.39,1.4-.93,3.17a22.46,22.46,0,0,0-1,3.93c0,.28.12.43.35.43a.76.76,0,0,0,.47-.16,11.09,11.09,0,0,0,1.54-1.32l.42.46c-.18.14-.51.44-1,.89a11.92,11.92,0,0,1-1.4,1.14,2.58,2.58,0,0,1-1.24.43.85.85,0,0,1-.68-.37,1.69,1.69,0,0,1-.29-1,6.71,6.71,0,0,1,.18-1.42c.12-.55.46-1.77,1-3.68a14.88,14.88,0,0,0,.65-2.6c0-.29-.13-.43-.38-.43a1.81,1.81,0,0,0-.85.31,6.5,6.5,0,0,0-1.83,1.62,5.93,5.93,0,0,0-.89,2.09q-.85,3.14-1.27,5.12h-1.8l1.89-7.76a9.35,9.35,0,0,0,.2-1,.46.46,0,0,0-.1-.32.38.38,0,0,0-.29-.1,2.2,2.2,0,0,0-1.07.53,7,7,0,0,0-1.8,1.75,8.28,8.28,0,0,0-.95,2.57l-1,4.29h-1.83l1.44-6.06q.63-2.62.63-2.85c0-.2-.07-.3-.23-.3C198.86,98.68,198.19,99.17,197.18,100.13Z"/><path d="M219.61,104.7l.42.56c-2.08,2-3.85,3-5.33,3a1.66,1.66,0,0,1-1.38-.61,3.19,3.19,0,0,1-.48-2,10.23,10.23,0,0,1,1.65-5.4q1.86-3.06,4.43-3.06a1.94,1.94,0,0,1,1.38.45,1.6,1.6,0,0,1,.48,1.23,2.78,2.78,0,0,1-.57,1.63,6.75,6.75,0,0,1-2.05,1.66c-.49.28-1.54.79-3.15,1.51a8.79,8.79,0,0,0-.11,1.31,2.09,2.09,0,0,0,.28,1.26,1,1,0,0,0,.84.35,2.66,2.66,0,0,0,1.14-.29A15.66,15.66,0,0,0,219.61,104.7Zm-4.44-1.84a9.92,9.92,0,0,0,3.07-2,2.17,2.17,0,0,0,.7-1.46,1.29,1.29,0,0,0-.29-.87,1,1,0,0,0-.74-.32,1.49,1.49,0,0,0-.92.35,3.63,3.63,0,0,0-1,1.43A12.74,12.74,0,0,0,215.17,102.86Z"/><path d="M225.35,95.26l2-.78L226.45,98h2.63l-.2.9h-2.63l-1.11,4.25a12.26,12.26,0,0,0-.53,2.67.68.68,0,0,0,.15.49.52.52,0,0,0,.4.15,2.73,2.73,0,0,0,1.2-.47,14.73,14.73,0,0,0,2-1.41l.49.59a32.32,32.32,0,0,1-3.72,2.56,3.56,3.56,0,0,1-1.51.47.91.91,0,0,1-.75-.34,1.82,1.82,0,0,1-.27-1.12,12.53,12.53,0,0,1,.48-2.79l1.3-5h-2.06l.23-.9h2.06Z"/><path d="M236.76,104.7l.42.56q-3.1,3-5.33,3a1.67,1.67,0,0,1-1.38-.61,3.19,3.19,0,0,1-.48-2,10.23,10.23,0,0,1,1.65-5.4q1.86-3.06,4.43-3.06a1.93,1.93,0,0,1,1.38.45,1.6,1.6,0,0,1,.48,1.23,2.78,2.78,0,0,1-.57,1.63,6.63,6.63,0,0,1-2.05,1.66c-.49.28-1.54.79-3.15,1.51a8.79,8.79,0,0,0-.11,1.31,2.08,2.08,0,0,0,.29,1.26,1,1,0,0,0,.83.35,2.63,2.63,0,0,0,1.14-.29A15.2,15.2,0,0,0,236.76,104.7Zm-4.44-1.84a9.92,9.92,0,0,0,3.07-2,2.17,2.17,0,0,0,.7-1.46,1.29,1.29,0,0,0-.29-.87,1,1,0,0,0-.74-.32,1.47,1.47,0,0,0-.91.35,3.55,3.55,0,0,0-1,1.43A12.74,12.74,0,0,0,232.32,102.86Z"/><path d="M241.29,107.89H239.4l.89-3.42c.43-1.67.81-3.26,1.13-4.77a4.27,4.27,0,0,0,.11-.7c0-.2-.09-.3-.28-.3a1.21,1.21,0,0,0-.58.26,11.2,11.2,0,0,0-1.42,1.29l-.4-.45a9.94,9.94,0,0,1,2.44-2,4.28,4.28,0,0,1,1.85-.65.58.58,0,0,1,.37.1.39.39,0,0,1,.13.28,6.36,6.36,0,0,1-.17.88l-.55,2.28a16.34,16.34,0,0,1,2.9-3.47,2.23,2.23,0,0,1,1.3-.68.88.88,0,0,1,.63.24.8.8,0,0,1,0,1.17,3.78,3.78,0,0,1-1.24.57,5.26,5.26,0,0,0-1.52.76,7.16,7.16,0,0,0-1.3,1.36,7.07,7.07,0,0,0-1,1.59,25.73,25.73,0,0,0-.85,3.16Z"/></g><g id="Layer_68" data-name="Layer 68"><path d="M709.12,131.1l-.65-.32a7.43,7.43,0,0,1,2.08-2.76,4,4,0,0,1,2.4-.77,3.38,3.38,0,0,1,3.51,3.39,4.54,4.54,0,0,1-.35,1.7,6.26,6.26,0,0,1-1.13,1.8,27.27,27.27,0,0,1-2.79,2.58,31,31,0,0,0-4.31,4.31c1.1-.06,2.25-.08,3.42-.08h1a2.42,2.42,0,0,0,1.27-.17,5.68,5.68,0,0,0,1.13-1.45h.88a14.41,14.41,0,0,0-1.79,3.49c-.6-.11-1.24-.19-1.91-.25s-1.37-.08-2.1-.08-2.16.05-3.85.16l.25-.8a23.81,23.81,0,0,1,3.46-3.87,32.5,32.5,0,0,0,2.93-3,9.53,9.53,0,0,0,1.38-2.32,4.22,4.22,0,0,0,.33-1.58,2.6,2.6,0,0,0-.62-1.83,2,2,0,0,0-1.53-.69,2.53,2.53,0,0,0-1.5.55A6.32,6.32,0,0,0,709.12,131.1Z"/><path d="M724.37,127.28a3.57,3.57,0,0,1,2.91,1.33,6.18,6.18,0,0,1,1.1,4,13.6,13.6,0,0,1-1.9,7q-1.9,3.25-4.6,3.25a3.31,3.31,0,0,1-2.69-1.39,5.91,5.91,0,0,1-1.1-3.77,14.47,14.47,0,0,1,1.1-5.5,9.46,9.46,0,0,1,2.46-3.81A4.29,4.29,0,0,1,724.37,127.28Zm-.23.75a2.21,2.21,0,0,0-1.61,1,11.06,11.06,0,0,0-1.51,3.84,22.15,22.15,0,0,0-.69,5.32,5.74,5.74,0,0,0,.59,3,1.64,1.64,0,0,0,1.35.93,1.9,1.9,0,0,0,1.33-.68,9.07,9.07,0,0,0,1.77-3.78,20.55,20.55,0,0,0,.79-5.58,6.34,6.34,0,0,0-.66-3.25A1.52,1.52,0,0,0,724.14,128Z"/><path d="M735.07,127.29a2.22,2.22,0,0,1,1.72.73,3,3,0,0,1,.67,2.06,6.11,6.11,0,0,1-1.38,3.94,3.23,3.23,0,0,1-2.6,1.39,2.21,2.21,0,0,1-1.72-.74,2.81,2.81,0,0,1-.68-2,6.58,6.58,0,0,1,1.14-3.7A3.35,3.35,0,0,1,735.07,127.29Zm-.18.55c-.53,0-1,.53-1.48,1.59a8.72,8.72,0,0,0-.69,3.51,2.77,2.77,0,0,0,.3,1.46.85.85,0,0,0,.69.47c.47,0,.9-.41,1.28-1.23a9.12,9.12,0,0,0,.83-3.85,3.05,3.05,0,0,0-.33-1.55A.71.71,0,0,0,734.89,127.84Zm-1.8,14.75c.72-1.2,1.34-2.27,1.85-3.2l4.66-8.47q1.11-2.05,1.92-3.63a6.93,6.93,0,0,0,1,.18c-.78,1.26-1.52,2.52-2.21,3.78l-4.08,7.43q-1.12,2-2.08,4a6,6,0,0,0-.65-.08Zm9.1-8a2.24,2.24,0,0,1,1.72.73,3,3,0,0,1,.67,2.07,6.13,6.13,0,0,1-1.37,3.93,3.27,3.27,0,0,1-2.61,1.4,2.26,2.26,0,0,1-1.72-.74,2.85,2.85,0,0,1-.68-2,6.53,6.53,0,0,1,1.14-3.69A3.34,3.34,0,0,1,742.19,134.56Zm-.18.55c-.53,0-1,.53-1.48,1.59a8.74,8.74,0,0,0-.69,3.52,2.73,2.73,0,0,0,.3,1.45.85.85,0,0,0,.7.47c.47,0,.89-.41,1.27-1.23a9.12,9.12,0,0,0,.83-3.85,3,3,0,0,0-.33-1.54A.73.73,0,0,0,742,135.11Z"/></g><g id="Layer_25" data-name="Layer 25"><path class="cls-2" d="M99.22,123.5c-3,1.65-7.7,10.46-7.17,12,.72,2.06.09,4,.9,6a14.38,14.38,0,0,0,5.38,6c9.85,6,21.5,6,21.5,6H153l-.89-35H112.66S101,122.5,99.22,123.5Z"/></g><g id="Layer_7" data-name="Layer 7"><path d="M691.5,138.5c1,3-.93,7.87-3,9-11,6-26,6-26,6h-22v-34h31l6,1,9,8S690.79,136.38,691.5,138.5Z"/></g><g class="cls-3"><ellipse class="cls-4" cx="248.63" cy="167.12" rx="12.66" ry="13.04"/></g><g class="cls-3"><ellipse class="cls-5" cx="265.63" cy="163.12" rx="7.66" ry="7.89"/></g><g class="cls-3"><ellipse class="cls-6" cx="387.3" cy="167.66" rx="12.66" ry="13.04"/></g><g class="cls-3"><ellipse class="cls-7" cx="404.3" cy="163.66" rx="7.66" ry="7.89"/></g><g class="cls-3"><ellipse class="cls-8" cx="373.3" cy="160.66" rx="5.99" ry="6.18"/></g><g class="cls-3"><ellipse class="cls-9" cx="636.21" cy="108.89" rx="10.27" ry="10.58"/></g><g class="cls-3"><ellipse class="cls-10" cx="650.21" cy="111.89" rx="7.08" ry="7.29"/></g><g class="cls-3"><ellipse class="cls-11" cx="626.21" cy="115.89" rx="4.08" ry="4.2"/></g><g class="cls-3"><ellipse class="cls-12" cx="644.23" cy="102.36" rx="4.06" ry="4.19"/></g></g></svg>