<svg xmlns="http://www.w3.org/2000/svg" xmlns:xlink="http://www.w3.org/1999/xlink" width="800.78" height="200" viewBox="0 0 800.78 200"><defs><style>.cls-1{fill:#999;}.cls-1,.cls-3{opacity:0.5;}.cls-2{fill:#e70000;stroke:#000;stroke-miterlimit:10;}.cls-4{fill:url(#radial-gradient);}.cls-5{fill:url(#radial-gradient-2);}.cls-6{fill:url(#radial-gradient-3);}.cls-7{fill:url(#radial-gradient-4);}.cls-8{fill:url(#radial-gradient-5);}.cls-9{fill:url(#radial-gradient-6);}.cls-10{fill:url(#radial-gradient-7);}.cls-11{fill:url(#radial-gradient-8);}.cls-12{fill:url(#radial-gradient-9);}</style><radialGradient id="radial-gradient" cx="-3429.73" cy="4469.81" r="87.04" gradientTransform="translate(747.34 -511.29) scale(0.15 0.15)" gradientUnits="userSpaceOnUse"><stop offset="0" stop-color="#fff" stop-opacity="0"/><stop offset="0.87" stop-color="#fff" stop-opacity="0.05"/><stop offset="1" stop-color="#fff"/></radialGradient><radialGradient id="radial-gradient-2" cx="-3312.82" cy="4443.11" r="52.66" xlink:href="#radial-gradient"/><radialGradient id="radial-gradient-3" cx="-2476.11" cy="4473.42" r="87.04" xlink:href="#radial-gradient"/><radialGradient id="radial-gradient-4" cx="-2359.19" cy="4446.73" r="52.66" xlink:href="#radial-gradient"/><radialGradient id="radial-gradient-5" cx="-2572.39" cy="4426.71" r="41.21" xlink:href="#radial-gradient"/><radialGradient id="radial-gradient-6" cx="-764.25" cy="4081.22" r="70.6" xlink:href="#radial-gradient"/><radialGradient id="radial-gradient-7" cx="-667.97" cy="4101.24" r="48.67" xlink:href="#radial-gradient"/><radialGradient id="radial-gradient-8" cx="-833.02" cy="4127.94" r="28.03" xlink:href="#radial-gradient"/><radialGradient id="radial-gradient-9" cx="-709.13" cy="4037.67" r="27.93" xlink:href="#radial-gradient"/></defs><g id="Layer_248" data-name="Layer 248"><g id="Layer_249" data-name="Layer 249"><rect class="cls-1" x="-68" y="-949" width="2701" height="1728" rx="12"/></g></g><g id="Layer_1" data-name="Layer 1"><g id="Layer_167" data-name="Layer 167"><path d="M690.72,130.5c3.35,11.76-11.92,15-28,16a292.39,292.39,0,0,1-30,0h-504c-39.51,0-42-16.65-33-27,4.82-5.56,19-8,19-8l44.26.08,505.65.91h8.09s4,0,10.23,5.88A26.55,26.55,0,0,1,690.72,130.5Z"/></g><g id="Layer_166" data-name="Layer 166"><path d="M159,111.58V146.5l60.18.44V111.49Z"/></g><g id="Layer_165" data-name="Layer 165"><path d="M219.18,111.65v34.92l60.19.44V111.56Z"/></g><g id="Layer_164" data-name="Layer 164"><path d="M279.82,111.68V146.6L340,147V111.59Z"/></g><g id="Layer_163" data-name="Layer 163"><path d="M339.08,111V146l60.18.44V110.94Z"/></g><g id="Layer_162" data-name="Layer 162"><path d="M398.48,111.56v34.92l60.19.44V111.47Z"/></g><g id="Layer_161" data-name="Layer 161"><path d="M458.48,111.56v34.92l60.19.44V111.47Z"/></g><g id="Layer_160" data-name="Layer 160"><path d="M518.48,111.56v34.92l60.19.44V111.47Z"/></g><g id="Layer_159" data-name="Layer 159"><path d="M579,111.91v34.92l60.18.44V111.82Z"/></g><g id="Layer_158" data-name="Layer 158"><path d="M691.61,130.5c3.36,11.76-11.91,15-28,16a292.45,292.45,0,0,1-30,0h-504c-39.5,0-42-16.65-33-27,4.83-5.56,19-8,19-8l44.27.08,505.65.91h8.08s4,0,10.24,5.88A26.46,26.46,0,0,1,691.61,130.5Z"/></g><g id="Layer_157" data-name="Layer 157"><path d="M159.88,111.58V146.5l60.18.44V111.49Z"/></g><g id="Layer_156" data-name="Layer 156"><path class="cls-2" d="M217.08,111.65v34.92L275,147V111.56Z"/></g><g id="Layer_155" data-name="Layer 155"><path d="M280.72,111.68V146.6l60.18.44V111.59Z"/></g><g id="Layer_154" data-name="Layer 154"><path d="M340,111V146l60.18.44V110.94Z"/></g><g id="Layer_153" data-name="Layer 153"><path d="M399.38,111.56v34.92l60.18.44V111.47Z"/></g><g id="Layer_152" data-name="Layer 152"><path d="M459.38,111.56v34.92l60.18.44V111.47Z"/></g><g id="Layer_151" data-name="Layer 151"><path d="M519.38,111.56v34.92l60.18.44V111.47Z"/></g><g id="Layer_150" data-name="Layer 150"><path d="M579.89,111.91v34.92l60.18.44V111.82Z"/></g><g id="Layer_149" data-name="Layer 149"><path d="M110.66,88.67l.13-.54a22.54,22.54,0,0,0,3.26-.56,23.47,23.47,0,0,0-1,3.2l-.83,3.54a22.14,22.14,0,0,1-2,5.79,10.27,10.27,0,0,0,1.92.22,7.65,7.65,0,0,0,3.87-.94,6.74,6.74,0,0,0,2.62-2.72,8.11,8.11,0,0,0,1-4A6.3,6.3,0,0,0,118,88.16a5.69,5.69,0,0,0-4.31-1.72,8.87,8.87,0,0,0-4.24,1.07,8.45,8.45,0,0,0-3.15,2.82,6.23,6.23,0,0,0-1.16,3.42,2.52,2.52,0,0,0,1.42,2.39,1.74,1.74,0,0,1,.53.39.69.69,0,0,1,.12.41.75.75,0,0,1-.24.54.7.7,0,0,1-.54.23,1.7,1.7,0,0,1-1.31-.88,4.43,4.43,0,0,1-.87-2.56,7.73,7.73,0,0,1,1.3-4.22,9.22,9.22,0,0,1,3.63-3.24,11,11,0,0,1,5.16-1.21,8,8,0,0,1,5.58,1.87A6.06,6.06,0,0,1,122,92.18,8.59,8.59,0,0,1,120.5,97a8.3,8.3,0,0,1-3.49,3.13,9.7,9.7,0,0,1-4.09.94c-.44,0-1.2,0-2.29-.13-.91-.07-1.78-.1-2.6-.1-.38,0-1,0-1.73,0l.29-.62a4.9,4.9,0,0,0,1.45-.21,1.22,1.22,0,0,0,.49-.47,13.75,13.75,0,0,0,1-2.54l.88-3.31,1-4.14a2.28,2.28,0,0,0,.08-.52.44.44,0,0,0-.13-.32.49.49,0,0,0-.36-.12Z"/><path d="M129.46,97.7l.42.56q-3.1,3-5.33,3a1.67,1.67,0,0,1-1.38-.61,3.27,3.27,0,0,1-.47-2,10.23,10.23,0,0,1,1.65-5.4q1.84-3.06,4.43-3.06a1.94,1.94,0,0,1,1.38.45,1.63,1.63,0,0,1,.47,1.23,2.78,2.78,0,0,1-.57,1.63,6.57,6.57,0,0,1-2,1.66c-.49.28-1.54.79-3.15,1.51a7.69,7.69,0,0,0-.12,1.31,2.08,2.08,0,0,0,.29,1.26,1,1,0,0,0,.83.35A2.6,2.6,0,0,0,127,99.3,15.2,15.2,0,0,0,129.46,97.7ZM125,95.86a9.8,9.8,0,0,0,3.07-2,2.12,2.12,0,0,0,.7-1.46,1.28,1.28,0,0,0-.28-.87,1,1,0,0,0-.75-.32,1.49,1.49,0,0,0-.91.35,3.53,3.53,0,0,0-1,1.43A12.77,12.77,0,0,0,125,95.86Z"/><path d="M136.93,97.83l.43.46a12.56,12.56,0,0,1-2.34,2,4.24,4.24,0,0,1-2.23.92.84.84,0,0,1-.65-.29,1.24,1.24,0,0,1-.25-.82,22.52,22.52,0,0,1,.79-4.22L134,90.34a23.15,23.15,0,0,1,1.26-4A5.93,5.93,0,0,1,140.56,83a1.27,1.27,0,0,1,.86.27.81.81,0,0,1,.31.63.84.84,0,0,1-.31.67,1.32,1.32,0,0,1-.88.26,6.11,6.11,0,0,1-1.08-.13,7.74,7.74,0,0,0-1.12-.1,1.2,1.2,0,0,0-.79.22,2.8,2.8,0,0,0-.66,1.27c-.2.65-.52,1.93-1,3.84l-1.26,5.32c-.63,2.67-.94,4.06-.94,4.18s.09.41.29.41a1.78,1.78,0,0,0,.81-.33A13,13,0,0,0,136.93,97.83Z"/><path d="M138.29,93.16l-.56-.44a9.81,9.81,0,0,1,2.31-2,3.73,3.73,0,0,1,1.79-.59,1,1,0,0,1,.62.18.57.57,0,0,1,.21.48,23.47,23.47,0,0,1-.82,3.12,30.9,30.9,0,0,0-1.34,5.43.49.49,0,0,0,.09.3.24.24,0,0,0,.19.12c.27,0,1-.52,2.08-1.57l.49.48a16.75,16.75,0,0,1-2.54,2.1,2.83,2.83,0,0,1-1.3.45.92.92,0,0,1-.71-.28,1.09,1.09,0,0,1-.26-.77c0-1.06.64-3.64,1.91-7.76a1.78,1.78,0,0,0,.09-.52c0-.17-.08-.25-.23-.25a1.15,1.15,0,0,0-.58.2A12.76,12.76,0,0,0,138.29,93.16Zm5-8.41a.85.85,0,0,1,.64.26.94.94,0,0,1,.26.67,1.4,1.4,0,0,1-.39,1,1.15,1.15,0,0,1-.87.43.83.83,0,0,1-.63-.27,1,1,0,0,1-.26-.7,1.41,1.41,0,0,1,.37-1A1.15,1.15,0,0,1,143.28,84.75Z"/><path d="M152.66,90.12l1-.23c-.61,2-1.18,4-1.69,6a35.37,35.37,0,0,0-.77,3.55,12.4,12.4,0,0,0-.13,1.81,9.65,9.65,0,0,1-.41,2.94,4.76,4.76,0,0,1-2,2.51,6.06,6.06,0,0,1-3.44,1,4.1,4.1,0,0,1-2.7-.81,2.35,2.35,0,0,1-1-1.85,2.86,2.86,0,0,1,.79-1.91,8.9,8.9,0,0,1,2.45-1.63c.62-.33,1.21-.67,1.77-1a3.6,3.6,0,0,1-1.47.48,1.09,1.09,0,0,1-.84-.44,1.77,1.77,0,0,1-.36-1.16,8.85,8.85,0,0,1,1.39-4.64,9.69,9.69,0,0,1,3.35-3.46,5.8,5.8,0,0,1,3-.71l.88,0Zm-3.14,8.8a37,37,0,0,1-3.33,2.48,13.21,13.21,0,0,0-2.67,2.12,2.28,2.28,0,0,0-.5,1.39,1.72,1.72,0,0,0,.65,1.3,2.19,2.19,0,0,0,1.55.58,3.61,3.61,0,0,0,1.68-.42,4.18,4.18,0,0,0,1.42-1.24,4.66,4.66,0,0,0,.83-1.82,12.66,12.66,0,0,0,.25-2.69C149.4,100.38,149.45,99.81,149.52,98.92ZM151.24,92a5.47,5.47,0,0,0-1.07-.11,3.39,3.39,0,0,0-2.07.63,4.83,4.83,0,0,0-1.47,2.13,10,10,0,0,0-.85,3.57,1.53,1.53,0,0,0,.33,1,1,1,0,0,0,.76.41,2.38,2.38,0,0,0,1.25-.49,4.09,4.09,0,0,0,1.23-1.22,9.81,9.81,0,0,0,1-2.54Z"/><path d="M164.71,98.2l.33.47a11.4,11.4,0,0,1-2.4,2,2.8,2.8,0,0,1-1.39.52.87.87,0,0,1-.71-.35,1.78,1.78,0,0,1-.28-1.11,7.74,7.74,0,0,1,.21-1.48c.14-.64.54-2,1.19-4.17a12.27,12.27,0,0,0,.43-1.84c0-.27-.14-.4-.43-.4a2.57,2.57,0,0,0-1.34.53,8,8,0,0,0-2,1.87,5.78,5.78,0,0,0-.88,2.16l-1,4.44h-1.9c.41-1.48.72-2.69.94-3.63l1.87-8.14a10.12,10.12,0,0,1,1.34-3.47,6.09,6.09,0,0,1,2.17-2,5.55,5.55,0,0,1,2.65-.73,1.24,1.24,0,0,1,.86.28.85.85,0,0,1,.32.68.81.81,0,0,1-.31.61,1.31,1.31,0,0,1-.85.26,6.71,6.71,0,0,1-.79-.06,12.39,12.39,0,0,0-1.51-.17,1.14,1.14,0,0,0-.95.48,6.58,6.58,0,0,0-.77,2.22l-1.41,6.26a16.26,16.26,0,0,1,3.29-2.67,3.49,3.49,0,0,1,1.68-.65,1,1,0,0,1,.77.29,1.13,1.13,0,0,1,.28.82,3.67,3.67,0,0,1-.1.86c-.11.5-.37,1.4-.78,2.72-.55,1.81-.87,2.93-1,3.37a5.44,5.44,0,0,0-.15,1.18.62.62,0,0,0,.07.31.24.24,0,0,0,.21.1,2.56,2.56,0,0,0,1.14-.72Z"/><path d="M169.51,88.26l2-.78L170.61,91h2.63l-.2.9H170.4l-1.1,4.25a12.26,12.26,0,0,0-.53,2.67.68.68,0,0,0,.15.49.52.52,0,0,0,.4.15,2.73,2.73,0,0,0,1.2-.47,14.73,14.73,0,0,0,2-1.41l.49.59a32.32,32.32,0,0,1-3.72,2.56,3.56,3.56,0,0,1-1.52.47.89.89,0,0,1-.74-.34,1.82,1.82,0,0,1-.27-1.12,12.53,12.53,0,0,1,.48-2.79l1.29-5h-2.05l.23-.9h2Z"/><path d="M177.35,89.23l-.21-.81a7.39,7.39,0,0,0,1.39-1.5,2.25,2.25,0,0,0,.32-1.08,2,2,0,0,0-.31-.85,1.84,1.84,0,0,1-.24-.85,1.17,1.17,0,0,1,.31-.84,1,1,0,0,1,.77-.33,1.07,1.07,0,0,1,.83.38,1.43,1.43,0,0,1,.33,1,4.37,4.37,0,0,1-.69,2.23A11.52,11.52,0,0,1,177.35,89.23Z"/><path d="M186.8,90.21a2.58,2.58,0,0,1,2.07,1,4.19,4.19,0,0,1,.82,2.76,7.47,7.47,0,0,1-2,5.06,5.65,5.65,0,0,1-4.19,2.24,2.89,2.89,0,0,1-2.19-.89,3.43,3.43,0,0,1-.83-2.43A8.66,8.66,0,0,1,182,93,5.65,5.65,0,0,1,186.8,90.21Zm-1.08,1c-.72,0-1.42.52-2.09,1.55a7.7,7.7,0,0,0-1,4.25,4.8,4.8,0,0,0,.62,2.61,1.42,1.42,0,0,0,1.22.7A2.41,2.41,0,0,0,186.4,99a7.64,7.64,0,0,0,1.12-4.26A5.33,5.33,0,0,0,187,92,1.51,1.51,0,0,0,185.72,91.16Z"/><path d="M197,93.13l-.38-.51A10.67,10.67,0,0,1,199,90.77a4.22,4.22,0,0,1,1.78-.6.61.61,0,0,1,.41.12.37.37,0,0,1,.13.31,4.8,4.8,0,0,1-.2,1c-.2.71-.33,1.28-.41,1.69,2-2.06,3.57-3.1,4.65-3.1a.82.82,0,0,1,.63.23,1,1,0,0,1,.22.72,7.63,7.63,0,0,1-.38,1.82,12.49,12.49,0,0,1,2.51-2.14,3.69,3.69,0,0,1,1.66-.63,1.06,1.06,0,0,1,.83.31,1.28,1.28,0,0,1,.29.94,4.14,4.14,0,0,1-.12.9c-.09.35-.4,1.4-.93,3.17a22.46,22.46,0,0,0-1,3.93c0,.28.12.43.35.43a.78.78,0,0,0,.47-.16,11.7,11.7,0,0,0,1.54-1.32l.42.46c-.18.14-.52.44-1,.89a11.28,11.28,0,0,1-1.39,1.14,2.58,2.58,0,0,1-1.25.43.84.84,0,0,1-.67-.37,1.69,1.69,0,0,1-.29-1,6.71,6.71,0,0,1,.18-1.42c.11-.55.46-1.77,1-3.68a14.41,14.41,0,0,0,.64-2.6c0-.29-.12-.43-.38-.43a1.84,1.84,0,0,0-.85.31A6.64,6.64,0,0,0,206,93.68a6.14,6.14,0,0,0-.88,2.09q-.85,3.14-1.27,5.12H202l1.9-7.76a9.35,9.35,0,0,0,.2-1,.46.46,0,0,0-.1-.31.36.36,0,0,0-.29-.11,2.16,2.16,0,0,0-1.07.53,6.69,6.69,0,0,0-1.8,1.75,8,8,0,0,0-.95,2.57l-1,4.29h-1.83l1.44-6.06q.63-2.62.63-2.85c0-.2-.08-.3-.23-.3C198.64,91.68,198,92.17,197,93.13Z"/><path d="M219.39,97.7l.41.56q-3.11,3-5.33,3a1.64,1.64,0,0,1-1.37-.61,3.19,3.19,0,0,1-.48-2,10.23,10.23,0,0,1,1.65-5.4c1.24-2,2.71-3.06,4.43-3.06a1.94,1.94,0,0,1,1.38.45,1.6,1.6,0,0,1,.47,1.23A2.78,2.78,0,0,1,220,93.5a6.57,6.57,0,0,1-2,1.66c-.49.28-1.54.79-3.15,1.51a7.63,7.63,0,0,0-.11,1.31,2.09,2.09,0,0,0,.28,1.26,1,1,0,0,0,.83.35,2.67,2.67,0,0,0,1.15-.29A16.15,16.15,0,0,0,219.39,97.7Zm-4.45-1.84a9.68,9.68,0,0,0,3.07-2,2.12,2.12,0,0,0,.7-1.46,1.28,1.28,0,0,0-.28-.87,1,1,0,0,0-.75-.32,1.49,1.49,0,0,0-.91.35,3.53,3.53,0,0,0-1,1.43A12.77,12.77,0,0,0,214.94,95.86Z"/><path d="M225.12,88.26l2-.78L226.23,91h2.63l-.21.9H226l-1.1,4.25a11.67,11.67,0,0,0-.53,2.67.73.73,0,0,0,.14.49.54.54,0,0,0,.4.15,2.72,2.72,0,0,0,1.21-.47,14.73,14.73,0,0,0,2-1.41l.48.59a30.6,30.6,0,0,1-3.72,2.56,3.52,3.52,0,0,1-1.51.47.89.89,0,0,1-.74-.34,1.82,1.82,0,0,1-.27-1.12,12.53,12.53,0,0,1,.48-2.79l1.29-5h-2.05l.22-.9h2.06Z"/><path d="M236.54,97.7l.42.56q-3.12,3-5.34,3a1.64,1.64,0,0,1-1.37-.61,3.19,3.19,0,0,1-.48-2,10.23,10.23,0,0,1,1.65-5.4c1.24-2,2.71-3.06,4.43-3.06a1.94,1.94,0,0,1,1.38.45,1.6,1.6,0,0,1,.48,1.23,2.8,2.8,0,0,1-.58,1.63,6.57,6.57,0,0,1-2,1.66c-.49.28-1.54.79-3.15,1.51a8.79,8.79,0,0,0-.11,1.31,2.09,2.09,0,0,0,.28,1.26,1,1,0,0,0,.83.35,2.67,2.67,0,0,0,1.15-.29A15.66,15.66,0,0,0,236.54,97.7Zm-4.45-1.84a9.86,9.86,0,0,0,3.08-2,2.15,2.15,0,0,0,.69-1.46,1.28,1.28,0,0,0-.28-.87,1,1,0,0,0-.74-.32,1.49,1.49,0,0,0-.92.35,3.53,3.53,0,0,0-1,1.43A12.77,12.77,0,0,0,232.09,95.86Z"/><path d="M241.07,100.89h-1.89l.89-3.42c.43-1.67.8-3.26,1.13-4.77a5.92,5.92,0,0,0,.11-.7c0-.2-.09-.3-.28-.3a1.17,1.17,0,0,0-.58.26A11.2,11.2,0,0,0,239,93.25l-.4-.45a9.73,9.73,0,0,1,2.43-2,4.36,4.36,0,0,1,1.86-.65.57.57,0,0,1,.36.1.37.37,0,0,1,.14.28,6.36,6.36,0,0,1-.17.88l-.55,2.28a16.05,16.05,0,0,1,2.9-3.47,2.21,2.21,0,0,1,1.29-.68.89.89,0,0,1,.64.24.8.8,0,0,1,.26.58.83.83,0,0,1-.25.59,3.89,3.89,0,0,1-1.24.57,5.46,5.46,0,0,0-1.53.76,7.48,7.48,0,0,0-1.29,1.36,7.57,7.57,0,0,0-1,1.59,27.81,27.81,0,0,0-.85,3.16Z"/></g><g id="Layer_148" data-name="Layer 148"><path d="M709.19,123.26l-.52-.37a11.59,11.59,0,0,1,1.9-1.86,4.1,4.1,0,0,1,2.25-.72,2.66,2.66,0,0,1,1.84.6,2,2,0,0,1,.67,1.54q0,2-3,4.2a3.43,3.43,0,0,1,1.56.37,2.37,2.37,0,0,1,.87,1,3.41,3.41,0,0,1,.33,1.55,6,6,0,0,1-2.47,4.56,6.7,6.7,0,0,1-4.36,1.8,3.59,3.59,0,0,1-1.8-.45,1.32,1.32,0,0,1-.81-1.13.72.72,0,0,1,.7-.7,1.4,1.4,0,0,1,.87.47,4.61,4.61,0,0,0,1,.77,1.75,1.75,0,0,0,.78.22,3.39,3.39,0,0,0,2.21-1.17,5.05,5.05,0,0,0,1.81-3.76,2.32,2.32,0,0,0-.57-1.64,1.87,1.87,0,0,0-1.45-.62,4.37,4.37,0,0,0-1.47.3l.08-.79a6.93,6.93,0,0,0,2.92-2,3.09,3.09,0,0,0,.92-2.06,1.77,1.77,0,0,0-.4-1.23,1.42,1.42,0,0,0-1.09-.44A3.64,3.64,0,0,0,709.19,123.26Z"/><path d="M724.14,120.28a3.6,3.6,0,0,1,2.92,1.33,6.19,6.19,0,0,1,1.09,4,13.69,13.69,0,0,1-1.89,7c-1.27,2.17-2.8,3.25-4.61,3.25a3.3,3.3,0,0,1-2.68-1.39,5.91,5.91,0,0,1-1.1-3.77,14.65,14.65,0,0,1,1.09-5.5,9.46,9.46,0,0,1,2.47-3.81A4.29,4.29,0,0,1,724.14,120.28Zm-.23.75a2.2,2.2,0,0,0-1.6,1,10.86,10.86,0,0,0-1.51,3.84,22.15,22.15,0,0,0-.69,5.32,5.64,5.64,0,0,0,.59,3,1.64,1.64,0,0,0,1.35.93,1.9,1.9,0,0,0,1.33-.68,9.2,9.2,0,0,0,1.77-3.78,20.53,20.53,0,0,0,.78-5.58,6.34,6.34,0,0,0-.66-3.25A1.51,1.51,0,0,0,723.91,121Z"/><path d="M734.85,120.29a2.19,2.19,0,0,1,1.71.73,2.92,2.92,0,0,1,.67,2.06,6.15,6.15,0,0,1-1.37,3.94,3.24,3.24,0,0,1-2.6,1.39,2.2,2.2,0,0,1-1.72-.74,2.81,2.81,0,0,1-.68-2A6.65,6.65,0,0,1,732,122,3.35,3.35,0,0,1,734.85,120.29Zm-.19.55c-.53,0-1,.53-1.48,1.59a8.89,8.89,0,0,0-.68,3.51,2.77,2.77,0,0,0,.3,1.46.85.85,0,0,0,.69.47c.47,0,.9-.41,1.27-1.23a9,9,0,0,0,.83-3.85,3.17,3.17,0,0,0-.32-1.55A.72.72,0,0,0,734.66,120.84Zm-1.8,14.75c.73-1.2,1.34-2.27,1.86-3.2l4.65-8.47q1.13-2.06,1.92-3.63a7.14,7.14,0,0,0,1,.18c-.78,1.26-1.52,2.52-2.21,3.78L736,131.68c-.75,1.35-1.44,2.69-2.09,4a5.8,5.8,0,0,0-.64-.08Zm9.11-8a2.26,2.26,0,0,1,1.72.73,3,3,0,0,1,.66,2.07,6.07,6.07,0,0,1-1.37,3.93,3.24,3.24,0,0,1-2.6,1.4,2.25,2.25,0,0,1-1.72-.74,2.85,2.85,0,0,1-.68-2,6.53,6.53,0,0,1,1.14-3.69A3.32,3.32,0,0,1,742,127.56Zm-.19.55c-.52,0-1,.53-1.47,1.59a8.74,8.74,0,0,0-.69,3.52,2.73,2.73,0,0,0,.3,1.45.83.83,0,0,0,.69.47c.47,0,.9-.41,1.28-1.23a9.12,9.12,0,0,0,.83-3.85,3,3,0,0,0-.33-1.54A.73.73,0,0,0,741.78,128.11Z"/></g><g id="Layer_24" data-name="Layer 24"><path d="M100.05,116.5c-3.31,1.65-8.6,10.46-8,12,.8,2.06.1,4,1,6a15.05,15.05,0,0,0,6,6c11,6,24,6,24,6h37l-1-35h-44S102.05,115.5,100.05,116.5Z"/></g><g id="Layer_8" data-name="Layer 8"><path d="M691.5,131.5c1,3-.93,7.87-3,9-11,6-26,6-26,6h-22v-34h31l6,1,9,8S690.79,129.38,691.5,131.5Z"/></g><g id="Layer_4" data-name="Layer 4"><path class="cls-2" d="M97.6,116.5c-3,1.65-7.7,10.46-7.17,12,.72,2.06.1,4,.9,6a14.44,14.44,0,0,0,5.38,6c9.86,6,21.51,6,21.51,6h33.15l-.89-35H111.05S99.4,115.5,97.6,116.5Z"/></g><g id="Layer_3" data-name="Layer 3"><path class="cls-2" d="M156.78,111.35v34.92l54.9.44V111.26Z"/></g><g class="cls-3"><ellipse class="cls-4" cx="248.63" cy="158.51" rx="12.66" ry="13.04"/></g><g class="cls-3"><ellipse class="cls-5" cx="265.63" cy="154.51" rx="7.66" ry="7.89"/></g><g class="cls-3"><ellipse class="cls-6" cx="387.3" cy="159.05" rx="12.66" ry="13.04"/></g><g class="cls-3"><ellipse class="cls-7" cx="404.3" cy="155.05" rx="7.66" ry="7.89"/></g><g class="cls-3"><ellipse class="cls-8" cx="373.3" cy="152.05" rx="5.99" ry="6.18"/></g><g class="cls-3"><ellipse class="cls-9" cx="636.21" cy="100.28" rx="10.27" ry="10.58"/></g><g class="cls-3"><ellipse class="cls-10" cx="650.21" cy="103.28" rx="7.08" ry="7.29"/></g><g class="cls-3"><ellipse class="cls-11" cx="626.21" cy="107.28" rx="4.08" ry="4.2"/></g><g class="cls-3"><ellipse class="cls-12" cx="644.23" cy="93.75" rx="4.06" ry="4.19"/></g></g></svg>