<svg xmlns="http://www.w3.org/2000/svg" width="800.78" height="200" viewBox="0 0 800.78 200"><defs><style>.cls-1{fill:#999;opacity:0.5;}.cls-2{fill:#02b900;}</style></defs><g id="Layer_248" data-name="Layer 248"><g id="Layer_249" data-name="Layer 249"><rect class="cls-1" x="-1709.55" y="-289" width="2701" height="1728" rx="12"/></g></g><g id="Layer_1" data-name="Layer 1"><g id="Layer_207" data-name="Layer 207"><path d="M664.5,151.5c3.36,11.76-11.92,15-28,16a292.45,292.45,0,0,1-30,0h-504c-39.51,0-42-16.65-33-27,4.83-5.56,19-8,19-8l44.26.08,505.65.91h8.09s4,0,10.24,5.88A26.46,26.46,0,0,1,664.5,151.5Z"/></g><g id="Layer_206" data-name="Layer 206"><path d="M132.76,132.58V167.5l60.19.44V132.49Z"/></g><g id="Layer_205" data-name="Layer 205"><path d="M193,132.65v34.92l60.18.44V132.56Z"/></g><g id="Layer_204" data-name="Layer 204"><path d="M253.6,132.68V167.6l60.19.44V132.59Z"/></g><g id="Layer_203" data-name="Layer 203"><path d="M312.86,132V167l60.19.44V131.94Z"/></g><g id="Layer_202" data-name="Layer 202"><path d="M372.27,132.56v34.92l60.18.44V132.47Z"/></g><g id="Layer_201" data-name="Layer 201"><path d="M432.27,132.56v34.92l60.18.44V132.47Z"/></g><g id="Layer_200" data-name="Layer 200"><path d="M492.27,132.56v34.92l60.18.44V132.47Z"/></g><g id="Layer_199" data-name="Layer 199"><path d="M552.77,132.91v34.92l60.18.44V132.82Z"/></g><g id="Layer_198" data-name="Layer 198"><path d="M665.4,151.5c3.36,11.76-11.92,15-28,16a292.39,292.39,0,0,1-30,0h-504c-39.51,0-42-16.65-33-27,4.83-5.56,19-8,19-8l44.26.08,505.65.91h8.09s4,0,10.24,5.88A26.46,26.46,0,0,1,665.4,151.5Z"/></g><g id="Layer_197" data-name="Layer 197"><path class="cls-2" d="M137.53,132.58V167.5l52.45.44V132.49Z"/></g><g id="Layer_196" data-name="Layer 196"><path class="cls-2" d="M197.73,132.65v34.92l52.46.44V132.56Z"/></g><g id="Layer_195" data-name="Layer 195"><path class="cls-2" d="M258.37,132.68V167.6l52.45.44V132.59Z"/></g><g id="Layer_194" data-name="Layer 194"><path class="cls-2" d="M317.62,132V167l52.46.44V131.94Z"/></g><g id="Layer_193" data-name="Layer 193"><path class="cls-2" d="M377,132.56v34.92l52.46.44V132.47Z"/></g><g id="Layer_192" data-name="Layer 192"><path class="cls-2" d="M437,132.56v34.92l52.46.44V132.47Z"/></g><g id="Layer_191" data-name="Layer 191"><path class="cls-2" d="M497,132.56v34.92l52.46.44V132.47Z"/></g><g id="Layer_190" data-name="Layer 190"><path class="cls-2" d="M557.53,132.91v34.92l52.46.44V132.82Z"/></g><g id="Layer_189" data-name="Layer 189"><path d="M84.44,109.67l.13-.54a22.54,22.54,0,0,0,3.26-.56,25,25,0,0,0-1,3.2L86,115.31a22.14,22.14,0,0,1-2,5.79,10.46,10.46,0,0,0,1.93.22,7.65,7.65,0,0,0,3.87-.94,6.65,6.65,0,0,0,2.61-2.72,8.12,8.12,0,0,0,1-4,6.3,6.3,0,0,0-1.65-4.55,5.7,5.7,0,0,0-4.32-1.72,8.83,8.83,0,0,0-4.23,1.07A8.45,8.45,0,0,0,80,111.33a6.17,6.17,0,0,0-1.17,3.42,2.53,2.53,0,0,0,1.43,2.39,1.66,1.66,0,0,1,.52.39.69.69,0,0,1,.12.41.79.79,0,0,1-.77.77,1.73,1.73,0,0,1-1.32-.88,4.47,4.47,0,0,1-.86-2.56,7.73,7.73,0,0,1,1.3-4.22,9.19,9.19,0,0,1,3.62-3.24,11,11,0,0,1,5.17-1.21,8,8,0,0,1,5.58,1.88,6.05,6.05,0,0,1,2.07,4.7A8.66,8.66,0,0,1,94.29,118a8.41,8.41,0,0,1-3.5,3.14,9.81,9.81,0,0,1-4.09.93c-.44,0-1.2,0-2.28-.13-.91-.07-1.78-.1-2.6-.1-.38,0-1,0-1.74,0l.29-.62a5.06,5.06,0,0,0,1.46-.21,1.14,1.14,0,0,0,.48-.47,13.54,13.54,0,0,0,1-2.54l.87-3.31,1-4.14a1.78,1.78,0,0,0,.08-.52.41.41,0,0,0-.13-.32.48.48,0,0,0-.35-.12Z"/><path d="M103.25,118.7l.42.56c-2.08,2-3.85,3-5.33,3a1.67,1.67,0,0,1-1.38-.61,3.19,3.19,0,0,1-.48-2,10.23,10.23,0,0,1,1.65-5.4q1.86-3.06,4.43-3.06a1.94,1.94,0,0,1,1.38.45,1.6,1.6,0,0,1,.48,1.23,2.78,2.78,0,0,1-.57,1.63,6.63,6.63,0,0,1-2,1.66c-.49.28-1.54.78-3.15,1.51a8.79,8.79,0,0,0-.11,1.31,2,2,0,0,0,.29,1.26,1,1,0,0,0,.83.35,2.66,2.66,0,0,0,1.14-.29A15.66,15.66,0,0,0,103.25,118.7Zm-4.44-1.84a9.92,9.92,0,0,0,3.07-2,2.17,2.17,0,0,0,.7-1.46,1.29,1.29,0,0,0-.29-.87,1,1,0,0,0-.74-.32,1.51,1.51,0,0,0-.92.35,3.63,3.63,0,0,0-1,1.43A12.74,12.74,0,0,0,98.81,116.86Z"/><path d="M110.71,118.83l.44.46a12.63,12.63,0,0,1-2.35,2,4.25,4.25,0,0,1-2.22.92.81.81,0,0,1-.65-.3,1.19,1.19,0,0,1-.26-.81,23.43,23.43,0,0,1,.79-4.22l1.37-5.57a24.35,24.35,0,0,1,1.25-4,5.93,5.93,0,0,1,5.27-3.28,1.29,1.29,0,0,1,.85.26.81.81,0,0,1,.31.64.86.86,0,0,1-.3.67,1.35,1.35,0,0,1-.89.26,5.92,5.92,0,0,1-1.07-.13,7.87,7.87,0,0,0-1.13-.1,1.19,1.19,0,0,0-.78.22,2.65,2.65,0,0,0-.67,1.27c-.19.65-.52,1.93-1,3.84l-1.27,5.32c-.63,2.67-.94,4.06-.94,4.18s.1.41.29.41a1.8,1.8,0,0,0,.82-.33A13,13,0,0,0,110.71,118.83Z"/><path d="M112.07,114.16l-.56-.44a9.83,9.83,0,0,1,2.32-2,3.74,3.74,0,0,1,1.78-.59.94.94,0,0,1,.62.18.58.58,0,0,1,.22.48,24.5,24.5,0,0,1-.83,3.12,31.94,31.94,0,0,0-1.34,5.43.49.49,0,0,0,.09.3.24.24,0,0,0,.19.12c.27,0,1-.52,2.08-1.57l.5.48a17.26,17.26,0,0,1-2.54,2.1,2.86,2.86,0,0,1-1.31.45.9.9,0,0,1-.7-.28,1,1,0,0,1-.26-.77c0-1.06.63-3.64,1.9-7.76a1.78,1.78,0,0,0,.09-.52c0-.17-.08-.25-.23-.25a1.18,1.18,0,0,0-.58.2A14.94,14.94,0,0,0,112.07,114.16Zm5-8.41a.89.89,0,0,1,.65.26.93.93,0,0,1,.25.67,1.44,1.44,0,0,1-.38,1,1.15,1.15,0,0,1-.87.43.84.84,0,0,1-.64-.27,1,1,0,0,1-.25-.7,1.37,1.37,0,0,1,.37-1A1.15,1.15,0,0,1,117.06,105.75Z"/><path d="M126.45,111.12l1-.23c-.62,2-1.18,4-1.7,6a34.78,34.78,0,0,0-.77,3.55,12.4,12.4,0,0,0-.13,1.81,9.68,9.68,0,0,1-.4,2.94,4.8,4.8,0,0,1-2,2.51,6.12,6.12,0,0,1-3.45,1,4.14,4.14,0,0,1-2.7-.81,2.36,2.36,0,0,1-1-1.85,2.81,2.81,0,0,1,.79-1.91,8.81,8.81,0,0,1,2.44-1.63c.63-.33,1.22-.67,1.77-1a3.6,3.6,0,0,1-1.47.48,1.07,1.07,0,0,1-.83-.44,1.77,1.77,0,0,1-.37-1.16,8.87,8.87,0,0,1,1.4-4.64,9.67,9.67,0,0,1,3.34-3.46,5.82,5.82,0,0,1,3-.71l.88,0Zm-3.14,8.8A40.26,40.26,0,0,1,120,122.4a13.39,13.39,0,0,0-2.68,2.12,2.27,2.27,0,0,0-.49,1.39,1.7,1.7,0,0,0,.64,1.3,2.24,2.24,0,0,0,1.56.58,3.61,3.61,0,0,0,1.68-.42,4.37,4.37,0,0,0,1.42-1.24,4.66,4.66,0,0,0,.83-1.82,13.39,13.39,0,0,0,.24-2.69C123.19,121.38,123.23,120.81,123.31,119.92ZM125,113a5.64,5.64,0,0,0-1.08-.11,3.43,3.43,0,0,0-2.07.63,4.93,4.93,0,0,0-1.47,2.13,10.19,10.19,0,0,0-.85,3.57,1.48,1.48,0,0,0,.34,1,.93.93,0,0,0,.75.41,2.44,2.44,0,0,0,1.26-.49,4,4,0,0,0,1.22-1.22,9.81,9.81,0,0,0,1-2.54Z"/><path d="M138.49,119.2l.33.47a11.4,11.4,0,0,1-2.4,2,2.8,2.8,0,0,1-1.38.52.87.87,0,0,1-.72-.35,1.85,1.85,0,0,1-.27-1.11,7.64,7.64,0,0,1,.21-1.48c.14-.64.53-2,1.19-4.17a13.87,13.87,0,0,0,.43-1.84c0-.27-.15-.4-.44-.4a2.54,2.54,0,0,0-1.33.53,8,8,0,0,0-2,1.87,6,6,0,0,0-.88,2.16l-1,4.44h-1.89c.4-1.48.72-2.69.94-3.63l1.86-8.14a10.24,10.24,0,0,1,1.34-3.47,6.18,6.18,0,0,1,2.17-2,5.61,5.61,0,0,1,2.65-.73,1.24,1.24,0,0,1,.86.28.82.82,0,0,1,.32.68.78.78,0,0,1-.31.61,1.31,1.31,0,0,1-.85.26,6.56,6.56,0,0,1-.78-.06,12.49,12.49,0,0,0-1.52-.17,1.15,1.15,0,0,0-.95.48,6.41,6.41,0,0,0-.76,2.22l-1.42,6.26a16.53,16.53,0,0,1,3.29-2.67,3.56,3.56,0,0,1,1.68-.65,1.06,1.06,0,0,1,.78.29,1.18,1.18,0,0,1,.28.82,4.29,4.29,0,0,1-.1.86c-.12.5-.38,1.4-.78,2.72-.55,1.81-.88,2.93-1,3.37a6.05,6.05,0,0,0-.14,1.18.53.53,0,0,0,.07.31.22.22,0,0,0,.21.1q.3,0,1.14-.72C137.66,119.87,138,119.56,138.49,119.2Z"/><path d="M143.29,109.26l2-.78-.92,3.56H147l-.2.9h-2.63l-1.11,4.25a12.26,12.26,0,0,0-.53,2.67.68.68,0,0,0,.15.49.54.54,0,0,0,.4.15,2.8,2.8,0,0,0,1.21-.47,15.36,15.36,0,0,0,2-1.41l.48.59a30.6,30.6,0,0,1-3.72,2.56,3.56,3.56,0,0,1-1.51.47.89.89,0,0,1-.74-.34,1.75,1.75,0,0,1-.28-1.12,12.11,12.11,0,0,1,.49-2.79l1.29-5h-2.06l.23-.9h2.06Z"/><path d="M151.14,110.23l-.22-.81a7.39,7.39,0,0,0,1.39-1.5,1.64,1.64,0,0,0,0-1.93,1.84,1.84,0,0,1-.24-.85,1.18,1.18,0,0,1,.3-.84,1,1,0,0,1,.78-.33,1,1,0,0,1,.82.38,1.43,1.43,0,0,1,.33,1,4.37,4.37,0,0,1-.69,2.23A11.22,11.22,0,0,1,151.14,110.23Z"/><path d="M160.58,111.21a2.58,2.58,0,0,1,2.07,1,4.19,4.19,0,0,1,.83,2.76,7.47,7.47,0,0,1-2,5.06,5.65,5.65,0,0,1-4.19,2.24,2.86,2.86,0,0,1-2.19-.89,3.4,3.4,0,0,1-.83-2.43,8.58,8.58,0,0,1,1.52-4.92A5.65,5.65,0,0,1,160.58,111.21Zm-1.08,1c-.72,0-1.41.52-2.09,1.55a7.7,7.7,0,0,0-1,4.25,4.71,4.71,0,0,0,.62,2.61,1.4,1.4,0,0,0,1.22.7,2.43,2.43,0,0,0,1.94-1.32,7.7,7.7,0,0,0,1.12-4.26,5.31,5.31,0,0,0-.52-2.71A1.49,1.49,0,0,0,159.5,112.16Z"/><path d="M170.74,114.13l-.38-.51a10.45,10.45,0,0,1,2.39-1.85,4.18,4.18,0,0,1,1.78-.6.58.58,0,0,1,.4.12.37.37,0,0,1,.13.31,4.18,4.18,0,0,1-.2,1c-.19.71-.33,1.28-.41,1.69,2-2.06,3.58-3.1,4.65-3.1a.82.82,0,0,1,.63.23,1,1,0,0,1,.22.72,7.63,7.63,0,0,1-.38,1.82,12.5,12.5,0,0,1,2.52-2.14,3.65,3.65,0,0,1,1.66-.63,1.08,1.08,0,0,1,.83.31,1.32,1.32,0,0,1,.29.94,3.67,3.67,0,0,1-.13.9c-.08.35-.39,1.4-.93,3.17a23.53,23.53,0,0,0-1,3.93c0,.28.12.43.36.43a.81.81,0,0,0,.47-.16,11,11,0,0,0,1.53-1.32l.42.46c-.18.15-.51.44-1,.89a11.12,11.12,0,0,1-1.4,1.14,2.55,2.55,0,0,1-1.24.43.82.82,0,0,1-.67-.37,1.63,1.63,0,0,1-.3-1,6.71,6.71,0,0,1,.18-1.42c.12-.55.47-1.77,1-3.68a14.88,14.88,0,0,0,.65-2.6c0-.29-.13-.43-.38-.43a1.81,1.81,0,0,0-.85.31,6.5,6.5,0,0,0-1.83,1.62,6.12,6.12,0,0,0-.89,2.09q-.85,3.14-1.27,5.12h-1.8l1.89-7.76a7,7,0,0,0,.2-1,.46.46,0,0,0-.1-.32.38.38,0,0,0-.29-.1,2.14,2.14,0,0,0-1.06.53,6.9,6.9,0,0,0-1.81,1.75,8.05,8.05,0,0,0-.94,2.57l-1,4.29h-1.82l1.43-6.06c.42-1.75.64-2.7.64-2.85s-.08-.3-.23-.3C172.43,112.68,171.75,113.17,170.74,114.13Z"/><path d="M193.17,118.7l.42.56q-3.1,3-5.33,3a1.67,1.67,0,0,1-1.38-.61,3.19,3.19,0,0,1-.48-2,10.23,10.23,0,0,1,1.65-5.4q1.86-3.06,4.44-3.06a1.92,1.92,0,0,1,1.37.45,1.6,1.6,0,0,1,.48,1.23,2.78,2.78,0,0,1-.57,1.63,6.63,6.63,0,0,1-2.05,1.66c-.49.28-1.54.78-3.14,1.51a7.69,7.69,0,0,0-.12,1.31,2.08,2.08,0,0,0,.29,1.26,1,1,0,0,0,.83.35,2.63,2.63,0,0,0,1.14-.29A15.2,15.2,0,0,0,193.17,118.7Zm-4.44-1.84a9.92,9.92,0,0,0,3.07-2,2.17,2.17,0,0,0,.7-1.46,1.29,1.29,0,0,0-.29-.87,1,1,0,0,0-.74-.32,1.47,1.47,0,0,0-.91.35,3.55,3.55,0,0,0-1,1.43A12.74,12.74,0,0,0,188.73,116.86Z"/><path d="M198.91,109.26l2-.78L200,112h2.63l-.2.9h-2.63l-1.11,4.25a12.26,12.26,0,0,0-.53,2.67.68.68,0,0,0,.15.49.54.54,0,0,0,.4.15,2.73,2.73,0,0,0,1.2-.47,14.82,14.82,0,0,0,2-1.41l.48.59a32.32,32.32,0,0,1-3.72,2.56,3.56,3.56,0,0,1-1.51.47.91.91,0,0,1-.75-.34,1.82,1.82,0,0,1-.27-1.12,12.53,12.53,0,0,1,.48-2.79l1.3-5h-2.06l.23-.9h2.06Z"/><path d="M210.32,118.7l.42.56q-3.11,3-5.33,3a1.67,1.67,0,0,1-1.38-.61,3.2,3.2,0,0,1-.47-2,10.23,10.23,0,0,1,1.65-5.4q1.84-3.06,4.43-3.06a1.9,1.9,0,0,1,1.37.45,1.6,1.6,0,0,1,.48,1.23,2.78,2.78,0,0,1-.57,1.63,6.51,6.51,0,0,1-2,1.66c-.49.28-1.54.78-3.14,1.51a7.69,7.69,0,0,0-.12,1.31,2.08,2.08,0,0,0,.29,1.26,1,1,0,0,0,.83.35,2.6,2.6,0,0,0,1.14-.29A15.2,15.2,0,0,0,210.32,118.7Zm-4.44-1.84a9.8,9.8,0,0,0,3.07-2,2.12,2.12,0,0,0,.7-1.46,1.29,1.29,0,0,0-.29-.87,1,1,0,0,0-.74-.32,1.47,1.47,0,0,0-.91.35,3.55,3.55,0,0,0-1,1.43A12.74,12.74,0,0,0,205.88,116.86Z"/><path d="M214.85,121.89H213l.89-3.42c.43-1.67.81-3.26,1.13-4.77a4.84,4.84,0,0,0,.12-.7c0-.2-.1-.3-.28-.3a1.2,1.2,0,0,0-.59.26,12,12,0,0,0-1.42,1.29l-.39-.45a9.73,9.73,0,0,1,2.43-2,4.31,4.31,0,0,1,1.86-.65.57.57,0,0,1,.36.1.35.35,0,0,1,.13.28,5,5,0,0,1-.17.88l-.55,2.28a16.34,16.34,0,0,1,2.9-3.47,2.23,2.23,0,0,1,1.3-.68.91.91,0,0,1,.64.24.81.81,0,0,1,0,1.17,3.69,3.69,0,0,1-1.23.57,5.2,5.2,0,0,0-1.53.76,7.16,7.16,0,0,0-1.3,1.36,7.46,7.46,0,0,0-1,1.59,25.73,25.73,0,0,0-.85,3.16Z"/></g><g id="Layer_188" data-name="Layer 188"><path d="M688.43,141.15h.42L687.09,148l-1.46,6.36a4.88,4.88,0,0,0-.22,1.07.38.38,0,0,0,.22.35,2.68,2.68,0,0,0,1,.21c.38,0,.76.09,1.12.16l-.25.63c-1.82-.19-3.09-.29-3.81-.29a22.55,22.55,0,0,0-3.42.29l.22-.63c.44-.12.94-.24,1.51-.36a2,2,0,0,0,1.14-.51,5.71,5.71,0,0,0,.88-2.13l1.37-5.24a32.47,32.47,0,0,0,.67-3.39c0-.3-.12-.45-.37-.45a15.7,15.7,0,0,0-2.55,1l-.25-.64a42.58,42.58,0,0,0,4-2.08A18.75,18.75,0,0,0,688.43,141.15Z"/><path d="M697.93,141.28a3.57,3.57,0,0,1,2.91,1.33,6.18,6.18,0,0,1,1.1,4,13.6,13.6,0,0,1-1.9,7c-1.26,2.16-2.8,3.25-4.6,3.25a3.32,3.32,0,0,1-2.69-1.39,5.91,5.91,0,0,1-1.09-3.77,14.46,14.46,0,0,1,1.09-5.5,9.56,9.56,0,0,1,2.46-3.81A4.29,4.29,0,0,1,697.93,141.28Zm-.23.75a2.21,2.21,0,0,0-1.61,1,11.06,11.06,0,0,0-1.51,3.84,22.15,22.15,0,0,0-.69,5.32,5.74,5.74,0,0,0,.59,3,1.65,1.65,0,0,0,1.35.93,1.91,1.91,0,0,0,1.34-.68,9.15,9.15,0,0,0,1.76-3.78,20.55,20.55,0,0,0,.79-5.58,6.34,6.34,0,0,0-.66-3.25A1.52,1.52,0,0,0,697.7,142Z"/><path d="M709.37,141.28a3.57,3.57,0,0,1,2.91,1.33,6.18,6.18,0,0,1,1.1,4,13.6,13.6,0,0,1-1.9,7c-1.27,2.16-2.8,3.25-4.6,3.25a3.31,3.31,0,0,1-2.69-1.39,5.91,5.91,0,0,1-1.1-3.77,14.47,14.47,0,0,1,1.1-5.5,9.46,9.46,0,0,1,2.46-3.81A4.29,4.29,0,0,1,709.37,141.28Zm-.23.75a2.21,2.21,0,0,0-1.61,1,11.06,11.06,0,0,0-1.51,3.84,22.15,22.15,0,0,0-.69,5.32,5.74,5.74,0,0,0,.59,3,1.64,1.64,0,0,0,1.35.93,1.9,1.9,0,0,0,1.33-.68,9.14,9.14,0,0,0,1.77-3.78,20.55,20.55,0,0,0,.79-5.58,6.34,6.34,0,0,0-.66-3.25A1.52,1.52,0,0,0,709.14,142Z"/><path d="M720.07,141.29a2.22,2.22,0,0,1,1.72.73,3,3,0,0,1,.66,2.06,6.1,6.1,0,0,1-1.37,3.94,3.23,3.23,0,0,1-2.6,1.39,2.21,2.21,0,0,1-1.72-.74,2.81,2.81,0,0,1-.68-2,6.58,6.58,0,0,1,1.14-3.7A3.35,3.35,0,0,1,720.07,141.29Zm-.18.55c-.53,0-1,.53-1.48,1.59a8.72,8.72,0,0,0-.69,3.51,2.77,2.77,0,0,0,.3,1.46.85.85,0,0,0,.69.47c.47,0,.9-.41,1.28-1.23a9.12,9.12,0,0,0,.83-3.85,3.05,3.05,0,0,0-.33-1.55A.71.71,0,0,0,719.89,141.84Zm-1.8,14.75c.72-1.2,1.34-2.27,1.85-3.2l4.66-8.47c.74-1.37,1.38-2.58,1.92-3.62a9.32,9.32,0,0,0,1,.17c-.78,1.26-1.52,2.52-2.21,3.78l-4.08,7.43q-1.12,2-2.08,4a6,6,0,0,0-.65-.08Zm9.1-8a2.24,2.24,0,0,1,1.72.73,3,3,0,0,1,.67,2.07,6.13,6.13,0,0,1-1.37,3.93,3.27,3.27,0,0,1-2.61,1.4,2.26,2.26,0,0,1-1.72-.74,2.85,2.85,0,0,1-.68-2,6.53,6.53,0,0,1,1.14-3.69A3.36,3.36,0,0,1,727.19,148.56Zm-.18.55c-.53,0-1,.53-1.48,1.59a8.74,8.74,0,0,0-.69,3.52,2.73,2.73,0,0,0,.3,1.45.85.85,0,0,0,.7.47c.47,0,.89-.41,1.27-1.23a9.12,9.12,0,0,0,.83-3.85,3,3,0,0,0-.33-1.54A.73.73,0,0,0,727,149.11Z"/></g><g id="Layer_17" data-name="Layer 17"><path class="cls-2" d="M73.43,137.5c-3.14,1.65-8.17,10.46-7.6,12,.76,2.06.1,4,1,6a14.77,14.77,0,0,0,5.7,6c10.45,6,22.81,6,22.81,6h35.16l-.95-35H87.68S75.33,136.5,73.43,137.5Z"/></g><g id="Layer_16" data-name="Layer 16"><path class="cls-2" d="M665,152.5c1,3-.9,7.87-2.91,9-10.68,6-25.24,6-25.24,6H615.45v-34h30.09l5.82,1,8.74,8S664.27,150.38,665,152.5Z"/></g></g></svg>