<svg xmlns="http://www.w3.org/2000/svg" xmlns:xlink="http://www.w3.org/1999/xlink" width="800.78" height="200" viewBox="0 0 800.78 200"><defs><style>.cls-1{fill:#999;}.cls-1,.cls-3{opacity:0.5;}.cls-2{fill:#fffd00;}.cls-4{fill:url(#radial-gradient);}.cls-5{fill:url(#radial-gradient-2);}.cls-6{fill:url(#radial-gradient-3);}.cls-7{fill:url(#radial-gradient-4);}.cls-8{fill:url(#radial-gradient-5);}.cls-9{fill:url(#radial-gradient-6);}.cls-10{fill:url(#radial-gradient-7);}.cls-11{fill:url(#radial-gradient-8);}.cls-12{fill:url(#radial-gradient-9);}</style><radialGradient id="radial-gradient" cx="1219.99" cy="667.84" r="87.04" gradientTransform="translate(45.91 49.81) scale(0.15 0.15)" gradientUnits="userSpaceOnUse"><stop offset="0" stop-color="#fff" stop-opacity="0"/><stop offset="0.87" stop-color="#fff" stop-opacity="0.05"/><stop offset="1" stop-color="#fff"/></radialGradient><radialGradient id="radial-gradient-2" cx="1336.91" cy="641.14" r="52.66" xlink:href="#radial-gradient"/><radialGradient id="radial-gradient-3" cx="2173.62" cy="671.45" r="87.04" xlink:href="#radial-gradient"/><radialGradient id="radial-gradient-4" cx="2290.53" cy="644.76" r="52.66" xlink:href="#radial-gradient"/><radialGradient id="radial-gradient-5" cx="2077.34" cy="624.74" r="41.21" xlink:href="#radial-gradient"/><radialGradient id="radial-gradient-6" cx="3885.47" cy="279.26" r="70.6" xlink:href="#radial-gradient"/><radialGradient id="radial-gradient-7" cx="3981.76" cy="299.28" r="48.67" xlink:href="#radial-gradient"/><radialGradient id="radial-gradient-8" cx="3816.7" cy="325.97" r="28.03" xlink:href="#radial-gradient"/><radialGradient id="radial-gradient-9" cx="3940.6" cy="235.7" r="27.93" xlink:href="#radial-gradient"/></defs><g id="Layer_248" data-name="Layer 248"><g id="Layer_249" data-name="Layer 249"><rect class="cls-1" x="-888.78" y="-289" width="2701" height="1728" rx="12"/></g></g><g id="Layer_1" data-name="Layer 1"><g id="Layer_47" data-name="Layer 47"><path d="M661.42,120.12c3.36,11.76-11.92,15-28,16a292.39,292.39,0,0,1-30,0h-504c-39.51,0-42-16.65-33-27,4.83-5.56,19-8,19-8l44.26.08,505.65.9,8.09,0s4,0,10.24,5.88A26.46,26.46,0,0,1,661.42,120.12Z"/></g><g id="Layer_46" data-name="Layer 46"><path d="M129.68,101.2v34.92l60.19.44V101.11Z"/></g><g id="Layer_45" data-name="Layer 45"><path d="M189.89,101.27v34.92l60.18.44V101.18Z"/></g><g id="Layer_44" data-name="Layer 44"><path d="M250.52,101.3v34.92l60.19.44V101.21Z"/></g><g id="Layer_43" data-name="Layer 43"><path d="M309.78,100.65v34.92L370,136V100.56Z"/></g><g id="Layer_42" data-name="Layer 42"><path d="M369.19,101.18V136.1l60.18.44V101.09Z"/></g><g id="Layer_41" data-name="Layer 41"><path d="M429.19,101.18V136.1l60.18.44V101.09Z"/></g><g id="Layer_40" data-name="Layer 40"><path d="M489.19,101.18V136.1l60.18.44V101.09Z"/></g><g id="Layer_39" data-name="Layer 39"><path d="M549.69,101.53v34.92l60.18.43V101.43Z"/></g><g id="Layer_38" data-name="Layer 38"><path d="M662.32,120.12c3.36,11.76-11.92,15-28,16a292.39,292.39,0,0,1-30,0h-504c-39.51,0-42-16.65-33-27,4.83-5.56,19-8,19-8l44.26.08,505.65.9,8.09,0s4,0,10.24,5.88A26.46,26.46,0,0,1,662.32,120.12Z"/></g><g id="Layer_37" data-name="Layer 37"><path class="cls-2" d="M127.92,101.2v34.92l56.64.44V101.11Z"/></g><g id="Layer_36" data-name="Layer 36"><path class="cls-2" d="M190.52,101.27v34.92l57.44.44V101.18Z"/></g><g id="Layer_35" data-name="Layer 35"><path class="cls-2" d="M253.92,101.3v34.92l50.8.44V101.21Z"/></g><g id="Layer_34" data-name="Layer 34"><path class="cls-2" d="M310.68,100.65v34.92l51.54.44V100.56Z"/></g><g id="Layer_33" data-name="Layer 33"><path d="M370.09,101.18V136.1l60.18.44V101.09Z"/></g><g id="Layer_32" data-name="Layer 32"><path d="M430.09,101.18V136.1l60.18.44V101.09Z"/></g><g id="Layer_31" data-name="Layer 31"><path d="M490.09,101.18V136.1l60.18.44V101.09Z"/></g><g id="Layer_30" data-name="Layer 30"><path d="M550.59,101.53v34.92l60.18.43V101.43Z"/></g><g id="Layer_29" data-name="Layer 29"><path d="M81.36,78.29l.13-.54a22.54,22.54,0,0,0,3.26-.56,25,25,0,0,0-1,3.2L83,83.93a22.14,22.14,0,0,1-2,5.79,10.46,10.46,0,0,0,1.93.22A7.69,7.69,0,0,0,86.71,89a6.68,6.68,0,0,0,2.62-2.72,8.11,8.11,0,0,0,1-4,6.3,6.3,0,0,0-1.65-4.55,5.66,5.66,0,0,0-4.31-1.72,8.83,8.83,0,0,0-4.23,1.07A8.56,8.56,0,0,0,77,80a6.23,6.23,0,0,0-1.16,3.42,2.54,2.54,0,0,0,1.42,2.39,1.62,1.62,0,0,1,.53.39.69.69,0,0,1,.12.41.79.79,0,0,1-.78.77,1.71,1.71,0,0,1-1.31-.89,4.41,4.41,0,0,1-.87-2.55,7.74,7.74,0,0,1,1.31-4.22,9.13,9.13,0,0,1,3.62-3.24A11,11,0,0,1,85,75.22a8.08,8.08,0,0,1,5.58,1.87,6.09,6.09,0,0,1,2.07,4.71,8.66,8.66,0,0,1-1.44,4.83,8.32,8.32,0,0,1-3.5,3.13,9.67,9.67,0,0,1-4.09.94c-.44,0-1.2,0-2.28-.13-.92-.07-1.78-.1-2.6-.1-.38,0-1,0-1.74,0l.29-.63a5,5,0,0,0,1.45-.2,1.16,1.16,0,0,0,.49-.47,13,13,0,0,0,1-2.54l.88-3.31,1-4.14a2.28,2.28,0,0,0,.08-.52.39.39,0,0,0-.13-.32.48.48,0,0,0-.35-.12Z"/><path d="M100.17,87.32l.42.56c-2.08,2-3.85,3-5.34,3a1.64,1.64,0,0,1-1.37-.61,3.19,3.19,0,0,1-.48-2,10.29,10.29,0,0,1,1.65-5.41c1.24-2,2.71-3.06,4.43-3.06a2,2,0,0,1,1.38.46,1.6,1.6,0,0,1,.48,1.23,2.75,2.75,0,0,1-.58,1.63,6.57,6.57,0,0,1-2,1.66c-.49.28-1.54.78-3.15,1.51a8.79,8.79,0,0,0-.11,1.31,2.09,2.09,0,0,0,.28,1.26,1,1,0,0,0,.84.35,2.82,2.82,0,0,0,1.14-.29A16.45,16.45,0,0,0,100.17,87.32Zm-4.45-1.84a10,10,0,0,0,3.08-2,2.19,2.19,0,0,0,.7-1.46,1.29,1.29,0,0,0-.29-.87,1,1,0,0,0-.74-.32,1.49,1.49,0,0,0-.92.35,3.53,3.53,0,0,0-1,1.43A13.16,13.16,0,0,0,95.72,85.48Z"/><path d="M107.63,87.45l.43.45a12.25,12.25,0,0,1-2.34,2,4.24,4.24,0,0,1-2.23.92.8.8,0,0,1-.64-.3,1.19,1.19,0,0,1-.26-.81,22.52,22.52,0,0,1,.79-4.22L104.75,80a23.4,23.4,0,0,1,1.25-4,5.93,5.93,0,0,1,5.27-3.28,1.31,1.31,0,0,1,.85.26.81.81,0,0,1,.31.64.86.86,0,0,1-.3.67,1.35,1.35,0,0,1-.89.26,5.92,5.92,0,0,1-1.07-.13,7.87,7.87,0,0,0-1.13-.1,1.17,1.17,0,0,0-.78.22,2.65,2.65,0,0,0-.67,1.27q-.3,1-1,3.84l-1.27,5.32c-.63,2.67-.94,4.06-.94,4.18s.1.41.29.41a1.74,1.74,0,0,0,.81-.33A12.6,12.6,0,0,0,107.63,87.45Z"/><path d="M109,82.78l-.56-.44a9.83,9.83,0,0,1,2.32-2,3.7,3.7,0,0,1,1.78-.59,1,1,0,0,1,.62.17.61.61,0,0,1,.22.49,24.5,24.5,0,0,1-.83,3.12A31.71,31.71,0,0,0,111.2,89a.49.49,0,0,0,.09.3.24.24,0,0,0,.19.12c.27,0,1-.52,2.08-1.57l.5.48a17.26,17.26,0,0,1-2.54,2.1,2.9,2.9,0,0,1-1.31.45.88.88,0,0,1-.7-.28,1,1,0,0,1-.26-.77c0-1.06.63-3.64,1.9-7.76a1.78,1.78,0,0,0,.09-.52c0-.17-.08-.25-.23-.25a1.18,1.18,0,0,0-.58.2A14.94,14.94,0,0,0,109,82.78Zm5-8.41a.89.89,0,0,1,.65.26.91.91,0,0,1,.25.67,1.4,1.4,0,0,1-.39,1,1.12,1.12,0,0,1-.87.43.83.83,0,0,1-.63-.27,1,1,0,0,1-.25-.7,1.4,1.4,0,0,1,.36-1A1.15,1.15,0,0,1,114,74.37Z"/><path d="M123.37,79.74l1-.23q-.93,3-1.7,6a34.78,34.78,0,0,0-.77,3.55,12.36,12.36,0,0,0-.13,1.8,10.08,10.08,0,0,1-.4,3,4.8,4.8,0,0,1-2,2.51,6.12,6.12,0,0,1-3.45,1,4.14,4.14,0,0,1-2.7-.81,2.34,2.34,0,0,1-1-1.85,2.81,2.81,0,0,1,.79-1.91A8.59,8.59,0,0,1,115.5,91q.94-.5,1.77-1a3.5,3.5,0,0,1-1.47.49,1.07,1.07,0,0,1-.83-.44,1.72,1.72,0,0,1-.37-1.16A8.94,8.94,0,0,1,116,84.27a9.78,9.78,0,0,1,3.35-3.46,5.8,5.8,0,0,1,3-.71c.24,0,.53,0,.88,0Zm-3.14,8.8A37.57,37.57,0,0,1,116.89,91a14,14,0,0,0-2.67,2.12,2.3,2.3,0,0,0-.49,1.4,1.7,1.7,0,0,0,.64,1.3,2.24,2.24,0,0,0,1.56.58,3.56,3.56,0,0,0,1.68-.43A4.1,4.1,0,0,0,119,94.75a4.54,4.54,0,0,0,.84-1.82,13.46,13.46,0,0,0,.24-2.69C120.11,90,120.15,89.43,120.23,88.54ZM122,81.62a5.64,5.64,0,0,0-1.08-.11,3.43,3.43,0,0,0-2.07.63,4.87,4.87,0,0,0-1.47,2.13,10,10,0,0,0-.85,3.57,1.48,1.48,0,0,0,.34,1,1,1,0,0,0,.75.41,2.44,2.44,0,0,0,1.26-.49,4.06,4.06,0,0,0,1.22-1.22A9.81,9.81,0,0,0,121,85Z"/><path d="M135.41,87.82l.33.47a11.4,11.4,0,0,1-2.4,2,2.8,2.8,0,0,1-1.38.52.87.87,0,0,1-.72-.35A1.85,1.85,0,0,1,131,89.4a7.64,7.64,0,0,1,.21-1.48c.14-.64.53-2,1.18-4.17a12.27,12.27,0,0,0,.43-1.84c0-.27-.14-.4-.43-.4A2.6,2.6,0,0,0,131,82a8.13,8.13,0,0,0-2,1.87,5.78,5.78,0,0,0-.88,2.16l-1,4.44h-1.89c.4-1.48.72-2.69.94-3.63l1.86-8.14a10.39,10.39,0,0,1,1.34-3.48,6.15,6.15,0,0,1,2.17-1.94,5.61,5.61,0,0,1,2.65-.73,1.28,1.28,0,0,1,.86.27.87.87,0,0,1,.32.69.78.78,0,0,1-.31.61,1.31,1.31,0,0,1-.85.26,5.17,5.17,0,0,1-.78-.07,14.14,14.14,0,0,0-1.52-.16,1.14,1.14,0,0,0-.95.48,6.42,6.42,0,0,0-.76,2.21l-1.42,6.27a16.19,16.19,0,0,1,3.29-2.67,3.56,3.56,0,0,1,1.68-.65,1.06,1.06,0,0,1,.78.29,1.17,1.17,0,0,1,.28.81,3.7,3.7,0,0,1-.11.87c-.11.5-.37,1.4-.77,2.71-.56,1.82-.88,2.94-1,3.38a5.37,5.37,0,0,0-.14,1.18.53.53,0,0,0,.07.31.23.23,0,0,0,.2.1c.21,0,.59-.24,1.15-.73Z"/><path d="M140.21,77.88l2-.78-.91,3.56h2.63l-.2.9h-2.63L140,85.81a12.26,12.26,0,0,0-.53,2.67.68.68,0,0,0,.15.49.54.54,0,0,0,.4.15,2.73,2.73,0,0,0,1.2-.47,14.82,14.82,0,0,0,2-1.41l.48.59A33.76,33.76,0,0,1,140,90.39a3.56,3.56,0,0,1-1.51.47.88.88,0,0,1-.74-.34,1.75,1.75,0,0,1-.28-1.12,12.53,12.53,0,0,1,.48-2.79l1.3-5h-2.06l.23-.9h2.06Z"/><path d="M148.05,78.85l-.21-.81a7.39,7.39,0,0,0,1.39-1.5,2.25,2.25,0,0,0,.32-1.08,2.14,2.14,0,0,0-.3-.85,1.84,1.84,0,0,1-.24-.85,1.17,1.17,0,0,1,.3-.84,1,1,0,0,1,.78-.33,1,1,0,0,1,.82.38,1.43,1.43,0,0,1,.33,1,4.37,4.37,0,0,1-.69,2.23A11.28,11.28,0,0,1,148.05,78.85Z"/><path d="M157.5,79.83a2.58,2.58,0,0,1,2.07,1,4.19,4.19,0,0,1,.82,2.76,7.43,7.43,0,0,1-2,5,5.62,5.62,0,0,1-4.19,2.25A2.89,2.89,0,0,1,152,90a3.44,3.44,0,0,1-.83-2.43,8.57,8.57,0,0,1,1.53-4.92A5.64,5.64,0,0,1,157.5,79.83Zm-1.08,1c-.72,0-1.41.52-2.09,1.54a7.76,7.76,0,0,0-1,4.26,4.71,4.71,0,0,0,.63,2.61,1.39,1.39,0,0,0,1.21.69,2.44,2.44,0,0,0,2-1.32,7.66,7.66,0,0,0,1.11-4.25,5.39,5.39,0,0,0-.51-2.72A1.5,1.5,0,0,0,156.42,80.78Z"/><path d="M167.66,82.75l-.38-.51a10.14,10.14,0,0,1,2.38-1.85,4.21,4.21,0,0,1,1.79-.6.58.58,0,0,1,.4.12.37.37,0,0,1,.13.31,4.8,4.8,0,0,1-.2,1c-.2.71-.33,1.28-.41,1.69q3-3.11,4.65-3.1a.82.82,0,0,1,.63.23,1,1,0,0,1,.22.72,7.73,7.73,0,0,1-.38,1.82A12.49,12.49,0,0,1,179,80.42a3.71,3.71,0,0,1,1.67-.63,1.06,1.06,0,0,1,.82.31,1.28,1.28,0,0,1,.3.94,4.23,4.23,0,0,1-.13.9c-.09.34-.39,1.4-.93,3.17a22.69,22.69,0,0,0-1,3.92c0,.29.12.44.35.44a.76.76,0,0,0,.47-.16A11.09,11.09,0,0,0,182.09,88l.42.46c-.18.14-.51.44-1,.89a11.92,11.92,0,0,1-1.4,1.14,2.58,2.58,0,0,1-1.24.43.85.85,0,0,1-.68-.37,1.69,1.69,0,0,1-.29-1,6.71,6.71,0,0,1,.18-1.42c.12-.55.46-1.78,1-3.68a14.88,14.88,0,0,0,.65-2.6c0-.29-.13-.43-.38-.43a1.81,1.81,0,0,0-.85.31,6.5,6.5,0,0,0-1.83,1.62,5.93,5.93,0,0,0-.89,2.09q-.85,3.14-1.27,5.12h-1.8l1.89-7.76a9.35,9.35,0,0,0,.2-1,.46.46,0,0,0-.1-.32.38.38,0,0,0-.29-.1,2.2,2.2,0,0,0-1.07.53,7,7,0,0,0-1.8,1.75,8.18,8.18,0,0,0-1,2.57l-1,4.29h-1.83l1.44-6.06c.42-1.75.63-2.7.63-2.86s-.07-.29-.23-.29C169.34,81.3,168.67,81.79,167.66,82.75Z"/><path d="M190.09,87.32l.42.56c-2.08,2-3.85,3-5.33,3a1.66,1.66,0,0,1-1.38-.61,3.19,3.19,0,0,1-.48-2A10.29,10.29,0,0,1,185,82.86q1.86-3.06,4.43-3.06a2,2,0,0,1,1.38.46,1.6,1.6,0,0,1,.48,1.23,2.81,2.81,0,0,1-.57,1.63,6.75,6.75,0,0,1-2.05,1.66c-.49.28-1.54.78-3.15,1.51a8.79,8.79,0,0,0-.11,1.31,2.09,2.09,0,0,0,.28,1.26,1,1,0,0,0,.84.35,2.82,2.82,0,0,0,1.14-.29A16.45,16.45,0,0,0,190.09,87.32Zm-4.44-1.84a10.11,10.11,0,0,0,3.07-2,2.19,2.19,0,0,0,.7-1.46,1.29,1.29,0,0,0-.29-.87,1,1,0,0,0-.74-.32,1.49,1.49,0,0,0-.92.35,3.63,3.63,0,0,0-1,1.43A12.59,12.59,0,0,0,185.65,85.48Z"/><path d="M195.83,77.88l2-.78-.91,3.56h2.63l-.2.9h-2.63l-1.11,4.25a12.26,12.26,0,0,0-.53,2.67.68.68,0,0,0,.15.49.52.52,0,0,0,.4.15,2.73,2.73,0,0,0,1.2-.47,14.73,14.73,0,0,0,2-1.41l.49.59a33.76,33.76,0,0,1-3.72,2.56,3.56,3.56,0,0,1-1.51.47.91.91,0,0,1-.75-.34,1.82,1.82,0,0,1-.27-1.12,12.53,12.53,0,0,1,.48-2.79l1.3-5h-2.06l.23-.9h2.06Z"/><path d="M207.24,87.32l.42.56q-3.1,3-5.33,3a1.67,1.67,0,0,1-1.38-.61,3.19,3.19,0,0,1-.48-2,10.29,10.29,0,0,1,1.65-5.41q1.86-3.06,4.43-3.06a1.93,1.93,0,0,1,1.38.46,1.6,1.6,0,0,1,.48,1.23,2.81,2.81,0,0,1-.57,1.63,6.63,6.63,0,0,1-2.05,1.66c-.49.28-1.54.78-3.15,1.51a8.79,8.79,0,0,0-.11,1.31,2.08,2.08,0,0,0,.29,1.26,1,1,0,0,0,.83.35,2.78,2.78,0,0,0,1.14-.29A15.94,15.94,0,0,0,207.24,87.32Zm-4.44-1.84a10.11,10.11,0,0,0,3.07-2,2.19,2.19,0,0,0,.7-1.46,1.29,1.29,0,0,0-.29-.87,1,1,0,0,0-.74-.32,1.51,1.51,0,0,0-.92.35,3.63,3.63,0,0,0-1,1.43A12.59,12.59,0,0,0,202.8,85.48Z"/><path d="M211.77,90.51h-1.89l.89-3.42c.43-1.67.81-3.27,1.13-4.77a4.27,4.27,0,0,0,.11-.7c0-.2-.09-.3-.28-.3a1.21,1.21,0,0,0-.58.26,11.68,11.68,0,0,0-1.42,1.28l-.4-.44a9.71,9.71,0,0,1,2.44-2,4.33,4.33,0,0,1,1.85-.66.58.58,0,0,1,.37.11.37.37,0,0,1,.13.28,6.36,6.36,0,0,1-.17.88l-.55,2.28a16.34,16.34,0,0,1,2.9-3.47,2.17,2.17,0,0,1,1.3-.68.88.88,0,0,1,.63.24.8.8,0,0,1,.26.58.76.76,0,0,1-.25.58,3.53,3.53,0,0,1-1.24.58,5.26,5.26,0,0,0-1.52.76,6.87,6.87,0,0,0-1.3,1.36,7.07,7.07,0,0,0-1,1.59,25.38,25.38,0,0,0-.85,3.15Z"/></g><g id="Layer_28" data-name="Layer 28"><path d="M687.42,109.57h.7l-.9,1.87a.83.83,0,0,1-.4.3,4.12,4.12,0,0,1-1.19.11A31.77,31.77,0,0,0,682,112a9,9,0,0,0-.33.91,2.08,2.08,0,0,0-.12.56c0,.33.25.59.75.8a7.11,7.11,0,0,1,1.91,1.08,3.79,3.79,0,0,1,.89,1.32,4.86,4.86,0,0,1,.33,1.86,7.31,7.31,0,0,1-6.89,6.93,3.52,3.52,0,0,1-1.86-.4.89.89,0,0,1-.46-.8.77.77,0,0,1,.2-.54.64.64,0,0,1,.49-.22,1,1,0,0,1,.28,0c.06,0,.23.13.5.31a3.76,3.76,0,0,0,.85.45,2.57,2.57,0,0,0,.79.1,4.21,4.21,0,0,0,3.14-1.47,4.64,4.64,0,0,0,1.39-3.27,3.61,3.61,0,0,0-.68-2.17,4.31,4.31,0,0,0-2-1.49,2,2,0,0,1-.71-.44.85.85,0,0,1-.18-.55,7.71,7.71,0,0,1,.42-1.68l.86-2.69a3.62,3.62,0,0,1,1.31-.3l2.72,0a3.8,3.8,0,0,0,1.24-.19A1.58,1.58,0,0,0,687.42,109.57Z"/><path d="M694.85,109.9a3.57,3.57,0,0,1,2.91,1.33,6.18,6.18,0,0,1,1.1,4,13.6,13.6,0,0,1-1.9,7c-1.27,2.16-2.8,3.25-4.6,3.25a3.33,3.33,0,0,1-2.69-1.39,5.91,5.91,0,0,1-1.1-3.77,14.47,14.47,0,0,1,1.1-5.5,9.46,9.46,0,0,1,2.46-3.81A4.29,4.29,0,0,1,694.85,109.9Zm-.23.75a2.18,2.18,0,0,0-1.61,1,11.06,11.06,0,0,0-1.51,3.84,22.15,22.15,0,0,0-.69,5.32,5.74,5.74,0,0,0,.59,3,1.64,1.64,0,0,0,1.35.93,1.9,1.9,0,0,0,1.33-.68,9.21,9.21,0,0,0,1.77-3.78,20.55,20.55,0,0,0,.79-5.58,6.34,6.34,0,0,0-.66-3.25A1.52,1.52,0,0,0,694.62,110.65Z"/><path d="M705.55,109.91a2.22,2.22,0,0,1,1.72.73,3,3,0,0,1,.67,2.06,6.13,6.13,0,0,1-1.38,3.94A3.23,3.23,0,0,1,704,118a2.21,2.21,0,0,1-1.72-.74,2.81,2.81,0,0,1-.68-2,6.58,6.58,0,0,1,1.14-3.7A3.35,3.35,0,0,1,705.55,109.91Zm-.18.54c-.53,0-1,.53-1.48,1.59a8.81,8.81,0,0,0-.69,3.52,2.77,2.77,0,0,0,.3,1.46.85.85,0,0,0,.69.47c.47,0,.9-.41,1.28-1.23a9.16,9.16,0,0,0,.83-3.85,3.05,3.05,0,0,0-.33-1.55A.73.73,0,0,0,705.37,110.45Zm-1.8,14.76c.72-1.2,1.34-2.27,1.85-3.2l4.66-8.47q1.11-2.06,1.92-3.63a6.93,6.93,0,0,0,1,.18c-.78,1.26-1.52,2.52-2.21,3.78l-4.08,7.43q-1.12,2-2.08,4a4.24,4.24,0,0,0-.65-.08Zm9.1-8a2.24,2.24,0,0,1,1.72.73,3,3,0,0,1,.67,2.07,6.13,6.13,0,0,1-1.37,3.93,3.27,3.27,0,0,1-2.61,1.4,2.26,2.26,0,0,1-1.72-.74,2.85,2.85,0,0,1-.68-2,6.53,6.53,0,0,1,1.14-3.69A3.34,3.34,0,0,1,712.67,117.18Zm-.18.55c-.53,0-1,.53-1.48,1.59a8.74,8.74,0,0,0-.69,3.52,2.73,2.73,0,0,0,.3,1.45.85.85,0,0,0,.7.47c.47,0,.89-.41,1.27-1.23a9.12,9.12,0,0,0,.83-3.85,3.08,3.08,0,0,0-.33-1.55A.71.71,0,0,0,712.49,117.73Z"/></g><g id="Layer_18" data-name="Layer 18"><path class="cls-2" d="M68.19,106.14c-3,1.71-7.71,10.77-7.17,12.35.72,2.12.09,4.13.9,6.17a14.62,14.62,0,0,0,5.37,6.17C77.15,137,88.8,137,88.8,137H122l-.9-36H81.63S70,105.11,68.19,106.14Z"/></g><g id="Layer_14" data-name="Layer 14"><path d="M661.72,121.5c1,3-.93,7.87-3,9-11,6-26,6-26,6h-22v-34h31l6,1,9,8S661,119.38,661.72,121.5Z"/></g><g class="cls-3"><ellipse class="cls-4" cx="223.31" cy="149.88" rx="12.66" ry="13.04"/></g><g class="cls-3"><ellipse class="cls-5" cx="240.31" cy="145.88" rx="7.66" ry="7.89"/></g><g class="cls-3"><ellipse class="cls-6" cx="361.97" cy="150.43" rx="12.66" ry="13.04"/></g><g class="cls-3"><ellipse class="cls-7" cx="378.97" cy="146.43" rx="7.66" ry="7.89"/></g><g class="cls-3"><ellipse class="cls-8" cx="347.97" cy="143.43" rx="5.99" ry="6.18"/></g><g class="cls-3"><ellipse class="cls-9" cx="610.89" cy="91.65" rx="10.27" ry="10.58"/></g><g class="cls-3"><ellipse class="cls-10" cx="624.89" cy="94.65" rx="7.08" ry="7.29"/></g><g class="cls-3"><ellipse class="cls-11" cx="600.89" cy="98.65" rx="4.08" ry="4.2"/></g><g class="cls-3"><ellipse class="cls-12" cx="618.9" cy="85.13" rx="4.06" ry="4.19"/></g></g></svg>