<svg id="Layer_1" data-name="Layer 1" xmlns="http://www.w3.org/2000/svg" xmlns:xlink="http://www.w3.org/1999/xlink" viewBox="0 0 800.78 200"><defs><style>.cls-1{fill:#fffd00;}.cls-2{font-size:26px;font-family:MonotypeCorsiva, Monotype Corsiva;}.cls-3{opacity:0.5;}.cls-4{fill:url(#radial-gradient);}.cls-5{fill:url(#radial-gradient-2);}.cls-6{fill:url(#radial-gradient-3);}.cls-7{fill:url(#radial-gradient-4);}.cls-8{fill:url(#radial-gradient-5);}.cls-9{fill:url(#radial-gradient-6);}.cls-10{fill:url(#radial-gradient-7);}.cls-11{fill:url(#radial-gradient-8);}</style><radialGradient id="radial-gradient" cx="1365.05" cy="2937.21" r="87.04" gradientTransform="translate(45.82 -324.26) scale(0.15 0.15)" gradientUnits="userSpaceOnUse"><stop offset="0" stop-color="#fff" stop-opacity="0"/><stop offset="0.87" stop-color="#fff" stop-opacity="0.05"/><stop offset="1" stop-color="#fff"/></radialGradient><radialGradient id="radial-gradient-2" cx="1481.96" cy="2910.52" r="52.66" xlink:href="#radial-gradient"/><radialGradient id="radial-gradient-3" cx="2318.67" cy="2940.83" r="87.04" xlink:href="#radial-gradient"/><radialGradient id="radial-gradient-4" cx="2435.59" cy="2914.14" r="52.66" xlink:href="#radial-gradient"/><radialGradient id="radial-gradient-5" cx="2222.39" cy="2894.12" r="41.21" xlink:href="#radial-gradient"/><radialGradient id="radial-gradient-6" cx="4016.77" cy="2521.94" r="70.6" xlink:href="#radial-gradient"/><radialGradient id="radial-gradient-7" cx="4113.06" cy="2541.96" r="48.67" xlink:href="#radial-gradient"/><radialGradient id="radial-gradient-8" cx="3948" cy="2568.65" r="28.03" xlink:href="#radial-gradient"/></defs><g id="Layer_47" data-name="Layer 47"><path d="M682.42,86.12c3.36,11.76-11.92,15-28,16a292.39,292.39,0,0,1-30,0h-504c-39.51,0-42-16.65-33-27,4.83-5.56,19-8,19-8l44.26.08,505.65.9,8.09,0s4,0,10.24,5.88A26.46,26.46,0,0,1,682.42,86.12Z"/></g><g id="Layer_46" data-name="Layer 46"><path d="M150.68,67.2v34.92l60.19.44V67.11Z"/></g><g id="Layer_45" data-name="Layer 45"><path d="M210.89,67.27v34.92l60.18.44V67.18Z"/></g><g id="Layer_44" data-name="Layer 44"><path d="M271.52,67.3v34.92l60.19.44V67.21Z"/></g><g id="Layer_43" data-name="Layer 43"><path d="M330.78,66.65v34.92L391,102V66.56Z"/></g><g id="Layer_42" data-name="Layer 42"><path d="M390.19,67.18V102.1l60.18.44V67.09Z"/></g><g id="Layer_41" data-name="Layer 41"><path d="M450.19,67.18V102.1l60.18.44V67.09Z"/></g><g id="Layer_40" data-name="Layer 40"><path d="M510.19,67.18V102.1l60.18.44V67.09Z"/></g><g id="Layer_39" data-name="Layer 39"><path d="M570.69,67.53v34.92l60.18.43V67.43Z"/></g><g id="Layer_38" data-name="Layer 38"><path d="M683.32,86.12c3.36,11.76-11.92,15-28,16a292.39,292.39,0,0,1-30,0h-504c-39.51,0-42-16.65-33-27,4.83-5.56,19-8,19-8l44.26.08,505.65.9,8.09,0s4,0,10.24,5.88A26.46,26.46,0,0,1,683.32,86.12Z"/></g><g id="Layer_37" data-name="Layer 37"><path class="cls-1" d="M148.92,67.2v34.92l56.64.44V67.11Z"/></g><g id="Layer_36" data-name="Layer 36"><path class="cls-1" d="M211.52,67.27v34.92l57.44.44V67.18Z"/></g><g id="Layer_35" data-name="Layer 35"><path class="cls-1" d="M274.92,67.3v34.92l50.8.44V67.21Z"/></g><g id="Layer_34" data-name="Layer 34"><path class="cls-1" d="M331.68,66.65v34.92l51.54.44V66.56Z"/></g><g id="Layer_33" data-name="Layer 33"><path d="M391.09,67.18V102.1l60.18.44V67.09Z"/></g><g id="Layer_32" data-name="Layer 32"><path d="M451.09,67.18V102.1l60.18.44V67.09Z"/></g><g id="Layer_31" data-name="Layer 31"><path d="M511.09,67.18V102.1l60.18.44V67.09Z"/></g><g id="Layer_30" data-name="Layer 30"><path d="M571.59,67.53v34.92l60.18.43V67.43Z"/></g><g id="Layer_29" data-name="Layer 29"><text class="cls-2" transform="translate(130.1 62.51)">Delight’o meter</text></g><g id="Layer_28" data-name="Layer 28"><text class="cls-2" transform="translate(695.48 91.12)">50%</text></g><g id="Layer_18" data-name="Layer 18"><path class="cls-1" d="M89.19,72.14c-3,1.71-7.71,10.77-7.17,12.35.72,2.12.09,4.13.9,6.17a14.62,14.62,0,0,0,5.37,6.17C98.15,103,109.8,103,109.8,103H143l-.9-36H102.63S91,71.11,89.19,72.14Z"/></g><g id="Layer_14" data-name="Layer 14"><path d="M682.72,87.5c1,3-.93,7.87-3,9-11,6-26,6-26,6h-22v-34h31l6,1,9,8S682,85.38,682.72,87.5Z"/></g><g class="cls-3"><ellipse class="cls-4" cx="244.31" cy="115.88" rx="12.66" ry="13.04"/></g><g class="cls-3"><ellipse class="cls-5" cx="261.31" cy="111.88" rx="7.66" ry="7.89"/></g><g class="cls-3"><ellipse class="cls-6" cx="382.97" cy="116.43" rx="12.66" ry="13.04"/></g><g class="cls-3"><ellipse class="cls-7" cx="399.97" cy="112.43" rx="7.66" ry="7.89"/></g><g class="cls-3"><ellipse class="cls-8" cx="368.97" cy="109.43" rx="5.99" ry="6.18"/></g><g class="cls-3"><ellipse class="cls-9" cx="629.89" cy="53.65" rx="10.27" ry="10.58"/></g><g class="cls-3"><ellipse class="cls-10" cx="643.89" cy="56.65" rx="7.08" ry="7.29"/></g><g class="cls-3"><ellipse class="cls-11" cx="619.89" cy="60.65" rx="4.08" ry="4.2"/></g></svg>