<svg id="Layer_1" data-name="Layer 1" xmlns="http://www.w3.org/2000/svg" xmlns:xlink="http://www.w3.org/1999/xlink" viewBox="0 0 800.78 200"><defs><style>.cls-1{fill:#fffd00;}.cls-2{font-size:26px;font-family:MonotypeCorsiva, Monotype Corsiva;}.cls-3{opacity:0.5;}.cls-4{fill:url(#radial-gradient);}.cls-5{fill:url(#radial-gradient-2);}.cls-6{fill:url(#radial-gradient-3);}.cls-7{fill:url(#radial-gradient-4);}.cls-8{fill:url(#radial-gradient-5);}.cls-9{fill:url(#radial-gradient-6);}.cls-10{fill:url(#radial-gradient-7);}.cls-11{fill:url(#radial-gradient-8);}.cls-12{fill:url(#radial-gradient-9);}</style><radialGradient id="radial-gradient" cx="6087.89" cy="2932.83" r="87.04" gradientTransform="translate(-654.76 -324.26) scale(0.15 0.15)" gradientUnits="userSpaceOnUse"><stop offset="0" stop-color="#fff" stop-opacity="0"/><stop offset="0.87" stop-color="#fff" stop-opacity="0.05"/><stop offset="1" stop-color="#fff"/></radialGradient><radialGradient id="radial-gradient-2" cx="6204.81" cy="2906.14" r="52.66" xlink:href="#radial-gradient"/><radialGradient id="radial-gradient-3" cx="7041.52" cy="2936.45" r="87.04" xlink:href="#radial-gradient"/><radialGradient id="radial-gradient-4" cx="7158.43" cy="2909.76" r="52.66" xlink:href="#radial-gradient"/><radialGradient id="radial-gradient-5" cx="6945.24" cy="2889.74" r="41.21" xlink:href="#radial-gradient"/><radialGradient id="radial-gradient-6" cx="8753.38" cy="2544.25" r="70.6" xlink:href="#radial-gradient"/><radialGradient id="radial-gradient-7" cx="8849.66" cy="2564.27" r="48.67" xlink:href="#radial-gradient"/><radialGradient id="radial-gradient-8" cx="8684.6" cy="2590.96" r="28.03" xlink:href="#radial-gradient"/><radialGradient id="radial-gradient-9" cx="8808.5" cy="2500.7" r="27.93" xlink:href="#radial-gradient"/></defs><g id="Layer_127" data-name="Layer 127"><path d="M669.61,85.5c3.36,11.76-11.92,15-28,16a292.39,292.39,0,0,1-30,0h-504c-39.51,0-42-16.65-33-27,4.83-5.56,19-8,19-8l44.26.08,505.65.91h8.09s4,0,10.24,5.88A26.54,26.54,0,0,1,669.61,85.5Z"/></g><g id="Layer_126" data-name="Layer 126"><path d="M137.87,66.58V101.5l60.18.44V66.49Z"/></g><g id="Layer_125" data-name="Layer 125"><path d="M198.08,66.65v34.92l60.18.44V66.56Z"/></g><g id="Layer_124" data-name="Layer 124"><path d="M258.71,66.68V101.6l60.18.44V66.59Z"/></g><g id="Layer_123" data-name="Layer 123"><path d="M318,66V101l60.18.44V65.94Z"/></g><g id="Layer_122" data-name="Layer 122"><path d="M377.37,66.56v34.92l60.19.44V66.47Z"/></g><g id="Layer_121" data-name="Layer 121"><path d="M437.37,66.56v34.92l60.19.44V66.47Z"/></g><g id="Layer_120" data-name="Layer 120"><path d="M497.37,66.56v34.92l60.19.44V66.47Z"/></g><g id="Layer_119" data-name="Layer 119"><path d="M557.88,66.91v34.92l60.18.44V66.82Z"/></g><g id="Layer_118" data-name="Layer 118"><path d="M670.51,85.5c3.36,11.76-11.92,15-28,16a292.39,292.39,0,0,1-30,0h-504c-39.51,0-42-16.65-33-27,4.83-5.56,19-8,19-8l44.26.08,505.65.91h8.09s4,0,10.24,5.88A26.54,26.54,0,0,1,670.51,85.5Z"/></g><g id="Layer_117" data-name="Layer 117"><path class="cls-1" d="M136.4,66.58V101.5l58.45.44V66.49Z"/></g><g id="Layer_116" data-name="Layer 116"><path class="cls-1" d="M200.4,66.65v34.92l53.25.44V66.56Z"/></g><g id="Layer_115" data-name="Layer 115"><path class="cls-1" d="M259.2,66.68V101.6l54.62.44V66.59Z"/></g><g id="Layer_114" data-name="Layer 114"><path class="cls-1" d="M319.37,66V101l56.35.44V65.94Z"/></g><g id="Layer_113" data-name="Layer 113"><path class="cls-1" d="M381.27,66.56v34.92l57,.44V66.47Z"/></g><g id="Layer_112" data-name="Layer 112"><path d="M438.27,66.56v34.92l60.19.44V66.47Z"/></g><g id="Layer_111" data-name="Layer 111"><path d="M498.27,66.56v34.92l60.19.44V66.47Z"/></g><g id="Layer_110" data-name="Layer 110"><path d="M558.78,66.91v34.92l60.18.44V66.82Z"/></g><g id="Layer_109" data-name="Layer 109"><text class="cls-2" transform="translate(115.29 59.89)">Delight’o meter</text></g><g id="Layer_108" data-name="Layer 108"><text class="cls-2" transform="translate(682.67 90.5)">60%</text></g><g id="Layer_19" data-name="Layer 19"><path class="cls-1" d="M77.07,71.14c-3,1.71-7.7,10.77-7.17,12.35.72,2.12.1,4.13.9,6.17a14.7,14.7,0,0,0,5.38,6.17C86,102,97.69,102,97.69,102h33.16L130,66H90.52S78.87,70.11,77.07,71.14Z"/></g><g id="Layer_13" data-name="Layer 13"><path d="M670.72,86.5c1,3-.93,7.87-3,9-11,6-26,6-26,6h-22v-34h31l6,1,9,8S670,84.38,670.72,86.5Z"/></g><g class="cls-3"><ellipse class="cls-4" cx="230.47" cy="115.23" rx="12.66" ry="13.04"/></g><g class="cls-3"><ellipse class="cls-5" cx="247.47" cy="111.23" rx="7.66" ry="7.89"/></g><g class="cls-3"><ellipse class="cls-6" cx="369.13" cy="115.77" rx="12.66" ry="13.04"/></g><g class="cls-3"><ellipse class="cls-7" cx="386.13" cy="111.77" rx="7.66" ry="7.89"/></g><g class="cls-3"><ellipse class="cls-8" cx="355.13" cy="108.77" rx="5.99" ry="6.18"/></g><g class="cls-3"><ellipse class="cls-9" cx="618.05" cy="57" rx="10.27" ry="10.58"/></g><g class="cls-3"><ellipse class="cls-10" cx="632.05" cy="60" rx="7.08" ry="7.29"/></g><g class="cls-3"><ellipse class="cls-11" cx="608.05" cy="64" rx="4.08" ry="4.2"/></g><g class="cls-3"><ellipse class="cls-12" cx="626.06" cy="50.47" rx="4.06" ry="4.19"/></g></svg>