<svg id="Layer_1" data-name="Layer 1" xmlns="http://www.w3.org/2000/svg" viewBox="0 0 800.78 200"><defs><style>.cls-1{fill:#02b900;}.cls-2{font-size:26px;font-family:MonotypeCorsiva, Monotype Corsiva;}</style></defs><g id="Layer_207" data-name="Layer 207"><path d="M684.5,83.5c3.36,11.76-11.92,15-28,16a292.45,292.45,0,0,1-30,0h-504c-39.51,0-42-16.65-33-27,4.83-5.56,19-8,19-8l44.26.08,505.65.91h8.09s4,0,10.24,5.88A26.46,26.46,0,0,1,684.5,83.5Z"/></g><g id="Layer_206" data-name="Layer 206"><path d="M152.76,64.58V99.5l60.19.44V64.49Z"/></g><g id="Layer_205" data-name="Layer 205"><path d="M213,64.65V99.57l60.18.44V64.56Z"/></g><g id="Layer_204" data-name="Layer 204"><path d="M273.6,64.68V99.6l60.19.44V64.59Z"/></g><g id="Layer_203" data-name="Layer 203"><path d="M332.86,64V99l60.19.44V63.94Z"/></g><g id="Layer_202" data-name="Layer 202"><path d="M392.27,64.56V99.48l60.18.44V64.47Z"/></g><g id="Layer_201" data-name="Layer 201"><path d="M452.27,64.56V99.48l60.18.44V64.47Z"/></g><g id="Layer_200" data-name="Layer 200"><path d="M512.27,64.56V99.48l60.18.44V64.47Z"/></g><g id="Layer_199" data-name="Layer 199"><path d="M572.77,64.91V99.83l60.18.44V64.82Z"/></g><g id="Layer_198" data-name="Layer 198"><path d="M685.4,83.5c3.36,11.76-11.92,15-28,16a292.39,292.39,0,0,1-30,0h-504c-39.51,0-42-16.65-33-27,4.83-5.56,19-8,19-8l44.26.08,505.65.91h8.09s4,0,10.24,5.88A26.46,26.46,0,0,1,685.4,83.5Z"/></g><g id="Layer_197" data-name="Layer 197"><path class="cls-1" d="M157.53,64.58V99.5l52.45.44V64.49Z"/></g><g id="Layer_196" data-name="Layer 196"><path class="cls-1" d="M217.73,64.65V99.57l52.46.44V64.56Z"/></g><g id="Layer_195" data-name="Layer 195"><path class="cls-1" d="M278.37,64.68V99.6l52.45.44V64.59Z"/></g><g id="Layer_194" data-name="Layer 194"><path class="cls-1" d="M337.62,64V99l52.46.44V63.94Z"/></g><g id="Layer_193" data-name="Layer 193"><path class="cls-1" d="M397,64.56V99.48l52.46.44V64.47Z"/></g><g id="Layer_192" data-name="Layer 192"><path class="cls-1" d="M457,64.56V99.48l52.46.44V64.47Z"/></g><g id="Layer_191" data-name="Layer 191"><path class="cls-1" d="M517,64.56V99.48l52.46.44V64.47Z"/></g><g id="Layer_190" data-name="Layer 190"><path class="cls-1" d="M577.53,64.91V99.83l52.46.44V64.82Z"/></g><g id="Layer_189" data-name="Layer 189"><text class="cls-2" transform="translate(136.18 58.89)">Delight’o meter</text></g><g id="Layer_188" data-name="Layer 188"><text class="cls-2" transform="translate(697.57 88.5)">100%</text></g><g id="Layer_17" data-name="Layer 17"><path class="cls-1" d="M93.43,69.5c-3.14,1.65-8.17,10.46-7.6,12,.76,2.06.1,4,1,6a14.77,14.77,0,0,0,5.7,6c10.45,6,22.81,6,22.81,6h35.16l-.95-35H107.68S95.33,68.5,93.43,69.5Z"/></g><g id="Layer_16" data-name="Layer 16"><path class="cls-1" d="M685,84.5c1,3-.9,7.87-2.91,9-10.68,6-25.24,6-25.24,6H635.45v-34h30.09l5.82,1,8.74,8S684.27,82.38,685,84.5Z"/></g></svg>