<svg id="Layer_1" data-name="Layer 1" xmlns="http://www.w3.org/2000/svg" xmlns:xlink="http://www.w3.org/1999/xlink" viewBox="0 0 800.78 200"><defs><style>.cls-1{fill:#02b900;}.cls-2{font-size:26px;font-family:MonotypeCorsiva, Monotype Corsiva;}.cls-3{opacity:0.5;}.cls-4{fill:url(#radial-gradient);}.cls-5{fill:url(#radial-gradient-2);}.cls-6{fill:url(#radial-gradient-3);}.cls-7{fill:url(#radial-gradient-4);}.cls-8{fill:url(#radial-gradient-5);}.cls-9{fill:url(#radial-gradient-6);}.cls-10{fill:url(#radial-gradient-7);}.cls-11{fill:url(#radial-gradient-8);}</style><radialGradient id="radial-gradient" cx="20582.55" cy="2940.52" r="87.04" gradientTransform="translate(-2756.48 -324.26) scale(0.15 0.15)" gradientUnits="userSpaceOnUse"><stop offset="0" stop-color="#fff" stop-opacity="0"/><stop offset="0.87" stop-color="#fff" stop-opacity="0.05"/><stop offset="1" stop-color="#fff"/></radialGradient><radialGradient id="radial-gradient-2" cx="20699.47" cy="2913.83" r="52.66" xlink:href="#radial-gradient"/><radialGradient id="radial-gradient-3" cx="21536.18" cy="2944.14" r="87.04" xlink:href="#radial-gradient"/><radialGradient id="radial-gradient-4" cx="21653.09" cy="2917.45" r="52.66" xlink:href="#radial-gradient"/><radialGradient id="radial-gradient-5" cx="21439.9" cy="2897.43" r="41.21" xlink:href="#radial-gradient"/><radialGradient id="radial-gradient-6" cx="23248.03" cy="2551.94" r="70.6" xlink:href="#radial-gradient"/><radialGradient id="radial-gradient-7" cx="23344.32" cy="2571.96" r="48.67" xlink:href="#radial-gradient"/><radialGradient id="radial-gradient-8" cx="23179.26" cy="2598.66" r="28.03" xlink:href="#radial-gradient"/></defs><g id="Layer_67" data-name="Layer 67"><path d="M674.72,86.5c3.35,11.76-11.92,15-28,16a292.39,292.39,0,0,1-30,0h-504c-39.51,0-42-16.65-33-27,4.82-5.56,19-8,19-8l44.26.08,505.65.91h8.09s4,0,10.23,5.88A26.55,26.55,0,0,1,674.72,86.5Z"/></g><g id="Layer_66" data-name="Layer 66"><path d="M143,67.58V102.5l60.18.44V67.49Z"/></g><g id="Layer_65" data-name="Layer 65"><path d="M203.18,67.65v34.92l60.19.44V67.56Z"/></g><g id="Layer_64" data-name="Layer 64"><path d="M263.82,67.68V102.6L324,103V67.59Z"/></g><g id="Layer_63" data-name="Layer 63"><path d="M323.08,67V102l60.18.44V66.94Z"/></g><g id="Layer_62" data-name="Layer 62"><path d="M382.48,67.56v34.92l60.19.44V67.47Z"/></g><g id="Layer_61" data-name="Layer 61"><path d="M442.48,67.56v34.92l60.19.44V67.47Z"/></g><g id="Layer_60" data-name="Layer 60"><path d="M502.48,67.56v34.92l60.19.44V67.47Z"/></g><g id="Layer_59" data-name="Layer 59"><path d="M563,67.91v34.92l60.18.44V67.82Z"/></g><g id="Layer_58" data-name="Layer 58"><path d="M675.61,86.5c3.36,11.76-11.91,15-28,16a292.45,292.45,0,0,1-30,0h-504c-39.5,0-42-16.65-33-27,4.83-5.56,19-8,19-8l44.27.08,505.65.91h8.08s4,0,10.24,5.88A26.46,26.46,0,0,1,675.61,86.5Z"/></g><g id="Layer_57" data-name="Layer 57"><path class="cls-1" d="M146.89,67.58V102.5l52.46.44V67.49Z"/></g><g id="Layer_56" data-name="Layer 56"><path class="cls-1" d="M207,67.65v34.92l52.46.44V67.56Z"/></g><g id="Layer_55" data-name="Layer 55"><path class="cls-1" d="M267.13,67.68V102.6l52.46.44V67.59Z"/></g><g id="Layer_54" data-name="Layer 54"><path class="cls-1" d="M327.26,67V102l52.45.44V66.94Z"/></g><g id="Layer_53" data-name="Layer 53"><path class="cls-1" d="M387.38,67.56v34.92l52.46.44V67.47Z"/></g><g id="Layer_52" data-name="Layer 52"><path class="cls-1" d="M447.5,67.56v34.92l52.46.44V67.47Z"/></g><g id="Layer_51" data-name="Layer 51"><path class="cls-1" d="M507.63,67.56v34.92l52.45.44V67.47Z"/></g><g id="Layer_50" data-name="Layer 50"><path class="cls-1" d="M567.75,67.91v34.92l52.46.44V67.82Z"/></g><g id="Layer_49" data-name="Layer 49"><text class="cls-2" transform="translate(126.4 63.89)">Delight’o meter</text></g><g id="Layer_48" data-name="Layer 48"><text class="cls-2" transform="translate(687.78 91.5)">90%</text></g><g id="Layer_22" data-name="Layer 22"><path class="cls-1" d="M83.23,72.5c-3.09,1.65-8,10.46-7.46,12,.74,2.06.09,4,.93,6a14.63,14.63,0,0,0,5.6,6c10.26,6,22.39,6,22.39,6h34.53l-.93-35H97.23S85.1,71.5,83.23,72.5Z"/></g><g id="Layer_10" data-name="Layer 10"><path d="M675.72,87.5c1,3-.93,7.87-3,9-11,6-26,6-26,6h-22v-34h31l6,1,9,8S675,85.38,675.72,87.5Z"/></g><g class="cls-3"><ellipse class="cls-4" cx="236.37" cy="116.38" rx="12.66" ry="13.04"/></g><g class="cls-3"><ellipse class="cls-5" cx="253.37" cy="112.38" rx="7.66" ry="7.89"/></g><g class="cls-3"><ellipse class="cls-6" cx="375.03" cy="116.92" rx="12.66" ry="13.04"/></g><g class="cls-3"><ellipse class="cls-7" cx="392.03" cy="112.92" rx="7.66" ry="7.89"/></g><g class="cls-3"><ellipse class="cls-8" cx="361.03" cy="109.92" rx="5.99" ry="6.18"/></g><g class="cls-3"><ellipse class="cls-9" cx="623.95" cy="58.15" rx="10.27" ry="10.58"/></g><g class="cls-3"><ellipse class="cls-10" cx="637.95" cy="61.15" rx="7.08" ry="7.29"/></g><g class="cls-3"><ellipse class="cls-11" cx="613.95" cy="65.15" rx="4.08" ry="4.2"/></g></svg>