<svg id="Layer_1" data-name="Layer 1" xmlns="http://www.w3.org/2000/svg" xmlns:xlink="http://www.w3.org/1999/xlink" viewBox="0 0 800.78 200"><defs><style>.cls-1{font-size:26px;font-family:MonotypeCorsiva, Monotype Corsiva;}.cls-2{fill:#e70000;stroke:#000;stroke-miterlimit:10;}.cls-3{opacity:0.5;}.cls-4{fill:url(#radial-gradient);}.cls-5{fill:url(#radial-gradient-2);}.cls-6{fill:url(#radial-gradient-3);}.cls-7{fill:url(#radial-gradient-4);}.cls-8{fill:url(#radial-gradient-5);}.cls-9{fill:url(#radial-gradient-6);}.cls-10{fill:url(#radial-gradient-7);}.cls-11{fill:url(#radial-gradient-8);}.cls-12{fill:url(#radial-gradient-9);}</style><radialGradient id="radial-gradient" cx="-17880.19" cy="3263.19" r="87.04" gradientTransform="translate(2848.12 -324.26) scale(0.15 0.15)" gradientUnits="userSpaceOnUse"><stop offset="0" stop-color="#fff" stop-opacity="0"/><stop offset="0.87" stop-color="#fff" stop-opacity="0.05"/><stop offset="1" stop-color="#fff"/></radialGradient><radialGradient id="radial-gradient-2" cx="-17763.28" cy="3236.49" r="52.66" xlink:href="#radial-gradient"/><radialGradient id="radial-gradient-3" cx="-16926.56" cy="3266.81" r="87.04" xlink:href="#radial-gradient"/><radialGradient id="radial-gradient-4" cx="-16809.65" cy="3240.11" r="52.66" xlink:href="#radial-gradient"/><radialGradient id="radial-gradient-5" cx="-17022.84" cy="3220.09" r="41.21" xlink:href="#radial-gradient"/><radialGradient id="radial-gradient-6" cx="-15310.99" cy="2520.92" r="70.6" xlink:href="#radial-gradient"/><radialGradient id="radial-gradient-7" cx="-15214.71" cy="2540.94" r="48.67" xlink:href="#radial-gradient"/><radialGradient id="radial-gradient-8" cx="-15379.76" cy="2567.63" r="28.03" xlink:href="#radial-gradient"/><radialGradient id="radial-gradient-9" cx="-14973.9" cy="2717.6" r="27.93" xlink:href="#radial-gradient"/></defs><g id="Layer_147" data-name="Layer 147"><path d="M677.28,83.5c3.36,11.76-11.92,15-28,16a292.39,292.39,0,0,1-30,0h-504c-39.51,0-42-16.65-33-27,4.83-5.56,19-8,19-8l44.26.08,505.65.91h8.09s4,0,10.24,5.88A26.54,26.54,0,0,1,677.28,83.5Z"/></g><g id="Layer_146" data-name="Layer 146"><path d="M145.54,64.58V99.5l60.18.44V64.49Z"/></g><g id="Layer_145" data-name="Layer 145"><path d="M205.75,64.65V99.57l60.18.44V64.56Z"/></g><g id="Layer_144" data-name="Layer 144"><path d="M266.38,64.68V99.6l60.18.44V64.59Z"/></g><g id="Layer_143" data-name="Layer 143"><path d="M325.64,64V99l60.18.44V63.94Z"/></g><g id="Layer_142" data-name="Layer 142"><path d="M385,64.56V99.48l60.19.44V64.47Z"/></g><g id="Layer_141" data-name="Layer 141"><path d="M445,64.56V99.48l60.19.44V64.47Z"/></g><g id="Layer_140" data-name="Layer 140"><path d="M505,64.56V99.48l60.19.44V64.47Z"/></g><g id="Layer_139" data-name="Layer 139"><path d="M565.55,64.91V99.83l60.18.44V64.82Z"/></g><g id="Layer_138" data-name="Layer 138"><path d="M678.18,83.5c3.36,11.76-11.92,15-28,16a292.39,292.39,0,0,1-30,0h-504c-39.51,0-42-16.65-33-27,4.83-5.56,19-8,19-8l44.26.08,505.65.91h8.09s4,0,10.24,5.88A26.54,26.54,0,0,1,678.18,83.5Z"/></g><g id="Layer_137" data-name="Layer 137"><path d="M146.44,64.58V99.5l60.18.44V64.49Z"/></g><g id="Layer_136" data-name="Layer 136"><path d="M206.65,64.65V99.57l60.18.44V64.56Z"/></g><g id="Layer_135" data-name="Layer 135"><path d="M267.28,64.68V99.6l60.18.44V64.59Z"/></g><g id="Layer_134" data-name="Layer 134"><path d="M326.54,64V99l60.18.44V63.94Z"/></g><g id="Layer_133" data-name="Layer 133"><path d="M385.94,64.56V99.48l60.19.44V64.47Z"/></g><g id="Layer_132" data-name="Layer 132"><path d="M445.94,64.56V99.48l60.19.44V64.47Z"/></g><g id="Layer_131" data-name="Layer 131"><path d="M505.94,64.56V99.48l60.19.44V64.47Z"/></g><g id="Layer_130" data-name="Layer 130"><path d="M566.45,64.91V99.83l60.18.44V64.82Z"/></g><g id="Layer_129" data-name="Layer 129"><text class="cls-1" transform="translate(128.96 58.89)">Delight’o meter</text></g><g id="Layer_128" data-name="Layer 128"><text class="cls-1" transform="translate(690.34 88.5)">10%</text></g><g id="Layer_26" data-name="Layer 26"><path class="cls-2" d="M85.23,69.5c-3,1.65-7.84,10.46-7.3,12,.73,2.06.1,4,.91,6a14.51,14.51,0,0,0,5.48,6c10,6,21.91,6,21.91,6H140l-.91-35H98.92S87.06,68.5,85.23,69.5Z"/></g><g id="Layer_6" data-name="Layer 6"><path d="M678.5,84.5c1,3-.93,7.87-3,9-11,6-26,6-26,6h-22v-34h31l6,1,9,8S677.79,82.38,678.5,84.5Z"/></g><g class="cls-3"><ellipse class="cls-4" cx="248.21" cy="164.73" rx="12.66" ry="13.04"/></g><g class="cls-3"><ellipse class="cls-5" cx="265.21" cy="160.73" rx="7.66" ry="7.89"/></g><g class="cls-3"><ellipse class="cls-6" cx="386.88" cy="165.27" rx="12.66" ry="13.04"/></g><g class="cls-3"><ellipse class="cls-7" cx="403.88" cy="161.27" rx="7.66" ry="7.89"/></g><g class="cls-3"><ellipse class="cls-8" cx="372.88" cy="158.27" rx="5.99" ry="6.18"/></g><g class="cls-3"><ellipse class="cls-9" cx="621.79" cy="53.5" rx="10.27" ry="10.58"/></g><g class="cls-3"><ellipse class="cls-10" cx="635.79" cy="56.5" rx="7.08" ry="7.29"/></g><g class="cls-3"><ellipse class="cls-11" cx="611.79" cy="60.5" rx="4.08" ry="4.2"/></g><g class="cls-3"><ellipse class="cls-12" cx="670.81" cy="82.98" rx="4.06" ry="4.19"/></g></svg>