<svg id="Layer_1" data-name="Layer 1" xmlns="http://www.w3.org/2000/svg" xmlns:xlink="http://www.w3.org/1999/xlink" viewBox="0 0 800.78 200"><defs><style>.cls-1{fill:#e70000;stroke:#000;stroke-miterlimit:10;}.cls-2{font-size:26px;font-family:MonotypeCorsiva, Monotype Corsiva;}.cls-3{opacity:0.5;}.cls-4{fill:url(#radial-gradient);}.cls-5{fill:url(#radial-gradient-2);}.cls-6{fill:url(#radial-gradient-3);}.cls-7{fill:url(#radial-gradient-4);}.cls-8{fill:url(#radial-gradient-5);}.cls-9{fill:url(#radial-gradient-6);}.cls-10{fill:url(#radial-gradient-7);}.cls-11{fill:url(#radial-gradient-8);}.cls-12{fill:url(#radial-gradient-9);}</style><radialGradient id="radial-gradient" cx="-8351.29" cy="2914.7" r="87.04" gradientTransform="translate(1446.97 -324.26) scale(0.15 0.15)" gradientUnits="userSpaceOnUse"><stop offset="0" stop-color="#fff" stop-opacity="0"/><stop offset="0.87" stop-color="#fff" stop-opacity="0.05"/><stop offset="1" stop-color="#fff"/></radialGradient><radialGradient id="radial-gradient-2" cx="-8234.37" cy="2888" r="52.66" xlink:href="#radial-gradient"/><radialGradient id="radial-gradient-3" cx="-7397.66" cy="2918.31" r="87.04" xlink:href="#radial-gradient"/><radialGradient id="radial-gradient-4" cx="-7170.71" cy="3198.59" r="52.66" xlink:href="#radial-gradient"/><radialGradient id="radial-gradient-5" cx="-7493.94" cy="2871.6" r="41.21" xlink:href="#radial-gradient"/><radialGradient id="radial-gradient-6" cx="-5685.8" cy="2526.12" r="70.6" xlink:href="#radial-gradient"/><radialGradient id="radial-gradient-7" cx="-5589.52" cy="2546.14" r="48.67" xlink:href="#radial-gradient"/><radialGradient id="radial-gradient-8" cx="-5754.58" cy="2572.83" r="28.03" xlink:href="#radial-gradient"/><radialGradient id="radial-gradient-9" cx="-5630.68" cy="2482.56" r="27.93" xlink:href="#radial-gradient"/></defs><g id="Layer_167" data-name="Layer 167"><path d="M674.72,84.5c3.35,11.76-11.92,15-28,16a292.39,292.39,0,0,1-30,0h-504c-39.51,0-42-16.65-33-27,4.82-5.56,19-8,19-8l44.26.08,505.65.91h8.09s4,0,10.23,5.88A26.55,26.55,0,0,1,674.72,84.5Z"/></g><g id="Layer_166" data-name="Layer 166"><path d="M143,65.58V100.5l60.18.44V65.49Z"/></g><g id="Layer_165" data-name="Layer 165"><path d="M203.18,65.65v34.92l60.19.44V65.56Z"/></g><g id="Layer_164" data-name="Layer 164"><path d="M263.82,65.68V100.6L324,101V65.59Z"/></g><g id="Layer_163" data-name="Layer 163"><path d="M323.08,65V100l60.18.44V64.94Z"/></g><g id="Layer_162" data-name="Layer 162"><path d="M382.48,65.56v34.92l60.19.44V65.47Z"/></g><g id="Layer_161" data-name="Layer 161"><path d="M442.48,65.56v34.92l60.19.44V65.47Z"/></g><g id="Layer_160" data-name="Layer 160"><path d="M502.48,65.56v34.92l60.19.44V65.47Z"/></g><g id="Layer_159" data-name="Layer 159"><path d="M563,65.91v34.92l60.18.44V65.82Z"/></g><g id="Layer_158" data-name="Layer 158"><path d="M675.61,84.5c3.36,11.76-11.91,15-28,16a292.45,292.45,0,0,1-30,0h-504c-39.5,0-42-16.65-33-27,4.83-5.56,19-8,19-8l44.27.08,505.65.91h8.08s4,0,10.24,5.88A26.46,26.46,0,0,1,675.61,84.5Z"/></g><g id="Layer_157" data-name="Layer 157"><path d="M143.88,65.58V100.5l60.18.44V65.49Z"/></g><g id="Layer_156" data-name="Layer 156"><path class="cls-1" d="M201.08,65.65v34.92L259,101V65.56Z"/></g><g id="Layer_155" data-name="Layer 155"><path d="M264.72,65.68V100.6l60.18.44V65.59Z"/></g><g id="Layer_154" data-name="Layer 154"><path d="M324,65V100l60.18.44V64.94Z"/></g><g id="Layer_153" data-name="Layer 153"><path d="M383.38,65.56v34.92l60.18.44V65.47Z"/></g><g id="Layer_152" data-name="Layer 152"><path d="M443.38,65.56v34.92l60.18.44V65.47Z"/></g><g id="Layer_151" data-name="Layer 151"><path d="M503.38,65.56v34.92l60.18.44V65.47Z"/></g><g id="Layer_150" data-name="Layer 150"><path d="M563.89,65.91v34.92l60.18.44V65.82Z"/></g><g id="Layer_149" data-name="Layer 149"><text class="cls-2" transform="translate(122.4 61.89)">Delight’o meter</text></g><g id="Layer_148" data-name="Layer 148"><text class="cls-2" transform="translate(687.78 89.5)">30%</text></g><g id="Layer_24" data-name="Layer 24"><path d="M84.05,70.5c-3.31,1.65-8.6,10.46-8,12,.8,2.06.1,4,1,6a15.05,15.05,0,0,0,6,6c11,6,24,6,24,6h37l-1-35h-44S86.05,69.5,84.05,70.5Z"/></g><g id="Layer_8" data-name="Layer 8"><path d="M675.5,85.5c1,3-.93,7.87-3,9-11,6-26,6-26,6h-22v-34h31l6,1,9,8S674.79,83.38,675.5,85.5Z"/></g><g id="Layer_4" data-name="Layer 4"><path class="cls-1" d="M81.6,70.5c-3,1.65-7.7,10.46-7.17,12,.72,2.06.1,4,.9,6a14.44,14.44,0,0,0,5.38,6c9.86,6,21.51,6,21.51,6h33.15l-.89-35H95.05S83.4,69.5,81.6,70.5Z"/></g><g id="Layer_3" data-name="Layer 3"><path class="cls-1" d="M140.78,65.35v34.92l54.9.44V65.26Z"/></g><g class="cls-3"><ellipse class="cls-4" cx="232.63" cy="112.51" rx="12.66" ry="13.04"/></g><g class="cls-3"><ellipse class="cls-5" cx="249.63" cy="108.51" rx="7.66" ry="7.89"/></g><g class="cls-3"><ellipse class="cls-6" cx="371.3" cy="113.05" rx="12.66" ry="13.04"/></g><g class="cls-3"><ellipse class="cls-7" cx="404.3" cy="155.05" rx="7.66" ry="7.89"/></g><g class="cls-3"><ellipse class="cls-8" cx="357.3" cy="106.05" rx="5.99" ry="6.18"/></g><g class="cls-3"><ellipse class="cls-9" cx="620.21" cy="54.28" rx="10.27" ry="10.58"/></g><g class="cls-3"><ellipse class="cls-10" cx="634.21" cy="57.28" rx="7.08" ry="7.29"/></g><g class="cls-3"><ellipse class="cls-11" cx="610.21" cy="61.28" rx="4.08" ry="4.2"/></g><g class="cls-3"><ellipse class="cls-12" cx="628.23" cy="47.75" rx="4.06" ry="4.19"/></g></svg>