<svg id="Layer_1" data-name="Layer 1" xmlns="http://www.w3.org/2000/svg" xmlns:xlink="http://www.w3.org/1999/xlink" viewBox="0 0 800.78 200"><defs><style>.cls-1{fill:#02b900;}.cls-2{font-size:26px;font-family:MonotypeCorsiva, Monotype Corsiva;}.cls-3{opacity:0.5;}.cls-4{fill:url(#radial-gradient);}.cls-5{fill:url(#radial-gradient-2);}.cls-6{fill:url(#radial-gradient-3);}.cls-7{fill:url(#radial-gradient-4);}.cls-8{fill:url(#radial-gradient-5);}.cls-9{fill:url(#radial-gradient-6);}.cls-10{fill:url(#radial-gradient-7);}.cls-11{fill:url(#radial-gradient-8);}.cls-12{fill:url(#radial-gradient-9);}</style><radialGradient id="radial-gradient" cx="15761.85" cy="2918.57" r="87.04" gradientTransform="translate(-2055.91 -324.26) scale(0.15 0.15)" gradientUnits="userSpaceOnUse"><stop offset="0" stop-color="#fff" stop-opacity="0"/><stop offset="0.87" stop-color="#fff" stop-opacity="0.05"/><stop offset="1" stop-color="#fff"/></radialGradient><radialGradient id="radial-gradient-2" cx="15878.76" cy="2891.88" r="52.66" xlink:href="#radial-gradient"/><radialGradient id="radial-gradient-3" cx="16715.48" cy="2922.19" r="87.04" xlink:href="#radial-gradient"/><radialGradient id="radial-gradient-4" cx="16832.39" cy="2895.49" r="52.66" xlink:href="#radial-gradient"/><radialGradient id="radial-gradient-5" cx="16619.19" cy="2875.47" r="41.21" xlink:href="#radial-gradient"/><radialGradient id="radial-gradient-6" cx="18427.33" cy="2529.99" r="70.6" xlink:href="#radial-gradient"/><radialGradient id="radial-gradient-7" cx="18523.61" cy="2550.01" r="48.67" xlink:href="#radial-gradient"/><radialGradient id="radial-gradient-8" cx="18358.56" cy="2576.7" r="28.03" xlink:href="#radial-gradient"/><radialGradient id="radial-gradient-9" cx="18482.45" cy="2486.43" r="27.93" xlink:href="#radial-gradient"/></defs><g id="Layer_187" data-name="Layer 187"><path d="M676.38,83.5c3.36,11.76-11.91,15-28,16a292.45,292.45,0,0,1-30,0h-504c-39.5,0-42-16.65-33-27,4.83-5.56,19-8,19-8l44.27.08,505.65.91h8.08s4,0,10.24,5.88A26.46,26.46,0,0,1,676.38,83.5Z"/></g><g id="Layer_186" data-name="Layer 186"><path d="M144.65,64.58V99.5l60.18.44V64.49Z"/></g><g id="Layer_185" data-name="Layer 185"><path d="M204.85,64.65V99.57L265,100V64.56Z"/></g><g id="Layer_184" data-name="Layer 184"><path d="M265.49,64.68V99.6l60.18.44V64.59Z"/></g><g id="Layer_183" data-name="Layer 183"><path d="M324.75,64V99l60.18.44V63.94Z"/></g><g id="Layer_182" data-name="Layer 182"><path d="M384.15,64.56V99.48l60.18.44V64.47Z"/></g><g id="Layer_181" data-name="Layer 181"><path d="M444.15,64.56V99.48l60.18.44V64.47Z"/></g><g id="Layer_180" data-name="Layer 180"><path d="M504.15,64.56V99.48l60.18.44V64.47Z"/></g><g id="Layer_179" data-name="Layer 179"><path d="M564.66,64.91V99.83l60.18.44V64.82Z"/></g><g id="Layer_178" data-name="Layer 178"><path d="M677.28,83.5c3.36,11.76-11.91,15-28,16a292.45,292.45,0,0,1-30,0h-504c-39.5,0-42-16.65-33-27,4.83-5.56,19-8,19-8l44.27.08,505.65.91h8.08s4,0,10.24,5.88A26.46,26.46,0,0,1,677.28,83.5Z"/></g><g id="Layer_177" data-name="Layer 177"><path class="cls-1" d="M148.22,64.58V99.5l52.45.44V64.49Z"/></g><g id="Layer_176" data-name="Layer 176"><path class="cls-1" d="M208.67,64.65V99.57l52.45.44V64.56Z"/></g><g id="Layer_175" data-name="Layer 175"><path class="cls-1" d="M269.12,64.68V99.6l52.45.44V64.59Z"/></g><g id="Layer_174" data-name="Layer 174"><path class="cls-1" d="M329.56,64V99l52.46.44V63.94Z"/></g><g id="Layer_173" data-name="Layer 173"><path class="cls-1" d="M390,64.56V99.48l52.46.44V64.47Z"/></g><g id="Layer_172" data-name="Layer 172"><path class="cls-1" d="M450.46,64.56V99.48l52.46.44V64.47Z"/></g><g id="Layer_171" data-name="Layer 171"><path class="cls-1" d="M510.91,63.56V98.48l52.46.44V63.47Z"/></g><g id="Layer_170" data-name="Layer 170"><path d="M565.55,64.91V99.83l60.19.44V64.82Z"/></g><g id="Layer_169" data-name="Layer 169"><text class="cls-2" transform="translate(127.07 61.89)">Delight’o meter</text></g><g id="Layer_168" data-name="Layer 168"><text class="cls-2" transform="translate(689.45 88.5)">80%</text></g><g id="Layer_21" data-name="Layer 21"><path class="cls-1" d="M84.69,69.5c-3.06,1.65-8,10.46-7.41,12,.75,2.06.1,4,.93,6a14.59,14.59,0,0,0,5.55,6c10.18,6,22.22,6,22.22,6h34.24l-.92-35H98.57S86.54,68.5,84.69,69.5Z"/></g><g id="Layer_11" data-name="Layer 11"><path d="M677.72,84.5c1,3-.93,7.87-3,9-11,6-26,6-26,6h-22v-34h31l6,1,9,8S677,82.38,677.72,84.5Z"/></g><g class="cls-3"><ellipse class="cls-4" cx="235.98" cy="113.09" rx="12.66" ry="13.04"/></g><g class="cls-3"><ellipse class="cls-5" cx="252.98" cy="109.09" rx="7.66" ry="7.89"/></g><g class="cls-3"><ellipse class="cls-6" cx="374.64" cy="113.63" rx="12.66" ry="13.04"/></g><g class="cls-3"><ellipse class="cls-7" cx="391.64" cy="109.63" rx="7.66" ry="7.89"/></g><g class="cls-3"><ellipse class="cls-8" cx="360.64" cy="106.63" rx="5.99" ry="6.18"/></g><g class="cls-3"><ellipse class="cls-9" cx="623.56" cy="54.86" rx="10.27" ry="10.58"/></g><g class="cls-3"><ellipse class="cls-10" cx="637.56" cy="57.86" rx="7.08" ry="7.29"/></g><g class="cls-3"><ellipse class="cls-11" cx="613.56" cy="61.86" rx="4.08" ry="4.2"/></g><g class="cls-3"><ellipse class="cls-12" cx="631.57" cy="48.33" rx="4.06" ry="4.19"/></g></svg>