<svg id="Layer_1" data-name="Layer 1" xmlns="http://www.w3.org/2000/svg" xmlns:xlink="http://www.w3.org/1999/xlink" viewBox="0 0 800.78 200"><defs><style>.cls-1{fill:#e70000;stroke:#000;stroke-miterlimit:10;}.cls-2{font-size:26px;font-family:MonotypeCorsiva, Monotype Corsiva;}.cls-3{opacity:0.5;}.cls-4{fill:url(#radial-gradient);}.cls-5{fill:url(#radial-gradient-2);}.cls-6{fill:url(#radial-gradient-3);}.cls-7{fill:url(#radial-gradient-4);}.cls-8{fill:url(#radial-gradient-5);}.cls-9{fill:url(#radial-gradient-6);}.cls-10{fill:url(#radial-gradient-7);}.cls-11{fill:url(#radial-gradient-8);}.cls-12{fill:url(#radial-gradient-9);}</style><radialGradient id="radial-gradient" cx="-13265.59" cy="2945.47" r="87.04" gradientTransform="translate(2147.55 -324.26) scale(0.15 0.15)" gradientUnits="userSpaceOnUse"><stop offset="0" stop-color="#fff" stop-opacity="0"/><stop offset="0.87" stop-color="#fff" stop-opacity="0.05"/><stop offset="1" stop-color="#fff"/></radialGradient><radialGradient id="radial-gradient-2" cx="-13148.68" cy="2918.77" r="52.66" xlink:href="#radial-gradient"/><radialGradient id="radial-gradient-3" cx="-12311.97" cy="2949.08" r="87.04" xlink:href="#radial-gradient"/><radialGradient id="radial-gradient-4" cx="-11988.74" cy="3256.06" r="52.66" xlink:href="#radial-gradient"/><radialGradient id="radial-gradient-5" cx="-12408.25" cy="2902.37" r="41.21" xlink:href="#radial-gradient"/><radialGradient id="radial-gradient-6" cx="-10517.58" cy="2543.54" r="70.6" xlink:href="#radial-gradient"/><radialGradient id="radial-gradient-7" cx="-10421.3" cy="2563.56" r="48.67" xlink:href="#radial-gradient"/><radialGradient id="radial-gradient-8" cx="-10586.36" cy="2590.25" r="28.03" xlink:href="#radial-gradient"/><radialGradient id="radial-gradient-9" cx="-10544.99" cy="2513.33" r="27.93" xlink:href="#radial-gradient"/></defs><g id="Layer_87" data-name="Layer 87"><path d="M672.94,85.5c3.36,11.76-11.92,15-28,16a292.39,292.39,0,0,1-30,0h-504c-39.51,0-42-16.65-33-27,4.83-5.56,19-8,19-8l44.26.08,505.65.91h8.09s4,0,10.24,5.88A26.46,26.46,0,0,1,672.94,85.5Z"/></g><g id="Layer_86" data-name="Layer 86"><path d="M141.2,66.58V101.5l60.18.44V66.49Z"/></g><g id="Layer_85" data-name="Layer 85"><path d="M201.41,66.65v34.92l60.18.44V66.56Z"/></g><g id="Layer_84" data-name="Layer 84"><path d="M262,66.68V101.6l60.18.44V66.59Z"/></g><g id="Layer_83" data-name="Layer 83"><path d="M321.3,66V101l60.18.44V65.94Z"/></g><g id="Layer_82" data-name="Layer 82"><path d="M380.71,66.56v34.92l60.18.44V66.47Z"/></g><g id="Layer_81" data-name="Layer 81"><path d="M440.71,66.56v34.92l60.18.44V66.47Z"/></g><g id="Layer_80" data-name="Layer 80"><path d="M500.71,66.56v34.92l60.18.44V66.47Z"/></g><g id="Layer_79" data-name="Layer 79"><path d="M561.21,66.91v34.92l60.18.44V66.82Z"/></g><g id="Layer_78" data-name="Layer 78"><path d="M673.84,85.5c3.36,11.76-11.92,15-28,16a292.39,292.39,0,0,1-30,0h-504c-39.51,0-42-16.65-33-27,4.83-5.56,19-8,19-8l44.26.08,505.65.91h8.09s4,0,10.24,5.88A26.54,26.54,0,0,1,673.84,85.5Z"/></g><g id="Layer_77" data-name="Layer 77"><path class="cls-1" d="M139.1,65.58V100.5l54.9.44V65.49Z"/></g><g id="Layer_76" data-name="Layer 76"><path d="M202.31,66.65v34.92l60.18.44V66.56Z"/></g><g id="Layer_75" data-name="Layer 75"><path d="M262.94,66.68V101.6l60.18.44V66.59Z"/></g><g id="Layer_74" data-name="Layer 74"><path d="M322.2,66V101l60.18.44V65.94Z"/></g><g id="Layer_73" data-name="Layer 73"><path d="M381.6,66.56v34.92l60.19.44V66.47Z"/></g><g id="Layer_72" data-name="Layer 72"><path d="M441.6,66.56v34.92l60.19.44V66.47Z"/></g><g id="Layer_71" data-name="Layer 71"><path d="M501.6,66.56v34.92l60.19.44V66.47Z"/></g><g id="Layer_70" data-name="Layer 70"><path d="M562.11,66.91v34.92l60.18.44V66.82Z"/></g><g id="Layer_69" data-name="Layer 69"><text class="cls-2" transform="translate(120.62 61.89)">Delight’o meter</text></g><g id="Layer_68" data-name="Layer 68"><text class="cls-2" transform="translate(686 90.5)">20%</text></g><g id="Layer_25" data-name="Layer 25"><path class="cls-1" d="M81.22,71.5c-3,1.65-7.7,10.46-7.17,12,.72,2.06.09,4,.9,6a14.38,14.38,0,0,0,5.38,6c9.85,6,21.5,6,21.5,6H135l-.89-35H94.66S83,70.5,81.22,71.5Z"/></g><g id="Layer_7" data-name="Layer 7"><path d="M673.5,86.5c1,3-.93,7.87-3,9-11,6-26,6-26,6h-22v-34h31l6,1,9,8S672.79,84.38,673.5,86.5Z"/></g><g class="cls-3"><ellipse class="cls-4" cx="218.63" cy="117.12" rx="12.66" ry="13.04"/></g><g class="cls-3"><ellipse class="cls-5" cx="235.63" cy="113.12" rx="7.66" ry="7.89"/></g><g class="cls-3"><ellipse class="cls-6" cx="357.3" cy="117.66" rx="12.66" ry="13.04"/></g><g class="cls-3"><ellipse class="cls-7" cx="404.3" cy="163.66" rx="7.66" ry="7.89"/></g><g class="cls-3"><ellipse class="cls-8" cx="343.3" cy="110.66" rx="5.99" ry="6.18"/></g><g class="cls-3"><ellipse class="cls-9" cx="618.21" cy="56.89" rx="10.27" ry="10.58"/></g><g class="cls-3"><ellipse class="cls-10" cx="632.21" cy="59.89" rx="7.08" ry="7.29"/></g><g class="cls-3"><ellipse class="cls-11" cx="608.21" cy="63.89" rx="4.08" ry="4.2"/></g><g class="cls-3"><ellipse class="cls-12" cx="614.23" cy="52.36" rx="4.06" ry="4.19"/></g></svg>