<svg id="Layer_1" data-name="Layer 1" xmlns="http://www.w3.org/2000/svg" xmlns:xlink="http://www.w3.org/1999/xlink" viewBox="0 0 800.78 200"><defs><style>.cls-1{fill:#fffd00;}.cls-2{font-size:26px;font-family:MonotypeCorsiva, Monotype Corsiva;}.cls-3{opacity:0.5;}.cls-4{fill:url(#radial-gradient);}.cls-5{fill:url(#radial-gradient-2);}.cls-6{fill:url(#radial-gradient-3);}.cls-7{fill:url(#radial-gradient-4);}.cls-8{fill:url(#radial-gradient-5);}.cls-9{fill:url(#radial-gradient-6);}.cls-10{fill:url(#radial-gradient-7);}.cls-11{fill:url(#radial-gradient-8);}.cls-12{fill:url(#radial-gradient-9);}</style><radialGradient id="radial-gradient" cx="-3533.26" cy="2925.85" r="87.04" gradientTransform="translate(746.39 -324.26) scale(0.15 0.15)" gradientUnits="userSpaceOnUse"><stop offset="0" stop-color="#fff" stop-opacity="0"/><stop offset="0.87" stop-color="#fff" stop-opacity="0.05"/><stop offset="1" stop-color="#fff"/></radialGradient><radialGradient id="radial-gradient-2" cx="-3416.35" cy="2899.16" r="52.66" xlink:href="#radial-gradient"/><radialGradient id="radial-gradient-3" cx="-2579.63" cy="2929.47" r="87.04" xlink:href="#radial-gradient"/><radialGradient id="radial-gradient-4" cx="-2462.72" cy="2902.78" r="52.66" xlink:href="#radial-gradient"/><radialGradient id="radial-gradient-5" cx="-2675.91" cy="2882.76" r="41.21" xlink:href="#radial-gradient"/><radialGradient id="radial-gradient-6" cx="-867.78" cy="2537.27" r="70.6" xlink:href="#radial-gradient"/><radialGradient id="radial-gradient-7" cx="-771.5" cy="2557.29" r="48.67" xlink:href="#radial-gradient"/><radialGradient id="radial-gradient-8" cx="-936.55" cy="2583.99" r="28.03" xlink:href="#radial-gradient"/><radialGradient id="radial-gradient-9" cx="-812.66" cy="2493.72" r="27.93" xlink:href="#radial-gradient"/></defs><g id="Layer_107" data-name="Layer 107"><path d="M675.83,85.5c3.36,11.76-11.92,15-28,16a292.45,292.45,0,0,1-30,0h-504c-39.51,0-42-16.65-33-27,4.83-5.56,19-8,19-8l44.26.08,505.65.91h8.09s4,0,10.24,5.88A26.46,26.46,0,0,1,675.83,85.5Z"/></g><g id="Layer_106" data-name="Layer 106"><path d="M144.09,66.58V101.5l60.19.44V66.49Z"/></g><g id="Layer_105" data-name="Layer 105"><path d="M204.3,66.65v34.92l60.18.44V66.56Z"/></g><g id="Layer_104" data-name="Layer 104"><path d="M264.93,66.68V101.6l60.19.44V66.59Z"/></g><g id="Layer_103" data-name="Layer 103"><path d="M324.19,66V101l60.19.44V65.94Z"/></g><g id="Layer_102" data-name="Layer 102"><path d="M383.6,66.56v34.92l60.18.44V66.47Z"/></g><g id="Layer_101" data-name="Layer 101"><path d="M443.6,66.56v34.92l60.18.44V66.47Z"/></g><g id="Layer_100" data-name="Layer 100"><path d="M503.6,66.56v34.92l60.18.44V66.47Z"/></g><g id="Layer_99" data-name="Layer 99"><path d="M564.1,66.91v34.92l60.18.44V66.82Z"/></g><g id="Layer_98" data-name="Layer 98"><path d="M676.73,85.5c3.36,11.76-11.92,15-28,16a292.45,292.45,0,0,1-30,0h-504c-39.51,0-42-16.65-33-27,4.83-5.56,19-8,19-8l44.26.08,505.65.91h8.09s4,0,10.24,5.88A26.46,26.46,0,0,1,676.73,85.5Z"/></g><g id="Layer_97" data-name="Layer 97"><path class="cls-1" d="M142.55,66.58V101.5l51,.44V66.49Z"/></g><g id="Layer_96" data-name="Layer 96"><path class="cls-1" d="M200.29,66.65v34.92l54.8.44V66.56Z"/></g><g id="Layer_95" data-name="Layer 95"><path class="cls-1" d="M261.83,66.68V101.6L319,102V66.59Z"/></g><g id="Layer_94" data-name="Layer 94"><path d="M325.09,66V101l60.19.44V65.94Z"/></g><g id="Layer_93" data-name="Layer 93"><path d="M384.5,66.56v34.92l60.18.44V66.47Z"/></g><g id="Layer_92" data-name="Layer 92"><path d="M444.5,66.56v34.92l60.18.44V66.47Z"/></g><g id="Layer_91" data-name="Layer 91"><path d="M504.5,66.56v34.92l60.18.44V66.47Z"/></g><g id="Layer_90" data-name="Layer 90"><path d="M565,66.91v34.92l60.18.44V66.82Z"/></g><g id="Layer_89" data-name="Layer 89"><text class="cls-2" transform="translate(123.51 60.89)">Delight’o meter</text></g><g id="Layer_88" data-name="Layer 88"><text class="cls-2" transform="translate(688.9 90.5)">40%</text></g><g id="Layer_23" data-name="Layer 23"><path class="cls-1" d="M82,71.14c-3,1.71-7.71,10.77-7.17,12.35.72,2.12.09,4.13.89,6.17a14.7,14.7,0,0,0,5.38,6.17C91,102,102.65,102,102.65,102h33.16l-.9-36H95.48S83.83,70.11,82,71.14Z"/></g><g id="Layer_9" data-name="Layer 9"><path d="M676.5,86.5c1,3-.93,7.87-3,9-11,6-26,6-26,6h-22v-34h31l6,1,9,8S675.79,84.38,676.5,86.5Z"/></g><g class="cls-3"><ellipse class="cls-4" cx="232.63" cy="114.18" rx="12.66" ry="13.04"/></g><g class="cls-3"><ellipse class="cls-5" cx="249.63" cy="110.18" rx="7.66" ry="7.89"/></g><g class="cls-3"><ellipse class="cls-6" cx="371.3" cy="114.72" rx="12.66" ry="13.04"/></g><g class="cls-3"><ellipse class="cls-7" cx="388.3" cy="110.72" rx="7.66" ry="7.89"/></g><g class="cls-3"><ellipse class="cls-8" cx="357.3" cy="107.72" rx="5.99" ry="6.18"/></g><g class="cls-3"><ellipse class="cls-9" cx="620.21" cy="55.95" rx="10.27" ry="10.58"/></g><g class="cls-3"><ellipse class="cls-10" cx="634.21" cy="58.95" rx="7.08" ry="7.29"/></g><g class="cls-3"><ellipse class="cls-11" cx="610.21" cy="62.95" rx="4.08" ry="4.2"/></g><g class="cls-3"><ellipse class="cls-12" cx="628.23" cy="49.43" rx="4.06" ry="4.19"/></g></svg>