<svg id="Layer_1" data-name="Layer 1" xmlns="http://www.w3.org/2000/svg" xmlns:xlink="http://www.w3.org/1999/xlink" viewBox="0 0 800.78 200"><defs><style>.cls-1{font-size:26px;font-family:MonotypeCorsiva, Monotype Corsiva;}.cls-2{opacity:0.5;}.cls-3{fill:url(#radial-gradient);}.cls-4{fill:url(#radial-gradient-2);}.cls-5{fill:url(#radial-gradient-3);}.cls-6{fill:url(#radial-gradient-4);}.cls-7{fill:url(#radial-gradient-5);}.cls-8{fill:url(#radial-gradient-6);}.cls-9{fill:url(#radial-gradient-7);}.cls-10{fill:url(#radial-gradient-8);}</style><radialGradient id="radial-gradient" cx="-22745.46" cy="2923.37" r="87.04" gradientTransform="translate(3548.7 -324.26) scale(0.15 0.15)" gradientUnits="userSpaceOnUse"><stop offset="0" stop-color="#fff" stop-opacity="0"/><stop offset="0.87" stop-color="#fff" stop-opacity="0.05"/><stop offset="1" stop-color="#fff"/></radialGradient><radialGradient id="radial-gradient-2" cx="-22628.55" cy="2896.67" r="52.66" xlink:href="#radial-gradient"/><radialGradient id="radial-gradient-3" cx="-21791.84" cy="2926.98" r="87.04" xlink:href="#radial-gradient"/><radialGradient id="radial-gradient-4" cx="-21674.92" cy="2900.29" r="52.66" xlink:href="#radial-gradient"/><radialGradient id="radial-gradient-5" cx="-21888.12" cy="2880.27" r="41.21" xlink:href="#radial-gradient"/><radialGradient id="radial-gradient-6" cx="-20052.47" cy="2534.79" r="70.6" xlink:href="#radial-gradient"/><radialGradient id="radial-gradient-7" cx="-19956.19" cy="2554.81" r="48.67" xlink:href="#radial-gradient"/><radialGradient id="radial-gradient-8" cx="-20121.24" cy="2581.5" r="28.03" xlink:href="#radial-gradient"/></defs><g id="Layer_247" data-name="Layer 247"><path d="M682.5,84.5c3.36,11.76-11.92,15-28,16a292.45,292.45,0,0,1-30,0h-504c-39.51,0-42-16.65-33-27,4.83-5.56,19-8,19-8l44.26.08,505.65.91h8.09s4,0,10.24,5.88A26.46,26.46,0,0,1,682.5,84.5Z"/></g><g id="Layer_246" data-name="Layer 246"><path d="M150.76,65.58V100.5l60.19.44V65.49Z"/></g><g id="Layer_245" data-name="Layer 245"><path d="M211,65.65v34.92l60.18.44V65.56Z"/></g><g id="Layer_244" data-name="Layer 244"><path d="M271.6,65.68V100.6l60.19.44V65.59Z"/></g><g id="Layer_243" data-name="Layer 243"><path d="M330.86,65V100l60.19.44V64.94Z"/></g><g id="Layer_242" data-name="Layer 242"><path d="M390.27,65.56v34.92l60.18.44V65.47Z"/></g><g id="Layer_241" data-name="Layer 241"><path d="M450.27,65.56v34.92l60.18.44V65.47Z"/></g><g id="Layer_240" data-name="Layer 240"><path d="M510.27,65.56v34.92l60.18.44V65.47Z"/></g><g id="Layer_239" data-name="Layer 239"><path d="M570.77,65.91v34.92l60.18.44V65.82Z"/></g><g id="Layer_238" data-name="Layer 238"><path d="M683.4,84.5c3.36,11.76-11.92,15-28,16a292.39,292.39,0,0,1-30,0h-504c-39.51,0-42-16.65-33-27,4.83-5.56,19-8,19-8l44.26.08,505.65.91h8.09s4,0,10.24,5.88A26.46,26.46,0,0,1,683.4,84.5Z"/></g><g id="Layer_237" data-name="Layer 237"><path d="M151.66,65.58V100.5l60.19.44V65.49Z"/></g><g id="Layer_236" data-name="Layer 236"><path d="M211.87,65.65v34.92l60.18.44V65.56Z"/></g><g id="Layer_235" data-name="Layer 235"><path d="M272.5,65.68V100.6l60.19.44V65.59Z"/></g><g id="Layer_234" data-name="Layer 234"><path d="M331.76,65V100l60.19.44V64.94Z"/></g><g id="Layer_233" data-name="Layer 233"><path d="M391.17,65.56v34.92l60.18.44V65.47Z"/></g><g id="Layer_232" data-name="Layer 232"><path d="M451.17,65.56v34.92l60.18.44V65.47Z"/></g><g id="Layer_231" data-name="Layer 231"><path d="M511.17,65.56v34.92l60.18.44V65.47Z"/></g><g id="Layer_230" data-name="Layer 230"><path d="M571.67,65.91v34.92l60.18.44V65.82Z"/></g><g id="Layer_229" data-name="Layer 229"><text class="cls-1" transform="translate(143.18 60.89)">Delight’o meter</text></g><g id="Layer_228" data-name="Layer 228"><text class="cls-1" transform="translate(695.56 89.5)">0%</text></g><g id="Layer_27" data-name="Layer 27"><path d="M91.5,70.5c-3.31,1.65-8.6,10.46-8,12,.8,2.06.1,4,1,6a15.05,15.05,0,0,0,6,6c11,6,24,6,24,6h37l-1-35h-44S93.5,69.5,91.5,70.5Z"/></g><g id="Layer_5" data-name="Layer 5"><path d="M683.5,85.5c1,3-.93,7.87-3,9-11,6-26,6-26,6h-22v-34h31l6,1,9,8S682.79,83.38,683.5,85.5Z"/></g><g class="cls-2"><ellipse class="cls-3" cx="241.34" cy="113.81" rx="12.66" ry="13.04"/></g><g class="cls-2"><ellipse class="cls-4" cx="258.34" cy="109.81" rx="7.66" ry="7.89"/></g><g class="cls-2"><ellipse class="cls-5" cx="380.01" cy="114.35" rx="12.66" ry="13.04"/></g><g class="cls-2"><ellipse class="cls-6" cx="397.01" cy="110.35" rx="7.66" ry="7.89"/></g><g class="cls-2"><ellipse class="cls-7" cx="366.01" cy="107.35" rx="5.99" ry="6.18"/></g><g class="cls-2"><ellipse class="cls-8" cx="632.92" cy="55.58" rx="10.27" ry="10.58"/></g><g class="cls-2"><ellipse class="cls-9" cx="646.92" cy="58.58" rx="7.08" ry="7.29"/></g><g class="cls-2"><ellipse class="cls-10" cx="622.92" cy="62.58" rx="4.08" ry="4.2"/></g></svg>