<svg id="Layer_1" data-name="Layer 1" xmlns="http://www.w3.org/2000/svg" xmlns:xlink="http://www.w3.org/1999/xlink" viewBox="0 0 800.78 200"><defs><style>.cls-1{fill:#02b900;}.cls-2{font-size:26px;font-family:MonotypeCorsiva, Monotype Corsiva;}.cls-3{opacity:0.5;}.cls-4{fill:url(#radial-gradient);}.cls-5{fill:url(#radial-gradient-2);}.cls-6{fill:url(#radial-gradient-3);}.cls-7{fill:url(#radial-gradient-4);}.cls-8{fill:url(#radial-gradient-5);}.cls-9{fill:url(#radial-gradient-6);}.cls-10{fill:url(#radial-gradient-7);}.cls-11{fill:url(#radial-gradient-8);}.cls-12{fill:url(#radial-gradient-9);}</style><radialGradient id="radial-gradient" cx="10857.78" cy="3116.63" r="87.04" gradientTransform="translate(-1355.33 -324.26) scale(0.15 0.15)" gradientUnits="userSpaceOnUse"><stop offset="0" stop-color="#fff" stop-opacity="0"/><stop offset="0.87" stop-color="#fff" stop-opacity="0.05"/><stop offset="1" stop-color="#fff"/></radialGradient><radialGradient id="radial-gradient-2" cx="10974.69" cy="3089.94" r="52.66" xlink:href="#radial-gradient"/><radialGradient id="radial-gradient-3" cx="11811.41" cy="3120.25" r="87.04" xlink:href="#radial-gradient"/><radialGradient id="radial-gradient-4" cx="11928.32" cy="3093.55" r="52.66" xlink:href="#radial-gradient"/><radialGradient id="radial-gradient-5" cx="11715.12" cy="3073.53" r="41.21" xlink:href="#radial-gradient"/><radialGradient id="radial-gradient-6" cx="13640.17" cy="2541.19" r="70.6" xlink:href="#radial-gradient"/><radialGradient id="radial-gradient-7" cx="13736.46" cy="2561.21" r="48.67" xlink:href="#radial-gradient"/><radialGradient id="radial-gradient-8" cx="13571.4" cy="2587.91" r="28.03" xlink:href="#radial-gradient"/><radialGradient id="radial-gradient-9" cx="13695.3" cy="2497.64" r="27.93" xlink:href="#radial-gradient"/></defs><g id="Layer_227" data-name="Layer 227"><path d="M678.83,85.5c3.36,11.76-11.92,15-28,16a292.45,292.45,0,0,1-30,0h-504c-39.51,0-42-16.65-33-27,4.83-5.56,19-8,19-8l44.26.08,505.65.91h8.09s4,0,10.24,5.88A26.46,26.46,0,0,1,678.83,85.5Z"/></g><g id="Layer_226" data-name="Layer 226"><path d="M147.09,66.58V101.5l60.19.44V66.49Z"/></g><g id="Layer_225" data-name="Layer 225"><path d="M207.3,66.65v34.92l60.18.44V66.56Z"/></g><g id="Layer_224" data-name="Layer 224"><path d="M267.93,66.68V101.6l60.19.44V66.59Z"/></g><g id="Layer_223" data-name="Layer 223"><path d="M327.19,66V101l60.19.44V65.94Z"/></g><g id="Layer_222" data-name="Layer 222"><path d="M386.6,66.56v34.92l60.18.44V66.47Z"/></g><g id="Layer_221" data-name="Layer 221"><path d="M446.6,66.56v34.92l60.18.44V66.47Z"/></g><g id="Layer_220" data-name="Layer 220"><path d="M506.6,66.56v34.92l60.18.44V66.47Z"/></g><g id="Layer_219" data-name="Layer 219"><path d="M567.1,66.91v34.92l60.18.44V66.82Z"/></g><g id="Layer_218" data-name="Layer 218"><path d="M679.73,85.5c3.36,11.76-11.92,15-28,16a292.45,292.45,0,0,1-30,0h-504c-39.51,0-42-16.65-33-27,4.83-5.56,19-8,19-8l44.26.08,505.65.91h8.09s4,0,10.24,5.88A26.46,26.46,0,0,1,679.73,85.5Z"/></g><g id="Layer_217" data-name="Layer 217"><path class="cls-1" d="M149.18,66.58V101.5l52.45.44V66.49Z"/></g><g id="Layer_216" data-name="Layer 216"><path class="cls-1" d="M209.58,66.65v34.92L262,102V66.56Z"/></g><g id="Layer_215" data-name="Layer 215"><path class="cls-1" d="M270,65.68V100.6l52.46.44V65.59Z"/></g><g id="Layer_214" data-name="Layer 214"><path class="cls-1" d="M330.4,67V102l52.46.44V66.94Z"/></g><g id="Layer_213" data-name="Layer 213"><path class="cls-1" d="M390.81,66.56v34.92l52.46.44V66.47Z"/></g><g id="Layer_212" data-name="Layer 212"><path class="cls-1" d="M451.22,66.56v34.92l52.46.44V66.47Z"/></g><g id="Layer_211" data-name="Layer 211"><path d="M507.5,66.56v34.92l60.18.44V66.47Z"/></g><g id="Layer_210" data-name="Layer 210"><path d="M568,66.91v34.92l60.18.44V66.82Z"/></g><g id="Layer_209" data-name="Layer 209"><text class="cls-2" transform="translate(128.51 62.89)">Delight’o meter</text></g><g id="Layer_208" data-name="Layer 208"><text class="cls-2" transform="translate(691.9 90.5)">70%</text></g><g id="Layer_20" data-name="Layer 20"><path class="cls-1" d="M87.45,71.5c-3,1.65-7.7,10.46-7.17,12,.72,2.06.1,4,.9,6a14.38,14.38,0,0,0,5.38,6c9.85,6,21.5,6,21.5,6h33.16l-.89-35H100.89S89.24,70.5,87.45,71.5Z"/></g><g id="Layer_12" data-name="Layer 12"><path d="M679.72,86.5c1,3-.93,7.87-3,9-11,6-26,6-26,6h-22v-34h31l6,1,9,8S679,84.38,679.72,86.5Z"/></g><g class="cls-3"><ellipse class="cls-4" cx="223.47" cy="142.77" rx="12.66" ry="13.04"/></g><g class="cls-3"><ellipse class="cls-5" cx="240.47" cy="138.77" rx="7.66" ry="7.89"/></g><g class="cls-3"><ellipse class="cls-6" cx="362.13" cy="143.31" rx="12.66" ry="13.04"/></g><g class="cls-3"><ellipse class="cls-7" cx="379.13" cy="139.31" rx="7.66" ry="7.89"/></g><g class="cls-3"><ellipse class="cls-8" cx="348.13" cy="136.31" rx="5.99" ry="6.18"/></g><g class="cls-3"><ellipse class="cls-9" cx="628.05" cy="56.54" rx="10.27" ry="10.58"/></g><g class="cls-3"><ellipse class="cls-10" cx="642.05" cy="59.54" rx="7.08" ry="7.29"/></g><g class="cls-3"><ellipse class="cls-11" cx="618.05" cy="63.54" rx="4.08" ry="4.2"/></g><g class="cls-3"><ellipse class="cls-12" cx="636.06" cy="50.01" rx="4.06" ry="4.19"/></g></svg>