<svg id="Layer_2" data-name="Layer 2" xmlns="http://www.w3.org/2000/svg" xmlns:xlink="http://www.w3.org/1999/xlink" width="479.44" height="409.04" viewBox="0 0 479.44 409.04"><defs><style>.cls-1{fill:#ffd45c;}.cls-2{fill:none;}.cls-3{opacity:0.5;}.cls-4{fill:url(#radial-gradient);}.cls-5{fill:url(#radial-gradient-2);}.cls-6{fill:url(#radial-gradient-3);}.cls-7{fill:url(#radial-gradient-4);}.cls-8{fill:url(#radial-gradient-5);}.cls-9{fill:url(#radial-gradient-6);}.cls-10{fill:url(#radial-gradient-7);}.cls-11{fill:url(#radial-gradient-8);}</style><radialGradient id="radial-gradient" cx="2592.58" cy="1943.82" r="133.42" gradientTransform="translate(-29.48 -131.27) scale(0.15 0.15)" gradientUnits="userSpaceOnUse"><stop offset="0" stop-color="#fff" stop-opacity="0"/><stop offset="0.87" stop-color="#fff" stop-opacity="0.05"/><stop offset="1" stop-color="#fff"/></radialGradient><radialGradient id="radial-gradient-2" cx="2503.18" cy="2017.22" r="99.42" xlink:href="#radial-gradient"/><radialGradient id="radial-gradient-3" cx="1052.41" cy="1228.66" r="99.42" xlink:href="#radial-gradient"/><radialGradient id="radial-gradient-4" cx="1225.58" cy="1136.8" r="126.28" xlink:href="#radial-gradient"/><radialGradient id="radial-gradient-5" cx="1404.39" cy="1150.15" r="99.42" xlink:href="#radial-gradient"/><radialGradient id="radial-gradient-6" cx="2325.78" cy="2060.93" r="99.42" xlink:href="#radial-gradient"/><radialGradient id="radial-gradient-7" cx="695.56" cy="2389.3" r="99.42" xlink:href="#radial-gradient"/><radialGradient id="radial-gradient-8" cx="585.53" cy="2569.48" r="139.91" xlink:href="#radial-gradient"/></defs><g id="Layer_22" data-name="Layer 22"><g id="Layer_4" data-name="Layer 4"><path class="cls-1" d="M24,122.5s20,11,37,21,50,21,49,32-3,22-3,22l-17,21-12,26-11,51v38s1,30,40,39,93-2,93-2,53-3,54-3,62-11,62-11,69-34,92-90,31-112,31-112l-141,42-77,14s-35,4-10-41l25-45s9-35-22-53-36-15-36-15-30-5-53,13-32,29-32,29-8,14-27,19"/><ellipse class="cls-2" cx="284.48" cy="220.06" rx="19" ry="10"/><g class="cls-3"><ellipse class="cls-4" cx="347.5" cy="160.01" rx="19.4" ry="19.99"/></g><g class="cls-3"><ellipse class="cls-5" cx="334.5" cy="171.01" rx="14.46" ry="14.9"/></g></g></g><g id="Layer_21" data-name="Layer 21"><g id="Layer_12" data-name="Layer 12"><ellipse cx="124" cy="113.5" rx="10.5" ry="10"/></g></g><g id="Layer_19" data-name="Layer 19"><g id="Layer_10" data-name="Layer 10"><g class="cls-3"><ellipse class="cls-6" cx="123.54" cy="52.84" rx="14.46" ry="14.9"/></g><g class="cls-3"><ellipse class="cls-7" cx="148.73" cy="39.08" rx="18.36" ry="18.92"/></g><g class="cls-3"><ellipse class="cls-8" cx="174.73" cy="41.08" rx="14.46" ry="14.9"/></g><g class="cls-3"><ellipse class="cls-9" cx="308.7" cy="177.56" rx="14.46" ry="14.9"/></g><g class="cls-3"><ellipse class="cls-10" cx="71.66" cy="226.76" rx="14.46" ry="14.9"/></g><g class="cls-3"><ellipse class="cls-11" cx="55.66" cy="253.76" rx="20.34" ry="20.97"/></g></g></g></svg>