<svg xmlns="http://www.w3.org/2000/svg" width="1046.43" height="550.33" viewBox="0 0 1046.43 550.33"><defs><style>.cls-1,.cls-2{stroke:#000;stroke-miterlimit:10;}.cls-2,.cls-3{fill:silver;}.cls-4{fill:#fdd023;}</style></defs><g id="Layer_1" data-name="Layer 1"><g id="Layer_6" data-name="Layer 6"><path class="cls-1" d="M975.8,104.82c-3.68-18.36-13.72-29.85-25.89-37A145.72,145.72,0,0,0,935.43,55l-401-2s-69-11-74-11l-2,110,71-5s181.26,45.86,309.81,48.43C806.35,296.23,767.43,416.11,767.43,419c0,0-14-21,3,33,2.86,9.08,7.51,15.52,13.25,20l-.1,0L751.43,515s-122,25-179,23-40-40-40-40,4-11,20-50-26-78-26-78l-75-43V309c1-38-69-60-69-60l-40,80,22,11c41,28,76,5,76,5s38,7,76,41,18,60,18,60-31,51-13,89,232-9,237-9,47-33,47-33L810,480.73l-.66-.22C836.72,482,867.43,467,867.43,467s71-188,104.12-308.35c.69-2.54,1.3-5,1.86-7.41C982.86,135.34,981.61,119.21,975.8,104.82Z"/></g><g id="Layer_5" data-name="Layer 5"><polygon class="cls-2" points="534.43 53 529.43 147 539 149.31 544.43 53 534.43 53"/><ellipse class="cls-3" cx="899.93" cy="133.5" rx="74.5" ry="76.5"/><polygon class="cls-1" points="826.43 128 973.08 129.15 974.43 137 826.43 136 826.43 128"/><polygon class="cls-1" points="839.43 177 960.43 177 955.43 184 844.43 184 839.43 177"/><polygon class="cls-1" points="839.95 89 960.95 89 955.95 82 844.95 82 839.95 89"/><polygon class="cls-3" points="356.52 300.45 283.44 273 286.44 265 362.29 293.03 356.52 300.45"/><polygon class="cls-3" points="365.87 280.58 292.78 253.13 295.78 245.13 371.64 273.17 365.87 280.58"/></g><g id="Layer_3" data-name="Layer 3"><path class="cls-4" d="M171,358.53c5.4,1.87,79.72,9.75,79.72,9.75l-35.34-34.2,114.06,2.53-167-24.48,44.48,33.17-100.51,7Z"/><path class="cls-4" d="M349.16,171.7c-1-5.63-30-74.49-30-74.49L306.3,144.68,253.36,43.62l59.33,158,7.54-55,54.71,84.6Z"/><path class="cls-4" d="M220,211.61c-4.33-3.73-70.54-38.39-70.54-38.39L169.69,218,64.56,173.71l146.3,84.2L181.71,210.7l96,30.48Z"/></g></g></svg>