<svg id="Lag_1" data-name="Lag 1" xmlns="http://www.w3.org/2000/svg" xmlns:xlink="http://www.w3.org/1999/xlink" viewBox="0 0 1920 1080"><defs><style>.cls-1{opacity:0.5;}.cls-2{fill:url(#radial-gradient);}.cls-3{fill:url(#radial-gradient-2);}.cls-4{fill:url(#radial-gradient-3);}.cls-5{fill:url(#radial-gradient-4);}.cls-6{fill:url(#radial-gradient-5);}.cls-7{fill:url(#radial-gradient-6);}.cls-8{fill:url(#radial-gradient-7);}.cls-9{fill:url(#radial-gradient-8);}.cls-10{fill:url(#radial-gradient-9);}.cls-11{fill:url(#radial-gradient-10);}.cls-12{fill:url(#radial-gradient-11);}.cls-13{fill:url(#radial-gradient-12);}.cls-14{fill:url(#radial-gradient-13);}.cls-15{fill:url(#radial-gradient-14);}.cls-16{fill:url(#radial-gradient-15);}.cls-17{fill:url(#radial-gradient-16);}.cls-18{fill:url(#radial-gradient-17);}.cls-19{fill:url(#radial-gradient-18);}.cls-20{fill:url(#radial-gradient-19);}.cls-21{fill:url(#radial-gradient-20);}.cls-22{fill:url(#radial-gradient-21);}.cls-23{fill:url(#radial-gradient-22);}.cls-24{fill:url(#radial-gradient-23);}.cls-25{fill:url(#radial-gradient-24);}.cls-26{fill:url(#radial-gradient-25);}.cls-27{fill:url(#radial-gradient-26);}.cls-28{fill:url(#radial-gradient-27);}.cls-29{fill:url(#radial-gradient-28);}.cls-30{fill:url(#radial-gradient-29);}.cls-31{fill:url(#radial-gradient-30);}.cls-32{fill:url(#radial-gradient-31);}.cls-33{fill:url(#radial-gradient-32);}.cls-34{fill:url(#radial-gradient-33);}.cls-35{fill:url(#radial-gradient-34);}.cls-36{fill:url(#radial-gradient-35);}.cls-37{fill:url(#radial-gradient-36);}.cls-38{fill:url(#radial-gradient-37);}.cls-39{fill:url(#radial-gradient-38);}.cls-40{fill:url(#radial-gradient-39);}.cls-41{fill:url(#radial-gradient-40);}.cls-42{fill:url(#radial-gradient-41);}.cls-43{fill:url(#radial-gradient-42);}.cls-44{fill:url(#radial-gradient-43);}.cls-45{fill:url(#radial-gradient-44);}.cls-46{fill:url(#radial-gradient-45);}.cls-47{fill:url(#radial-gradient-46);}.cls-48{fill:url(#radial-gradient-47);}.cls-49{fill:url(#radial-gradient-48);}.cls-50{fill:url(#radial-gradient-49);}.cls-51{fill:url(#radial-gradient-50);}.cls-52{fill:url(#radial-gradient-51);}.cls-53{fill:url(#radial-gradient-52);}.cls-54{fill:url(#radial-gradient-53);}.cls-55{fill:url(#radial-gradient-54);}.cls-56{fill:url(#radial-gradient-55);}.cls-57{fill:url(#radial-gradient-56);}.cls-58{fill:url(#radial-gradient-57);}.cls-59{fill:url(#radial-gradient-58);}.cls-60{fill:url(#radial-gradient-59);}.cls-61{fill:url(#radial-gradient-60);}.cls-62{fill:url(#radial-gradient-61);}.cls-63{fill:url(#radial-gradient-62);}.cls-64{fill:url(#radial-gradient-63);}.cls-65{fill:url(#radial-gradient-64);}.cls-66{fill:url(#radial-gradient-65);}.cls-67{fill:url(#radial-gradient-66);}.cls-68{fill:url(#radial-gradient-67);}.cls-69{fill:url(#radial-gradient-68);}.cls-70{fill:url(#radial-gradient-69);}.cls-71{fill:url(#radial-gradient-70);}.cls-72{fill:url(#radial-gradient-71);}.cls-73{fill:url(#radial-gradient-72);}.cls-74{fill:url(#radial-gradient-73);}.cls-75{fill:url(#radial-gradient-74);}.cls-76{fill:url(#radial-gradient-75);}.cls-77{fill:url(#radial-gradient-76);}.cls-78{fill:url(#radial-gradient-77);}.cls-79{fill:url(#radial-gradient-78);}.cls-80{fill:url(#radial-gradient-79);}.cls-81{fill:#bfb39d;}.cls-82{fill:#877d6f;}.cls-83{fill:#939393;}.cls-84{fill:#85aeb4;}.cls-85{fill:#37949b;}.cls-86{fill:#8a7b78;}</style><radialGradient id="radial-gradient" cx="8177.77" cy="47.23" r="381" gradientTransform="translate(-1133.62 49.81) scale(0.15 0.15)" gradientUnits="userSpaceOnUse"><stop offset="0" stop-color="#fff" stop-opacity="0"/><stop offset="0.87" stop-color="#fff" stop-opacity="0.05"/><stop offset="1" stop-color="#fff"/></radialGradient><radialGradient id="radial-gradient-2" cx="8178.5" cy="666.83" r="381" xlink:href="#radial-gradient"/><radialGradient id="radial-gradient-3" cx="8178.5" cy="1427.59" r="381" xlink:href="#radial-gradient"/><radialGradient id="radial-gradient-4" cx="8178.5" cy="2034.86" r="381" xlink:href="#radial-gradient"/><radialGradient id="radial-gradient-5" cx="8178.5" cy="2688.85" r="381" xlink:href="#radial-gradient"/><radialGradient id="radial-gradient-6" cx="8178.13" cy="3399.64" r="381" xlink:href="#radial-gradient"/><radialGradient id="radial-gradient-7" cx="8178.87" cy="4019.24" r="381" xlink:href="#radial-gradient"/><radialGradient id="radial-gradient-8" cx="8178.87" cy="4780" r="381" xlink:href="#radial-gradient"/><radialGradient id="radial-gradient-9" cx="8178.87" cy="5387.27" r="381" xlink:href="#radial-gradient"/><radialGradient id="radial-gradient-10" cx="8178.87" cy="6041.26" r="381" xlink:href="#radial-gradient"/><radialGradient id="radial-gradient-11" cx="14243.65" cy="-1211.84" r="381" gradientTransform="matrix(0, -0.15, 0.15, 0, 326.24, 2128.32)" xlink:href="#radial-gradient"/><radialGradient id="radial-gradient-12" cx="14244.39" cy="-592.24" r="381" gradientTransform="matrix(0, -0.15, 0.15, 0, 326.24, 2128.32)" xlink:href="#radial-gradient"/><radialGradient id="radial-gradient-13" cx="14244.39" cy="168.52" r="381" gradientTransform="matrix(0, -0.15, 0.15, 0, 326.24, 2128.32)" xlink:href="#radial-gradient"/><radialGradient id="radial-gradient-14" cx="14244.39" cy="775.79" r="381" gradientTransform="matrix(0, -0.15, 0.15, 0, 326.24, 2128.32)" xlink:href="#radial-gradient"/><radialGradient id="radial-gradient-15" cx="14244.39" cy="1429.78" r="381" gradientTransform="matrix(0, -0.15, 0.15, 0, 326.24, 2128.32)" xlink:href="#radial-gradient"/><radialGradient id="radial-gradient-16" cx="14243.18" cy="1946.84" r="381" gradientTransform="matrix(0, -0.15, 0.15, 0, 326.24, 2128.32)" xlink:href="#radial-gradient"/><radialGradient id="radial-gradient-17" cx="14243.91" cy="2566.44" r="381" gradientTransform="matrix(0, -0.15, 0.15, 0, 326.24, 2128.32)" xlink:href="#radial-gradient"/><radialGradient id="radial-gradient-18" cx="14243.91" cy="3327.2" r="381" gradientTransform="matrix(0, -0.15, 0.15, 0, 326.24, 2128.32)" xlink:href="#radial-gradient"/><radialGradient id="radial-gradient-19" cx="14243.91" cy="3934.47" r="381" gradientTransform="matrix(0, -0.15, 0.15, 0, 326.24, 2128.32)" xlink:href="#radial-gradient"/><radialGradient id="radial-gradient-20" cx="14243.91" cy="4588.46" r="381" gradientTransform="matrix(0, -0.15, 0.15, 0, 326.24, 2128.32)" xlink:href="#radial-gradient"/><radialGradient id="radial-gradient-21" cx="14243.18" cy="5103.33" r="381" gradientTransform="matrix(0, -0.15, 0.15, 0, 326.24, 2128.32)" xlink:href="#radial-gradient"/><radialGradient id="radial-gradient-22" cx="14243.91" cy="5722.93" r="381" gradientTransform="matrix(0, -0.15, 0.15, 0, 326.24, 2128.32)" xlink:href="#radial-gradient"/><radialGradient id="radial-gradient-23" cx="14243.91" cy="6483.69" r="381" gradientTransform="matrix(0, -0.15, 0.15, 0, 326.24, 2128.32)" xlink:href="#radial-gradient"/><radialGradient id="radial-gradient-24" cx="14243.91" cy="7090.96" r="381" gradientTransform="matrix(0, -0.15, 0.15, 0, 326.24, 2128.32)" xlink:href="#radial-gradient"/><radialGradient id="radial-gradient-25" cx="14243.91" cy="7744.95" r="381" gradientTransform="matrix(0, -0.15, 0.15, 0, 326.24, 2128.32)" xlink:href="#radial-gradient"/><radialGradient id="radial-gradient-26" cx="14243.17" cy="7525.75" r="381" gradientTransform="matrix(0, -0.15, 0.15, 0, 326.24, 2128.32)" xlink:href="#radial-gradient"/><radialGradient id="radial-gradient-27" cx="14243.91" cy="8145.35" r="381" gradientTransform="matrix(0, -0.15, 0.15, 0, 326.24, 2128.32)" xlink:href="#radial-gradient"/><radialGradient id="radial-gradient-28" cx="14243.91" cy="8906.11" r="381" gradientTransform="matrix(0, -0.15, 0.15, 0, 326.24, 2128.32)" xlink:href="#radial-gradient"/><radialGradient id="radial-gradient-29" cx="14243.91" cy="9513.39" r="381" gradientTransform="matrix(0, -0.15, 0.15, 0, 326.24, 2128.32)" xlink:href="#radial-gradient"/><radialGradient id="radial-gradient-30" cx="14243.91" cy="10167.37" r="381" gradientTransform="matrix(0, -0.15, 0.15, 0, 326.24, 2128.32)" xlink:href="#radial-gradient"/><radialGradient id="radial-gradient-31" cx="20515.51" cy="502.82" r="381" xlink:href="#radial-gradient"/><radialGradient id="radial-gradient-32" cx="20516.24" cy="1122.42" r="381" xlink:href="#radial-gradient"/><radialGradient id="radial-gradient-33" cx="20516.24" cy="1883.19" r="381" xlink:href="#radial-gradient"/><radialGradient id="radial-gradient-34" cx="20516.24" cy="2490.46" r="381" xlink:href="#radial-gradient"/><radialGradient id="radial-gradient-35" cx="20516.24" cy="3144.45" r="381" xlink:href="#radial-gradient"/><radialGradient id="radial-gradient-36" cx="20515.88" cy="3855.23" r="381" xlink:href="#radial-gradient"/><radialGradient id="radial-gradient-37" cx="20516.61" cy="4474.84" r="381" xlink:href="#radial-gradient"/><radialGradient id="radial-gradient-38" cx="20516.61" cy="5235.6" r="381" xlink:href="#radial-gradient"/><radialGradient id="radial-gradient-39" cx="20516.61" cy="5842.87" r="381" xlink:href="#radial-gradient"/><radialGradient id="radial-gradient-40" cx="20516.61" cy="6496.86" r="381" xlink:href="#radial-gradient"/><radialGradient id="radial-gradient-41" cx="8198.85" cy="6496.17" r="381" xlink:href="#radial-gradient"/><radialGradient id="radial-gradient-42" cx="7597.66" cy="-1191.39" r="381" gradientTransform="matrix(0, -0.15, 0.15, 0, 326.24, 2128.32)" xlink:href="#radial-gradient"/><radialGradient id="radial-gradient-43" cx="7598.4" cy="-571.78" r="381" gradientTransform="matrix(0, -0.15, 0.15, 0, 326.24, 2128.32)" xlink:href="#radial-gradient"/><radialGradient id="radial-gradient-44" cx="7598.4" cy="188.98" r="381" gradientTransform="matrix(0, -0.15, 0.15, 0, 326.24, 2128.32)" xlink:href="#radial-gradient"/><radialGradient id="radial-gradient-45" cx="7598.4" cy="796.25" r="381" gradientTransform="matrix(0, -0.15, 0.15, 0, 326.24, 2128.32)" xlink:href="#radial-gradient"/><radialGradient id="radial-gradient-46" cx="7598.4" cy="1450.24" r="381" gradientTransform="matrix(0, -0.15, 0.15, 0, 326.24, 2128.32)" xlink:href="#radial-gradient"/><radialGradient id="radial-gradient-47" cx="7597.19" cy="1967.29" r="381" gradientTransform="matrix(0, -0.15, 0.15, 0, 326.24, 2128.32)" xlink:href="#radial-gradient"/><radialGradient id="radial-gradient-48" cx="7597.93" cy="2586.9" r="381" gradientTransform="matrix(0, -0.15, 0.15, 0, 326.24, 2128.32)" xlink:href="#radial-gradient"/><radialGradient id="radial-gradient-49" cx="7597.93" cy="3347.66" r="381" gradientTransform="matrix(0, -0.15, 0.15, 0, 326.24, 2128.32)" xlink:href="#radial-gradient"/><radialGradient id="radial-gradient-50" cx="7597.93" cy="3954.93" r="381" gradientTransform="matrix(0, -0.15, 0.15, 0, 326.24, 2128.32)" xlink:href="#radial-gradient"/><radialGradient id="radial-gradient-51" cx="7597.93" cy="4608.92" r="381" gradientTransform="matrix(0, -0.15, 0.15, 0, 326.24, 2128.32)" xlink:href="#radial-gradient"/><radialGradient id="radial-gradient-52" cx="7597.19" cy="5123.78" r="381" gradientTransform="matrix(0, -0.15, 0.15, 0, 326.24, 2128.32)" xlink:href="#radial-gradient"/><radialGradient id="radial-gradient-53" cx="7597.92" cy="5743.39" r="381" gradientTransform="matrix(0, -0.15, 0.15, 0, 326.24, 2128.32)" xlink:href="#radial-gradient"/><radialGradient id="radial-gradient-54" cx="7597.92" cy="6504.15" r="381" gradientTransform="matrix(0, -0.15, 0.15, 0, 326.24, 2128.32)" xlink:href="#radial-gradient"/><radialGradient id="radial-gradient-55" cx="7597.92" cy="7111.42" r="381" gradientTransform="matrix(0, -0.15, 0.15, 0, 326.24, 2128.32)" xlink:href="#radial-gradient"/><radialGradient id="radial-gradient-56" cx="7597.92" cy="7765.41" r="381" gradientTransform="matrix(0, -0.15, 0.15, 0, 326.24, 2128.32)" xlink:href="#radial-gradient"/><radialGradient id="radial-gradient-57" cx="7597.19" cy="7546.21" r="381" gradientTransform="matrix(0, -0.15, 0.15, 0, 326.24, 2128.32)" xlink:href="#radial-gradient"/><radialGradient id="radial-gradient-58" cx="7597.92" cy="8165.81" r="381" gradientTransform="matrix(0, -0.15, 0.15, 0, 326.24, 2128.32)" xlink:href="#radial-gradient"/><radialGradient id="radial-gradient-59" cx="7597.92" cy="8926.57" r="381" gradientTransform="matrix(0, -0.15, 0.15, 0, 326.24, 2128.32)" xlink:href="#radial-gradient"/><radialGradient id="radial-gradient-60" cx="7597.92" cy="9533.84" r="381" gradientTransform="matrix(0, -0.15, 0.15, 0, 326.24, 2128.32)" xlink:href="#radial-gradient"/><radialGradient id="radial-gradient-61" cx="7597.92" cy="10187.83" r="381" gradientTransform="matrix(0, -0.15, 0.15, 0, 326.24, 2128.32)" xlink:href="#radial-gradient"/><radialGradient id="radial-gradient-62" cx="8632.19" cy="543.55" r="161.17" xlink:href="#radial-gradient"/><radialGradient id="radial-gradient-63" cx="8633.45" cy="820.27" r="161.17" xlink:href="#radial-gradient"/><radialGradient id="radial-gradient-64" cx="8475.27" cy="1047.16" r="161.17" xlink:href="#radial-gradient"/><radialGradient id="radial-gradient-65" cx="8648.31" cy="6071.27" r="161.17" xlink:href="#radial-gradient"/><radialGradient id="radial-gradient-66" cx="8897.99" cy="6128.63" r="161.17" xlink:href="#radial-gradient"/><radialGradient id="radial-gradient-67" cx="8561" cy="5781.61" r="161.17" xlink:href="#radial-gradient"/><radialGradient id="radial-gradient-68" cx="9159.32" cy="6202.03" r="161.17" xlink:href="#radial-gradient"/><radialGradient id="radial-gradient-69" cx="8753.57" cy="5908.41" r="108.57" xlink:href="#radial-gradient"/><radialGradient id="radial-gradient-70" cx="20002.53" cy="502.75" r="161.17" xlink:href="#radial-gradient"/><radialGradient id="radial-gradient-71" cx="20123.38" cy="760.36" r="161.17" xlink:href="#radial-gradient"/><radialGradient id="radial-gradient-72" cx="19531.93" cy="420.02" r="161.17" xlink:href="#radial-gradient"/><radialGradient id="radial-gradient-73" cx="20075.23" cy="1047.31" r="161.17" xlink:href="#radial-gradient"/><radialGradient id="radial-gradient-74" cx="19772.64" cy="420.02" r="161.17" xlink:href="#radial-gradient"/><radialGradient id="radial-gradient-75" cx="20134.03" cy="6173.1" r="161.17" xlink:href="#radial-gradient"/><radialGradient id="radial-gradient-76" cx="20072.14" cy="5952.88" r="161.17" xlink:href="#radial-gradient"/><radialGradient id="radial-gradient-77" cx="19838.31" cy="6012.94" r="161.17" xlink:href="#radial-gradient"/><radialGradient id="radial-gradient-78" cx="19528.84" cy="6126.38" r="161.17" xlink:href="#radial-gradient"/><radialGradient id="radial-gradient-79" cx="20120.28" cy="5679.27" r="161.17" xlink:href="#radial-gradient"/></defs><g id="instructions"><rect y="-1" width="1920" height="1080"/><g class="cls-1"><ellipse class="cls-2" cx="55.49" cy="56.89" rx="55.4" ry="57.09"/></g><g class="cls-1"><ellipse class="cls-3" cx="55.6" cy="149.73" rx="55.4" ry="57.09"/></g><g class="cls-1"><ellipse class="cls-4" cx="55.6" cy="263.73" rx="55.4" ry="57.09"/></g><g class="cls-1"><ellipse class="cls-5" cx="55.6" cy="354.73" rx="55.4" ry="57.09"/></g><g class="cls-1"><ellipse class="cls-6" cx="55.6" cy="452.73" rx="55.4" ry="57.09"/></g><g class="cls-1"><ellipse class="cls-7" cx="55.54" cy="559.24" rx="55.4" ry="57.09"/></g><g class="cls-1"><ellipse class="cls-8" cx="55.65" cy="652.09" rx="55.4" ry="57.09"/></g><g class="cls-1"><ellipse class="cls-9" cx="55.65" cy="766.09" rx="55.4" ry="57.09"/></g><g class="cls-1"><ellipse class="cls-10" cx="55.65" cy="857.09" rx="55.4" ry="57.09"/></g><g class="cls-1"><ellipse class="cls-11" cx="55.65" cy="955.09" rx="55.4" ry="57.09"/></g><g class="cls-1"><ellipse class="cls-12" cx="144.64" cy="57.19" rx="57.09" ry="55.4"/></g><g class="cls-1"><ellipse class="cls-13" cx="237.49" cy="57.08" rx="57.09" ry="55.4"/></g><g class="cls-1"><ellipse class="cls-14" cx="351.49" cy="57.08" rx="57.09" ry="55.4"/></g><g class="cls-1"><ellipse class="cls-15" cx="442.49" cy="57.08" rx="57.09" ry="55.4"/></g><g class="cls-1"><ellipse class="cls-16" cx="540.49" cy="57.08" rx="57.09" ry="55.4"/></g><g class="cls-1"><ellipse class="cls-17" cx="617.97" cy="57.26" rx="57.09" ry="55.4"/></g><g class="cls-1"><ellipse class="cls-18" cx="710.82" cy="57.15" rx="57.09" ry="55.4"/></g><g class="cls-1"><ellipse class="cls-19" cx="824.82" cy="57.15" rx="57.09" ry="55.4"/></g><g class="cls-1"><ellipse class="cls-20" cx="915.82" cy="57.15" rx="57.09" ry="55.4"/></g><g class="cls-1"><ellipse class="cls-21" cx="1013.82" cy="57.15" rx="57.09" ry="55.4"/></g><g class="cls-1"><ellipse class="cls-22" cx="1090.97" cy="57.26" rx="57.09" ry="55.4"/></g><g class="cls-1"><ellipse class="cls-23" cx="1183.82" cy="57.15" rx="57.09" ry="55.4"/></g><g class="cls-1"><ellipse class="cls-24" cx="1297.82" cy="57.15" rx="57.09" ry="55.4"/></g><g class="cls-1"><ellipse class="cls-25" cx="1388.82" cy="57.15" rx="57.09" ry="55.4"/></g><g class="cls-1"><ellipse class="cls-26" cx="1486.82" cy="57.15" rx="57.09" ry="55.4"/></g><g class="cls-1"><ellipse class="cls-27" cx="1453.97" cy="57.26" rx="57.09" ry="55.4"/></g><g class="cls-1"><ellipse class="cls-28" cx="1546.82" cy="57.15" rx="57.09" ry="55.4"/></g><g class="cls-1"><ellipse class="cls-29" cx="1660.82" cy="57.15" rx="57.09" ry="55.4"/></g><g class="cls-1"><ellipse class="cls-30" cx="1751.82" cy="57.15" rx="57.09" ry="55.4"/></g><g class="cls-1"><ellipse class="cls-31" cx="1849.82" cy="57.15" rx="57.09" ry="55.4"/></g><g class="cls-1"><ellipse class="cls-32" cx="1849.48" cy="125.16" rx="55.4" ry="57.09"/></g><g class="cls-1"><ellipse class="cls-33" cx="1849.59" cy="218" rx="55.4" ry="57.09"/></g><g class="cls-1"><ellipse class="cls-34" cx="1849.59" cy="332" rx="55.4" ry="57.09"/></g><g class="cls-1"><ellipse class="cls-35" cx="1849.59" cy="423" rx="55.4" ry="57.09"/></g><g class="cls-1"><ellipse class="cls-36" cx="1849.59" cy="521" rx="55.4" ry="57.09"/></g><g class="cls-1"><ellipse class="cls-37" cx="1849.54" cy="627.52" rx="55.4" ry="57.09"/></g><g class="cls-1"><ellipse class="cls-38" cx="1849.65" cy="720.36" rx="55.4" ry="57.09"/></g><g class="cls-1"><ellipse class="cls-39" cx="1849.65" cy="834.36" rx="55.4" ry="57.09"/></g><g class="cls-1"><ellipse class="cls-40" cx="1849.65" cy="925.36" rx="55.4" ry="57.09"/></g><g class="cls-1"><ellipse class="cls-41" cx="1849.65" cy="1023.36" rx="55.4" ry="57.09"/></g><g class="cls-1"><ellipse class="cls-42" cx="58.55" cy="1023.26" rx="55.4" ry="57.09"/></g><g class="cls-1"><ellipse class="cls-43" cx="147.71" cy="1023.56" rx="57.09" ry="55.4"/></g><g class="cls-1"><ellipse class="cls-44" cx="240.55" cy="1023.46" rx="57.09" ry="55.4"/></g><g class="cls-1"><ellipse class="cls-45" cx="354.55" cy="1023.46" rx="57.09" ry="55.4"/></g><g class="cls-1"><ellipse class="cls-46" cx="445.55" cy="1023.46" rx="57.09" ry="55.4"/></g><g class="cls-1"><ellipse class="cls-47" cx="543.55" cy="1023.46" rx="57.09" ry="55.4"/></g><g class="cls-1"><ellipse class="cls-48" cx="621.04" cy="1023.63" rx="57.09" ry="55.4"/></g><g class="cls-1"><ellipse class="cls-49" cx="713.88" cy="1023.53" rx="57.09" ry="55.4"/></g><g class="cls-1"><ellipse class="cls-50" cx="827.88" cy="1023.53" rx="57.09" ry="55.4"/></g><g class="cls-1"><ellipse class="cls-51" cx="918.88" cy="1023.53" rx="57.09" ry="55.4"/></g><g class="cls-1"><ellipse class="cls-52" cx="1016.88" cy="1023.53" rx="57.09" ry="55.4"/></g><g class="cls-1"><ellipse class="cls-53" cx="1094.04" cy="1023.63" rx="57.09" ry="55.4"/></g><g class="cls-1"><ellipse class="cls-54" cx="1186.88" cy="1023.53" rx="57.09" ry="55.4"/></g><g class="cls-1"><ellipse class="cls-55" cx="1300.88" cy="1023.53" rx="57.09" ry="55.4"/></g><g class="cls-1"><ellipse class="cls-56" cx="1391.88" cy="1023.53" rx="57.09" ry="55.4"/></g><g class="cls-1"><ellipse class="cls-57" cx="1489.88" cy="1023.53" rx="57.09" ry="55.4"/></g><g class="cls-1"><ellipse class="cls-58" cx="1457.04" cy="1023.63" rx="57.09" ry="55.4"/></g><g class="cls-1"><ellipse class="cls-59" cx="1549.88" cy="1023.53" rx="57.09" ry="55.4"/></g><g class="cls-1"><ellipse class="cls-60" cx="1663.88" cy="1023.53" rx="57.09" ry="55.4"/></g><g class="cls-1"><ellipse class="cls-61" cx="1754.88" cy="1023.53" rx="57.09" ry="55.4"/></g><g class="cls-1"><ellipse class="cls-62" cx="1852.88" cy="1023.53" rx="57.09" ry="55.4"/></g><g class="cls-1"><ellipse class="cls-63" cx="121.56" cy="131.26" rx="23.44" ry="24.15"/></g><g class="cls-1"><ellipse class="cls-64" cx="121.75" cy="172.73" rx="23.44" ry="24.15"/></g><g class="cls-1"><ellipse class="cls-65" cx="98.75" cy="206.73" rx="23.44" ry="24.15"/></g><g class="cls-1"><ellipse class="cls-66" cx="123.91" cy="959.59" rx="23.44" ry="24.15"/></g><g class="cls-1"><ellipse class="cls-67" cx="160.21" cy="968.18" rx="23.44" ry="24.15"/></g><g class="cls-1"><ellipse class="cls-68" cx="111.21" cy="916.18" rx="23.44" ry="24.15"/></g><g class="cls-1"><ellipse class="cls-69" cx="198.21" cy="979.18" rx="23.44" ry="24.15"/></g><g class="cls-1"><ellipse class="cls-70" cx="139.21" cy="935.18" rx="15.79" ry="16.27"/></g><g class="cls-1"><ellipse class="cls-71" cx="1774.89" cy="125.15" rx="23.44" ry="24.15"/></g><g class="cls-1"><ellipse class="cls-72" cx="1792.47" cy="163.75" rx="23.44" ry="24.15"/></g><g class="cls-1"><ellipse class="cls-73" cx="1706.47" cy="112.75" rx="23.44" ry="24.15"/></g><g class="cls-1"><ellipse class="cls-74" cx="1785.47" cy="206.75" rx="23.44" ry="24.15"/></g><g class="cls-1"><ellipse class="cls-75" cx="1741.47" cy="112.75" rx="23.44" ry="24.15"/></g><g class="cls-1"><ellipse class="cls-76" cx="1794.02" cy="974.85" rx="23.44" ry="24.15"/></g><g class="cls-1"><ellipse class="cls-77" cx="1785.02" cy="941.85" rx="23.44" ry="24.15"/></g><g class="cls-1"><ellipse class="cls-78" cx="1751.02" cy="950.85" rx="23.44" ry="24.15"/></g><g class="cls-1"><ellipse class="cls-79" cx="1706.02" cy="967.85" rx="23.44" ry="24.15"/></g><g class="cls-1"><ellipse class="cls-80" cx="1792.02" cy="900.85" rx="23.44" ry="24.15"/></g><ellipse class="cls-81" cx="901.55" cy="503.65" rx="104.09" ry="78.96"/><ellipse cx="863.42" cy="483.27" rx="2.57" ry="2.55"/><path d="M855.49,479.12s6.6-2.46,9.85-1.08,4,2.76,4,2.76Z"/><ellipse cx="932.82" cy="484.8" rx="2.57" ry="2.55"/><path d="M940.74,480.65s-6.59-2.46-9.84-1.09-4,2.77-4,2.77Z"/><path class="cls-82" d="M896.63,482.25s-5.13,9.74,0,12.38l5.13,2.65Z"/><path class="cls-83" d="M801,483.27s-28.56-41-15.71-49.16,18-4.58,18-4.58l9.85,3.56s-6.85-25,4.28-30.56,15-3.06,15-3.06l6,4.59s1.29-18.34,9.43-22.42,16.7-11.71,25.7-2.55l9,9.17s8.14-25.47,22.28-25S924,367.38,924,367.38a11.22,11.22,0,0,1,6.21,8.19l1.07,6.07s20.56-21.39,32.12-11.21,9,16.31,9,16.31l.24,8.57s20.32-8.06,29.32.6,8.18,18.27,8.18,18.27l-6,12.8s12.42.51,15.42,11.72c1.68,6.27-1.61,11.39-.43,17.32.93,4.66-17.33,26.31-17.33,26.31s-7.76-20.75-22.2-30.92S958,436.17,947,432.59s-33.66-8.67-45.44-7.9-35.89,1.77-56.18,12.47-29.61,21.76-29.61,21.76a60.21,60.21,0,0,0-9.34,12.63A121.18,121.18,0,0,0,801,483.27Z"/><path d="M883.56,515.87c1.71.51,7.15,8.14,14.5,5.85a47.62,47.62,0,0,0,12.34-5.85v-2.55s-6.12,5.23-9.41,5.67-11.23.1-12.83-1.25A11.57,11.57,0,0,0,883.56,515.87Z"/><path d="M956.61,459.35S939.93,449,936.47,448.92s-4.56.86-4.56.86Z"/><path d="M837.61,459.64s16.69-10.31,20.14-10.43,4.57.86,4.57.86Z"/><path class="cls-84" d="M845.14,570S831,602.37,827.5,627.5c-1,6.83,1.42,28.06,2,30,8.15,27.27,26,50.48,26,50.48V815.15l106.74-3.84V707.43S991.5,665.5,986.5,621.5s-24.27-53.69-24.27-53.69-31.64,17.91-60.68,14.8S857.78,577.55,845.14,570Z"/><polygon class="cls-85" points="855.5 815.15 872 883 913.9 883 913.9 813.05 855.5 815.15"/><polygon class="cls-85" points="962.23 811.3 952.37 883 913.9 883 913.9 813.05 962.23 811.3"/><path class="cls-86" d="M872,883s-21,34-11,52c5,9,21,1.25,33-14s19.9-38,19.9-38Z"/><path class="cls-86" d="M954.4,883s21,34,11,52c-5,9-21,1.25-33-14s-19.9-38-19.9-38Z"/></g></svg>