<svg id="Layer_1" data-name="Layer 1" xmlns="http://www.w3.org/2000/svg" xmlns:xlink="http://www.w3.org/1999/xlink" width="450" height="600.1" viewBox="0 0 450 600.1"><defs><style>.cls-1{fill:url(#radial-gradient);}.cls-2{fill:url(#radial-gradient-2);}</style><radialGradient id="radial-gradient" cx="227" cy="306.9" r="146" gradientUnits="userSpaceOnUse"><stop offset="0" stop-color="#fff"/><stop offset="1"/></radialGradient><radialGradient id="radial-gradient-2" cx="218.5" cy="300.4" r="104.75" gradientUnits="userSpaceOnUse"><stop offset="0" stop-color="#fff"/><stop offset="0"/></radialGradient></defs><path d="M212,199h25.15S234,222,253,243s42,37,46,61-5,32-5,32-4,0-5-17-11-25-24-38-19-3-19-3v97s8,25-27.5,26S166,396,156,376c-7.81-15.62,5-21,5-21s7-8,25-5l18,3,11,3-2-80s-1-32-1-44Z"/><path class="cls-1" d="M227,160.9A146,146,0,1,0,305.87,184,146,146,0,0,0,227,160.9Zm0,277a131,131,0,1,1,131-131A131,131,0,0,1,227,437.9Z"/><path class="cls-2" d="M127,413.9l178-230,5,3-176,230Z"/></svg>