<svg xmlns="http://www.w3.org/2000/svg" xmlns:xlink="http://www.w3.org/1999/xlink" width="538" height="413" viewBox="0 0 538 413"><defs><style>.cls-1{fill:#d1d1da;}.cls-1,.cls-2{stroke:#000;stroke-miterlimit:10;}.cls-2{fill:#fffdd0;}.cls-3{opacity:0.5;}.cls-4{fill:url(#radial-gradient);}.cls-5{fill:url(#radial-gradient-2);}.cls-6{fill:url(#radial-gradient-3);}.cls-7{fill:url(#radial-gradient-4);}.cls-8{fill:url(#radial-gradient-5);}.cls-9{fill:url(#radial-gradient-6);}.cls-10{fill:url(#radial-gradient-7);}.cls-11{fill:url(#radial-gradient-8);}.cls-12{fill:url(#radial-gradient-9);}.cls-13{fill:url(#radial-gradient-10);}</style><radialGradient id="radial-gradient" cx="802.94" cy="1629.42" r="171.28" gradientTransform="translate(13.25 -201.84) scale(0.15 0.15)" gradientUnits="userSpaceOnUse"><stop offset="0" stop-color="#fff" stop-opacity="0"/><stop offset="0.87" stop-color="#fff" stop-opacity="0.05"/><stop offset="1" stop-color="#fff"/></radialGradient><radialGradient id="radial-gradient-2" cx="1010.36" cy="1679.72" r="95.18" xlink:href="#radial-gradient"/><radialGradient id="radial-gradient-3" cx="515.2" cy="1586.29" r="171.28" xlink:href="#radial-gradient"/><radialGradient id="radial-gradient-4" cx="343.32" cy="3570.16" r="115.76" xlink:href="#radial-gradient"/><radialGradient id="radial-gradient-5" cx="508.38" cy="3603.53" r="88.25" xlink:href="#radial-gradient"/><radialGradient id="radial-gradient-6" cx="508.38" cy="3590.18" r="40.11" xlink:href="#radial-gradient"/><radialGradient id="radial-gradient-7" cx="659.68" cy="3643.57" r="88.25" xlink:href="#radial-gradient"/><radialGradient id="radial-gradient-8" cx="2722.38" cy="3538.32" r="171.28" xlink:href="#radial-gradient"/><radialGradient id="radial-gradient-9" cx="2983.71" cy="3478.26" r="110.9" xlink:href="#radial-gradient"/><radialGradient id="radial-gradient-10" cx="2529.81" cy="3478.26" r="123.11" xlink:href="#radial-gradient"/></defs><g id="Layer_3" data-name="Layer 3"><rect class="cls-1" x="-0.5" y="-0.5" width="538" height="416"/></g><g id="Layer_1" data-name="Layer 1"><g id="Layer_16" data-name="Layer 16"><path class="cls-2" d="M489,198c-4-1-1,4-2,6-6-4-12-9-13-17-2,10-3,19-2,29-4-10-9-19-12-29-2,3,2,7-2,10a48.75,48.75,0,0,1-3-7c0,1-1,3-1,4-1-3-6-4-6-8-1,8-4,14-5,22a63.56,63.56,0,0,1-6-18c-2,3-1,8-3,8-3,0-3-6-6-8,0,2,0,6-2,6-5,1-5-5-7-9-9,6-5,17-9,25-4-6-5-14-7-21,0,3-1,5-2,8-3-2-6-3-7-7-2,2-2,4-4,6-1-2-4-2-5-4-4,3-3,8-5,12-4-3-8-8-9-13-1,4-3,6-4,10-3-4-6-8-8-13-1,4-2,9-3,13-5-2-2-8-7-10,0,2-2,5-1,7a38.05,38.05,0,0,1-9-13c-2,6-4,11-5,17-6-5-9-13-12-20-5,9-5,20-9,29-3-7-5-15-7-23-2,4-4,9-4,14-3-3-3-7-4-11a3.67,3.67,0,0,1-1,3c1-3-3-4-3-6-3,7-6,15-7,23-5-6-6-14-8-22,0,4-4,6-3,10-5-2-5-7-7-11-4,6-3,13-5,19a27.92,27.92,0,0,1-6-18c-2,6-4,11-4,17-6-5-5-13-9-18a113.64,113.64,0,0,0-6,25c-5-8-8-17-12-26,0,7-4,12-6,18-5-6-5-14-10-20-2,7-5,13-7,20-6-3-5-10-8-15-4,3-4,10-7,11-5,1-6-7-10-11-4,5-5,15-10,16-9,2-9-11-15-17-4,5-5,14-9,15-9,1-8-13-14-19-4,6-3,14-9,19-2-5-5-9-7-14-2,6-3,13-8,15-6,3-10-9-14-15-4,6-6,14-10,20-6-5-8-14-13-20-3,5-6,13-10,14-3.18.53-5.51-1.74-7.45-4.89.4,11.76-.2,29.32-4,53.39-8,50,7,73,31,89s118,3,189-13,99-12,184-12,71-41,65-54c-4.3-9.33-13.76-47-18.75-67.48-.28,3.39-.13,6.88-.75,10C493,205,492,199,489,198Z"/><path class="cls-2" d="M492.5,86.5c-8-36-49-42-49-42l-64-23c-25.45-9.14-68.44-5.33-111,2.59-8.62,1.6-17.22,3.38-25.65,5.24C188.17,41.43,140.5,57.5,140.5,57.5l-41-8s-12-6-48,22-1,82-1,82,1.61,5.94,2,18.61c1.94,3.15,4.27,5.42,7.45,4.89,4-1,7-9,10-14,5,6,7,15,13,20,4-6,6-14,10-20,4,6,8,18,14,15,5-2,6-9,8-15,2,5,5,9,7,14,6-5,5-13,9-19,6,6,5,20,14,19,4-1,5-10,9-15,6,6,6,19,15,17,5-1,6-11,10-16,4,4,5,12,10,11,3-1,3-8,7-11,3,5,2,12,8,15,2-7,5-13,7-20,5,6,5,14,10,20,2-6,6-11,6-18,4,9,7,18,12,26a113.64,113.64,0,0,1,6-25c4,5,3,13,9,18,0-6,2-11,4-17a27.92,27.92,0,0,0,6,18c2-6,1-13,5-19,2,4,2,9,7,11-1-4,3-6,3-10,2,8,3,16,8,22,1-8,4-16,7-23,0,2,4,3,3,6a3.67,3.67,0,0,0,1-3c1,4,1,8,4,11,0-5,2-10,4-14,2,8,4,16,7,23,4-9,4-20,9-29,3,7,6,15,12,20,1-6,3-11,5-17a38.05,38.05,0,0,0,9,13c-1-2,1-5,1-7,5,2,2,8,7,10,1-4,2-9,3-13,2,5,5,9,8,13,1-4,3-6,4-10,1,5,5,10,9,13,2-4,1-9,5-12,1,2,4,2,5,4,2-2,2-4,4-6,1,4,4,5,7,7,1-3,2-5,2-8,2,7,3,15,7,21,4-8,0-19,9-25,2,4,2,10,7,9,2,0,2-4,2-6,3,2,3,8,6,8,2,0,1-5,3-8a63.56,63.56,0,0,0,6,18c1-8,4-14,5-22,0,4,5,5,6,8,0-1,1-3,1-4a48.75,48.75,0,0,0,3,7c4-3,0-7,2-10,3,10,8,19,12,29-1-10,0-19,2-29,1,8,7,13,13,17,1-2-2-7,2-6,3,1,4,7,9,9,.62-3.1.47-6.59.75-10-2-8.09-3.25-13.52-3.25-13.52A204.14,204.14,0,0,0,492.5,86.5Z"/><path d="M227.62,110.72l-.28.81a5.81,5.81,0,0,1-1.46.22c-.42,0-1,0-1.69-.11s-1.2-.11-1.59-.11a24.79,24.79,0,0,0-2.56.19l.23-.7a3.21,3.21,0,0,0,1.61-.71A13.24,13.24,0,0,0,223,107a19.34,19.34,0,0,0,.76-3.81,10.72,10.72,0,0,0-.71-3.76,9.5,9.5,0,0,0-1.78-3.12,12.54,12.54,0,0,0-2.87,1.39,5.11,5.11,0,0,0-1.4,1.6,3.47,3.47,0,0,0-.52,1.65,1.81,1.81,0,0,0,.62,1.3,1.42,1.42,0,0,1,.54.91.84.84,0,0,1-.21.59.68.68,0,0,1-.53.23,1.12,1.12,0,0,1-.94-.54,3.07,3.07,0,0,1-.52-1.81,5.26,5.26,0,0,1,.84-2.85,7,7,0,0,1,2.37-2.25,13.87,13.87,0,0,1,2.93-1.13q.75-.22,1.35-.45a10.92,10.92,0,0,1,1.85,3.24,18.38,18.38,0,0,1,1,4.63,25.73,25.73,0,0,1,4.84-7.51c1.53-1.44,2.78-2.17,3.74-2.17a1.08,1.08,0,0,1,.74.26.86.86,0,0,1,.29.65.76.76,0,0,1-.34.64,2.71,2.71,0,0,1-1.31.31,3.36,3.36,0,0,0-1.47.39,10.64,10.64,0,0,0-2.42,2.32,26.55,26.55,0,0,0-2.74,4.25,23.47,23.47,0,0,0-2.06,5.3,23.73,23.73,0,0,0-.76,3.59,7.88,7.88,0,0,0,1.27.11A8.82,8.82,0,0,0,227.62,110.72Z"/><path d="M240.68,95.17a6,6,0,0,1,3.11.8A5.41,5.41,0,0,1,246,98.25a7.43,7.43,0,0,1,.76,3.45,10.57,10.57,0,0,1-1.38,5.1,10.14,10.14,0,0,1-3.38,3.81,8,8,0,0,1-4.43,1.29,6.1,6.1,0,0,1-4.53-1.75,6.29,6.29,0,0,1-1.73-4.61,11,11,0,0,1,1.38-5.28A10,10,0,0,1,236,96.44,8.49,8.49,0,0,1,240.68,95.17Zm-1,1a4.9,4.9,0,0,0-2.91.94,6.64,6.64,0,0,0-2.19,2.93,11.74,11.74,0,0,0-.84,4.61,7.23,7.23,0,0,0,1.32,4.65,4.11,4.11,0,0,0,3.31,1.64,4.63,4.63,0,0,0,2.8-1,6.87,6.87,0,0,0,2.17-3,12.61,12.61,0,0,0,.86-4.8,6.63,6.63,0,0,0-1.31-4.37A4,4,0,0,0,239.68,96.15Z"/><path d="M257.88,95.19a39.86,39.86,0,0,0-2.72,6.2,13.8,13.8,0,0,0-.94,4.45,4.61,4.61,0,0,0,1,3.11,3.05,3.05,0,0,0,2.41,1.1,5.11,5.11,0,0,0,2.58-.68,9.59,9.59,0,0,0,2.95-2.75,15.92,15.92,0,0,0,2.23-4.42,15.36,15.36,0,0,0,.86-4.82,6.81,6.81,0,0,0-.67-2.95c-.24-.48-.37-.76-.4-.85a1.36,1.36,0,0,1-.05-.41.91.91,0,0,1,.25-.67.85.85,0,0,1,.62-.26,1.12,1.12,0,0,1,1,.68,5.94,5.94,0,0,1,.54,2.89,20.26,20.26,0,0,1-1.84,8.32,14.37,14.37,0,0,1-4.23,5.92,8.31,8.31,0,0,1-5,1.78,4,4,0,0,1-3.3-1.43,5.4,5.4,0,0,1-1.15-3.52,12.32,12.32,0,0,1,.54-3.53,55.78,55.78,0,0,1,2.88-7.06,8.9,8.9,0,0,0-3.06.41,4.39,4.39,0,0,0-1.95,1.17,2.18,2.18,0,0,0-.6,1.4,1.65,1.65,0,0,0,.32.78,1.9,1.9,0,0,1,.33.87.93.93,0,0,1-.25.66.82.82,0,0,1-.61.26,1,1,0,0,1-.79-.41,1.65,1.65,0,0,1-.34-1.07,4.13,4.13,0,0,1,.62-2.1,5,5,0,0,1,1.59-1.7,6.92,6.92,0,0,1,2.42-.94,25.47,25.47,0,0,1,2.95-.28A16.75,16.75,0,0,0,257.88,95.19Z"/><path d="M273.4,111.76l.16-.74a5.34,5.34,0,0,0,1.92-.62,3,3,0,0,0,.88-1.27,28.29,28.29,0,0,0,1.06-3.75A35.2,35.2,0,0,1,279,100a9,9,0,0,1,2.76-3.69,5.63,5.63,0,0,1,3.33-1.2,2.91,2.91,0,0,1,1.81.55,1.46,1.46,0,0,1,.74,1.13.76.76,0,0,1-.22.56.7.7,0,0,1-.54.23,1.61,1.61,0,0,1-1-.53,5.69,5.69,0,0,0-1-.75,1.47,1.47,0,0,0-1.48,0,4,4,0,0,0-1.14,1.14,12.15,12.15,0,0,0-1.26,2.5,37,37,0,0,0-1.08,3.69,53.17,53.17,0,0,1-1.57,5.43,5.36,5.36,0,0,1-.93,1.58,15.73,15.73,0,0,1,3.12-.42,9.31,9.31,0,0,1,1.34.09c.41.06,1.13.2,2.15.44a9.55,9.55,0,0,0,1.86.32,1.27,1.27,0,0,0,.88-.33,1,1,0,0,0,.36-.73,2,2,0,0,0-.19-.73,2,2,0,0,1-.18-.7A.75.75,0,0,1,287,108a.79.79,0,0,1,.57-.22.87.87,0,0,1,.7.37,1.56,1.56,0,0,1,.29,1,2.65,2.65,0,0,1-1,2,3.9,3.9,0,0,1-2.66.86c-.56,0-1.27,0-2.15-.12q-4.42-.41-5.8-.4A24.79,24.79,0,0,0,273.4,111.76Z"/><path d="M300.59,95.17a6,6,0,0,1,3.11.8,5.41,5.41,0,0,1,2.16,2.28,7.43,7.43,0,0,1,.76,3.45,10.57,10.57,0,0,1-1.38,5.1,10.14,10.14,0,0,1-3.38,3.81,8,8,0,0,1-4.43,1.29,6.1,6.1,0,0,1-4.53-1.75,6.29,6.29,0,0,1-1.73-4.61,11,11,0,0,1,1.38-5.28,10,10,0,0,1,3.39-3.82A8.49,8.49,0,0,1,300.59,95.17Zm-1,1a4.9,4.9,0,0,0-2.91.94A6.55,6.55,0,0,0,294.5,100a11.56,11.56,0,0,0-.85,4.61,7.23,7.23,0,0,0,1.32,4.65,4.11,4.11,0,0,0,3.31,1.64,4.63,4.63,0,0,0,2.8-1,6.87,6.87,0,0,0,2.17-3,12.61,12.61,0,0,0,.86-4.8,6.63,6.63,0,0,0-1.31-4.37A4,4,0,0,0,299.59,96.15Z"/><path d="M319.17,100.43h-.71c.1-1,.15-1.68.15-2.17a2.39,2.39,0,0,0-.56-1.67,2,2,0,0,0-1.54-.6,3.66,3.66,0,0,0-2.62,1.08,3.37,3.37,0,0,0-1.12,2.45,2.84,2.84,0,0,0,.31,1.31,8.16,8.16,0,0,0,1.36,1.64,15.54,15.54,0,0,1,2.52,3,4.22,4.22,0,0,1,.6,2.08,5.12,5.12,0,0,1-.91,2.87,6.83,6.83,0,0,1-2.68,2.28,8.14,8.14,0,0,1-3.74.89,5.22,5.22,0,0,1-3.27-1,2.77,2.77,0,0,1-1.34-2.13,1.49,1.49,0,0,1,.35-1,1.06,1.06,0,0,1,.8-.39,1,1,0,0,1,.77.36,2.77,2.77,0,0,1,.38,1,3.84,3.84,0,0,0,.53,1.35,2.43,2.43,0,0,0,.87.68,2.72,2.72,0,0,0,1.21.27,4.94,4.94,0,0,0,3.42-1.32,3.9,3.9,0,0,0,1.46-2.93,3.4,3.4,0,0,0-.18-1.08,4.84,4.84,0,0,0-.68-1.23,17.21,17.21,0,0,0-1.52-1.64,17.07,17.07,0,0,1-1.46-1.57,5.18,5.18,0,0,1-.63-1.24,4.17,4.17,0,0,1-.2-1.24,4.52,4.52,0,0,1,.83-2.5,6.25,6.25,0,0,1,2.17-2,6.07,6.07,0,0,1,3-.74,10.1,10.1,0,0,1,2.09.26c.47.09.88.15,1.23.2a14.38,14.38,0,0,0-.47,1.68Q319.46,98.09,319.17,100.43Z"/><path d="M331.53,110.75l-.19.78a7.4,7.4,0,0,1-1.54.21c-.39,0-1,0-1.9-.13-.67,0-1.27-.08-1.8-.08a16.11,16.11,0,0,0-2.81.25l.19-.76a4.39,4.39,0,0,0,2-.57,2.41,2.41,0,0,0,.77-1.07c.22-.51.7-2.27,1.46-5.3l1.75-7.25.09-.34c-.53,0-.94,0-1.21,0a11.81,11.81,0,0,0-4,.55,4.47,4.47,0,0,0-2.22,1.59,3.75,3.75,0,0,0-.75,2.24,1.94,1.94,0,0,0,.15.78,3.59,3.59,0,0,0,.6.8,1.47,1.47,0,0,1,.47.93.81.81,0,0,1-.28.63.92.92,0,0,1-.65.26,1,1,0,0,1-.93-.55,3.67,3.67,0,0,1-.52-2.05,5.82,5.82,0,0,1,1-3.24A6.76,6.76,0,0,1,324.07,96a10,10,0,0,1,4.39-.86,35.09,35.09,0,0,1,3.92.35,23.49,23.49,0,0,0,2.78.25,2,2,0,0,0,1.21-.29.92.92,0,0,0,.36-.76c0-.07,0-.2,0-.39a2.17,2.17,0,0,1,0-.34.84.84,0,0,1,.24-.61.79.79,0,0,1,.59-.25.88.88,0,0,1,.68.3,1.21,1.21,0,0,1,.26.81,2.16,2.16,0,0,1-1.1,1.79,6.85,6.85,0,0,1-3.7.75c-.62,0-1.28,0-2-.08-.1.33-.38,1.44-.87,3.33l-1.19,4.73-.73,2.89-.75,3.29a11.86,11.86,0,0,0,1.52.11A8.09,8.09,0,0,0,331.53,110.75Z"/><path d="M337.17,108.56a1.15,1.15,0,0,1,.89.41,1.48,1.48,0,0,1,.36,1,2.12,2.12,0,0,1-.42,1.39,1.33,1.33,0,0,1-1.07.51,1.19,1.19,0,0,1-.89-.38,1.34,1.34,0,0,1-.37-1,2.36,2.36,0,0,1,.51-1.51A1.18,1.18,0,0,1,337.17,108.56Zm.73-1.55h-.79q.88-6.53,1.27-11a.6.6,0,0,1,.12-.37,2.06,2.06,0,0,1,.78-.34A6.39,6.39,0,0,1,340.6,95a.24.24,0,0,1,.28.28,1.46,1.46,0,0,1-.11.51c-.11.34-.52,1.83-1.2,4.45Z"/><path d="M217.39,262.69h-.74c0-.71.07-1.28.07-1.71a3.62,3.62,0,0,0-.8-2.68,2.8,2.8,0,0,0-2-.76,5.64,5.64,0,0,0-3.37,1.32,10.32,10.32,0,0,0-3,4.11,13.87,13.87,0,0,0-1.26,5.75,7.05,7.05,0,0,0,1.17,4.38,3.56,3.56,0,0,0,2.93,1.53q2.4,0,4.39-2.87a.55.55,0,0,1,.42-.29.44.44,0,0,1,.3.11.35.35,0,0,1,.13.27c0,.25-.31.73-.91,1.45a7.5,7.5,0,0,1-2.29,1.8,5.86,5.86,0,0,1-2.72.72,5.63,5.63,0,0,1-5.14-3.24,8.35,8.35,0,0,1-.77-3.71,13.68,13.68,0,0,1,5.48-10.54,8.1,8.1,0,0,1,4.6-1.61,7.83,7.83,0,0,1,1.6.17c.22.06,1.16.37,2.81.95A17.29,17.29,0,0,0,217.39,262.69Z"/><path d="M223.72,269.84l.46.49a13.18,13.18,0,0,1-2.52,2.2,4.65,4.65,0,0,1-2.4,1,.91.91,0,0,1-.7-.32,1.34,1.34,0,0,1-.27-.88,24.25,24.25,0,0,1,.85-4.54l1.47-6a26.42,26.42,0,0,1,1.35-4.37,6.37,6.37,0,0,1,5.67-3.52,1.37,1.37,0,0,1,.92.28.84.84,0,0,1,.34.68.91.91,0,0,1-.33.72,1.42,1.42,0,0,1-.95.29,7.08,7.08,0,0,1-1.16-.14,7.76,7.76,0,0,0-1.21-.11,1.35,1.35,0,0,0-.85.23,3,3,0,0,0-.71,1.37c-.22.7-.56,2.08-1.05,4.14l-1.36,5.73c-.67,2.87-1,4.37-1,4.5,0,.29.1.44.31.44a2,2,0,0,0,.88-.36A13.82,13.82,0,0,0,223.72,269.84Z"/><path d="M225.18,264.81l-.6-.46a10.4,10.4,0,0,1,2.49-2.14,4,4,0,0,1,1.92-.64,1,1,0,0,1,.67.19.65.65,0,0,1,.23.52,24.44,24.44,0,0,1-.88,3.36,33.23,33.23,0,0,0-1.45,5.86.51.51,0,0,0,.1.32.27.27,0,0,0,.2.13c.29,0,1-.57,2.24-1.7l.54.52A17.46,17.46,0,0,1,227.9,273a3,3,0,0,1-1.41.49,1,1,0,0,1-.75-.3,1.17,1.17,0,0,1-.28-.84c0-1.13.68-3.92,2-8.35a2.09,2.09,0,0,0,.09-.56q0-.27-.24-.27a1.2,1.2,0,0,0-.63.22A13.67,13.67,0,0,0,225.18,264.81Zm5.37-9.05a.91.91,0,0,1,.7.28,1,1,0,0,1,.28.72,1.53,1.53,0,0,1-.42,1.06,1.27,1.27,0,0,1-.94.46.91.91,0,0,1-.68-.29,1.05,1.05,0,0,1-.28-.75,1.53,1.53,0,0,1,.4-1.05A1.24,1.24,0,0,1,230.55,255.76Z"/><path d="M239,270.17l.29.79q-3.25,2.57-5.5,2.56a1.89,1.89,0,0,1-1.73-.85,3.91,3.91,0,0,1-.54-2.14,9.92,9.92,0,0,1,1.15-4.45,9.74,9.74,0,0,1,2.79-3.5,4.77,4.77,0,0,1,2.9-.94,2.62,2.62,0,0,1,1.53.38,1.13,1.13,0,0,1,.52.93.93.93,0,0,1-.27.69,1,1,0,0,1-.77.27,2.66,2.66,0,0,1-1.23-.44,2.68,2.68,0,0,0-1.3-.46,2,2,0,0,0-1.33.6,5.94,5.94,0,0,0-1.26,2.36,10.46,10.46,0,0,0-.61,3.51,3.38,3.38,0,0,0,.51,2,1.18,1.18,0,0,0,1,.55A6.43,6.43,0,0,0,239,270.17Z"/><path d="M243.09,273.14h-2l1.8-7.45q1.29-5.55,1.7-6.83a8.13,8.13,0,0,1,1-2.13,6.65,6.65,0,0,1,1.42-1.49,6.39,6.39,0,0,1,1.85-1,5.15,5.15,0,0,1,1.74-.35,1.72,1.72,0,0,1,1.06.27.87.87,0,0,1,.35.72.84.84,0,0,1-.32.66,1.17,1.17,0,0,1-.79.27,11.62,11.62,0,0,1-1.82-.2,3,3,0,0,0-.69-.08,1.27,1.27,0,0,0-.8.3,2.54,2.54,0,0,0-.67,1.08,27.34,27.34,0,0,0-.83,3.21l-1,4.36a10.83,10.83,0,0,1,2.72-2.29,4.14,4.14,0,0,1,2-.61,1.5,1.5,0,0,1,1.16.52,1.84,1.84,0,0,1,.47,1.29,3.26,3.26,0,0,1-1.52,2.61,7.93,7.93,0,0,1-4.63,1.23,6.55,6.55,0,0,1,1.68,1,7,7,0,0,1,1.24,1.53,25.64,25.64,0,0,1,1.56,3.28,11,11,0,0,0,2.11,3.64,3,3,0,0,0,2.1.91,1.91,1.91,0,0,0,1.11-.3c.29-.19.44-.39.44-.59a1.5,1.5,0,0,0-.14-.52,1.63,1.63,0,0,1-.15-.6.86.86,0,0,1,.82-.81.83.83,0,0,1,.66.31,1.17,1.17,0,0,1,.27.81,2.25,2.25,0,0,1-.9,1.75,3.52,3.52,0,0,1-2.35.77,4.79,4.79,0,0,1-2.67-.76,7.41,7.41,0,0,1-2.2-2.4,45.62,45.62,0,0,1-2.05-4.37,13.55,13.55,0,0,0-1.23-2.42,6,6,0,0,0-1.16-1.25Zm1.46-6.48a9.39,9.39,0,0,0,3-.36,3.3,3.3,0,0,0,1.62-1,2.09,2.09,0,0,0,.49-1.34,1.25,1.25,0,0,0-.28-.84.87.87,0,0,0-.68-.31q-1.28,0-3.93,2.86Z"/><path d="M270.42,270.24l.36.5a12.12,12.12,0,0,1-2.59,2.22,3.08,3.08,0,0,1-1.49.56.94.94,0,0,1-.77-.38,1.93,1.93,0,0,1-.29-1.19,8.19,8.19,0,0,1,.22-1.6c.15-.69.58-2.19,1.28-4.49a14.2,14.2,0,0,0,.47-2c0-.29-.16-.44-.47-.44a2.78,2.78,0,0,0-1.44.58,8.65,8.65,0,0,0-2.14,2,6.41,6.41,0,0,0-.95,2.33l-1.07,4.78h-2c.44-1.6.77-2.9,1-3.91l2-8.77a10.88,10.88,0,0,1,1.44-3.74,6.64,6.64,0,0,1,2.34-2.09,6,6,0,0,1,2.85-.78,1.36,1.36,0,0,1,.93.29.91.91,0,0,1,.34.73.85.85,0,0,1-.33.66,1.38,1.38,0,0,1-.91.28,6,6,0,0,1-.85-.07,14.5,14.5,0,0,0-1.63-.17,1.26,1.26,0,0,0-1,.51,7.15,7.15,0,0,0-.82,2.39l-1.52,6.74a17.87,17.87,0,0,1,3.54-2.88,3.79,3.79,0,0,1,1.81-.69,1.09,1.09,0,0,1,.83.31,1.22,1.22,0,0,1,.3.88,3.69,3.69,0,0,1-.11.93c-.12.54-.39,1.51-.83,2.92-.6,1.95-.95,3.17-1.05,3.64a5.65,5.65,0,0,0-.16,1.27.57.57,0,0,0,.08.33.25.25,0,0,0,.22.11q.33,0,1.23-.78Z"/><path d="M278.93,269.71l.45.6c-2.24,2.12-4.15,3.18-5.75,3.18a1.79,1.79,0,0,1-1.48-.65,3.46,3.46,0,0,1-.51-2.11,11,11,0,0,1,1.78-5.82q2-3.3,4.77-3.3a2.05,2.05,0,0,1,1.48.49,1.73,1.73,0,0,1,.51,1.33,3,3,0,0,1-.61,1.75,7.27,7.27,0,0,1-2.2,1.79c-.53.3-1.66.84-3.39,1.63a7.79,7.79,0,0,0-.13,1.41,2.27,2.27,0,0,0,.31,1.35,1.1,1.1,0,0,0,.9.38,2.93,2.93,0,0,0,1.23-.31A17.75,17.75,0,0,0,278.93,269.71Zm-4.79-2a10.56,10.56,0,0,0,3.31-2.12,2.3,2.3,0,0,0,.75-1.57,1.37,1.37,0,0,0-.31-.94,1,1,0,0,0-.8-.34,1.54,1.54,0,0,0-1,.38,3.8,3.8,0,0,0-1.08,1.53A13.52,13.52,0,0,0,274.14,267.72Z"/><path d="M283.81,273.14h-2l1-3.68c.46-1.81.87-3.52,1.21-5.14a4.68,4.68,0,0,0,.13-.75q0-.33-.3-.33a1.31,1.31,0,0,0-.63.28,12,12,0,0,0-1.53,1.39l-.43-.48a10.51,10.51,0,0,1,2.62-2.11,4.79,4.79,0,0,1,2-.71.61.61,0,0,1,.39.12.33.33,0,0,1,.14.29,6.21,6.21,0,0,1-.18,1l-.59,2.46a17.21,17.21,0,0,1,3.12-3.73,2.35,2.35,0,0,1,1.4-.74,1,1,0,0,1,.69.26.86.86,0,0,1,.27.62.83.83,0,0,1-.27.63,4,4,0,0,1-1.33.62,6,6,0,0,0-1.65.82,7.93,7.93,0,0,0-1.39,1.46,8.12,8.12,0,0,0-1.06,1.72,28.7,28.7,0,0,0-.92,3.39Z"/><path d="M296.84,269.71l.45.6c-2.24,2.12-4.15,3.18-5.75,3.18a1.79,1.79,0,0,1-1.48-.65,3.46,3.46,0,0,1-.51-2.11,11,11,0,0,1,1.78-5.82q2-3.3,4.77-3.3a2.05,2.05,0,0,1,1.48.49,1.73,1.73,0,0,1,.51,1.33,3,3,0,0,1-.61,1.75,7.27,7.27,0,0,1-2.2,1.79c-.53.3-1.66.84-3.39,1.63a7.79,7.79,0,0,0-.13,1.41,2.27,2.27,0,0,0,.31,1.35,1.1,1.1,0,0,0,.9.38,2.93,2.93,0,0,0,1.23-.31A17.75,17.75,0,0,0,296.84,269.71Zm-4.79-2a10.56,10.56,0,0,0,3.31-2.12,2.3,2.3,0,0,0,.75-1.57,1.37,1.37,0,0,0-.31-.94,1,1,0,0,0-.8-.34,1.54,1.54,0,0,0-1,.38,3.8,3.8,0,0,0-1.08,1.53A13.52,13.52,0,0,0,292.05,267.72Z"/><path d="M309.17,259.53l2.17-.83-1,3.83h2.83l-.22,1h-2.83l-1.2,4.58a12.77,12.77,0,0,0-.56,2.87.76.76,0,0,0,.15.53.58.58,0,0,0,.43.17,3,3,0,0,0,1.3-.51,16.45,16.45,0,0,0,2.19-1.52l.52.63a32.79,32.79,0,0,1-4,2.76,3.86,3.86,0,0,1-1.62.51,1,1,0,0,1-.8-.37,1.92,1.92,0,0,1-.3-1.2,13.87,13.87,0,0,1,.52-3l1.39-5.44h-2.21l.24-1h2.22Z"/><path d="M321.08,261.64a2.74,2.74,0,0,1,2.22,1.07,4.45,4.45,0,0,1,.89,3,8,8,0,0,1-2.13,5.45,6.07,6.07,0,0,1-4.51,2.41,3.1,3.1,0,0,1-2.36-.95,3.67,3.67,0,0,1-.9-2.62,9.25,9.25,0,0,1,1.65-5.3A6.08,6.08,0,0,1,321.08,261.64Zm-1.17,1c-.77,0-1.52.56-2.24,1.67a8.23,8.23,0,0,0-1.09,4.58,5,5,0,0,0,.67,2.8,1.49,1.49,0,0,0,1.31.76,2.6,2.6,0,0,0,2.09-1.43,8.22,8.22,0,0,0,1.21-4.58,5.7,5.7,0,0,0-.56-2.92A1.63,1.63,0,0,0,319.91,262.66Z"/><path d="M335.47,259.53l2.17-.83-1,3.83h2.83l-.22,1h-2.83l-1.19,4.58a13,13,0,0,0-.57,2.87.72.72,0,0,0,.16.53.55.55,0,0,0,.43.17,3.08,3.08,0,0,0,1.3-.51,17,17,0,0,0,2.18-1.52l.52.63a33,33,0,0,1-4,2.76,3.94,3.94,0,0,1-1.63.51,1,1,0,0,1-.8-.37,1.93,1.93,0,0,1-.29-1.2,13.27,13.27,0,0,1,.52-3l1.39-5.44h-2.22l.25-1h2.22Z"/><path d="M343.13,273.14h-2l1-3.68q.69-2.71,1.22-5.14a5.53,5.53,0,0,0,.12-.75q0-.33-.3-.33a1.31,1.31,0,0,0-.63.28,13.62,13.62,0,0,0-1.53,1.39l-.43-.48a10.51,10.51,0,0,1,2.62-2.11,4.79,4.79,0,0,1,2-.71.57.57,0,0,1,.39.12.34.34,0,0,1,.15.29,6.21,6.21,0,0,1-.18,1l-.6,2.46A17.5,17.5,0,0,1,348,261.7a2.35,2.35,0,0,1,1.4-.74.94.94,0,0,1,.69.26.86.86,0,0,1,.27.62.83.83,0,0,1-.27.63,3.88,3.88,0,0,1-1.33.62,5.83,5.83,0,0,0-1.64.82,7.62,7.62,0,0,0-1.4,1.46,8.12,8.12,0,0,0-1.06,1.72,29.43,29.43,0,0,0-.91,3.39Z"/><path d="M349,264.43l-.43-.64,1-.69a18.16,18.16,0,0,1,2.08-1.3,1.39,1.39,0,0,1,.62-.16.7.7,0,0,1,.55.33,12.68,12.68,0,0,1,2,4.09,16.32,16.32,0,0,1,.82,5c0,.21,0,.53,0,1q2.31-4.26,2.31-6.76a5.76,5.76,0,0,0-.23-1.38,6.14,6.14,0,0,1-.25-1.37.92.92,0,0,1,.25-.66.87.87,0,0,1,.64-.26,1,1,0,0,1,.77.37,1.65,1.65,0,0,1,.29,1.06,15.42,15.42,0,0,1-.8,4.39,28.49,28.49,0,0,1-2.54,5.66,22.49,22.49,0,0,1-3.16,4.5,10.05,10.05,0,0,1-2.76,2.11,5.92,5.92,0,0,1-2.52.63,2.31,2.31,0,0,1-1.36-.33,1,1,0,0,1-.46-.8.89.89,0,0,1,.36-.71,1.46,1.46,0,0,1,.95-.29,6.3,6.3,0,0,1,1.28.18,7.29,7.29,0,0,0,1.17.19,3,3,0,0,0,1.76-.7,7.42,7.42,0,0,0,2-2.28,5.39,5.39,0,0,0,.75-2.68,23,23,0,0,0-.56-4.56,10.87,10.87,0,0,0-1.56-4.07,1.39,1.39,0,0,0-1.08-.72A3.83,3.83,0,0,0,349,264.43Z"/><path d="M212.79,295l.91-.2-1,3.46c-.41,1.38-.8,3-1.16,4.76a12.81,12.81,0,0,0-.3,1.89c0,.28.11.42.34.42a1.54,1.54,0,0,0,.7-.29,8.86,8.86,0,0,0,1.63-1.25l.43.53c-1,.95-1.7,1.52-2,1.72a7.6,7.6,0,0,1-1.67.89,2.9,2.9,0,0,1-1,.19.77.77,0,0,1-.54-.16.61.61,0,0,1-.17-.48,1.8,1.8,0,0,1,.11-.56l.54-1.86a11.47,11.47,0,0,1-2.8,2.42,3.52,3.52,0,0,1-1.83.63,1.44,1.44,0,0,1-1.22-.56,3.18,3.18,0,0,1-.57-2,8.12,8.12,0,0,1,.77-3.23,11.66,11.66,0,0,1,2.07-3.22,9,9,0,0,1,2.73-2.14,6.85,6.85,0,0,1,2.85-.52,6.77,6.77,0,0,1,.89.06Zm-1.69,2.09a6.44,6.44,0,0,0-1.24-.15,3.53,3.53,0,0,0-2.15.67,6.13,6.13,0,0,0-1.7,2.44,8.43,8.43,0,0,0-.79,3.5,2.22,2.22,0,0,0,.32,1.34,1,1,0,0,0,.82.41,3.07,3.07,0,0,0,2-1,6,6,0,0,0,1.58-2.94Z"/><path d="M224.43,295.14l1.1-.24q-1,3.19-1.82,6.41c-.4,1.53-.68,2.81-.84,3.83a14.09,14.09,0,0,0-.13,1.94,10.68,10.68,0,0,1-.44,3.17,5.21,5.21,0,0,1-2.14,2.71,6.63,6.63,0,0,1-3.71,1,4.47,4.47,0,0,1-2.91-.87,2.51,2.51,0,0,1-1.06-2,3,3,0,0,1,.85-2.06,9.5,9.5,0,0,1,2.63-1.75c.68-.35,1.31-.72,1.91-1.09a4,4,0,0,1-1.58.52,1.14,1.14,0,0,1-.9-.48A1.89,1.89,0,0,1,215,305a9.64,9.64,0,0,1,1.49-5,10.45,10.45,0,0,1,3.61-3.73,6.3,6.3,0,0,1,3.25-.76l1,0Zm-3.38,9.48a43.27,43.27,0,0,1-3.59,2.66,14.27,14.27,0,0,0-2.87,2.29,2.42,2.42,0,0,0-.54,1.5,1.84,1.84,0,0,0,.69,1.4,2.43,2.43,0,0,0,1.68.62,3.91,3.91,0,0,0,1.81-.45,4.59,4.59,0,0,0,1.53-1.33,5.24,5.24,0,0,0,.9-2,14.6,14.6,0,0,0,.26-2.9C220.92,306.19,221,305.57,221.05,304.62Zm1.86-7.45a5.86,5.86,0,0,0-1.16-.13,3.63,3.63,0,0,0-2.23.69,5.2,5.2,0,0,0-1.59,2.29,10.79,10.79,0,0,0-.91,3.85,1.68,1.68,0,0,0,.36,1.08,1,1,0,0,0,.81.43,2.65,2.65,0,0,0,1.36-.52,4.45,4.45,0,0,0,1.31-1.32,10.47,10.47,0,0,0,1-2.74Z"/><path d="M235.75,295l.9-.2-1,3.46c-.41,1.38-.8,3-1.17,4.76a12.81,12.81,0,0,0-.3,1.89c0,.28.12.42.35.42a1.56,1.56,0,0,0,.69-.29,8.53,8.53,0,0,0,1.63-1.25l.44.53c-1,.95-1.71,1.52-2,1.72a7.38,7.38,0,0,1-1.67.89,2.82,2.82,0,0,1-1,.19.75.75,0,0,1-.53-.16.62.62,0,0,1-.18-.48,2.16,2.16,0,0,1,.11-.56l.55-1.86a11.52,11.52,0,0,1-2.81,2.42,3.47,3.47,0,0,1-1.83.63,1.43,1.43,0,0,1-1.21-.56,3.12,3.12,0,0,1-.58-2,8.3,8.3,0,0,1,.77-3.23,11.93,11.93,0,0,1,2.08-3.22,8.73,8.73,0,0,1,2.73-2.14,7.64,7.64,0,0,1,3.73-.46Zm-1.7,2.09a6.36,6.36,0,0,0-1.24-.15,3.53,3.53,0,0,0-2.15.67,6.23,6.23,0,0,0-1.7,2.44,8.57,8.57,0,0,0-.78,3.5,2.22,2.22,0,0,0,.31,1.34,1,1,0,0,0,.82.41,3.05,3.05,0,0,0,2-1,6.09,6.09,0,0,0,1.59-2.94Z"/><path d="M238.62,298.41,238,298a10.4,10.4,0,0,1,2.49-2.14,4,4,0,0,1,1.92-.64,1,1,0,0,1,.67.19.65.65,0,0,1,.23.52,24.44,24.44,0,0,1-.88,3.36A33.23,33.23,0,0,0,241,305.1a.51.51,0,0,0,.1.32.27.27,0,0,0,.2.13c.29,0,1-.57,2.24-1.7l.54.52a17.46,17.46,0,0,1-2.74,2.26,3,3,0,0,1-1.41.49,1,1,0,0,1-.76-.3,1.21,1.21,0,0,1-.28-.84c0-1.13.69-3.92,2.06-8.35a2.09,2.09,0,0,0,.09-.56c0-.18-.08-.27-.25-.27a1.2,1.2,0,0,0-.62.22A13.67,13.67,0,0,0,238.62,298.41Zm5.37-9.05a.91.91,0,0,1,.7.28,1,1,0,0,1,.27.72,1.52,1.52,0,0,1-.41,1.06,1.27,1.27,0,0,1-.94.46.91.91,0,0,1-.68-.29,1.05,1.05,0,0,1-.28-.75,1.53,1.53,0,0,1,.4-1A1.22,1.22,0,0,1,244,289.36Z"/><path d="M245.31,298.45l-.47-.48a14.31,14.31,0,0,1,2.79-2.22,4,4,0,0,1,1.78-.55.75.75,0,0,1,.45.12.36.36,0,0,1,.17.29,3,3,0,0,1-.07.43l-.62,2.76a16.91,16.91,0,0,1,3.5-2.89,3.7,3.7,0,0,1,1.84-.7,1.08,1.08,0,0,1,.83.34,1.46,1.46,0,0,1,.3,1,4.33,4.33,0,0,1-.12.95q-.23.9-1.14,3.87a15.83,15.83,0,0,0-.88,3.71.77.77,0,0,0,.09.42.25.25,0,0,0,.23.14,2.45,2.45,0,0,0,1.24-.77c.4-.36.8-.7,1.21-1l.34.49a12.67,12.67,0,0,1-2.61,2.24,2.91,2.91,0,0,1-1.43.54,1,1,0,0,1-.8-.38,2,2,0,0,1-.29-1.22,30.15,30.15,0,0,1,1.52-6.06,14,14,0,0,0,.46-2c0-.28-.17-.42-.5-.42a2.76,2.76,0,0,0-1.41.57,8.77,8.77,0,0,0-2.15,2,6.57,6.57,0,0,0-.91,2.36l-1.11,4.78h-2c.38-1.37.72-2.68,1-3.93l1.22-5.21a2.77,2.77,0,0,0,.06-.45c0-.24-.09-.37-.27-.37a1.36,1.36,0,0,0-.63.29A8.84,8.84,0,0,0,245.31,298.45Z"/></g><g id="Layer_13" data-name="Layer 13"><g class="cls-3"><ellipse class="cls-4" cx="130" cy="42.33" rx="24.91" ry="25.67"/></g></g><g id="Layer_12" data-name="Layer 12"><g class="cls-3"><ellipse class="cls-5" cx="160.16" cy="49.87" rx="13.84" ry="14.26"/></g></g><g id="Layer_11" data-name="Layer 11"><g class="cls-3"><ellipse class="cls-6" cx="88.16" cy="35.87" rx="24.91" ry="25.67"/></g></g><g id="Layer_10" data-name="Layer 10"><g class="cls-3"><ellipse class="cls-7" cx="63.17" cy="333.15" rx="16.83" ry="17.35"/></g></g><g id="Layer_9" data-name="Layer 9"><g class="cls-3"><ellipse class="cls-8" cx="87.17" cy="338.15" rx="12.83" ry="13.22"/></g></g><g id="Layer_8" data-name="Layer 8"><g class="cls-3"><ellipse class="cls-9" cx="87.17" cy="336.15" rx="5.83" ry="6.01"/></g></g><g id="Layer_7" data-name="Layer 7"><g class="cls-3"><ellipse class="cls-10" cx="109.17" cy="344.15" rx="12.83" ry="13.22"/></g></g><g id="Layer_6" data-name="Layer 6"><g class="cls-3"><ellipse class="cls-11" cx="409.1" cy="328.38" rx="24.91" ry="25.67"/></g></g><g id="Layer_5" data-name="Layer 5"><g class="cls-3"><ellipse class="cls-12" cx="447.1" cy="319.38" rx="16.13" ry="16.62"/></g></g><g id="Layer_4" data-name="Layer 4"><g class="cls-3"><ellipse class="cls-13" cx="381.1" cy="319.38" rx="17.9" ry="18.45"/></g></g></g></svg>