<svg xmlns="http://www.w3.org/2000/svg" xmlns:xlink="http://www.w3.org/1999/xlink" width="494.66" height="509.3" viewBox="0 0 494.66 509.3"><defs><style>.cls-1{fill:#e6e6e6;}.cls-1,.cls-2{stroke:#fff;stroke-miterlimit:10;}.cls-2{fill:#fff;}.cls-3{fill:#0e18d8;}.cls-4{fill:#070c6c;}.cls-5{fill:#6e74e8;}.cls-6{fill:gray;}.cls-7{opacity:0.5;}.cls-8{fill:url(#radial-gradient);}.cls-9{fill:url(#radial-gradient-2);}.cls-10{fill:url(#radial-gradient-3);}.cls-11{fill:url(#radial-gradient-4);}.cls-12{fill:url(#radial-gradient-5);}.cls-13{fill:url(#radial-gradient-6);}.cls-14{fill:url(#radial-gradient-7);}.cls-15{fill:url(#radial-gradient-8);}</style><radialGradient id="radial-gradient" cx="1579.17" cy="2877.01" r="120.64" gradientTransform="translate(150.84 -154.27) scale(0.15 0.15)" gradientUnits="userSpaceOnUse"><stop offset="0" stop-color="#fff" stop-opacity="0"/><stop offset="0.87" stop-color="#fff" stop-opacity="0.05"/><stop offset="1" stop-color="#fff"/></radialGradient><radialGradient id="radial-gradient-2" cx="1620.43" cy="2645.58" r="138.66" xlink:href="#radial-gradient"/><radialGradient id="radial-gradient-3" cx="1531.03" cy="2488.28" r="58.75" xlink:href="#radial-gradient"/><radialGradient id="radial-gradient-4" cx="1627.31" cy="2474.93" r="58.75" xlink:href="#radial-gradient"/><radialGradient id="radial-gradient-5" cx="506.74" cy="1179.49" r="109.93" xlink:href="#radial-gradient"/><radialGradient id="radial-gradient-6" cx="630.53" cy="1226.2" r="58.75" xlink:href="#radial-gradient"/><radialGradient id="radial-gradient-7" cx="382.95" cy="1246.22" r="58.75" xlink:href="#radial-gradient"/><radialGradient id="radial-gradient-8" cx="658.04" cy="1112.75" r="83.24" xlink:href="#radial-gradient"/></defs><g id="Layer_2" data-name="Layer 2"><rect class="cls-1" x="0.5" y="0.45" width="491" height="508"/></g><g id="Layer_5" data-name="Layer 5"><path class="cls-2" d="M198.5,42.45s-42,93-44,191-14,123,18,198,32,77,32,77,34-19,77-20,45-1,45-1,44-179,39-260-13-128-23-163l-10-35Z"/><path class="cls-3" d="M151.63,276c.59-12.32,1.15-26,1.46-41.4C155.09,135.73,197,42,197,42L334,28s-1,.7,9,36c2.79,9.85,10.34,31.41,12,54,.35,4.81-10.68,8.3-15.5,13.5-8.88,9.56-16.62,20.27-22,27-16,20-54,61-60,66l-80,41Z"/><path class="cls-4" d="M184,75s45,4,75-3,32-8,55-10c20.7-1.8,22-2,22-2h6l2,8s-42,4-68,9-49,10-68,8-26-4-26-4Z"/><path class="cls-5" d="M366,227s-50,26-64,53-30,47-32,76-6,61,23,48,58-27,58-27l-4,19-56,23s-36,21-35-20,2-72,24-104,28-54,56-66c17.32-7.42,24.31-10.26,27.12-11.34A13.73,13.73,0,0,1,365,217Z"/><path class="cls-6" d="M172.45,315.66l-.8-.56a17.55,17.55,0,0,1,2.93-2.87,6.31,6.31,0,0,1,3.46-1.1,4.14,4.14,0,0,1,2.83.92,3,3,0,0,1,1,2.36c0,2-1.53,4.19-4.61,6.47a5.37,5.37,0,0,1,2.41.56,3.63,3.63,0,0,1,1.33,1.5,5.11,5.11,0,0,1,.52,2.39q0,3.76-3.81,7a10.27,10.27,0,0,1-6.7,2.78,5.55,5.55,0,0,1-2.78-.71,2,2,0,0,1-1.24-1.73,1.09,1.09,0,0,1,1.07-1.08,2.12,2.12,0,0,1,1.35.72,6.78,6.78,0,0,0,1.49,1.19,2.72,2.72,0,0,0,1.21.34,5.27,5.27,0,0,0,3.4-1.8,7.86,7.86,0,0,0,2.77-5.78,3.58,3.58,0,0,0-.87-2.53,2.9,2.9,0,0,0-2.24-.95,6.84,6.84,0,0,0-2.26.45l.14-1.21a11,11,0,0,0,4.49-3.1,4.8,4.8,0,0,0,1.4-3.17,2.7,2.7,0,0,0-.61-1.89,2.13,2.13,0,0,0-1.67-.69Q174.46,313.18,172.45,315.66Z"/><path class="cls-6" d="M185.75,322.6l-.86-.67a15.13,15.13,0,0,1,3.56-3.05,5.81,5.81,0,0,1,2.74-.91,1.48,1.48,0,0,1,1,.27.91.91,0,0,1,.33.74,35.67,35.67,0,0,1-1.27,4.81q-2.06,6.93-2.06,8.36a.72.72,0,0,0,.14.46.36.36,0,0,0,.29.18c.42,0,1.48-.81,3.2-2.42l.76.74a25.47,25.47,0,0,1-3.9,3.23,4.46,4.46,0,0,1-2,.7,1.45,1.45,0,0,1-1.09-.43,1.66,1.66,0,0,1-.4-1.19q0-2.44,2.93-11.94a2.81,2.81,0,0,0,.14-.8c0-.26-.12-.39-.35-.39a1.8,1.8,0,0,0-.89.31A21.23,21.23,0,0,0,185.75,322.6Zm7.68-12.93a1.31,1.31,0,0,1,1,.4,1.41,1.41,0,0,1,.39,1,2.22,2.22,0,0,1-.59,1.52,1.81,1.81,0,0,1-1.34.65,1.31,1.31,0,0,1-1-.41,1.48,1.48,0,0,1-.39-1.07,2.13,2.13,0,0,1,.57-1.5A1.78,1.78,0,0,1,193.43,309.67Z"/><path class="cls-6" d="M195.3,322.66l-.66-.69a20.54,20.54,0,0,1,4-3.18,5.67,5.67,0,0,1,2.54-.78,1.08,1.08,0,0,1,.64.17.52.52,0,0,1,.24.41,4.16,4.16,0,0,1-.1.63l-.88,3.93a24.17,24.17,0,0,1,5-4.13,5.4,5.4,0,0,1,2.63-1,1.5,1.5,0,0,1,1.19.48,2.07,2.07,0,0,1,.43,1.41,6.63,6.63,0,0,1-.17,1.37q-.31,1.27-1.64,5.53a23.07,23.07,0,0,0-1.25,5.29,1.17,1.17,0,0,0,.12.6.38.38,0,0,0,.33.2c.38,0,1-.36,1.78-1.09.57-.52,1.15-1,1.72-1.45l.49.7a17.75,17.75,0,0,1-3.73,3.19,4.11,4.11,0,0,1-2,.78,1.38,1.38,0,0,1-1.16-.54,3,3,0,0,1-.41-1.75c0-1.16.73-4,2.17-8.65a21.47,21.47,0,0,0,.67-2.87c0-.4-.24-.61-.73-.61a4,4,0,0,0-2,.83,12.11,12.11,0,0,0-3.06,2.85,9.19,9.19,0,0,0-1.31,3.37l-1.59,6.82h-2.91c.55-1.95,1-3.83,1.43-5.61l1.74-7.43a4.14,4.14,0,0,0,.1-.65c0-.35-.13-.53-.39-.53a1.8,1.8,0,0,0-.9.42A11.59,11.59,0,0,0,195.3,322.66Z"/><path class="cls-6" d="M226.43,310.88h.64l-2.7,10.55-2.25,9.78a8,8,0,0,0-.33,1.66.62.62,0,0,0,.33.54,4.44,4.44,0,0,0,1.5.32c.59,0,1.16.13,1.72.23l-.39,1q-4.2-.45-5.86-.45a33.54,33.54,0,0,0-5.25.45l.33-1c.68-.18,1.45-.36,2.32-.54a3.18,3.18,0,0,0,1.76-.78,8.89,8.89,0,0,0,1.35-3.29l2.11-8.06a49.58,49.58,0,0,0,1-5.22c0-.45-.19-.68-.56-.68a23.35,23.35,0,0,0-3.93,1.56l-.39-1a59.8,59.8,0,0,0,6.21-3.22A23.9,23.9,0,0,0,226.43,310.88Z"/><g class="cls-7"><ellipse class="cls-8" cx="380.46" cy="276.85" rx="17.54" ry="18.08"/></g><g class="cls-7"><ellipse class="cls-9" cx="386.46" cy="242.17" rx="20.16" ry="20.78"/></g><g class="cls-7"><ellipse class="cls-10" cx="373.46" cy="218.6" rx="8.54" ry="8.8"/></g><g class="cls-7"><ellipse class="cls-11" cx="387.46" cy="216.6" rx="8.54" ry="8.8"/></g><g class="cls-7"><ellipse class="cls-12" cx="224.52" cy="22.47" rx="15.98" ry="16.47"/></g><g class="cls-7"><ellipse class="cls-13" cx="242.52" cy="29.47" rx="8.54" ry="8.8"/></g><g class="cls-7"><ellipse class="cls-14" cx="206.52" cy="32.47" rx="8.54" ry="8.8"/></g><g class="cls-7"><ellipse class="cls-15" cx="246.52" cy="12.47" rx="12.1" ry="12.47"/></g></g></svg>