<svg id="Layer_1" data-name="Layer 1" xmlns="http://www.w3.org/2000/svg" xmlns:xlink="http://www.w3.org/1999/xlink" width="487.98" height="347.17" viewBox="0 0 487.98 347.17"><defs><style>.cls-1{fill:#fffdd0;stroke:#000;stroke-miterlimit:10;}.cls-2{opacity:0.5;}.cls-3{fill:url(#radial-gradient);}.cls-4{fill:url(#radial-gradient-2);}.cls-5{fill:url(#radial-gradient-3);}.cls-6{fill:url(#radial-gradient-4);}.cls-7{fill:url(#radial-gradient-5);}.cls-8{fill:url(#radial-gradient-6);}.cls-9{fill:url(#radial-gradient-7);}.cls-10{fill:url(#radial-gradient-8);}.cls-11{fill:url(#radial-gradient-9);}.cls-12{fill:url(#radial-gradient-10);}</style><radialGradient id="radial-gradient" cx="1317.73" cy="1828.19" r="171.28" gradientTransform="translate(-96.34 -241.82) scale(0.15 0.15)" gradientUnits="userSpaceOnUse"><stop offset="0" stop-color="#fff" stop-opacity="0"/><stop offset="0.87" stop-color="#fff" stop-opacity="0.05"/><stop offset="1" stop-color="#fff"/></radialGradient><radialGradient id="radial-gradient-2" cx="1525.15" cy="1878.49" r="95.18" xlink:href="#radial-gradient"/><radialGradient id="radial-gradient-3" cx="1029.99" cy="1785.06" r="171.28" xlink:href="#radial-gradient"/><radialGradient id="radial-gradient-4" cx="858.11" cy="3768.92" r="115.76" xlink:href="#radial-gradient"/><radialGradient id="radial-gradient-5" cx="1023.16" cy="3802.29" r="88.25" xlink:href="#radial-gradient"/><radialGradient id="radial-gradient-6" cx="1023.16" cy="3788.94" r="40.11" xlink:href="#radial-gradient"/><radialGradient id="radial-gradient-7" cx="1174.46" cy="3842.33" r="88.25" xlink:href="#radial-gradient"/><radialGradient id="radial-gradient-8" cx="3237.16" cy="3737.09" r="171.28" xlink:href="#radial-gradient"/><radialGradient id="radial-gradient-9" cx="3498.5" cy="3677.03" r="110.9" xlink:href="#radial-gradient"/><radialGradient id="radial-gradient-10" cx="3044.6" cy="3677.03" r="123.11" xlink:href="#radial-gradient"/></defs><path class="cls-1" d="M105.76,60.3s175-59,239-36l64,23s41,6,49,42a204.14,204.14,0,0,1,3,68s16,68,22,81,20,54-65,54-113-4-184,12-165,29-189,13-39-39-31-89,2-72,2-72-35-54,1-82,48-22,48-22Z"/><path d="M186.77,163.2H185c.25-2.39.38-4.2.38-5.43a5.89,5.89,0,0,0-1.42-4.16,5,5,0,0,0-3.84-1.52,9.08,9.08,0,0,0-6.54,2.72,8.34,8.34,0,0,0-2.8,6.11,7,7,0,0,0,.77,3.28,19.86,19.86,0,0,0,3.39,4.11,38.56,38.56,0,0,1,6.31,7.39,10.64,10.64,0,0,1,1.49,5.2,12.84,12.84,0,0,1-2.27,7.18,16.87,16.87,0,0,1-6.7,5.69,20.32,20.32,0,0,1-9.35,2.24,13.17,13.17,0,0,1-8.18-2.52q-3.33-2.53-3.33-5.34a3.63,3.63,0,0,1,.87-2.49,2.59,2.59,0,0,1,2-1,2.34,2.34,0,0,1,1.91.92,6.61,6.61,0,0,1,1,2.46,9.37,9.37,0,0,0,1.33,3.37,5.9,5.9,0,0,0,2.17,1.71,6.93,6.93,0,0,0,3,.66,12.36,12.36,0,0,0,8.54-3.3q3.66-3.3,3.66-7.3a8.58,8.58,0,0,0-.46-2.72,12.27,12.27,0,0,0-1.69-3.06,44.82,44.82,0,0,0-3.8-4.11,38,38,0,0,1-3.66-3.93,12.41,12.41,0,0,1-1.57-3.1,9.85,9.85,0,0,1-.51-3.09,11.27,11.27,0,0,1,2.08-6.26,15.42,15.42,0,0,1,5.42-5,15.17,15.17,0,0,1,7.57-1.87,26.61,26.61,0,0,1,5.23.65c1.19.23,2.21.4,3.08.51a36.26,36.26,0,0,0-1.16,4.19C187.62,156.7,187.25,159.31,186.77,163.2Z"/><path d="M199.31,157l5.43-2.08-2.46,9.56h7.08l-.55,2.43h-7.08l-3,11.45a32.25,32.25,0,0,0-1.42,7.18,1.89,1.89,0,0,0,.39,1.33,1.43,1.43,0,0,0,1.08.41,7.65,7.65,0,0,0,3.25-1.26,43.34,43.34,0,0,0,5.46-3.8l1.3,1.57a86.67,86.67,0,0,1-10,6.91,9.85,9.85,0,0,1-4.07,1.26,2.41,2.41,0,0,1-2-.92,4.88,4.88,0,0,1-.73-3,33.56,33.56,0,0,1,1.3-7.52l3.48-13.6h-5.54l.61-2.43h5.55Z"/><path d="M235.44,161.63l2.26-.48-2.57,8.65q-1.53,5.16-2.9,11.89a32.16,32.16,0,0,0-.76,4.72c0,.71.29,1.06.86,1.06a4.11,4.11,0,0,0,1.74-.72,22.2,22.2,0,0,0,4.07-3.14l1.09,1.33c-2.59,2.37-4.26,3.81-5,4.31a18.93,18.93,0,0,1-4.17,2.22,7.25,7.25,0,0,1-2.53.48,1.92,1.92,0,0,1-1.33-.41,1.56,1.56,0,0,1-.44-1.2,5.15,5.15,0,0,1,.27-1.4l1.37-4.65a29.06,29.06,0,0,1-7,6.05,8.73,8.73,0,0,1-4.58,1.57,3.56,3.56,0,0,1-3-1.4,7.86,7.86,0,0,1-1.44-4.92,20.64,20.64,0,0,1,1.93-8.07,29.92,29.92,0,0,1,5.18-8.06,22.09,22.09,0,0,1,6.84-5.34,16.86,16.86,0,0,1,7.11-1.29,18.6,18.6,0,0,1,2.22.13Zm-4.24,5.23a16.17,16.17,0,0,0-3.11-.38,8.8,8.8,0,0,0-5.37,1.7q-2.28,1.68-4.25,6.08a21.33,21.33,0,0,0-2,8.77,5.61,5.61,0,0,0,.79,3.35,2.47,2.47,0,0,0,2.05,1q2.35,0,5.06-2.55a15.06,15.06,0,0,0,4-7.33Z"/><path d="M247.85,191h-5.1l2.4-9.2q1.74-6.76,3-12.85a14.6,14.6,0,0,0,.31-1.88c0-.55-.25-.82-.76-.82a3.4,3.4,0,0,0-1.57.7,33.22,33.22,0,0,0-3.83,3.47l-1.06-1.2a26.36,26.36,0,0,1,6.55-5.28,11.91,11.91,0,0,1,5-1.76,1.55,1.55,0,0,1,1,.29.92.92,0,0,1,.36.74,15.62,15.62,0,0,1-.45,2.37l-1.49,6.15a43.76,43.76,0,0,1,7.81-9.34c1.39-1.23,2.55-1.85,3.49-1.85a2.33,2.33,0,0,1,1.71.67,2.08,2.08,0,0,1,.69,1.55,2.12,2.12,0,0,1-.67,1.58,10.15,10.15,0,0,1-3.33,1.53,14.45,14.45,0,0,0-4.11,2.06,19.35,19.35,0,0,0-3.49,3.65,20.38,20.38,0,0,0-2.65,4.29,72.66,72.66,0,0,0-2.29,8.5Z"/><path d="M272.08,157l5.43-2.08-2.46,9.56h7.08l-.55,2.43H274.5l-3,11.45a32.25,32.25,0,0,0-1.42,7.18,1.89,1.89,0,0,0,.39,1.33,1.43,1.43,0,0,0,1.08.41,7.62,7.62,0,0,0,3.24-1.26,42.73,42.73,0,0,0,5.47-3.8l1.3,1.57a87.58,87.58,0,0,1-10,6.91,9.85,9.85,0,0,1-4.07,1.26,2.41,2.41,0,0,1-2-.92,4.88,4.88,0,0,1-.73-3,34,34,0,0,1,1.29-7.52l3.48-13.6H264l.61-2.43h5.55Z"/><g class="cls-2"><ellipse class="cls-3" cx="95.26" cy="32.13" rx="24.91" ry="25.67"/></g><g class="cls-2"><ellipse class="cls-4" cx="125.42" cy="39.67" rx="13.84" ry="14.26"/></g><g class="cls-2"><ellipse class="cls-5" cx="53.42" cy="25.67" rx="24.91" ry="25.67"/></g><g class="cls-2"><ellipse class="cls-6" cx="28.43" cy="322.95" rx="16.83" ry="17.35"/></g><g class="cls-2"><ellipse class="cls-7" cx="52.43" cy="327.95" rx="12.83" ry="13.22"/></g><g class="cls-2"><ellipse class="cls-8" cx="52.43" cy="325.95" rx="5.83" ry="6.01"/></g><g class="cls-2"><ellipse class="cls-9" cx="74.43" cy="333.95" rx="12.83" ry="13.22"/></g><g class="cls-2"><ellipse class="cls-10" cx="374.36" cy="318.18" rx="24.91" ry="25.67"/></g><g class="cls-2"><ellipse class="cls-11" cx="412.36" cy="309.18" rx="16.13" ry="16.62"/></g><g class="cls-2"><ellipse class="cls-12" cx="346.36" cy="309.18" rx="17.9" ry="18.45"/></g></svg>