<svg xmlns="http://www.w3.org/2000/svg" width="667.25" height="368.74" viewBox="0 0 667.25 368.74"><defs><style>.cls-1,.cls-5{fill:silver;}.cls-2{fill:#794d2a;}.cls-3{fill:#c68958;}.cls-4,.cls-5{stroke:#000;stroke-miterlimit:10;}.cls-6{fill:#fdd023;}</style></defs><g id="Layer_3" data-name="Layer 3"><path class="cls-1" d="M301.25,288.22l-2-105s-7-49,24-54c6.22-1,12-7.52,29-9,67.89-5.88,205-9,205-9l58,4s15-2,15,17v34h19l8,3,10,17-40,4,3,71-41,9-10,30-22-2-13-27-170,12-14,32-24,4-13-33Z"/><g id="Layer_2" data-name="Layer 2"><ellipse cx="593.25" cy="229.22" rx="15" ry="14"/><circle class="cls-1" cx="593.75" cy="229.72" r="8.5"/></g><line class="cls-1" x1="627.25" y1="190.22" x2="630.25" y2="166.22"/><line class="cls-1" x1="544.25" y1="271.22" x2="589.25" y2="270.22"/><line class="cls-1" x1="323.25" y1="286.22" x2="374.25" y2="283.22"/><path class="cls-2" d="M364.29,120l4-33.73s0-6-9-10-2-12-2-12l10-5,94-1,34,6s30,12,19,19-11,5-11,5v23l.5,1.5"/><path class="cls-3" d="M557.75,110.22l-55.64,2.31-.36-23.31,11-6c11-6-19-19-19-19l-19-4,75-5s17-1,18,10-12,15-12,15l2,29"/><path class="cls-3" d="M369.05,118.9l3.2-23.18s5-13-6-20-4-10-4-10l6-4h92l22,3,12,2,15,9s5,3-2,7-9,3-9,11,1,18,1,18c.5,1,.07,1.19.07,1.19"/><path class="cls-2" d="M481.75,61.72l51-2,23-1s14,4,7,10-8,6-8,6-4,0-3,18l1,18h5l-2-30s13-7,12-13-.77-7.24-3.88-9.12-2.12-3.88-20.12-2.88-70.3,4.81-70.3,4.81Z"/><polygon class="cls-2" points="394.75 80.72 393.75 83.72 394.75 83.72 396.75 81.72 394.75 80.72"/><polygon class="cls-2" points="405.48 99.78 404.48 102.78 405.48 102.78 407.48 100.78 405.48 99.78"/><polygon class="cls-2" points="427.48 93.22 426.48 96.22 427.48 96.22 429.48 94.22 427.48 93.22"/><polygon class="cls-2" points="459.35 97.03 458.35 100.03 459.35 100.03 461.35 98.03 459.35 97.03"/><polygon class="cls-2" points="452.35 81.22 451.35 84.22 452.35 84.22 454.35 82.22 452.35 81.22"/><polygon class="cls-2" points="482.35 80.22 481.35 83.22 482.35 83.22 484.35 81.22 482.35 80.22"/><polygon class="cls-2" points="441.35 106.22 440.35 109.22 441.35 109.22 443.35 107.22 441.35 106.22"/><polygon class="cls-2" points="423.35 74.22 422.35 77.22 423.35 77.22 425.35 75.22 423.35 74.22"/><polygon class="cls-2" points="519.96 103.22 518.96 106.22 519.96 106.22 521.96 104.22 519.96 103.22"/><polygon class="cls-2" points="543.21 102.22 542.21 105.22 543.21 105.22 545.21 103.22 543.21 102.22"/><polygon class="cls-2" points="533.79 90.22 532.79 93.22 533.79 93.22 535.79 91.22 533.79 90.22"/><polygon class="cls-2" points="547.57 68.22 546.57 71.22 547.57 71.22 549.57 69.22 547.57 68.22"/><polygon class="cls-2" points="506.06 88.23 505.06 91.23 506.06 91.23 508.06 89.23 506.06 88.23"/><polygon class="cls-2" points="521.79 79.22 520.79 82.22 521.79 82.22 523.79 80.22 521.79 79.22"/><polygon class="cls-2" points="526.82 66.22 525.82 69.22 526.82 69.22 528.82 67.22 526.82 66.22"/><path class="cls-4" d="M301.25,288.22s-2.5,1.5-14.5,23.5-42,43-42,43-20,11-43,3-19-26-14-44,3-50,3-50l-20-27,4-9-1.54-1.23c6.2,4.27,21,11.86,32.54-2.77,10.16-12.86,12.06-16.09,12.23-16.84l14.77,9.84,3-5-78-41-3,5,17,10s-17,17-7,32c1,1.46,1.69,2.56,2.21,3.39.78,1.21,1.13,1.83,1.28,2.13v0c.12-.08.81.29,1.35.61-1.6,1.12-15.7,11.82,4.15,27.89,21,17,10,41,3,74s23,41,23,41,11,4,43-1,63.83-76.9,63.83-76.9Z"/><path class="cls-4" d="M168.24,223.24c-.05.1.25.48,0,0Z"/><polygon class="cls-5" points="185.66 185.08 197.25 155.22 202.25 157.22 190.61 188.1 185.66 185.08"/><polygon class="cls-5" points="196.78 191.12 208.37 161.26 213.37 163.26 201.73 194.14 196.78 191.12"/><path class="cls-6" d="M251.75,93.72l-28,36,34-2s-45,55-42,52,90-73,90-73l-51,7,29-66Z"/><path class="cls-6" d="M88.78,196.36l-45.55,2.37L67,223.14S-4,225.08.18,225.39s114.09,20.32,114.09,20.32l-38.66-34,68.9-21.23Z"/><path class="cls-6" d="M145.48,85.2l-7.19-45-21.75,26.2S107.08-4.06,107.22.18s-8.11,115.6-8.11,115.6l29.71-42L157.24,140Z"/></g></svg>