<svg id="Lag_1" data-name="Lag 1" xmlns="http://www.w3.org/2000/svg" viewBox="0 0 1920 1080"><defs><style>.cls-1{fill:#fff;}.cls-2{fill:#bfb39d;}.cls-3{fill:#877d6f;}.cls-4{fill:#939393;}</style></defs><g id="welcome"><g id="Lag_3" data-name="Lag 3"><rect width="1920" height="1080"/><ellipse class="cls-1" cx="971" cy="539" rx="780" ry="540"/><ellipse class="cls-2" cx="1290.87" cy="563.76" rx="277.69" ry="185.24"/><ellipse cx="1189.16" cy="515.95" rx="6.86" ry="5.98"/><path d="M1168,506.21s17.59-5.76,26.27-2.54,10.67,6.48,10.67,6.48Z"/><ellipse cx="1374.29" cy="519.54" rx="6.86" ry="5.98"/><path d="M1395.44,509.79s-17.59-5.75-26.27-2.54-10.67,6.49-10.67,6.49Z"/><path class="cls-3" d="M1277.76,513.56s-13.69,22.84,0,29.05l13.68,6.21Z"/><path class="cls-4" d="M1022.52,516s-76.2-96.2-41.91-115.33,48-10.75,48-10.75l26.29,8.36s-18.29-58.56,11.42-71.7,40-7.17,40-7.17l16,10.75s3.43-43,25.14-52.58,44.57-27.49,68.57-6l24,21.51s21.72-59.75,59.43-58.56,51.42,9.56,51.42,9.56,13.72,5,16.57,19.22l2.86,14.25s54.85-50.2,85.71-26.3,24,38.25,24,38.25l.65,20.11s54.21-18.92,78.2,1.4,21.83,42.86,21.83,42.86l-16.11,30s33.14,1.2,41.14,27.49c4.47,14.72-4.28,26.73-1.15,40.63,2.47,10.95-46.24,61.73-46.24,61.73s-20.68-48.67-59.21-72.53-57.75-35.77-87-44.15-89.81-20.34-121.23-18.55-95.73,4.15-149.86,29.27-79,51-79,51-15.29,13.48-24.91,29.63A270.92,270.92,0,0,0,1022.52,516Z"/><path d="M1242.87,592.44c4.57,1.2,19.09,19.08,38.69,13.72a135,135,0,0,0,32.94-13.72v-6s-16.34,12.25-25.13,13.3-29.95.22-34.23-3S1242.87,592.44,1242.87,592.44Z"/><path d="M1437.77,459.84s-44.52-24.19-53.73-24.47-12.18,2-12.18,2Z"/><path d="M1120.31,460.51S1164.83,436.32,1174,436s12.19,2,12.19,2Z"/><text/><text/></g></g></svg>